<svg width="260" height="260" viewBox="0 0 260 260" fill="none" xmlns="http://www.w3.org/2000/svg">
<circle cx="130" cy="130" r="125" fill="white" stroke="#FFBB00" stroke-width="10"/>
<path d="M85.68 148.6H91.28L101.72 177H96.04L93.4 169.92H83.48L80.88 177H75.2L85.68 148.6ZM92.4 166.04L88.48 154.32L84.4 166.04H92.4ZM111.723 177.4C109.936 177.4 108.229 177.107 106.603 176.52C104.976 175.933 103.576 175.067 102.403 173.92L104.323 170.44C105.576 171.453 106.803 172.2 108.003 172.68C109.229 173.16 110.403 173.4 111.523 173.4C112.563 173.4 113.389 173.213 114.003 172.84C114.643 172.467 114.963 171.907 114.963 171.16C114.963 170.653 114.789 170.267 114.443 170C114.096 169.707 113.589 169.453 112.923 169.24C112.283 169.027 111.496 168.787 110.563 168.52C109.016 168.013 107.723 167.52 106.683 167.04C105.643 166.56 104.856 165.96 104.323 165.24C103.816 164.493 103.563 163.547 103.563 162.4C103.563 161.013 103.909 159.827 104.603 158.84C105.323 157.827 106.309 157.04 107.563 156.48C108.843 155.92 110.336 155.64 112.043 155.64C113.536 155.64 114.949 155.88 116.283 156.36C117.616 156.813 118.829 157.56 119.923 158.6L117.763 162C116.696 161.173 115.683 160.573 114.723 160.2C113.763 159.8 112.789 159.6 111.803 159.6C111.243 159.6 110.709 159.667 110.203 159.8C109.723 159.933 109.323 160.16 109.003 160.48C108.709 160.773 108.563 161.2 108.563 161.76C108.563 162.267 108.696 162.667 108.963 162.96C109.256 163.227 109.683 163.467 110.243 163.68C110.829 163.893 111.536 164.133 112.363 164.4C114.043 164.88 115.456 165.373 116.603 165.88C117.776 166.387 118.656 167.013 119.243 167.76C119.829 168.48 120.123 169.48 120.123 170.76C120.123 172.84 119.363 174.467 117.843 175.64C116.323 176.813 114.283 177.4 111.723 177.4ZM131.488 177.4C129.701 177.4 127.995 177.107 126.368 176.52C124.741 175.933 123.341 175.067 122.168 173.92L124.088 170.44C125.341 171.453 126.568 172.2 127.768 172.68C128.995 173.16 130.168 173.4 131.288 173.4C132.328 173.4 133.155 173.213 133.768 172.84C134.408 172.467 134.728 171.907 134.728 171.16C134.728 170.653 134.555 170.267 134.208 170C133.861 169.707 133.355 169.453 132.688 169.24C132.048 169.027 131.261 168.787 130.328 168.52C128.781 168.013 127.488 167.52 126.448 167.04C125.408 166.56 124.621 165.96 124.088 165.24C123.581 164.493 123.328 163.547 123.328 162.4C123.328 161.013 123.675 159.827 124.368 158.84C125.088 157.827 126.075 157.04 127.328 156.48C128.608 155.92 130.101 155.64 131.808 155.64C133.301 155.64 134.715 155.88 136.048 156.36C137.381 156.813 138.595 157.56 139.688 158.6L137.528 162C136.461 161.173 135.448 160.573 134.488 160.2C133.528 159.8 132.555 159.6 131.568 159.6C131.008 159.6 130.475 159.667 129.968 159.8C129.488 159.933 129.088 160.16 128.768 160.48C128.475 160.773 128.328 161.2 128.328 161.76C128.328 162.267 128.461 162.667 128.728 162.96C129.021 163.227 129.448 163.467 130.008 163.68C130.595 163.893 131.301 164.133 132.128 164.4C133.808 164.88 135.221 165.373 136.368 165.88C137.541 166.387 138.421 167.013 139.008 167.76C139.595 168.48 139.888 169.48 139.888 170.76C139.888 172.84 139.128 174.467 137.608 175.64C136.088 176.813 134.048 177.4 131.488 177.4ZM143.534 177V156.04H148.894V177H143.534ZM143.534 153.12V147.8H148.894V153.12H143.534ZM161.929 177.12C160.542 177.12 159.262 176.853 158.089 176.32C156.942 175.76 155.942 174.987 155.089 174C154.262 173.013 153.622 171.88 153.169 170.6C152.716 169.32 152.489 167.96 152.489 166.52C152.489 165 152.729 163.587 153.209 162.28C153.689 160.973 154.356 159.827 155.209 158.84C156.089 157.827 157.116 157.053 158.289 156.52C159.489 155.96 160.809 155.68 162.249 155.68C163.876 155.68 165.302 156.053 166.529 156.8C167.756 157.52 168.769 158.493 169.569 159.72V156.04H174.249V176C174.249 178.08 173.742 179.853 172.729 181.32C171.742 182.813 170.369 183.947 168.609 184.72C166.849 185.52 164.849 185.92 162.609 185.92C160.342 185.92 158.422 185.533 156.849 184.76C155.276 184.013 153.929 182.947 152.809 181.56L155.729 178.72C156.529 179.707 157.529 180.48 158.729 181.04C159.956 181.6 161.249 181.88 162.609 181.88C163.756 181.88 164.796 181.667 165.729 181.24C166.689 180.84 167.449 180.2 168.009 179.32C168.596 178.467 168.889 177.36 168.889 176V173.36C168.196 174.56 167.209 175.493 165.929 176.16C164.676 176.8 163.342 177.12 161.929 177.12ZM163.729 172.84C164.316 172.84 164.876 172.747 165.409 172.56C165.942 172.373 166.436 172.12 166.889 171.8C167.342 171.48 167.742 171.107 168.089 170.68C168.436 170.227 168.702 169.773 168.889 169.32V164.32C168.569 163.493 168.116 162.773 167.529 162.16C166.969 161.547 166.329 161.08 165.609 160.76C164.916 160.413 164.182 160.24 163.409 160.24C162.582 160.24 161.836 160.413 161.169 160.76C160.502 161.107 159.929 161.6 159.449 162.24C158.969 162.853 158.596 163.547 158.329 164.32C158.089 165.067 157.969 165.853 157.969 166.68C157.969 167.533 158.116 168.333 158.409 169.08C158.702 169.827 159.102 170.48 159.609 171.04C160.142 171.6 160.756 172.04 161.449 172.36C162.169 172.68 162.929 172.84 163.729 172.84ZM198.561 177H193.201V165.24C193.201 163.56 192.907 162.333 192.321 161.56C191.734 160.787 190.921 160.4 189.881 160.4C189.161 160.4 188.427 160.587 187.681 160.96C186.961 161.333 186.307 161.853 185.721 162.52C185.134 163.16 184.707 163.907 184.441 164.76V177H179.081V156.04H183.921V159.92C184.454 159.013 185.134 158.253 185.961 157.64C186.787 157 187.734 156.52 188.801 156.2C189.894 155.853 191.041 155.68 192.241 155.68C193.547 155.68 194.614 155.92 195.441 156.4C196.294 156.853 196.934 157.48 197.361 158.28C197.814 159.053 198.121 159.933 198.281 160.92C198.467 161.907 198.561 162.907 198.561 163.92V177Z" fill="#0088BB"/>
<g filter="url(#filter0_d_16_111)">
<path d="M122.382 120C121.737 120 121.131 119.687 120.757 119.159C112.21 107.041 89.2779 94.5953 89.048 94.4718C88.4484 94.1469 88.0553 93.5398 88.0053 92.8618C87.9557 92.1809 88.2589 91.5242 88.8061 91.1156L107.436 77.2844C107.792 77.0217 108.209 76.8933 108.621 76.8933C109.192 76.8933 109.758 77.1394 110.151 77.6122C110.457 77.9789 116.892 85.7817 122.268 95.8356C127.535 84.1503 143.9 53.3787 164.208 46.1168C164.425 46.038 164.653 46 164.878 46C165.34 46 165.795 46.1615 166.16 46.4669C166.703 46.9251 166.961 47.6343 166.84 48.3338C164.099 64.1175 167.823 73.8289 167.861 73.9262C168.219 74.8348 167.866 75.8757 167.025 76.3758C166.769 76.5275 141.291 91.8414 124.064 119.073C123.709 119.635 123.095 119.983 122.432 120C122.415 120 122.399 120 122.382 120Z" fill="#88BB00"/>
<path d="M164.892 47.9854C162.006 64.6141 166.024 74.6584 166.024 74.6584C166.024 74.6584 140.096 90.0193 122.383 118.015C113.459 105.365 89.9815 92.7184 89.9815 92.7184L108.619 78.8832C108.619 78.8832 116.864 88.8205 122.448 100.607C122.863 98.1312 141.619 56.3056 164.892 47.9854ZM164.891 44C164.442 44 163.989 44.0758 163.552 44.2325C152.93 48.0292 142.233 58.1524 131.757 74.3198C127.83 80.3797 124.442 86.5807 122.074 91.4126C117.101 82.9046 111.956 76.6677 111.683 76.3369C110.897 75.3911 109.763 74.8977 108.617 74.8977C107.791 74.8977 106.958 75.1537 106.247 75.682L87.6095 89.5172C86.5154 90.3297 85.9121 91.6452 86.0104 93.0054C86.1085 94.3657 86.895 95.581 88.0941 96.227C88.3207 96.3497 110.857 108.585 119.131 120.313C119.878 121.372 121.092 122 122.383 122C122.417 122 122.45 122 122.484 121.999C123.812 121.965 125.037 121.27 125.748 120.146C142.752 93.271 167.801 78.2372 168.053 78.0883C169.729 77.0948 170.433 75.0145 169.729 73.197C169.693 73.1045 166.188 63.8094 168.815 48.6674C169.057 47.2703 168.54 45.8496 167.457 44.937C166.727 44.322 165.816 44 164.891 44Z" fill="white"/>
</g>
<defs>
<filter id="filter0_d_16_111" x="81.5" y="39.5" width="94" height="88" filterUnits="userSpaceOnUse" color-interpolation-filters="sRGB">
<feFlood flood-opacity="0" result="BackgroundImageFix"/>
<feColorMatrix in="SourceAlpha" type="matrix" values="0 0 0 0 0 0 0 0 0 0 0 0 0 0 0 0 0 0 127 0" result="hardAlpha"/>
<feOffset dx="0.5" dy="0.5"/>
<feGaussianBlur stdDeviation="2.5"/>
<feColorMatrix type="matrix" values="0 0 0 0 0 0 0 0 0 0 0 0 0 0 0 0 0 0 0.2 0"/>
<feBlend mode="normal" in2="BackgroundImageFix" result="effect1_dropShadow_16_111"/>
<feBlend mode="normal" in="SourceGraphic" in2="effect1_dropShadow_16_111" result="shape"/>
</filter>
</defs>
</svg>
