<svg width="260" height="260" viewBox="0 0 260 260" fill="none" xmlns="http://www.w3.org/2000/svg">
<circle cx="130" cy="130" r="130" fill="white"/>
<circle cx="130" cy="130" r="125" stroke="#FF8888" stroke-opacity="0.5" stroke-width="10" stroke-dasharray="10 10"/>
<path d="M82.041 75.8125C81.4941 75.6562 80.9277 75.4219 80.3418 75.1094C79.7949 74.7578 79.2871 74.3672 78.8184 73.9375C78.3887 73.4688 78.0566 72.9609 77.8223 72.4141C77.5879 71.8672 77.5293 71.2812 77.6465 70.6562C77.8809 69.3672 78.623 68.1562 79.873 67.0234C81.123 65.8906 82.8027 64.9922 84.9121 64.3281V64.1523C84.9512 63.7227 85.2246 63.293 85.7324 62.8633C86.2793 62.3945 86.9434 62.082 87.7246 61.9258C88.4668 61.7695 88.9941 61.7695 89.3066 61.9258C89.6582 62.082 89.834 62.2969 89.834 62.5703C89.834 62.6484 89.8145 62.7461 89.7754 62.8633C89.7754 62.9414 89.7754 63.0195 89.7754 63.0977V63.3906C91.6895 63.2344 93.8184 63.293 96.1621 63.5664C98.9746 63.918 101.26 64.582 103.018 65.5586C104.775 66.5352 106.104 67.668 107.002 68.957C107.9 70.207 108.447 71.5156 108.643 72.8828C108.877 74.25 108.877 75.5 108.643 76.6328C108.408 77.9609 107.979 79.1719 107.354 80.2656C106.729 81.3203 105.986 82.2773 105.127 83.1367C104.268 83.957 103.311 84.6797 102.256 85.3047C101.201 85.9297 100.088 86.457 98.916 86.8867C100.166 87.1602 101.221 87.6094 102.08 88.2344C102.979 88.8203 103.701 89.5234 104.248 90.3438C104.795 91.1641 105.186 92.082 105.42 93.0977C105.654 94.1133 105.732 95.1484 105.654 96.2031C105.576 97.8438 105.146 99.3867 104.365 100.832C103.623 102.238 102.607 103.469 101.318 104.523C100.029 105.578 98.4863 106.398 96.6895 106.984C94.9316 107.57 92.9785 107.824 90.8301 107.746H90.127C89.541 108.254 88.8965 108.625 88.1934 108.859C87.5293 109.133 86.8848 109.328 86.2598 109.445C85.5566 109.602 84.8535 109.66 84.1504 109.621C84.1504 109.348 84.1504 109.055 84.1504 108.742C84.1895 108.469 84.209 108.195 84.209 107.922C84.209 107.609 84.2285 107.297 84.2676 106.984C83.7988 106.906 83.3496 106.789 82.9199 106.633C82.5293 106.516 82.1191 106.379 81.6895 106.223C81.2988 106.105 80.9473 105.969 80.6348 105.812C80.4785 105.578 80.3613 105.285 80.2832 104.934C80.2051 104.621 80.1465 104.27 80.1074 103.879C80.1074 103.527 80.1855 103.117 80.3418 102.648C81.5527 103.117 82.9395 103.469 84.502 103.703C84.5801 101.711 84.6387 99.3477 84.6777 96.6133C84.7559 93.8789 84.7949 91.0078 84.7949 88C84.7949 84.6016 84.7949 81.2617 84.7949 77.9805C84.834 74.6992 84.8535 71.8867 84.8535 69.543C83.7207 70.1289 82.8418 70.9297 82.2168 71.9453C81.5918 72.9609 81.5332 74.25 82.041 75.8125ZM100.088 96.4961C100.244 94.7773 99.9902 93.4102 99.3262 92.3945C98.6621 91.3398 97.7832 90.5586 96.6895 90.0508C95.6348 89.5039 94.4629 89.1719 93.1738 89.0547C91.9238 88.9375 90.791 88.918 89.7754 88.9961C89.8535 92.2383 89.9121 95.1875 89.9512 97.8438C89.9902 100.461 90.0293 102.609 90.0684 104.289C91.2793 104.328 92.4512 104.191 93.584 103.879C94.7168 103.566 95.7324 103.078 96.6309 102.414C97.5684 101.75 98.3496 100.93 98.9746 99.9531C99.5996 98.9375 99.9707 97.7852 100.088 96.4961ZM89.6582 68.1953C89.5801 70.1875 89.541 72.5508 89.541 75.2852C89.541 78.0195 89.5801 81.0664 89.6582 84.4258C89.6582 84.7383 89.6582 85.0508 89.6582 85.3633C89.6582 85.6367 89.6777 85.9297 89.7168 86.2422C91.123 86.125 92.5879 85.793 94.1113 85.2461C95.6348 84.6602 97.0215 83.8984 98.2715 82.9609C99.5605 82.0234 100.615 80.9297 101.436 79.6797C102.256 78.3906 102.666 76.9844 102.666 75.4609C102.666 74.2891 102.354 73.2539 101.729 72.3555C101.104 71.418 100.264 70.6367 99.209 70.0117C98.1934 69.3867 97.002 68.918 95.6348 68.6055C94.3066 68.293 92.9199 68.1367 91.4746 68.1367C91.1621 68.1367 90.8496 68.1367 90.5371 68.1367C90.2637 68.1367 89.9707 68.1562 89.6582 68.1953ZM118.311 65.0312C118.232 66.4375 118.096 68.0586 117.9 69.8945C117.705 71.7305 117.49 73.7031 117.256 75.8125C117.061 77.9219 116.846 80.1289 116.611 82.4336C116.416 84.7383 116.24 87.0625 116.084 89.4062C115.928 91.75 115.85 93.6641 115.85 95.1484C115.889 96.5938 115.986 97.7852 116.143 98.7227C116.299 99.6602 116.514 100.402 116.787 100.949C117.061 101.496 117.412 102.023 117.842 102.531C117.334 102.844 116.865 103.078 116.436 103.234C116.006 103.391 115.635 103.508 115.322 103.586C114.932 103.703 114.58 103.762 114.268 103.762C113.682 103.762 113.174 103.488 112.744 102.941C112.314 102.355 111.963 101.613 111.689 100.715C111.455 99.8164 111.26 98.8203 111.104 97.7266C110.986 96.5938 110.928 95.4805 110.928 94.3867C110.928 93.2148 110.967 91.8672 111.045 90.3438C111.123 88.7812 111.201 87.1406 111.279 85.4219C111.396 83.6641 111.514 81.8477 111.631 79.9727C111.748 78.0586 111.846 76.1641 111.924 74.2891C112.002 72.8438 112.08 71.5352 112.158 70.3633C112.236 69.3477 112.295 68.4297 112.334 67.6094C112.373 66.75 112.354 66.2422 112.275 66.0859C112.51 65.7734 112.803 65.5391 113.154 65.3828C113.506 65.2266 113.838 65.0898 114.15 64.9727C114.541 64.8555 114.932 64.7578 115.322 64.6797H116.436C116.748 64.6797 117.08 64.7188 117.432 64.7969C117.783 64.8359 118.076 64.9141 118.311 65.0312ZM128.916 103.645C126.182 103.645 124.072 102.727 122.588 100.891C121.104 99.0547 120.361 96.6523 120.361 93.6836C120.361 91.6133 120.654 89.6797 121.24 87.8828C121.865 86.0469 122.686 84.4648 123.701 83.1367C124.717 81.8086 125.889 80.7734 127.217 80.0312C128.584 79.25 130.01 78.8594 131.494 78.8594C132.939 78.8594 134.17 79.3867 135.186 80.4414C136.201 81.457 136.709 82.9219 136.709 84.8359C136.709 86.0859 136.436 87.3359 135.889 88.5859C135.342 89.7969 134.619 90.8906 133.721 91.8672C132.861 92.8047 131.904 93.5664 130.85 94.1523C129.795 94.7383 128.779 95.0312 127.803 95.0312C127.178 95.0312 126.65 94.9531 126.221 94.7969C125.791 94.6406 125.4 94.4062 125.049 94.0938C125.166 96.3203 125.654 97.8828 126.514 98.7812C127.373 99.6406 128.486 100.07 129.854 100.07C130.791 100.07 131.611 99.875 132.314 99.4844C133.057 99.0938 133.682 98.6445 134.189 98.1367C134.697 97.6289 135.107 97.1211 135.42 96.6133C135.732 96.0664 135.947 95.6562 136.064 95.3828C136.182 95.1484 136.377 95.0312 136.65 95.0312C136.963 95.0312 137.119 95.2656 137.119 95.7344C137.119 96.1641 136.963 96.8281 136.65 97.7266C136.377 98.5859 135.908 99.4648 135.244 100.363C134.58 101.223 133.721 101.984 132.666 102.648C131.65 103.312 130.4 103.645 128.916 103.645ZM131.611 81.3789C131.377 81.3789 130.928 81.6328 130.264 82.1406C129.639 82.6094 128.955 83.3125 128.213 84.25C127.51 85.1875 126.846 86.3203 126.221 87.6484C125.635 88.9375 125.264 90.4023 125.107 92.043C127.451 91.4961 129.307 90.6367 130.674 89.4648C132.041 88.293 132.725 86.5742 132.725 84.3086C132.725 83.1758 132.588 82.4141 132.314 82.0234C132.041 81.5938 131.807 81.3789 131.611 81.3789ZM157.451 100.012C157.529 100.285 157.646 100.539 157.803 100.773C157.92 100.969 158.076 101.164 158.271 101.359C158.506 101.516 158.779 101.613 159.092 101.652C158.818 102.199 158.545 102.57 158.271 102.766C158.115 102.883 157.979 102.961 157.861 103C157.51 103.117 156.982 103.176 156.279 103.176C155.576 103.176 154.893 102.961 154.229 102.531C153.994 102.336 153.779 102.043 153.584 101.652C153.389 101.34 153.213 100.91 153.057 100.363C152.939 99.7773 152.842 99.0352 152.764 98.1367C152.217 99.3086 151.592 100.246 150.889 100.949C150.225 101.613 149.561 102.102 148.896 102.414C148.154 102.844 147.393 103.098 146.611 103.176C145.635 103.254 144.697 103.098 143.799 102.707C142.939 102.277 142.197 101.652 141.572 100.832C140.986 99.9727 140.537 98.9375 140.225 97.7266C139.912 96.5156 139.814 95.1484 139.932 93.625C140.049 92.0234 140.361 90.5977 140.869 89.3477C141.377 88.0977 141.982 86.9844 142.686 86.0078C143.389 85.0312 144.131 84.2109 144.912 83.5469C145.693 82.8438 146.436 82.2773 147.139 81.8477C147.881 81.3789 148.506 81.0469 149.014 80.8516C149.561 80.6172 149.912 80.4805 150.068 80.4414C150.498 80.3242 150.869 80.2852 151.182 80.3242C151.494 80.3633 151.768 80.5391 152.002 80.8516C152.08 80.9688 152.178 81.1055 152.295 81.2617C152.373 81.418 152.471 81.6328 152.588 81.9062C152.705 82.1406 152.803 82.4141 152.881 82.7266C151.943 83.1562 151.064 83.6445 150.244 84.1914C149.424 84.6992 148.662 85.3242 147.959 86.0664C147.295 86.8086 146.709 87.707 146.201 88.7617C145.693 89.8164 145.303 91.1055 145.029 92.6289C144.639 94.543 144.736 96.0859 145.322 97.2578C145.947 98.4297 146.787 98.918 147.842 98.7227C148.467 98.5273 149.072 98.1562 149.658 97.6094C150.166 97.1406 150.693 96.4375 151.24 95.5C151.826 94.5625 152.373 93.2734 152.881 91.6328C153.076 89.2891 153.232 87.4531 153.35 86.125C153.506 84.7578 153.643 83.7227 153.76 83.0195C153.916 82.1992 154.033 81.6523 154.111 81.3789C154.229 81.1836 154.463 81.0078 154.814 80.8516C155.166 80.6562 155.557 80.5 155.986 80.3828C156.416 80.2656 156.807 80.207 157.158 80.207C157.51 80.168 157.744 80.168 157.861 80.207C157.939 80.2461 157.979 80.7344 157.979 81.6719C157.979 82.5703 157.939 83.7227 157.861 85.1289C157.822 86.4961 157.764 88 157.686 89.6406C157.607 91.2422 157.529 92.7656 157.451 94.2109C157.412 95.6562 157.373 96.9258 157.334 98.0195C157.334 99.0742 157.373 99.7383 157.451 100.012ZM174.326 88.9961C175.146 89.3477 175.928 89.9141 176.67 90.6953C177.412 91.4375 177.881 92.5703 178.076 94.0938C178.232 95.4219 178.447 96.6133 178.721 97.668C178.994 98.7227 179.385 99.6797 179.893 100.539C180.4 101.359 181.064 102.102 181.885 102.766C182.744 103.391 183.838 103.938 185.166 104.406C184.814 104.719 184.385 104.973 183.877 105.168C183.408 105.363 182.959 105.5 182.529 105.578C182.021 105.734 181.494 105.812 180.947 105.812C179.658 105.93 178.604 105.754 177.783 105.285C176.963 104.855 176.318 104.211 175.85 103.352C175.381 102.492 175.029 101.496 174.795 100.363C174.561 99.2305 174.385 98.0586 174.268 96.8477C174.229 96.3398 174.17 95.8125 174.092 95.2656C174.014 94.7188 173.877 94.1914 173.682 93.6836C173.486 93.1758 173.213 92.707 172.861 92.2773C172.549 91.8477 172.139 91.5156 171.631 91.2812C170.771 91.9453 169.971 92.5312 169.229 93.0391C168.525 93.5078 167.9 93.8984 167.354 94.2109C167.393 96.3203 167.49 98.0586 167.646 99.4258C167.842 100.793 168.096 101.711 168.408 102.18C168.135 102.375 167.861 102.551 167.588 102.707C167.314 102.824 167.08 102.922 166.885 103C166.611 103.117 166.357 103.195 166.123 103.234C165.342 103.469 164.639 103.43 164.014 103.117C163.428 102.844 163.115 102.082 163.076 100.832L162.725 66.6133C162.725 66.3008 163.018 65.9883 163.604 65.6758C164.229 65.3242 164.912 65.0508 165.654 64.8555C166.396 64.6602 167.061 64.5625 167.646 64.5625C168.271 64.5625 168.564 64.7383 168.525 65.0898C168.408 67.7852 168.291 70.3242 168.174 72.707C168.057 75.0898 167.959 77.1992 167.881 79.0352C167.764 81.1836 167.666 83.1367 167.588 84.8945C167.51 85.9492 167.451 86.9648 167.412 87.9414C167.412 88.918 167.393 89.8555 167.354 90.7539C168.096 90.168 168.877 89.5234 169.697 88.8203C170.518 88.1172 171.299 87.3359 172.041 86.4766C172.783 85.6172 173.408 84.6992 173.916 83.7227C174.424 82.707 174.717 81.6328 174.795 80.5C175.225 80.1875 175.654 79.9336 176.084 79.7383C176.553 79.5039 176.963 79.3281 177.314 79.2109C177.744 79.0547 178.135 78.9766 178.486 78.9766C179.385 78.9375 179.912 79.1328 180.068 79.5625C180.186 79.875 180.166 80.3438 180.01 80.9688C179.893 81.5547 179.6 82.2773 179.131 83.1367C178.701 83.957 178.096 84.875 177.314 85.8906C176.533 86.8672 175.537 87.9023 174.326 88.9961ZM80.8691 109.211C82.3145 109.25 83.7207 109.758 85.0879 110.734C86.4941 111.711 87.7246 113.078 88.7793 114.836C89.834 116.594 90.6543 118.703 91.2402 121.164C91.8652 123.625 92.1582 126.379 92.1191 129.426C92.041 132.824 91.6309 135.969 90.8887 138.859C90.1465 141.75 89.1113 144.25 87.7832 146.359C86.4941 148.469 84.9316 150.109 83.0957 151.281C81.2598 152.453 79.2285 153.02 77.002 152.98C74.8926 152.941 72.959 152.473 71.2012 151.574C69.4824 150.676 68.0176 149.328 66.8066 147.531C65.5957 145.734 64.6582 143.469 63.9941 140.734C63.3691 138 63.0957 134.777 63.1738 131.066C63.252 127.355 63.7988 124.113 64.8145 121.34C65.8691 118.527 67.1191 116.184 68.5645 114.309C70.0098 112.395 71.4941 110.949 73.0176 109.973C74.541 108.957 75.8301 108.391 76.8848 108.273C77.5488 108.742 78.0176 109.191 78.291 109.621C78.6035 109.504 78.9551 109.406 79.3457 109.328C79.7754 109.25 80.2832 109.211 80.8691 109.211ZM86.1426 129.777C86.1816 127.785 86.0449 125.871 85.7324 124.035C85.4199 122.16 84.9902 120.5 84.4434 119.055C83.9355 117.609 83.3496 116.457 82.6855 115.598C82.0215 114.699 81.3574 114.23 80.6934 114.191C80.1855 114.23 79.6777 114.387 79.1699 114.66C78.7402 114.934 78.2715 115.344 77.7637 115.891C77.2559 116.438 76.7871 117.219 76.3574 118.234C75.9668 117.688 75.7129 117.102 75.5957 116.477C75.5176 115.852 75.5176 115.227 75.5957 114.602C74.541 115.383 73.623 116.359 72.8418 117.531C72.0605 118.664 71.416 119.934 70.9082 121.34C70.4004 122.707 70.0098 124.172 69.7363 125.734C69.4629 127.258 69.3066 128.82 69.2676 130.422C69.1895 133.625 69.3457 136.359 69.7363 138.625C70.166 140.891 70.7324 142.766 71.4355 144.25C72.1777 145.695 73.0371 146.77 74.0137 147.473C74.9902 148.137 76.0449 148.469 77.1777 148.469C78.5059 148.508 79.6973 148.039 80.752 147.062C81.8457 146.047 82.7832 144.68 83.5645 142.961C84.3457 141.242 84.9512 139.25 85.3809 136.984C85.8496 134.719 86.1035 132.316 86.1426 129.777ZM109.111 126.203C109.111 125.773 109.365 125.461 109.873 125.266C110.42 125.031 110.986 124.914 111.572 124.914C112.197 124.914 112.764 125.031 113.271 125.266C113.779 125.461 114.014 125.734 113.975 126.086C113.936 126.359 113.896 126.906 113.857 127.727C113.818 128.508 113.76 129.445 113.682 130.539C113.643 131.633 113.584 132.805 113.506 134.055C113.428 135.305 113.35 136.535 113.271 137.746C113.232 138.918 113.193 140.012 113.154 141.027C113.154 142.043 113.154 142.824 113.154 143.371C113.154 144.074 113.193 144.719 113.271 145.305C113.35 145.812 113.447 146.32 113.564 146.828C113.682 147.297 113.857 147.629 114.092 147.824C113.779 147.941 113.447 148.02 113.096 148.059C112.783 148.098 112.49 148.137 112.217 148.176C111.904 148.215 111.592 148.234 111.279 148.234C110.615 148.234 110.049 148.098 109.58 147.824C109.15 147.551 108.936 146.984 108.936 146.125C108.936 145.695 108.955 145.07 108.994 144.25C109.072 143.43 109.15 142.551 109.229 141.613C108.955 142.434 108.623 143.273 108.232 144.133C107.842 144.992 107.354 145.754 106.768 146.418C106.221 147.082 105.596 147.629 104.893 148.059C104.189 148.488 103.389 148.703 102.49 148.703C101.475 148.703 100.537 148.488 99.6777 148.059C98.8574 147.629 98.1348 147.023 97.5098 146.242C96.8848 145.422 96.416 144.426 96.1035 143.254C95.791 142.082 95.6738 140.734 95.752 139.211C95.752 138.039 95.7715 136.789 95.8105 135.461C95.8496 134.328 95.9082 133.02 95.9863 131.535C96.0645 130.051 96.2012 128.508 96.3965 126.906C96.4355 126.75 96.709 126.555 97.2168 126.32C97.7246 126.086 98.291 125.891 98.916 125.734C99.541 125.578 100.146 125.52 100.732 125.559C101.318 125.598 101.748 125.832 102.021 126.262C101.826 126.965 101.631 127.805 101.436 128.781C101.24 129.719 101.064 130.695 100.908 131.711C100.752 132.727 100.635 133.723 100.557 134.699C100.479 135.676 100.439 136.574 100.439 137.395C100.439 138.137 100.479 138.957 100.557 139.855C100.635 140.715 100.771 141.535 100.967 142.316C101.201 143.059 101.514 143.684 101.904 144.191C102.334 144.699 102.881 144.953 103.545 144.953C104.287 144.953 104.932 144.641 105.479 144.016C106.064 143.352 106.553 142.512 106.943 141.496C107.334 140.48 107.666 139.328 107.939 138.039C108.213 136.711 108.428 135.402 108.584 134.113C108.779 132.824 108.896 131.594 108.936 130.422C109.014 129.211 109.072 128.195 109.111 127.375V126.203ZM140.107 121.926C139.678 121.848 139.092 121.77 138.35 121.691C137.646 121.613 136.924 121.555 136.182 121.516C135.322 121.477 134.404 121.457 133.428 121.457C132.451 121.379 131.221 121.379 129.736 121.457C128.291 121.496 126.768 121.516 125.166 121.516C125.127 122.531 125.049 123.566 124.932 124.621C124.854 125.676 124.775 126.711 124.697 127.727C124.502 129.602 124.326 131.516 124.17 133.469C124.053 135.422 123.994 137.277 123.994 139.035C123.994 140.793 124.092 142.395 124.287 143.84C124.521 145.246 124.932 146.359 125.518 147.18C125.049 147.531 124.541 147.805 123.994 148C123.447 148.156 122.959 148.273 122.529 148.352C122.021 148.469 121.514 148.527 121.006 148.527C120.537 148.527 120.146 148.371 119.834 148.059C119.521 147.746 119.346 147.199 119.307 146.418C119.229 145.09 119.209 143.762 119.248 142.434C119.326 141.066 119.404 139.641 119.482 138.156C119.6 136.672 119.717 135.09 119.834 133.41C119.951 131.691 120.068 129.816 120.186 127.785C120.303 125.676 120.361 123.625 120.361 121.633C118.877 121.672 117.627 121.691 116.611 121.691C115.596 121.691 115.029 121.672 114.912 121.633C114.795 121.555 114.658 121.379 114.502 121.105C114.346 120.871 114.15 120.52 113.916 120.051C113.643 119.582 113.311 118.918 112.92 118.059C113.662 118.059 114.482 118.059 115.381 118.059C116.24 118.059 117.041 118.039 117.783 118C118.643 117.961 119.502 117.922 120.361 117.883C120.322 117.258 120.303 116.594 120.303 115.891C120.264 115.344 120.244 114.738 120.244 114.074C120.244 113.371 120.225 112.727 120.186 112.141C120.186 111.906 120.459 111.633 121.006 111.32C121.592 110.969 122.217 110.656 122.881 110.383C123.545 110.109 124.15 109.934 124.697 109.855C125.283 109.777 125.576 109.914 125.576 110.266C125.576 110.617 125.557 111.477 125.518 112.844C125.518 114.172 125.479 115.793 125.4 117.707C125.791 117.707 126.084 117.688 126.279 117.648C128.35 117.57 130.01 117.492 131.26 117.414C132.549 117.297 133.604 117.277 134.424 117.355C135.244 117.434 135.967 117.629 136.592 117.941C137.217 118.254 137.92 118.762 138.701 119.465C138.975 119.699 139.209 119.953 139.404 120.227C139.6 120.461 139.756 120.734 139.873 121.047C140.029 121.32 140.107 121.613 140.107 121.926ZM137.881 110.031C137.803 111.438 137.666 113.059 137.471 114.895C137.275 116.73 137.061 118.703 136.826 120.812C136.631 122.922 136.416 125.129 136.182 127.434C135.986 129.738 135.811 132.062 135.654 134.406C135.498 136.75 135.42 138.664 135.42 140.148C135.459 141.594 135.557 142.785 135.713 143.723C135.869 144.66 136.084 145.402 136.357 145.949C136.631 146.496 136.982 147.023 137.412 147.531C136.904 147.844 136.436 148.078 136.006 148.234C135.576 148.391 135.205 148.508 134.893 148.586C134.502 148.703 134.15 148.762 133.838 148.762C133.252 148.762 132.744 148.488 132.314 147.941C131.885 147.355 131.533 146.613 131.26 145.715C131.025 144.816 130.83 143.82 130.674 142.727C130.557 141.594 130.498 140.48 130.498 139.387C130.498 138.215 130.537 136.867 130.615 135.344C130.693 133.781 130.771 132.141 130.85 130.422C130.967 128.664 131.084 126.848 131.201 124.973C131.318 123.059 131.416 121.164 131.494 119.289C131.572 117.844 131.65 116.535 131.729 115.363C131.807 114.348 131.865 113.43 131.904 112.609C131.943 111.75 131.924 111.242 131.846 111.086C132.08 110.773 132.373 110.539 132.725 110.383C133.076 110.227 133.408 110.09 133.721 109.973C134.111 109.855 134.502 109.758 134.893 109.68H136.006C136.318 109.68 136.65 109.719 137.002 109.797C137.354 109.836 137.646 109.914 137.881 110.031ZM156.807 137.922C156.729 139.445 156.455 140.852 155.986 142.141C155.557 143.43 154.951 144.562 154.17 145.539C153.389 146.477 152.451 147.219 151.357 147.766C150.303 148.312 149.131 148.605 147.842 148.645C146.709 148.684 145.635 148.41 144.619 147.824C143.643 147.238 142.783 146.418 142.041 145.363C141.299 144.309 140.732 143.059 140.342 141.613C139.99 140.129 139.893 138.527 140.049 136.809C140.166 134.816 140.537 133.117 141.162 131.711C141.787 130.266 142.451 129.074 143.154 128.137C143.857 127.199 144.502 126.516 145.088 126.086C145.713 125.617 146.104 125.344 146.26 125.266C146.533 125.148 146.787 125.129 147.021 125.207C147.256 125.246 147.51 125.305 147.783 125.383C147.861 125.422 147.939 125.52 148.018 125.676C148.174 125.949 148.271 126.457 148.311 127.199C148.506 126.77 148.76 126.418 149.072 126.145C149.385 125.871 149.697 125.676 150.01 125.559C150.4 125.402 150.791 125.305 151.182 125.266C151.455 125.227 151.924 125.441 152.588 125.91C153.291 126.379 153.955 127.121 154.58 128.137C155.244 129.152 155.811 130.48 156.279 132.121C156.748 133.723 156.924 135.656 156.807 137.922ZM152.822 137.219C152.861 136.281 152.822 135.344 152.705 134.406C152.627 133.43 152.471 132.551 152.236 131.77C152.041 130.949 151.787 130.305 151.475 129.836C151.162 129.328 150.85 129.074 150.537 129.074C150.186 129.152 149.795 129.328 149.365 129.602C149.014 129.836 148.623 130.207 148.193 130.715C147.764 131.223 147.354 131.945 146.963 132.883C146.924 132.766 146.885 132.551 146.846 132.238C146.807 131.965 146.768 131.613 146.729 131.184C146.729 130.715 146.768 130.09 146.846 129.309C146.299 129.973 145.869 130.754 145.557 131.652C145.283 132.551 145.068 133.41 144.912 134.23C144.756 135.207 144.639 136.184 144.561 137.16C144.521 138.215 144.561 139.25 144.678 140.266C144.834 141.281 145.068 142.18 145.381 142.961C145.732 143.742 146.143 144.367 146.611 144.836C147.08 145.305 147.646 145.52 148.311 145.48C148.975 145.441 149.561 145.168 150.068 144.66C150.576 144.152 151.025 143.508 151.416 142.727C151.807 141.945 152.119 141.066 152.354 140.09C152.588 139.113 152.744 138.156 152.822 137.219ZM176.143 137.922C176.064 139.445 175.791 140.852 175.322 142.141C174.893 143.43 174.287 144.562 173.506 145.539C172.725 146.477 171.787 147.219 170.693 147.766C169.639 148.312 168.467 148.605 167.178 148.645C166.045 148.684 164.971 148.41 163.955 147.824C162.979 147.238 162.119 146.418 161.377 145.363C160.635 144.309 160.068 143.059 159.678 141.613C159.326 140.129 159.229 138.527 159.385 136.809C159.502 134.816 159.873 133.117 160.498 131.711C161.123 130.266 161.787 129.074 162.49 128.137C163.193 127.199 163.838 126.516 164.424 126.086C165.049 125.617 165.439 125.344 165.596 125.266C165.869 125.148 166.123 125.129 166.357 125.207C166.592 125.246 166.846 125.305 167.119 125.383C167.197 125.422 167.275 125.52 167.354 125.676C167.51 125.949 167.607 126.457 167.646 127.199C167.842 126.77 168.096 126.418 168.408 126.145C168.721 125.871 169.033 125.676 169.346 125.559C169.736 125.402 170.127 125.305 170.518 125.266C170.791 125.227 171.26 125.441 171.924 125.91C172.627 126.379 173.291 127.121 173.916 128.137C174.58 129.152 175.146 130.48 175.615 132.121C176.084 133.723 176.26 135.656 176.143 137.922ZM172.158 137.219C172.197 136.281 172.158 135.344 172.041 134.406C171.963 133.43 171.807 132.551 171.572 131.77C171.377 130.949 171.123 130.305 170.811 129.836C170.498 129.328 170.186 129.074 169.873 129.074C169.521 129.152 169.131 129.328 168.701 129.602C168.35 129.836 167.959 130.207 167.529 130.715C167.1 131.223 166.689 131.945 166.299 132.883C166.26 132.766 166.221 132.551 166.182 132.238C166.143 131.965 166.104 131.613 166.064 131.184C166.064 130.715 166.104 130.09 166.182 129.309C165.635 129.973 165.205 130.754 164.893 131.652C164.619 132.551 164.404 133.41 164.248 134.23C164.092 135.207 163.975 136.184 163.896 137.16C163.857 138.215 163.896 139.25 164.014 140.266C164.17 141.281 164.404 142.18 164.717 142.961C165.068 143.742 165.479 144.367 165.947 144.836C166.416 145.305 166.982 145.52 167.646 145.48C168.311 145.441 168.896 145.168 169.404 144.66C169.912 144.152 170.361 143.508 170.752 142.727C171.143 141.945 171.455 141.066 171.689 140.09C171.924 139.113 172.08 138.156 172.158 137.219ZM191.143 133.996C191.963 134.348 192.744 134.914 193.486 135.695C194.229 136.438 194.697 137.57 194.893 139.094C195.049 140.422 195.264 141.613 195.537 142.668C195.811 143.723 196.201 144.68 196.709 145.539C197.217 146.359 197.881 147.102 198.701 147.766C199.561 148.391 200.654 148.938 201.982 149.406C201.631 149.719 201.201 149.973 200.693 150.168C200.225 150.363 199.775 150.5 199.346 150.578C198.838 150.734 198.311 150.812 197.764 150.812C196.475 150.93 195.42 150.754 194.6 150.285C193.779 149.855 193.135 149.211 192.666 148.352C192.197 147.492 191.846 146.496 191.611 145.363C191.377 144.23 191.201 143.059 191.084 141.848C191.045 141.34 190.986 140.812 190.908 140.266C190.83 139.719 190.693 139.191 190.498 138.684C190.303 138.176 190.029 137.707 189.678 137.277C189.365 136.848 188.955 136.516 188.447 136.281C187.588 136.945 186.787 137.531 186.045 138.039C185.342 138.508 184.717 138.898 184.17 139.211C184.209 141.32 184.307 143.059 184.463 144.426C184.658 145.793 184.912 146.711 185.225 147.18C184.951 147.375 184.678 147.551 184.404 147.707C184.131 147.824 183.896 147.922 183.701 148C183.428 148.117 183.174 148.195 182.939 148.234C182.158 148.469 181.455 148.43 180.83 148.117C180.244 147.844 179.932 147.082 179.893 145.832L179.541 111.613C179.541 111.301 179.834 110.988 180.42 110.676C181.045 110.324 181.729 110.051 182.471 109.855C183.213 109.66 183.877 109.562 184.463 109.562C185.088 109.562 185.381 109.738 185.342 110.09C185.225 112.785 185.107 115.324 184.99 117.707C184.873 120.09 184.775 122.199 184.697 124.035C184.58 126.184 184.482 128.137 184.404 129.895C184.326 130.949 184.268 131.965 184.229 132.941C184.229 133.918 184.209 134.855 184.17 135.754C184.912 135.168 185.693 134.523 186.514 133.82C187.334 133.117 188.115 132.336 188.857 131.477C189.6 130.617 190.225 129.699 190.732 128.723C191.24 127.707 191.533 126.633 191.611 125.5C192.041 125.188 192.471 124.934 192.9 124.738C193.369 124.504 193.779 124.328 194.131 124.211C194.561 124.055 194.951 123.977 195.303 123.977C196.201 123.938 196.729 124.133 196.885 124.562C197.002 124.875 196.982 125.344 196.826 125.969C196.709 126.555 196.416 127.277 195.947 128.137C195.518 128.957 194.912 129.875 194.131 130.891C193.35 131.867 192.354 132.902 191.143 133.996ZM96.5137 186.965C96.123 185.754 95.7324 184.68 95.3418 183.742C94.9902 182.805 94.6777 182.004 94.4043 181.34C92.8809 181.848 91.2207 182.199 89.4238 182.395C89.4238 184.895 89.4824 187.023 89.5996 188.781C89.6387 189.875 89.6777 190.812 89.7168 191.594C89.7949 192.336 89.8535 192.98 89.8926 193.527C89.9707 194.074 90.0488 194.562 90.127 194.992C90.2051 195.461 90.3223 195.91 90.4785 196.34C89.6973 196.926 88.9355 197.355 88.1934 197.629C87.4902 197.902 86.8652 198.098 86.3184 198.215C85.6543 198.371 85.0684 198.41 84.5605 198.332C84.3652 197.785 84.1895 197.199 84.0332 196.574C83.877 195.988 83.7598 195.168 83.6816 194.113C83.6426 193.098 83.623 191.789 83.623 190.188C83.623 188.586 83.6816 186.535 83.7988 184.035C83.8379 183.762 83.8574 183.488 83.8574 183.215C83.8574 182.941 83.877 182.668 83.916 182.395C83.5645 182.355 83.1934 182.316 82.8027 182.277C82.4512 182.238 82.0996 182.199 81.748 182.16C81.5137 181.535 81.3574 180.988 81.2793 180.52C81.2012 180.012 81.1621 179.602 81.1621 179.289C81.1621 178.898 81.2012 178.586 81.2793 178.352C81.9043 178.469 82.5293 178.527 83.1543 178.527H84.0332C84.1113 176.887 84.1895 175.227 84.2676 173.547C84.3457 171.828 84.4043 170.168 84.4434 168.566C84.5215 166.926 84.5801 165.383 84.6191 163.938C84.6582 162.453 84.6973 161.105 84.7363 159.895C83.5645 160.676 82.5488 161.691 81.6895 162.941C80.8301 164.191 80.2441 165.637 79.9316 167.277C79.4238 167.199 78.9941 166.965 78.6426 166.574C78.291 166.145 77.998 165.715 77.7637 165.285C77.4902 164.777 77.2559 164.211 77.0605 163.586C76.8652 162.844 76.8652 162.102 77.0605 161.359C77.2559 160.578 77.5488 159.855 77.9395 159.191C78.3301 158.488 78.7793 157.883 79.2871 157.375C79.7949 156.828 80.2832 156.398 80.752 156.086C81.5723 155.578 82.4121 155.129 83.2715 154.738C84.1699 154.309 85.166 153.957 86.2598 153.684C86.6895 153.254 87.1582 152.863 87.666 152.512C88.2129 152.16 88.7207 151.945 89.1895 151.867C89.8535 151.711 90.2246 152.121 90.3027 153.098C90.6543 153.059 91.0254 153.039 91.416 153.039C91.8066 153 92.2168 152.98 92.6465 152.98C94.1309 152.98 95.6738 153.215 97.2754 153.684C98.877 154.152 100.342 154.914 101.67 155.969C103.037 156.984 104.15 158.332 105.01 160.012C105.869 161.652 106.299 163.664 106.299 166.047C106.299 168.742 105.654 171.223 104.365 173.488C103.115 175.754 101.318 177.629 98.9746 179.113C99.248 179.816 99.5996 180.695 100.029 181.75C100.459 182.805 100.889 183.996 101.318 185.324C101.943 186.965 102.607 188.508 103.311 189.953C104.053 191.359 104.814 192.59 105.596 193.645C106.377 194.699 107.197 195.539 108.057 196.164C108.916 196.828 109.775 197.219 110.635 197.336C110.127 198.117 109.541 198.664 108.877 198.977C108.213 199.289 107.549 199.484 106.885 199.562C106.143 199.68 105.361 199.68 104.541 199.562C103.408 199.328 102.432 198.781 101.611 197.922C100.791 197.062 100.068 196.027 99.4434 194.816C98.8574 193.605 98.3105 192.316 97.8027 190.949C97.334 189.543 96.9043 188.215 96.5137 186.965ZM89.7168 162.004C89.7168 162.863 89.6973 163.898 89.6582 165.109C89.6191 166.32 89.5801 167.629 89.541 169.035C89.541 170.441 89.5215 171.926 89.4824 173.488C89.4434 175.012 89.4238 176.535 89.4238 178.059C90.4785 177.902 91.6309 177.648 92.8809 177.297C94.1699 176.945 95.3613 176.359 96.4551 175.539C97.5488 174.719 98.4668 173.625 99.209 172.258C99.9512 170.891 100.322 169.133 100.322 166.984C100.322 165.344 100.029 163.957 99.4434 162.824C98.8965 161.652 98.1738 160.715 97.2754 160.012C96.377 159.27 95.3809 158.742 94.2871 158.43C93.2324 158.078 92.1777 157.902 91.123 157.902C90.9277 157.902 90.7324 157.902 90.5371 157.902C90.3418 157.902 90.127 157.922 89.8926 157.961C89.7754 159.211 89.7168 160.559 89.7168 162.004ZM109.873 172.258C109.873 172.023 110.186 171.77 110.811 171.496C111.436 171.223 112.119 171.008 112.861 170.852C113.643 170.656 114.346 170.559 114.971 170.559C115.635 170.52 115.967 170.656 115.967 170.969C115.967 171.555 115.928 172.395 115.85 173.488C115.771 174.543 115.674 175.676 115.557 176.887C115.439 178.059 115.322 179.25 115.205 180.461C115.088 181.633 115.01 182.629 114.971 183.449C114.893 184.309 114.814 185.246 114.736 186.262C114.658 187.121 114.6 188.078 114.561 189.133C114.521 190.188 114.521 191.262 114.561 192.355C114.561 192.551 114.365 192.746 113.975 192.941C113.584 193.137 113.154 193.273 112.686 193.352C112.217 193.469 111.768 193.527 111.338 193.527C110.908 193.527 110.674 193.449 110.635 193.293C110.557 193.137 110.479 192.863 110.4 192.473C110.322 192.082 110.244 191.535 110.166 190.832C110.088 190.09 110.029 189.152 109.99 188.02C109.951 186.848 109.971 185.441 110.049 183.801C110.205 180.559 110.225 178.059 110.107 176.301C109.99 174.504 109.912 173.156 109.873 172.258ZM113.975 160.598C114.756 160.598 115.498 160.832 116.201 161.301C116.904 161.77 117.256 162.395 117.256 163.176C117.256 163.762 117.1 164.328 116.787 164.875C116.514 165.422 116.162 165.91 115.732 166.34C115.303 166.77 114.814 167.121 114.268 167.395C113.721 167.629 113.213 167.746 112.744 167.746C112.119 167.746 111.611 167.648 111.221 167.453C110.83 167.219 110.518 166.965 110.283 166.691C110.088 166.379 109.951 166.047 109.873 165.695C109.795 165.344 109.756 165.012 109.756 164.699C109.756 164.309 109.814 163.879 109.932 163.41C110.049 162.902 110.264 162.453 110.576 162.062C110.889 161.633 111.318 161.281 111.865 161.008C112.412 160.734 113.115 160.598 113.975 160.598ZM112.51 166.047C112.744 166.047 112.998 165.969 113.271 165.812C113.584 165.617 113.857 165.402 114.092 165.168C114.365 164.934 114.58 164.68 114.736 164.406C114.932 164.133 115.029 163.898 115.029 163.703C115.029 163.391 114.873 163.234 114.561 163.234C114.365 163.234 114.111 163.312 113.799 163.469C113.525 163.625 113.252 163.82 112.979 164.055C112.705 164.25 112.471 164.484 112.275 164.758C112.119 164.992 112.041 165.227 112.041 165.461C112.041 165.852 112.197 166.047 112.51 166.047ZM139.053 155.793C139.053 156.223 139.014 157.062 138.936 158.312C138.857 159.562 138.76 161.066 138.643 162.824C138.525 164.582 138.408 166.516 138.291 168.625C138.174 170.734 138.076 172.883 137.998 175.07C137.92 177.258 137.842 179.309 137.764 181.223C137.725 183.098 137.705 184.777 137.705 186.262C137.744 187.746 137.822 188.996 137.939 190.012C138.057 190.988 138.232 191.652 138.467 192.004L135.83 193C135.635 193.078 135.4 193.117 135.127 193.117C134.854 193.117 134.561 193.039 134.248 192.883C133.975 192.727 133.74 192.453 133.545 192.062C133.35 191.672 133.252 191.125 133.252 190.422C133.252 190.148 133.252 189.816 133.252 189.426C133.291 188.996 133.311 188.508 133.311 187.961C132.842 188.742 132.334 189.504 131.787 190.246C131.24 190.988 130.635 191.633 129.971 192.18C129.346 192.727 128.662 193.156 127.92 193.469C127.178 193.82 126.396 193.996 125.576 193.996C124.795 193.996 124.033 193.82 123.291 193.469C122.549 193.156 121.885 192.668 121.299 192.004C120.713 191.34 120.225 190.48 119.834 189.426C119.482 188.371 119.307 187.102 119.307 185.617C119.307 182.922 119.619 180.578 120.244 178.586C120.869 176.555 121.65 174.875 122.588 173.547C123.564 172.18 124.6 171.164 125.693 170.5C126.826 169.797 127.861 169.445 128.799 169.445C130.244 169.445 131.357 169.836 132.139 170.617C132.92 171.359 133.486 172.141 133.838 172.961C133.877 171.828 133.896 170.773 133.896 169.797C133.936 168.781 133.955 167.922 133.955 167.219C133.955 164.328 133.896 161.75 133.779 159.484C133.662 157.219 133.369 155.5 132.9 154.328C133.447 154.016 133.936 153.781 134.365 153.625C134.834 153.469 135.244 153.352 135.596 153.273C136.025 153.156 136.396 153.098 136.709 153.098C137.568 153.098 138.174 153.352 138.525 153.859C138.877 154.328 139.053 154.973 139.053 155.793ZM133.486 182.98C133.564 181.965 133.604 180.91 133.604 179.816C133.643 178.684 133.682 177.551 133.721 176.418C133.447 176.848 133.115 177.219 132.725 177.531C132.373 177.844 131.982 177.922 131.553 177.766C131.709 176.594 131.689 175.695 131.494 175.07C131.338 174.445 131.104 173.977 130.791 173.664C130.439 173.312 130.029 173.117 129.561 173.078C128.857 173.078 128.154 173.469 127.451 174.25C126.787 175.031 126.182 176.008 125.635 177.18C125.127 178.312 124.717 179.543 124.404 180.871C124.092 182.16 123.936 183.352 123.936 184.445C123.936 186.633 124.229 188.156 124.814 189.016C125.439 189.875 126.104 190.305 126.807 190.305C127.393 190.305 127.998 190.07 128.623 189.602C129.287 189.133 129.912 188.527 130.498 187.785C131.123 187.043 131.689 186.262 132.197 185.441C132.744 184.582 133.174 183.762 133.486 182.98ZM148.896 193.527C148.076 193.527 147.236 193.312 146.377 192.883C145.518 192.453 144.717 191.809 143.975 190.949C143.232 190.051 142.627 188.957 142.158 187.668C141.689 186.34 141.455 184.797 141.455 183.039C141.455 180.461 141.787 178.332 142.451 176.652C143.115 174.934 143.916 173.566 144.854 172.551C145.83 171.496 146.885 170.754 148.018 170.324C149.15 169.895 150.186 169.68 151.123 169.68C152.1 169.68 152.9 169.855 153.525 170.207C154.189 170.52 154.736 170.891 155.166 171.32V170.207C155.4 170.012 155.654 169.836 155.928 169.68C156.24 169.523 156.553 169.406 156.865 169.328C157.178 169.211 157.51 169.152 157.861 169.152H158.74C158.975 169.191 159.209 169.23 159.443 169.27C159.717 169.309 159.912 169.406 160.029 169.562C159.795 174.68 159.6 178.82 159.443 181.984C159.287 185.148 159.17 187.609 159.092 189.367C158.975 191.438 158.896 192.941 158.857 193.879C158.779 195.52 158.564 197.141 158.213 198.742C157.861 200.383 157.314 201.848 156.572 203.137C155.83 204.426 154.854 205.461 153.643 206.242C152.432 207.023 150.947 207.414 149.189 207.414C147.666 207.414 146.436 207.121 145.498 206.535C144.6 205.949 143.896 205.227 143.389 204.367C142.92 203.508 142.607 202.59 142.451 201.613C142.295 200.676 142.217 199.816 142.217 199.035C142.217 198.84 142.314 198.547 142.51 198.156C142.744 197.766 143.057 197.355 143.447 196.926C143.877 196.535 144.404 196.184 145.029 195.871C145.654 195.559 146.357 195.363 147.139 195.285C146.787 196.34 146.572 197.297 146.494 198.156C146.416 198.625 146.396 199.094 146.436 199.562C146.436 200.852 146.689 201.926 147.197 202.785C147.705 203.645 148.486 204.074 149.541 204.074C150.674 204.074 151.592 203.586 152.295 202.609C152.998 201.672 153.525 200.52 153.877 199.152C154.268 197.824 154.521 196.418 154.639 194.934C154.795 193.488 154.873 192.258 154.873 191.242V189.543C154.639 189.973 154.346 190.422 153.994 190.891C153.682 191.359 153.291 191.789 152.822 192.18C152.354 192.57 151.787 192.883 151.123 193.117C150.498 193.391 149.756 193.527 148.896 193.527ZM151.299 173.02C150.635 173.02 149.99 173.312 149.365 173.898C148.779 174.484 148.252 175.266 147.783 176.242C147.314 177.18 146.943 178.254 146.67 179.465C146.396 180.676 146.26 181.887 146.26 183.098C146.26 183.879 146.299 184.68 146.377 185.5C146.494 186.32 146.689 187.082 146.963 187.785C147.275 188.449 147.666 188.996 148.135 189.426C148.604 189.855 149.229 190.07 150.01 190.07C150.596 190.031 151.143 189.797 151.65 189.367C152.08 189.016 152.51 188.449 152.939 187.668C153.408 186.887 153.779 185.773 154.053 184.328C154.365 184.641 154.6 184.934 154.756 185.207C154.951 185.48 155.107 185.734 155.225 185.969C155.264 185.656 155.283 185.285 155.283 184.855C155.322 184.426 155.342 183.938 155.342 183.391C155.342 182.336 155.283 181.203 155.166 179.992C155.049 178.742 154.834 177.609 154.521 176.594C154.248 175.578 153.838 174.738 153.291 174.074C152.783 173.371 152.119 173.02 151.299 173.02ZM171.514 193.645C168.779 193.645 166.67 192.727 165.186 190.891C163.701 189.055 162.959 186.652 162.959 183.684C162.959 181.613 163.252 179.68 163.838 177.883C164.463 176.047 165.283 174.465 166.299 173.137C167.314 171.809 168.486 170.773 169.814 170.031C171.182 169.25 172.607 168.859 174.092 168.859C175.537 168.859 176.768 169.387 177.783 170.441C178.799 171.457 179.307 172.922 179.307 174.836C179.307 176.086 179.033 177.336 178.486 178.586C177.939 179.797 177.217 180.891 176.318 181.867C175.459 182.805 174.502 183.566 173.447 184.152C172.393 184.738 171.377 185.031 170.4 185.031C169.775 185.031 169.248 184.953 168.818 184.797C168.389 184.641 167.998 184.406 167.646 184.094C167.764 186.32 168.252 187.883 169.111 188.781C169.971 189.641 171.084 190.07 172.451 190.07C173.389 190.07 174.209 189.875 174.912 189.484C175.654 189.094 176.279 188.645 176.787 188.137C177.295 187.629 177.705 187.121 178.018 186.613C178.33 186.066 178.545 185.656 178.662 185.383C178.779 185.148 178.975 185.031 179.248 185.031C179.561 185.031 179.717 185.266 179.717 185.734C179.717 186.164 179.561 186.828 179.248 187.727C178.975 188.586 178.506 189.465 177.842 190.363C177.178 191.223 176.318 191.984 175.264 192.648C174.248 193.312 172.998 193.645 171.514 193.645ZM174.209 171.379C173.975 171.379 173.525 171.633 172.861 172.141C172.236 172.609 171.553 173.312 170.811 174.25C170.107 175.188 169.443 176.32 168.818 177.648C168.232 178.938 167.861 180.402 167.705 182.043C170.049 181.496 171.904 180.637 173.271 179.465C174.639 178.293 175.322 176.574 175.322 174.309C175.322 173.176 175.186 172.414 174.912 172.023C174.639 171.594 174.404 171.379 174.209 171.379Z" fill="#FF8888"/>
</svg>
