<svg width="192" height="193" viewBox="0 0 192 193" fill="none" xmlns="http://www.w3.org/2000/svg" id="svg-528484541_3778">
<g clip-path="url(#svg-528484541_3778_clip0_38_352)">
<path fill-rule="evenodd" clip-rule="evenodd" d="M9.77148 38.9537C9.77148 28.3605 18.359 19.7729 28.9523 19.7729H163.218C173.811 19.7729 182.398 28.3605 182.398 38.9537V173.219C182.398 183.812 173.811 192.4 163.218 192.4H28.9523C18.359 192.4 9.77148 183.812 9.77148 173.219V38.9537ZM63.4779 37.0356C63.4779 44.4508 57.4666 50.4621 50.0514 50.4621C42.6361 50.4621 36.6248 44.4508 36.6248 37.0356C36.6248 29.6203 42.6361 23.609 50.0514 23.609C57.4666 23.609 63.4779 29.6203 63.4779 37.0356ZM142.119 50.4623C149.534 50.4623 155.545 44.451 155.545 37.0357C155.545 29.6204 149.534 23.6092 142.119 23.6092C134.704 23.6092 128.692 29.6204 128.692 37.0357C128.692 44.451 134.704 50.4623 142.119 50.4623Z" fill="#F5D531"></path>
<rect x="23.1982" y="63.8887" width="145.774" height="115.085" rx="11.5085" fill="white"></rect>
<rect x="71.1494" y="75.397" width="15.3446" height="15.3446" fill="#DDDDDD"></rect>
<rect x="109.511" y="75.397" width="15.3446" height="15.3446" fill="#DDDDDD"></rect>
<rect x="90.3301" y="75.397" width="15.3446" height="15.3446" fill="#DDDDDD"></rect>
<rect x="147.873" y="75.397" width="15.3446" height="15.3446" fill="#DDDDDD"></rect>
<rect x="128.691" y="75.397" width="15.3446" height="15.3446" fill="#DDDDDD"></rect>
<rect x="71.1494" y="94.5781" width="15.3446" height="15.3446" fill="#DDDDDD"></rect>
<rect x="51.9688" y="94.5781" width="15.3446" height="15.3446" fill="#DDDDDD"></rect>
<rect x="32.7881" y="94.5781" width="15.3446" height="15.3446" fill="#DDDDDD"></rect>
<rect x="109.511" y="94.5781" width="15.3446" height="15.3446" fill="#DDDDDD"></rect>
<rect x="90.3301" y="94.5781" width="15.3446" height="15.3446" fill="#DDDDDD"></rect>
<rect x="147.873" y="94.5781" width="15.3446" height="15.3446" fill="#DDDDDD"></rect>
<rect x="128.691" y="94.5781" width="15.3446" height="15.3446" fill="#DDDDDD"></rect>
<rect x="71.1494" y="113.759" width="15.3446" height="15.3446" fill="#DDDDDD"></rect>
<rect x="51.9688" y="113.759" width="15.3446" height="15.3446" fill="#DDDDDD"></rect>
<rect x="32.7881" y="113.759" width="15.3446" height="15.3446" fill="#DDDDDD"></rect>
<rect x="109.511" y="113.759" width="15.3446" height="15.3446" fill="#DDDDDD"></rect>
<rect x="90.3301" y="113.759" width="15.3446" height="15.3446" fill="#DDDDDD"></rect>
<rect x="147.873" y="113.759" width="15.3446" height="15.3446" fill="#DDDDDD"></rect>
<rect x="128.691" y="113.759" width="15.3446" height="15.3446" fill="#DDDDDD"></rect>
<rect x="71.1494" y="132.939" width="15.3446" height="15.3446" fill="#DDDDDD"></rect>
<rect x="51.9688" y="132.939" width="15.3446" height="15.3446" fill="#DDDDDD"></rect>
<rect x="32.7881" y="132.939" width="15.3446" height="15.3446" fill="#DDDDDD"></rect>
<rect x="109.511" y="132.939" width="15.3446" height="15.3446" fill="#DDDDDD"></rect>
<rect x="90.3301" y="132.939" width="15.3446" height="15.3446" fill="#DDDDDD"></rect>
<rect x="147.873" y="132.939" width="15.3446" height="15.3446" fill="#DDDDDD"></rect>
<rect x="128.691" y="132.939" width="15.3446" height="15.3446" fill="#DDDDDD"></rect>
<rect x="71.1494" y="152.121" width="15.3446" height="15.3446" fill="#DDDDDD"></rect>
<rect x="51.9688" y="152.121" width="15.3446" height="15.3446" fill="#DDDDDD"></rect>
<rect x="32.7881" y="152.121" width="15.3446" height="15.3446" fill="#DDDDDD"></rect>
<rect x="109.511" y="152.121" width="15.3446" height="15.3446" fill="#DDDDDD"></rect>
<rect x="90.3301" y="152.121" width="15.3446" height="15.3446" fill="#DDDDDD"></rect>
<path d="M50.0508 6.34619V37.0354" stroke="#F5D531" stroke-width="9.59039" stroke-linecap="round"></path>
<path d="M142.118 6.34619V37.0354" stroke="#F5D531" stroke-width="9.59039" stroke-linecap="round"></path>
</g>
<defs>
<clipPath id="svg-528484541_3778_clip0_38_352">
<rect width="191.808" height="191.658" fill="white" transform="translate(0.180664 0.592285)"></rect>
</clipPath>
</defs>
</svg>