<svg width="260" height="260" viewBox="0 0 260 260" fill="none" xmlns="http://www.w3.org/2000/svg">
<circle cx="130" cy="130" r="125" fill="white" stroke="#FFBB00" stroke-width="10"/>
<path d="M33.96 175V146.6H44.28C47.3733 146.6 49.96 147.24 52.04 148.52C54.12 149.773 55.68 151.48 56.72 153.64C57.76 155.773 58.28 158.147 58.28 160.76C58.28 163.64 57.7067 166.147 56.56 168.28C55.4133 170.413 53.7867 172.067 51.68 173.24C49.6 174.413 47.1333 175 44.28 175H33.96ZM52.72 160.76C52.72 158.92 52.3867 157.307 51.72 155.92C51.0533 154.507 50.0933 153.413 48.84 152.64C47.5867 151.84 46.0667 151.44 44.28 151.44H39.48V170.16H44.28C46.0933 170.16 47.6267 169.76 48.88 168.96C50.1333 168.133 51.08 167.013 51.72 165.6C52.3867 164.16 52.72 162.547 52.72 160.76ZM71.7528 175.4C70.0461 175.4 68.5128 175.12 67.1528 174.56C65.7928 173.973 64.6328 173.173 63.6728 172.16C62.7395 171.147 62.0195 169.987 61.5128 168.68C61.0061 167.373 60.7528 166 60.7528 164.56C60.7528 163.093 61.0061 161.707 61.5128 160.4C62.0195 159.093 62.7395 157.933 63.6728 156.92C64.6328 155.907 65.7928 155.12 67.1528 154.56C68.5128 153.973 70.0461 153.68 71.7528 153.68C73.4595 153.68 74.9795 153.973 76.3128 154.56C77.6728 155.12 78.8328 155.907 79.7928 156.92C80.7528 157.933 81.4728 159.093 81.9528 160.4C82.4595 161.707 82.7128 163.093 82.7128 164.56C82.7128 166 82.4595 167.373 81.9528 168.68C81.4728 169.987 80.7528 171.147 79.7928 172.16C78.8595 173.173 77.7128 173.973 76.3528 174.56C74.9928 175.12 73.4595 175.4 71.7528 175.4ZM66.2728 164.56C66.2728 165.787 66.5128 166.88 66.9928 167.84C67.4728 168.773 68.1261 169.507 68.9528 170.04C69.7795 170.573 70.7128 170.84 71.7528 170.84C72.7661 170.84 73.6861 170.573 74.5128 170.04C75.3395 169.48 75.9928 168.733 76.4728 167.8C76.9795 166.84 77.2328 165.747 77.2328 164.52C77.2328 163.32 76.9795 162.24 76.4728 161.28C75.9928 160.32 75.3395 159.573 74.5128 159.04C73.6861 158.507 72.7661 158.24 71.7528 158.24C70.7128 158.24 69.7795 158.52 68.9528 159.08C68.1261 159.613 67.4728 160.36 66.9928 161.32C66.5128 162.253 66.2728 163.333 66.2728 164.56ZM96.0906 175.4C94.384 175.4 92.8506 175.12 91.4906 174.56C90.1306 173.973 88.9706 173.173 88.0106 172.16C87.0506 171.12 86.304 169.947 85.7706 168.64C85.264 167.333 85.0106 165.96 85.0106 164.52C85.0106 162.547 85.4506 160.747 86.3306 159.12C87.2373 157.467 88.5173 156.147 90.1706 155.16C91.824 154.173 93.784 153.68 96.0506 153.68C98.3173 153.68 100.264 154.173 101.891 155.16C103.517 156.147 104.731 157.44 105.531 159.04L100.291 160.64C99.8373 159.867 99.2373 159.28 98.4906 158.88C97.744 158.453 96.9173 158.24 96.0106 158.24C94.9973 158.24 94.064 158.507 93.2106 159.04C92.384 159.547 91.7306 160.28 91.2506 161.24C90.7706 162.173 90.5306 163.267 90.5306 164.52C90.5306 165.747 90.7706 166.84 91.2506 167.8C91.7573 168.733 92.424 169.48 93.2506 170.04C94.0773 170.573 94.9973 170.84 96.0106 170.84C96.6506 170.84 97.2506 170.733 97.8106 170.52C98.3973 170.307 98.9173 170.013 99.3706 169.64C99.824 169.267 100.157 168.84 100.371 168.36L105.611 169.96C105.131 171 104.424 171.933 103.491 172.76C102.584 173.587 101.504 174.24 100.251 174.72C99.024 175.173 97.6373 175.4 96.0906 175.4ZM108.709 167.16V154.04H114.069V166C114.069 167.6 114.362 168.813 114.949 169.64C115.535 170.44 116.402 170.84 117.549 170.84C118.242 170.84 118.922 170.707 119.589 170.44C120.282 170.147 120.909 169.72 121.469 169.16C122.055 168.6 122.549 167.893 122.949 167.04V154.04H128.309V169C128.309 169.56 128.402 169.96 128.589 170.2C128.802 170.44 129.135 170.587 129.589 170.64V175C129.055 175.08 128.602 175.133 128.229 175.16C127.882 175.213 127.562 175.24 127.269 175.24C126.309 175.24 125.522 175.027 124.909 174.6C124.322 174.147 123.975 173.533 123.869 172.76L123.749 171.08C122.815 172.493 121.615 173.573 120.149 174.32C118.682 175.04 117.069 175.4 115.309 175.4C113.149 175.4 111.509 174.707 110.389 173.32C109.269 171.907 108.709 169.853 108.709 167.16ZM166.195 175H160.835V163.24C160.835 161.587 160.542 160.373 159.955 159.6C159.395 158.8 158.609 158.4 157.595 158.4C156.555 158.4 155.555 158.813 154.595 159.64C153.662 160.44 152.995 161.493 152.595 162.8V175H147.235V163.24C147.235 161.56 146.942 160.333 146.355 159.56C145.795 158.787 145.009 158.4 143.995 158.4C142.955 158.4 141.955 158.8 140.995 159.6C140.062 160.4 139.395 161.453 138.995 162.76V175H133.635V154.04H138.475V157.92C139.275 156.56 140.342 155.52 141.675 154.8C143.009 154.053 144.542 153.68 146.275 153.68C148.009 153.68 149.355 154.107 150.315 154.96C151.302 155.813 151.929 156.867 152.195 158.12C153.049 156.68 154.129 155.587 155.435 154.84C156.769 154.067 158.262 153.68 159.915 153.68C161.222 153.68 162.275 153.92 163.075 154.4C163.902 154.853 164.542 155.48 164.995 156.28C165.449 157.053 165.755 157.933 165.915 158.92C166.102 159.907 166.195 160.907 166.195 161.92V175ZM180.582 175.4C178.902 175.4 177.382 175.12 176.022 174.56C174.662 173.973 173.502 173.187 172.542 172.2C171.582 171.187 170.835 170.04 170.302 168.76C169.795 167.453 169.542 166.08 169.542 164.64C169.542 162.64 169.982 160.813 170.862 159.16C171.769 157.507 173.049 156.187 174.702 155.2C176.382 154.187 178.355 153.68 180.622 153.68C182.915 153.68 184.875 154.187 186.502 155.2C188.129 156.187 189.369 157.507 190.222 159.16C191.102 160.787 191.542 162.547 191.542 164.44C191.542 164.76 191.529 165.093 191.502 165.44C191.475 165.76 191.449 166.027 191.422 166.24H175.222C175.329 167.307 175.635 168.24 176.142 169.04C176.675 169.84 177.342 170.453 178.142 170.88C178.969 171.28 179.849 171.48 180.782 171.48C181.849 171.48 182.849 171.227 183.782 170.72C184.742 170.187 185.395 169.493 185.742 168.64L190.342 169.92C189.835 170.987 189.102 171.933 188.142 172.76C187.209 173.587 186.102 174.24 184.822 174.72C183.542 175.173 182.129 175.4 180.582 175.4ZM175.102 162.84H186.062C185.955 161.773 185.649 160.853 185.142 160.08C184.662 159.28 184.022 158.667 183.222 158.24C182.422 157.787 181.529 157.56 180.542 157.56C179.582 157.56 178.702 157.787 177.902 158.24C177.129 158.667 176.489 159.28 175.982 160.08C175.502 160.853 175.209 161.773 175.102 162.84ZM214.287 175H208.927V163.24C208.927 161.56 208.634 160.333 208.047 159.56C207.461 158.787 206.647 158.4 205.607 158.4C204.887 158.4 204.154 158.587 203.407 158.96C202.687 159.333 202.034 159.853 201.447 160.52C200.861 161.16 200.434 161.907 200.167 162.76V175H194.807V154.04H199.647V157.92C200.181 157.013 200.861 156.253 201.687 155.64C202.514 155 203.461 154.52 204.527 154.2C205.621 153.853 206.767 153.68 207.967 153.68C209.274 153.68 210.341 153.92 211.167 154.4C212.021 154.853 212.661 155.48 213.087 156.28C213.541 157.053 213.847 157.933 214.007 158.92C214.194 159.907 214.287 160.907 214.287 161.92V175ZM231.391 173.92C230.937 174.107 230.391 174.32 229.751 174.56C229.111 174.8 228.417 174.987 227.671 175.12C226.951 175.28 226.217 175.36 225.471 175.36C224.484 175.36 223.577 175.187 222.751 174.84C221.924 174.493 221.257 173.947 220.751 173.2C220.271 172.427 220.031 171.427 220.031 170.2V158.16H217.271V154.04H220.031V147.24H225.391V154.04H229.791V158.16H225.391V168.4C225.417 169.12 225.617 169.64 225.991 169.96C226.364 170.28 226.831 170.44 227.391 170.44C227.951 170.44 228.497 170.347 229.031 170.16C229.564 169.973 229.991 169.813 230.311 169.68L231.391 173.92Z" fill="#0088BB"/>
<g clip-path="url(#clip0_16_12)">
<g filter="url(#filter0_d_16_12)">
<path d="M102.967 42.8729H159.032C162.856 42.8729 165.837 45.785 166.02 49.2001L166.029 49.5321L165.931 104.223C161.182 108.699 154.043 115.656 149.828 119.9L102.978 119.725H102.967C99.0272 119.725 95.9702 116.628 95.9702 113.064V49.5321C95.9702 45.9782 99.0292 42.8729 102.967 42.8729Z" fill="#88BB00" stroke="white" stroke-width="5.94063"/>
<path d="M156.6 101.353C151.851 101.238 147.899 105.271 147.774 110.355L147.564 118.919L152.146 114.61L161.709 105.614L165.995 101.582L156.6 101.353Z" fill="white"/>
</g>
<g filter="url(#filter1_d_16_12)">
<path d="M160.624 40.5848C162.186 39.0227 164.718 39.0227 166.281 40.5848L172.938 47.2424C174.5 48.8045 174.5 51.3372 172.938 52.8993L143.821 82.0162C143.479 82.3589 143.076 82.6365 142.634 82.8355L130.53 88.2822C127.173 89.7927 123.73 86.3499 125.241 82.9931L130.688 70.8887C130.886 70.4467 131.164 70.0444 131.507 69.7017L160.624 40.5848Z" fill="#FFCC00"/>
<path d="M175.039 45.1416C177.761 47.8637 177.761 52.2776 175.039 54.9997L145.922 84.1167C145.324 84.7139 144.624 85.1975 143.853 85.5441L131.748 90.991C125.899 93.6227 119.9 87.6238 122.532 81.7744L127.979 69.6694C128.325 68.8993 128.809 68.1984 129.406 67.6012L158.523 38.4842C161.245 35.7621 165.659 35.7621 168.381 38.4842L175.039 45.1416Z" stroke="white" stroke-width="5.94063"/>
</g>
<path d="M153.085 46.5233L166.613 60.0506" stroke="white" stroke-width="5"/>
<path d="M129.759 67.9371L145.063 83.2415" stroke="white" stroke-width="5"/>
<rect x="151.742" y="46.6988" width="19.676" height="28.5302" transform="rotate(45 151.742 46.6988)" fill="#40B3FF"/>
</g>
<defs>
<filter id="filter0_d_16_12" x="87.6529" y="34.5557" width="87.8813" height="94.8509" filterUnits="userSpaceOnUse" color-interpolation-filters="sRGB">
<feFlood flood-opacity="0" result="BackgroundImageFix"/>
<feColorMatrix in="SourceAlpha" type="matrix" values="0 0 0 0 0 0 0 0 0 0 0 0 0 0 0 0 0 0 127 0" result="hardAlpha"/>
<feOffset dx="0.594064" dy="0.594064"/>
<feGaussianBlur stdDeviation="2.97032"/>
<feColorMatrix type="matrix" values="0 0 0 0 0 0 0 0 0 0 0 0 0 0 0 0 0 0 0.2 0"/>
<feBlend mode="normal" in2="BackgroundImageFix" result="effect1_dropShadow_16_12"/>
<feBlend mode="normal" in="SourceGraphic" in2="effect1_dropShadow_16_12" result="shape"/>
</filter>
<filter id="filter1_d_16_12" x="113.567" y="28.126" width="73.0175" height="73.0174" filterUnits="userSpaceOnUse" color-interpolation-filters="sRGB">
<feFlood flood-opacity="0" result="BackgroundImageFix"/>
<feColorMatrix in="SourceAlpha" type="matrix" values="0 0 0 0 0 0 0 0 0 0 0 0 0 0 0 0 0 0 127 0" result="hardAlpha"/>
<feOffset dx="0.594064" dy="0.594064"/>
<feGaussianBlur stdDeviation="2.97032"/>
<feColorMatrix type="matrix" values="0 0 0 0 0 0 0 0 0 0 0 0 0 0 0 0 0 0 0.2 0"/>
<feBlend mode="normal" in2="BackgroundImageFix" result="effect1_dropShadow_16_12"/>
<feBlend mode="normal" in="SourceGraphic" in2="effect1_dropShadow_16_12" result="shape"/>
</filter>
<clipPath id="clip0_16_12">
<rect width="100" height="98.7778" fill="white" transform="translate(81 32)"/>
</clipPath>
</defs>
</svg>
