<svg width="260" height="260" viewBox="0 0 260 260" fill="none" xmlns="http://www.w3.org/2000/svg">
<circle cx="130" cy="130" r="130" fill="white"/>
<circle cx="130" cy="130" r="125" stroke="#FF8888" stroke-opacity="0.5" stroke-width="10" stroke-dasharray="10 10"/>
<path d="M71.918 63.9004C71.7227 63.7051 71.5599 63.4772 71.4297 63.2168C71.332 62.9564 71.2507 62.7122 71.1855 62.4844C71.0879 62.224 71.0391 61.9473 71.0391 61.6543C71.0065 61.3939 71.0065 61.1335 71.0391 60.873C71.0716 60.6777 71.1042 60.4824 71.1367 60.2871C71.1693 60.0592 71.2507 59.8965 71.3809 59.7988C71.6413 59.7337 71.9342 59.6849 72.2598 59.6523C72.6178 59.5872 72.9434 59.5221 73.2363 59.457C73.5944 59.3919 73.9525 59.3268 74.3105 59.2617C74.4408 59.0664 74.7012 58.8711 75.0918 58.6758C75.515 58.4479 75.9544 58.2526 76.4102 58.0898C76.8984 57.9271 77.3542 57.8132 77.7773 57.748C78.2005 57.6504 78.4935 57.6504 78.6562 57.748V58.7734C79.5026 58.6758 80.3815 58.5944 81.293 58.5293C82.2044 58.4316 83.181 58.3828 84.2227 58.3828C85.4922 58.3503 86.6803 58.3177 87.7871 58.2852C88.7311 58.2526 89.6751 58.2526 90.6191 58.2852C91.5957 58.2852 92.3444 58.3014 92.8652 58.334C93.1257 58.3665 93.321 58.5618 93.4512 58.9199C93.6139 59.2454 93.6628 59.6686 93.5977 60.1895C93.5651 60.7103 93.4023 61.2799 93.1094 61.8984C92.8164 62.5169 92.3607 63.1029 91.7422 63.6562C90.9609 63.4935 90.1471 63.3633 89.3008 63.2656C88.4544 63.168 87.6732 63.0866 86.957 63.0215C86.1107 62.9564 85.2969 62.9401 84.5156 62.9727C83.5065 62.9727 82.5137 63.0052 81.5371 63.0703C80.5605 63.1029 79.6165 63.1517 78.7051 63.2168C78.7376 64.8118 78.7539 66.6348 78.7539 68.6855C78.7865 70.7038 78.819 72.7546 78.8516 74.8379C79.2747 74.8053 79.6979 74.7728 80.1211 74.7402C80.5443 74.7077 80.9837 74.6751 81.4395 74.6426C82.6113 74.5775 83.7507 74.5124 84.8574 74.4473C85.9967 74.3822 86.9733 74.4147 87.7871 74.5449C88.6335 74.6426 89.2682 74.8867 89.6914 75.2773C90.1146 75.668 90.2122 76.2865 89.9844 77.1328L89.3008 79.4766C89.2357 79.3138 89.0566 79.1836 88.7637 79.0859C88.5033 78.9557 88.194 78.8581 87.8359 78.793C87.4453 78.6953 87.0059 78.6139 86.5176 78.5488C85.3783 78.4186 84.125 78.4023 82.7578 78.5C81.3906 78.5977 80.0885 78.7441 78.8516 78.9395V78.9883C78.8841 81.8529 78.8678 84.2292 78.8027 86.1172C78.7702 88.0052 78.7214 89.4701 78.6562 90.5117C79.0794 90.4466 79.4863 90.3978 79.877 90.3652C80.3001 90.3327 80.7396 90.2839 81.1953 90.2188C82.3672 90.1211 83.5879 90.056 84.8574 90.0234C85.9316 89.9909 87.1198 89.9909 88.4219 90.0234C89.7565 90.0234 91.0423 90.1048 92.2793 90.2676C92.4746 90.5931 92.5397 91.0163 92.4746 91.5371C92.4095 92.0579 92.2956 92.5625 92.1328 93.0508C91.9375 93.6367 91.6934 94.2552 91.4004 94.9062C89.9355 94.7435 88.5195 94.6296 87.1523 94.5645C85.7852 94.4993 84.5645 94.4505 83.4902 94.418C82.2207 94.3854 81.0326 94.3854 79.9258 94.418C77.9076 94.3529 76.3125 94.4505 75.1406 94.7109C73.9688 95.0039 73.1387 95.2155 72.6504 95.3457C72.3249 95.4434 72.0807 95.3945 71.918 95.1992C71.7552 95.0039 71.5762 94.6784 71.3809 94.2227C71.1855 93.7995 71.1204 93.1973 71.1855 92.416C71.1855 92.3509 71.2018 92.2533 71.2344 92.123C71.2669 92.0254 71.3646 91.944 71.5273 91.8789C71.7227 91.8138 72.0319 91.7324 72.4551 91.6348C72.8783 91.5371 73.3991 91.4232 74.0176 91.293C74.0827 89.9583 74.1315 88.2656 74.1641 86.2148C74.1966 84.1641 74.2454 82.0807 74.3105 79.9648C73.7572 79.8672 73.2689 79.4277 72.8457 78.6465C72.4225 77.8327 72.2272 76.9375 72.2598 75.9609C72.4551 75.8958 72.6667 75.847 72.8945 75.8145C73.1549 75.7819 73.3991 75.7331 73.627 75.668C73.8874 75.6029 74.1478 75.554 74.4082 75.5215C74.4408 74.6751 74.457 73.9102 74.457 73.2266C74.457 72.543 74.4733 71.9408 74.5059 71.4199C74.571 70.0527 74.5872 68.7018 74.5547 67.3672C74.5221 66 74.4896 64.7467 74.457 63.6074C74.1641 63.64 73.8548 63.6725 73.5293 63.7051C73.2689 63.7376 72.9922 63.7702 72.6992 63.8027C72.4062 63.8353 72.1458 63.8678 71.918 63.9004ZM99.75 89.6816C99.7174 89.877 99.5384 90.0885 99.2129 90.3164C98.9199 90.5117 98.5618 90.6908 98.1387 90.8535C97.748 91.0163 97.3737 91.1139 97.0156 91.1465C96.6576 91.2116 96.4134 91.179 96.2832 91.0488C96.153 90.9186 95.9414 90.6745 95.6484 90.3164C95.3555 89.9583 95.1764 89.3724 95.1113 88.5586C95.0462 87.7122 95.0137 86.6543 95.0137 85.3848C95.0137 84.0827 94.9974 82.6504 94.9648 81.0879V79.1348C94.9648 78.5488 94.9486 77.8652 94.916 77.084C94.916 76.3027 94.8997 75.4889 94.8672 74.6426C95.1602 74.4798 95.4531 74.3333 95.7461 74.2031C96.0716 74.0404 96.3646 73.9102 96.625 73.8125C96.918 73.6823 97.1947 73.5846 97.4551 73.5195C98.1387 73.3242 98.6595 73.2103 99.0176 73.1777C99.3757 73.1452 99.5872 73.2591 99.6523 73.5195C99.6849 73.7148 99.6686 74.1868 99.6035 74.9355C99.5384 75.5866 99.457 76.5794 99.3594 77.9141C99.2617 79.2161 99.099 81.0391 98.8711 83.3828C99.2943 82.3411 99.6361 81.446 99.8965 80.6973C100.189 79.9486 100.434 79.3464 100.629 78.8906C100.824 78.3372 101.003 77.8978 101.166 77.5723C101.329 77.1491 101.54 76.6771 101.801 76.1562C102.061 75.6354 102.322 75.1471 102.582 74.6914C102.875 74.2357 103.135 73.8288 103.363 73.4707C103.624 73.1126 103.819 72.901 103.949 72.8359C104.047 72.7708 104.34 72.7708 104.828 72.8359C105.316 72.901 105.837 73.0638 106.391 73.3242C106.944 73.5521 107.481 73.8939 108.002 74.3496C108.523 74.7728 108.865 75.2936 109.027 75.9121C109.223 76.6283 109.288 77.5723 109.223 78.7441C109.19 79.916 109.109 81.1204 108.979 82.3574C108.881 83.5944 108.799 84.7663 108.734 85.873C108.669 86.9798 108.734 87.8262 108.93 88.4121C108.995 88.7376 109.092 89.0306 109.223 89.291C109.288 89.5514 109.369 89.7956 109.467 90.0234C109.597 90.2188 109.727 90.3652 109.857 90.4629C109.076 90.821 108.441 91.0814 107.953 91.2441C107.465 91.4069 107.09 91.5208 106.83 91.5859C106.505 91.6836 106.277 91.7161 106.146 91.6836C105.854 91.5859 105.593 91.3418 105.365 90.9512C105.17 90.5605 104.991 89.9421 104.828 89.0957C104.763 88.8353 104.73 88.4121 104.73 87.8262C104.763 87.2077 104.812 86.5241 104.877 85.7754C104.942 84.9941 105.007 84.1966 105.072 83.3828C105.17 82.5365 105.235 81.7552 105.268 81.0391C105.333 80.2904 105.382 79.6556 105.414 79.1348C105.447 78.5814 105.447 78.207 105.414 78.0117C105.251 77.4258 105.023 77.0189 104.73 76.791C104.438 76.5306 104.21 76.498 104.047 76.6934C103.624 77.1816 103.168 77.9792 102.68 79.0859C102.224 80.1602 101.785 81.3483 101.361 82.6504C100.938 83.9199 100.58 85.1895 100.287 86.459C99.9941 87.7285 99.8151 88.8027 99.75 89.6816ZM126.166 82.6016C126.101 83.8711 125.873 85.043 125.482 86.1172C125.124 87.1914 124.62 88.1354 123.969 88.9492C123.318 89.7305 122.536 90.349 121.625 90.8047C120.746 91.2604 119.77 91.5046 118.695 91.5371C117.751 91.5697 116.856 91.3418 116.01 90.8535C115.196 90.3652 114.48 89.6816 113.861 88.8027C113.243 87.9238 112.771 86.8822 112.445 85.6777C112.152 84.4408 112.071 83.1061 112.201 81.6738C112.299 80.0137 112.608 78.5977 113.129 77.4258C113.65 76.2214 114.203 75.2285 114.789 74.4473C115.375 73.666 115.912 73.0964 116.4 72.7383C116.921 72.3477 117.247 72.1198 117.377 72.0547C117.605 71.957 117.816 71.9408 118.012 72.0059C118.207 72.0384 118.419 72.0872 118.646 72.1523C118.712 72.1849 118.777 72.2663 118.842 72.3965C118.972 72.6243 119.053 73.0475 119.086 73.666C119.249 73.3079 119.46 73.015 119.721 72.7871C119.981 72.5592 120.242 72.3965 120.502 72.2988C120.827 72.1686 121.153 72.0872 121.479 72.0547C121.706 72.0221 122.097 72.2012 122.65 72.5918C123.236 72.9824 123.79 73.6009 124.311 74.4473C124.864 75.2936 125.336 76.4004 125.727 77.7676C126.117 79.1022 126.264 80.7135 126.166 82.6016ZM122.846 82.0156C122.878 81.2344 122.846 80.4531 122.748 79.6719C122.683 78.8581 122.553 78.1257 122.357 77.4746C122.195 76.791 121.983 76.2539 121.723 75.8633C121.462 75.4401 121.202 75.2285 120.941 75.2285C120.648 75.2936 120.323 75.4401 119.965 75.668C119.672 75.8633 119.346 76.1725 118.988 76.5957C118.63 77.0189 118.288 77.6211 117.963 78.4023C117.93 78.3047 117.898 78.1257 117.865 77.8652C117.833 77.6374 117.8 77.3444 117.768 76.9863C117.768 76.5957 117.8 76.0749 117.865 75.4238C117.41 75.9772 117.051 76.6283 116.791 77.377C116.563 78.1257 116.384 78.8418 116.254 79.5254C116.124 80.3392 116.026 81.153 115.961 81.9668C115.928 82.8457 115.961 83.7083 116.059 84.5547C116.189 85.401 116.384 86.1497 116.645 86.8008C116.938 87.4518 117.279 87.9727 117.67 88.3633C118.061 88.7539 118.533 88.9329 119.086 88.9004C119.639 88.8678 120.128 88.64 120.551 88.2168C120.974 87.7936 121.348 87.2565 121.674 86.6055C121.999 85.9544 122.26 85.222 122.455 84.4082C122.65 83.5944 122.781 82.7969 122.846 82.0156ZM139.887 72.8359C139.887 72.4779 140.098 72.2174 140.521 72.0547C140.977 71.8594 141.449 71.7617 141.938 71.7617C142.458 71.7617 142.93 71.8594 143.354 72.0547C143.777 72.2174 143.972 72.4453 143.939 72.7383C143.907 72.9661 143.874 73.4219 143.842 74.1055C143.809 74.7565 143.76 75.5378 143.695 76.4492C143.663 77.3607 143.614 78.3372 143.549 79.3789C143.484 80.4206 143.419 81.446 143.354 82.4551C143.321 83.4316 143.288 84.3431 143.256 85.1895C143.256 86.0358 143.256 86.6868 143.256 87.1426C143.256 87.7285 143.288 88.2656 143.354 88.7539C143.419 89.1771 143.5 89.6003 143.598 90.0234C143.695 90.4141 143.842 90.6908 144.037 90.8535C143.777 90.9512 143.5 91.0163 143.207 91.0488C142.947 91.0814 142.702 91.1139 142.475 91.1465C142.214 91.179 141.954 91.1953 141.693 91.1953C141.14 91.1953 140.668 91.0814 140.277 90.8535C139.919 90.6257 139.74 90.1536 139.74 89.4375C139.74 89.0794 139.757 88.5586 139.789 87.875C139.854 87.1914 139.919 86.459 139.984 85.6777C139.757 86.3613 139.48 87.0612 139.154 87.7773C138.829 88.4935 138.422 89.1283 137.934 89.6816C137.478 90.235 136.957 90.6908 136.371 91.0488C135.785 91.4069 135.118 91.5859 134.369 91.5859C133.523 91.5859 132.742 91.4069 132.025 91.0488C131.342 90.6908 130.74 90.1862 130.219 89.5352C129.698 88.8516 129.307 88.0215 129.047 87.0449C128.786 86.0684 128.689 84.9453 128.754 83.6758C128.754 82.6992 128.77 81.6576 128.803 80.5508C128.835 79.6068 128.884 78.5163 128.949 77.2793C129.014 76.0423 129.128 74.7565 129.291 73.4219C129.324 73.2917 129.551 73.1289 129.975 72.9336C130.398 72.7383 130.87 72.5755 131.391 72.4453C131.911 72.3151 132.416 72.2663 132.904 72.2988C133.393 72.3314 133.751 72.5267 133.979 72.8848C133.816 73.4707 133.653 74.1706 133.49 74.9844C133.327 75.7656 133.181 76.5794 133.051 77.4258C132.921 78.2721 132.823 79.1022 132.758 79.916C132.693 80.7298 132.66 81.4785 132.66 82.1621C132.66 82.7806 132.693 83.4642 132.758 84.2129C132.823 84.929 132.937 85.6126 133.1 86.2637C133.295 86.8822 133.555 87.403 133.881 87.8262C134.239 88.2493 134.695 88.4609 135.248 88.4609C135.867 88.4609 136.404 88.2005 136.859 87.6797C137.348 87.1263 137.755 86.4264 138.08 85.5801C138.406 84.7337 138.682 83.7734 138.91 82.6992C139.138 81.5924 139.317 80.502 139.447 79.4277C139.61 78.3535 139.708 77.3281 139.74 76.3516C139.805 75.3424 139.854 74.4961 139.887 73.8125V72.8359ZM152.729 91.4395C152.045 91.4395 151.345 91.2604 150.629 90.9023C149.913 90.5443 149.245 90.0072 148.627 89.291C148.008 88.5423 147.504 87.6309 147.113 86.5566C146.723 85.4499 146.527 84.1641 146.527 82.6992C146.527 80.5508 146.804 78.7767 147.357 77.377C147.911 75.9447 148.578 74.8053 149.359 73.959C150.173 73.0801 151.052 72.4616 151.996 72.1035C152.94 71.7454 153.803 71.5664 154.584 71.5664C155.398 71.5664 156.065 71.7129 156.586 72.0059C157.139 72.2663 157.595 72.5755 157.953 72.9336V72.0059C158.148 71.8431 158.36 71.6966 158.588 71.5664C158.848 71.4362 159.109 71.3385 159.369 71.2734C159.63 71.1758 159.906 71.127 160.199 71.127H160.932C161.127 71.1595 161.322 71.1921 161.518 71.2246C161.745 71.2572 161.908 71.3385 162.006 71.4688C161.811 75.7331 161.648 79.1836 161.518 81.8203C161.387 84.457 161.29 86.5078 161.225 87.9727C161.127 89.6979 161.062 90.9512 161.029 91.7324C160.964 93.0996 160.785 94.4505 160.492 95.7852C160.199 97.1523 159.743 98.373 159.125 99.4473C158.507 100.521 157.693 101.384 156.684 102.035C155.674 102.686 154.438 103.012 152.973 103.012C151.703 103.012 150.678 102.768 149.896 102.279C149.148 101.791 148.562 101.189 148.139 100.473C147.748 99.7565 147.488 98.9915 147.357 98.1777C147.227 97.3965 147.162 96.6803 147.162 96.0293C147.162 95.8665 147.243 95.6224 147.406 95.2969C147.602 94.9714 147.862 94.6296 148.188 94.2715C148.546 93.946 148.985 93.653 149.506 93.3926C150.027 93.1322 150.613 92.9694 151.264 92.9043C150.971 93.7832 150.792 94.5807 150.727 95.2969C150.661 95.6875 150.645 96.0781 150.678 96.4688C150.678 97.543 150.889 98.4382 151.312 99.1543C151.736 99.8704 152.387 100.229 153.266 100.229C154.21 100.229 154.975 99.8216 155.561 99.0078C156.146 98.2266 156.586 97.2663 156.879 96.127C157.204 95.0202 157.416 93.8483 157.514 92.6113C157.644 91.4069 157.709 90.3815 157.709 89.5352V88.1191C157.514 88.4772 157.27 88.8516 156.977 89.2422C156.716 89.6328 156.391 89.9909 156 90.3164C155.609 90.6419 155.137 90.9023 154.584 91.0977C154.063 91.3255 153.445 91.4395 152.729 91.4395ZM154.73 74.3496C154.177 74.3496 153.64 74.5938 153.119 75.082C152.631 75.5703 152.191 76.2214 151.801 77.0352C151.41 77.8164 151.101 78.7116 150.873 79.7207C150.645 80.7298 150.531 81.7389 150.531 82.748C150.531 83.3991 150.564 84.0664 150.629 84.75C150.727 85.4336 150.889 86.0684 151.117 86.6543C151.378 87.2077 151.703 87.6634 152.094 88.0215C152.484 88.3796 153.005 88.5586 153.656 88.5586C154.145 88.526 154.6 88.3307 155.023 87.9727C155.382 87.6797 155.74 87.2077 156.098 86.5566C156.488 85.9056 156.798 84.9779 157.025 83.7734C157.286 84.0339 157.481 84.278 157.611 84.5059C157.774 84.7337 157.904 84.9453 158.002 85.1406C158.035 84.8802 158.051 84.571 158.051 84.2129C158.083 83.8548 158.1 83.4479 158.1 82.9922C158.1 82.1133 158.051 81.1693 157.953 80.1602C157.855 79.1185 157.676 78.1745 157.416 77.3281C157.188 76.4818 156.846 75.7819 156.391 75.2285C155.967 74.6426 155.414 74.3496 154.73 74.3496ZM169.135 83.334C169.525 82.1621 169.851 81.1693 170.111 80.3555C170.404 79.5417 170.648 78.8906 170.844 78.4023C171.072 77.8164 171.267 77.3444 171.43 76.9863C171.625 76.4655 171.837 75.9447 172.064 75.4238C172.325 74.903 172.585 74.431 172.846 74.0078C173.106 73.5521 173.35 73.1777 173.578 72.8848C173.806 72.5918 174.001 72.3965 174.164 72.2988C174.294 72.2337 174.587 72.2337 175.043 72.2988C175.531 72.3639 176.052 72.5267 176.605 72.7871C177.191 73.015 177.729 73.3405 178.217 73.7637C178.738 74.1868 179.096 74.7077 179.291 75.3262C179.486 76.0749 179.551 77.0514 179.486 78.2559C179.421 79.4603 179.324 80.6973 179.193 81.9668C179.096 83.2363 179.014 84.4408 178.949 85.5801C178.917 86.7194 178.998 87.582 179.193 88.168C179.324 88.4935 179.454 88.819 179.584 89.1445C179.714 89.4049 179.861 89.6816 180.023 89.9746C180.219 90.235 180.43 90.4629 180.658 90.6582C179.714 91.0163 178.949 91.2767 178.363 91.4395C177.81 91.6348 177.387 91.765 177.094 91.8301C176.736 91.9277 176.492 91.944 176.361 91.8789C176.101 91.7812 175.857 91.5371 175.629 91.1465C175.401 90.7559 175.206 90.1374 175.043 89.291C174.978 89.0306 174.962 88.5749 174.994 87.9238C175.027 87.2728 175.076 86.5404 175.141 85.7266C175.206 84.9128 175.271 84.0664 175.336 83.1875C175.401 82.276 175.466 81.4297 175.531 80.6484C175.596 79.8672 175.629 79.1836 175.629 78.5977C175.661 78.0117 175.661 77.6211 175.629 77.4258C175.466 76.8724 175.238 76.4818 174.945 76.2539C174.652 75.9935 174.424 75.9609 174.262 76.1562C173.871 76.6445 173.432 77.4909 172.943 78.6953C172.488 79.8672 172.048 81.153 171.625 82.5527C171.202 83.9199 170.827 85.2871 170.502 86.6543C170.209 88.0215 170.03 89.1445 169.965 90.0234C169.965 90.2188 169.802 90.4303 169.477 90.6582C169.184 90.8535 168.842 91.0326 168.451 91.1953C168.093 91.3581 167.735 91.4557 167.377 91.4883C167.019 91.5534 166.775 91.5046 166.645 91.3418C166.547 91.2441 166.335 91.0163 166.01 90.6582C165.717 90.3001 165.554 89.6979 165.521 88.8516C165.456 88.0378 165.456 86.931 165.521 85.5312C165.587 84.099 165.603 82.6016 165.57 81.0391V77.4258C165.57 75.9609 165.554 73.9427 165.521 71.3711C165.521 68.7669 165.505 65.3327 165.473 61.0684C165.831 60.873 166.156 60.7103 166.449 60.5801C166.742 60.4173 167.019 60.2871 167.279 60.1895C167.572 60.0592 167.849 59.9616 168.109 59.8965C169.509 59.5384 170.242 59.5384 170.307 59.8965C170.339 60.222 170.307 61.2637 170.209 63.0215C170.176 63.7702 170.128 64.7142 170.062 65.8535C169.997 66.9928 169.916 68.3763 169.818 70.0039C169.753 71.6315 169.656 73.5521 169.525 75.7656C169.428 77.9466 169.298 80.4694 169.135 83.334ZM26.4834 122.162C25.93 122.618 25.6208 123.432 25.5557 124.604C25.5231 125.743 25.7184 126.915 26.1416 128.119C26.5973 129.291 27.2809 130.333 28.1924 131.244C29.1038 132.156 30.2432 132.611 31.6104 132.611C32.4893 132.611 33.238 132.4 33.8564 131.977C34.5075 131.553 35.0283 131.033 35.4189 130.414C35.8421 129.763 36.1514 129.047 36.3467 128.266C36.542 127.484 36.6396 126.719 36.6396 125.971C36.6396 124.896 36.4281 124.001 36.0049 123.285C35.6143 122.569 35.0771 121.951 34.3936 121.43C33.7425 120.876 32.9775 120.421 32.0986 120.062C31.2523 119.672 30.3896 119.281 29.5107 118.891C28.6969 118.565 27.7204 118.158 26.5811 117.67C25.4417 117.149 24.3512 116.482 23.3096 115.668C22.2679 114.822 21.3727 113.796 20.624 112.592C19.9079 111.355 19.5498 109.841 19.5498 108.051C19.5498 106.879 19.859 105.691 20.4775 104.486C21.096 103.282 21.9749 102.191 23.1143 101.215C24.2536 100.206 25.6208 99.3919 27.2158 98.7734C28.8434 98.1549 30.6663 97.8457 32.6846 97.8457C34.6702 97.8457 36.2816 98.0247 37.5186 98.3828C38.7555 98.7409 39.7158 99.2129 40.3994 99.7988C41.083 100.352 41.5387 100.971 41.7666 101.654C42.027 102.305 42.1572 102.924 42.1572 103.51C42.1572 104.096 41.9782 104.698 41.6201 105.316C41.262 105.902 40.8389 106.456 40.3506 106.977C39.8623 107.465 39.3577 107.904 38.8369 108.295C38.3161 108.653 37.8929 108.897 37.5674 109.027C37.7301 108.604 37.8929 108.018 38.0557 107.27C38.2184 106.521 38.1696 105.772 37.9092 105.023C37.6813 104.275 37.1117 103.624 36.2002 103.07C35.3213 102.517 33.889 102.24 31.9033 102.24C30.764 102.24 29.6572 102.419 28.583 102.777C27.5088 103.135 26.5485 103.607 25.7021 104.193C24.8883 104.747 24.2373 105.382 23.749 106.098C23.2607 106.814 23.0166 107.546 23.0166 108.295C23.0166 109.011 23.2607 109.678 23.749 110.297C24.2699 110.883 24.9535 111.452 25.7998 112.006C26.6787 112.527 27.6715 113.048 28.7783 113.568C29.9176 114.089 31.1058 114.61 32.3428 115.131C33.5472 115.652 34.7354 116.221 35.9072 116.84C37.0791 117.426 38.1208 118.109 39.0322 118.891C39.9762 119.672 40.7249 120.551 41.2783 121.527C41.8317 122.504 42.1084 123.627 42.1084 124.896C42.1084 126.264 41.848 127.582 41.3271 128.852C40.8389 130.089 40.1227 131.179 39.1787 132.123C38.2673 133.067 37.1442 133.816 35.8096 134.369C34.4749 134.955 32.9613 135.248 31.2686 135.248C29.7712 135.248 28.3551 135.004 27.0205 134.516C25.6859 134.027 24.514 133.393 23.5049 132.611C22.5283 131.83 21.7471 130.967 21.1611 130.023C20.5752 129.079 20.2822 128.152 20.2822 127.24C20.2822 126.264 20.4938 125.434 20.917 124.75C21.3727 124.066 21.9261 123.529 22.5771 123.139C23.2282 122.715 23.8955 122.423 24.5791 122.26C25.2952 122.097 25.93 122.064 26.4834 122.162ZM51.5811 99.3594C51.516 100.531 51.402 101.882 51.2393 103.412C51.0765 104.942 50.8975 106.586 50.7021 108.344C50.5394 110.102 50.3604 111.941 50.165 113.861C50.0023 115.782 49.8558 117.719 49.7256 119.672C49.5954 121.625 49.5303 123.22 49.5303 124.457C49.5628 125.661 49.6442 126.654 49.7744 127.436C49.9046 128.217 50.0837 128.835 50.3115 129.291C50.5394 129.747 50.8324 130.186 51.1904 130.609C50.7673 130.87 50.3766 131.065 50.0186 131.195C49.6605 131.326 49.3512 131.423 49.0908 131.488C48.7653 131.586 48.4723 131.635 48.2119 131.635C47.7236 131.635 47.3005 131.407 46.9424 130.951C46.5843 130.463 46.2913 129.844 46.0635 129.096C45.8682 128.347 45.7054 127.517 45.5752 126.605C45.4775 125.661 45.4287 124.734 45.4287 123.822C45.4287 122.846 45.4613 121.723 45.5264 120.453C45.5915 119.151 45.6566 117.784 45.7217 116.352C45.8193 114.887 45.917 113.373 46.0146 111.811C46.1123 110.215 46.1937 108.637 46.2588 107.074C46.3239 105.87 46.389 104.779 46.4541 103.803C46.5192 102.956 46.568 102.191 46.6006 101.508C46.6331 100.792 46.6169 100.368 46.5518 100.238C46.7471 99.9779 46.9912 99.7826 47.2842 99.6523C47.5771 99.5221 47.8538 99.4082 48.1143 99.3105C48.4398 99.2129 48.7653 99.1315 49.0908 99.0664H50.0186C50.279 99.0664 50.5557 99.099 50.8486 99.1641C51.1416 99.1966 51.3857 99.2617 51.5811 99.3594ZM67.9873 128.51C68.0524 128.738 68.1501 128.949 68.2803 129.145C68.3779 129.307 68.5081 129.47 68.6709 129.633C68.8662 129.763 69.0941 129.844 69.3545 129.877C69.1266 130.333 68.8988 130.642 68.6709 130.805C68.5407 130.902 68.4268 130.967 68.3291 131C68.0361 131.098 67.5967 131.146 67.0107 131.146C66.4248 131.146 65.8551 130.967 65.3018 130.609C65.1064 130.447 64.9274 130.202 64.7646 129.877C64.6019 129.617 64.4554 129.258 64.3252 128.803C64.2275 128.314 64.1462 127.696 64.0811 126.947C63.6253 127.924 63.1045 128.705 62.5186 129.291C61.9652 129.844 61.4118 130.251 60.8584 130.512C60.2399 130.87 59.6051 131.081 58.9541 131.146C58.1403 131.212 57.359 131.081 56.6104 130.756C55.8942 130.398 55.2757 129.877 54.7549 129.193C54.2666 128.477 53.8923 127.615 53.6318 126.605C53.3714 125.596 53.29 124.457 53.3877 123.188C53.4854 121.853 53.7458 120.665 54.1689 119.623C54.5921 118.581 55.0967 117.654 55.6826 116.84C56.2686 116.026 56.887 115.342 57.5381 114.789C58.1891 114.203 58.8076 113.731 59.3936 113.373C60.012 112.982 60.5329 112.706 60.9561 112.543C61.4118 112.348 61.7048 112.234 61.835 112.201C62.193 112.104 62.5023 112.071 62.7627 112.104C63.0231 112.136 63.251 112.283 63.4463 112.543C63.5114 112.641 63.5928 112.755 63.6904 112.885C63.7555 113.015 63.8369 113.194 63.9346 113.422C64.0322 113.617 64.1136 113.845 64.1787 114.105C63.3975 114.464 62.665 114.87 61.9814 115.326C61.2979 115.749 60.6631 116.27 60.0771 116.889C59.5238 117.507 59.0355 118.256 58.6123 119.135C58.1891 120.014 57.8636 121.088 57.6357 122.357C57.3102 123.952 57.3916 125.238 57.8799 126.215C58.4007 127.191 59.1006 127.598 59.9795 127.436C60.5003 127.273 61.0049 126.964 61.4932 126.508C61.9163 126.117 62.3558 125.531 62.8115 124.75C63.2998 123.969 63.7555 122.895 64.1787 121.527C64.3415 119.574 64.4717 118.044 64.5693 116.938C64.6995 115.798 64.8135 114.936 64.9111 114.35C65.0413 113.666 65.139 113.21 65.2041 112.982C65.3018 112.82 65.4971 112.673 65.79 112.543C66.083 112.38 66.4085 112.25 66.7666 112.152C67.1247 112.055 67.4502 112.006 67.7432 112.006C68.0361 111.973 68.2314 111.973 68.3291 112.006C68.3942 112.038 68.4268 112.445 68.4268 113.227C68.4268 113.975 68.3942 114.936 68.3291 116.107C68.2965 117.247 68.2477 118.5 68.1826 119.867C68.1175 121.202 68.0524 122.471 67.9873 123.676C67.9548 124.88 67.9222 125.938 67.8896 126.85C67.8896 127.729 67.9222 128.282 67.9873 128.51ZM85.5654 124.848C85.5654 125.206 85.4352 125.759 85.1748 126.508C84.9469 127.224 84.5563 127.956 84.0029 128.705C83.4495 129.421 82.7334 130.056 81.8545 130.609C81.0081 131.163 79.9665 131.439 78.7295 131.439C76.9717 131.439 75.4906 130.967 74.2861 130.023C73.1143 129.047 72.2842 127.663 71.7959 125.873C71.4053 124.376 71.2913 122.781 71.4541 121.088C71.6494 119.363 72.1214 117.768 72.8701 116.303C73.6188 114.838 74.6605 113.601 75.9951 112.592C77.3298 111.55 78.9574 110.98 80.8779 110.883C81.8545 110.85 82.6683 111.029 83.3193 111.42C83.9704 111.811 84.4749 112.315 84.833 112.934C85.1911 113.552 85.4027 114.236 85.4678 114.984C85.5329 115.701 85.4515 116.384 85.2236 117.035C85.0283 117.686 84.7028 118.24 84.2471 118.695C83.8239 119.118 83.2705 119.346 82.5869 119.379C81.9033 119.444 81.3337 119.363 80.8779 119.135C80.4548 118.874 80.113 118.565 79.8525 118.207C79.6247 117.849 79.4619 117.475 79.3643 117.084C79.2992 116.693 79.2992 116.352 79.3643 116.059C79.4619 115.635 79.6247 115.245 79.8525 114.887C80.0479 114.561 80.3245 114.236 80.6826 113.91C81.0732 113.585 81.5778 113.324 82.1963 113.129C82.0986 113.064 82.001 113.031 81.9033 113.031C81.8057 113.031 81.708 113.015 81.6104 112.982C81.4801 112.982 81.3825 112.966 81.3174 112.934C80.7965 112.934 80.1943 113.113 79.5107 113.471C78.8597 113.829 78.2249 114.398 77.6064 115.18C77.0205 115.961 76.516 116.97 76.0928 118.207C75.7021 119.411 75.5068 120.876 75.5068 122.602C75.5068 123.35 75.5882 124.099 75.751 124.848C75.9137 125.564 76.1579 126.215 76.4834 126.801C76.8415 127.354 77.2646 127.81 77.7529 128.168C78.2738 128.493 78.876 128.656 79.5596 128.656C80.3408 128.656 81.0244 128.493 81.6104 128.168C82.2288 127.81 82.7497 127.403 83.1729 126.947C83.596 126.492 83.9215 126.036 84.1494 125.58C84.4098 125.124 84.5889 124.783 84.6865 124.555C84.7842 124.359 84.9469 124.262 85.1748 124.262C85.4352 124.262 85.5654 124.457 85.5654 124.848ZM98.2607 119.33C98.9443 119.623 99.5954 120.095 100.214 120.746C100.832 121.365 101.223 122.309 101.386 123.578C101.516 124.685 101.695 125.678 101.923 126.557C102.151 127.436 102.476 128.233 102.899 128.949C103.323 129.633 103.876 130.251 104.56 130.805C105.276 131.326 106.187 131.781 107.294 132.172C107.001 132.432 106.643 132.644 106.22 132.807C105.829 132.969 105.455 133.083 105.097 133.148C104.674 133.279 104.234 133.344 103.778 133.344C102.704 133.441 101.825 133.295 101.142 132.904C100.458 132.546 99.9209 132.009 99.5303 131.293C99.1396 130.577 98.8467 129.747 98.6514 128.803C98.4561 127.859 98.3096 126.882 98.2119 125.873C98.1794 125.45 98.1305 125.01 98.0654 124.555C98.0003 124.099 97.8864 123.66 97.7236 123.236C97.5609 122.813 97.333 122.423 97.04 122.064C96.7796 121.706 96.4378 121.43 96.0146 121.234C95.2985 121.788 94.6312 122.276 94.0127 122.699C93.4268 123.09 92.9059 123.415 92.4502 123.676C92.4827 125.434 92.5641 126.882 92.6943 128.021C92.8571 129.161 93.0687 129.926 93.3291 130.316C93.1012 130.479 92.8734 130.626 92.6455 130.756C92.4176 130.854 92.2223 130.935 92.0596 131C91.8317 131.098 91.6201 131.163 91.4248 131.195C90.7738 131.391 90.1878 131.358 89.667 131.098C89.1787 130.87 88.9183 130.235 88.8857 129.193L88.5928 100.678C88.5928 100.417 88.8369 100.157 89.3252 99.8965C89.846 99.6035 90.4157 99.3757 91.0342 99.2129C91.6527 99.0501 92.2061 98.9688 92.6943 98.9688C93.2152 98.9688 93.4593 99.1152 93.4268 99.4082C93.3291 101.654 93.2314 103.77 93.1338 105.756C93.0361 107.742 92.9548 109.499 92.8896 111.029C92.792 112.82 92.7106 114.447 92.6455 115.912C92.5804 116.791 92.5316 117.637 92.499 118.451C92.499 119.265 92.4827 120.046 92.4502 120.795C93.0687 120.307 93.7197 119.77 94.4033 119.184C95.0869 118.598 95.738 117.947 96.3564 117.23C96.9749 116.514 97.4958 115.749 97.9189 114.936C98.3421 114.089 98.5863 113.194 98.6514 112.25C99.0094 111.99 99.3675 111.778 99.7256 111.615C100.116 111.42 100.458 111.273 100.751 111.176C101.109 111.046 101.435 110.98 101.728 110.98C102.476 110.948 102.916 111.111 103.046 111.469C103.144 111.729 103.127 112.12 102.997 112.641C102.899 113.129 102.655 113.731 102.265 114.447C101.907 115.131 101.402 115.896 100.751 116.742C100.1 117.556 99.2699 118.419 98.2607 119.33ZM134.931 109.271C134.573 109.206 134.084 109.141 133.466 109.076C132.88 109.011 132.278 108.962 131.659 108.93C130.943 108.897 130.178 108.881 129.364 108.881C128.55 108.816 127.525 108.816 126.288 108.881C125.084 108.913 123.814 108.93 122.479 108.93C122.447 109.776 122.382 110.639 122.284 111.518C122.219 112.396 122.154 113.259 122.089 114.105C121.926 115.668 121.78 117.263 121.649 118.891C121.552 120.518 121.503 122.064 121.503 123.529C121.503 124.994 121.584 126.329 121.747 127.533C121.942 128.705 122.284 129.633 122.772 130.316C122.382 130.609 121.959 130.837 121.503 131C121.047 131.13 120.64 131.228 120.282 131.293C119.859 131.391 119.436 131.439 119.013 131.439C118.622 131.439 118.297 131.309 118.036 131.049C117.776 130.788 117.629 130.333 117.597 129.682C117.532 128.575 117.515 127.468 117.548 126.361C117.613 125.222 117.678 124.034 117.743 122.797C117.841 121.56 117.938 120.242 118.036 118.842C118.134 117.41 118.231 115.847 118.329 114.154C118.427 112.396 118.476 110.688 118.476 109.027C117.239 109.06 116.197 109.076 115.351 109.076C114.504 109.076 114.032 109.06 113.935 109.027C113.837 108.962 113.723 108.816 113.593 108.588C113.463 108.393 113.3 108.1 113.104 107.709C112.877 107.318 112.6 106.765 112.274 106.049C112.893 106.049 113.576 106.049 114.325 106.049C115.041 106.049 115.709 106.033 116.327 106C117.043 105.967 117.759 105.935 118.476 105.902C118.443 105.382 118.427 104.828 118.427 104.242C118.394 103.786 118.378 103.282 118.378 102.729C118.378 102.143 118.362 101.605 118.329 101.117C118.329 100.922 118.557 100.694 119.013 100.434C119.501 100.141 120.022 99.8802 120.575 99.6523C121.129 99.4245 121.633 99.278 122.089 99.2129C122.577 99.1478 122.821 99.2617 122.821 99.5547C122.821 99.8477 122.805 100.564 122.772 101.703C122.772 102.81 122.74 104.161 122.675 105.756C123 105.756 123.244 105.74 123.407 105.707C125.132 105.642 126.516 105.577 127.558 105.512C128.632 105.414 129.511 105.398 130.194 105.463C130.878 105.528 131.48 105.691 132.001 105.951C132.522 106.212 133.108 106.635 133.759 107.221C133.987 107.416 134.182 107.628 134.345 107.855C134.507 108.051 134.638 108.279 134.735 108.539C134.866 108.767 134.931 109.011 134.931 109.271ZM140.204 122.602C140.139 123.871 139.911 125.043 139.521 126.117C139.162 127.191 138.658 128.135 138.007 128.949C137.356 129.73 136.575 130.349 135.663 130.805C134.784 131.26 133.808 131.505 132.733 131.537C131.789 131.57 130.894 131.342 130.048 130.854C129.234 130.365 128.518 129.682 127.899 128.803C127.281 127.924 126.809 126.882 126.483 125.678C126.19 124.441 126.109 123.106 126.239 121.674C126.337 120.014 126.646 118.598 127.167 117.426C127.688 116.221 128.241 115.229 128.827 114.447C129.413 113.666 129.95 113.096 130.438 112.738C130.959 112.348 131.285 112.12 131.415 112.055C131.643 111.957 131.854 111.941 132.05 112.006C132.245 112.038 132.457 112.087 132.685 112.152C132.75 112.185 132.815 112.266 132.88 112.396C133.01 112.624 133.091 113.048 133.124 113.666C133.287 113.308 133.498 113.015 133.759 112.787C134.019 112.559 134.28 112.396 134.54 112.299C134.866 112.169 135.191 112.087 135.517 112.055C135.744 112.022 136.135 112.201 136.688 112.592C137.274 112.982 137.828 113.601 138.349 114.447C138.902 115.294 139.374 116.4 139.765 117.768C140.155 119.102 140.302 120.714 140.204 122.602ZM136.884 122.016C136.916 121.234 136.884 120.453 136.786 119.672C136.721 118.858 136.591 118.126 136.396 117.475C136.233 116.791 136.021 116.254 135.761 115.863C135.5 115.44 135.24 115.229 134.979 115.229C134.687 115.294 134.361 115.44 134.003 115.668C133.71 115.863 133.384 116.173 133.026 116.596C132.668 117.019 132.326 117.621 132.001 118.402C131.968 118.305 131.936 118.126 131.903 117.865C131.871 117.637 131.838 117.344 131.806 116.986C131.806 116.596 131.838 116.075 131.903 115.424C131.448 115.977 131.09 116.628 130.829 117.377C130.601 118.126 130.422 118.842 130.292 119.525C130.162 120.339 130.064 121.153 129.999 121.967C129.966 122.846 129.999 123.708 130.097 124.555C130.227 125.401 130.422 126.15 130.683 126.801C130.976 127.452 131.317 127.973 131.708 128.363C132.099 128.754 132.571 128.933 133.124 128.9C133.677 128.868 134.166 128.64 134.589 128.217C135.012 127.794 135.386 127.257 135.712 126.605C136.037 125.954 136.298 125.222 136.493 124.408C136.688 123.594 136.819 122.797 136.884 122.016ZM155.341 120.404C154.95 120.535 154.543 120.518 154.12 120.355C153.729 120.16 153.371 119.867 153.046 119.477C152.72 119.086 152.46 118.63 152.265 118.109C152.102 117.589 152.021 117.035 152.021 116.449C152.444 116.384 152.899 116.319 153.388 116.254C153.876 116.156 154.332 116.075 154.755 116.01C155.243 115.945 155.715 115.88 156.171 115.814C156.203 113.926 156.236 112.136 156.269 110.443C156.334 108.718 156.382 107.188 156.415 105.854C156.48 104.486 156.529 103.347 156.562 102.436C156.627 101.492 156.675 100.857 156.708 100.531C156.708 100.368 156.789 100.206 156.952 100.043C157.213 99.8477 157.587 99.571 158.075 99.2129C158.596 98.8548 159.182 98.5293 159.833 98.2363C160.386 98.0085 160.744 98.0898 160.907 98.4805C161.103 98.8385 161.2 99.5384 161.2 100.58C161.135 102.045 161.07 104.014 161.005 106.488C160.94 108.962 160.875 111.876 160.81 115.229C161.33 115.163 161.835 115.115 162.323 115.082C162.812 115.049 163.332 115.017 163.886 114.984C165.383 114.919 166.832 114.838 168.231 114.74C169.664 114.643 170.917 114.643 171.991 114.74C172.154 110.085 172.203 106.602 172.138 104.291C172.073 101.947 172.04 100.564 172.04 100.141C172.04 99.9453 172.252 99.7174 172.675 99.457C173.098 99.1966 173.554 98.9688 174.042 98.7734C174.563 98.5456 175.035 98.3991 175.458 98.334C175.881 98.2363 176.109 98.2526 176.142 98.3828C176.174 98.6107 176.174 99.1803 176.142 100.092C176.142 101.003 176.125 102.289 176.093 103.949C176.093 105.577 176.093 107.611 176.093 110.053C176.125 112.494 176.19 115.342 176.288 118.598C176.223 120.095 176.19 121.658 176.19 123.285C176.19 124.685 176.223 126.247 176.288 127.973C176.353 129.698 176.5 131.439 176.728 133.197C176.304 133.555 175.849 133.832 175.36 134.027C174.872 134.223 174.4 134.385 173.944 134.516C173.424 134.646 172.903 134.743 172.382 134.809C172.089 134.841 171.845 134.776 171.649 134.613C171.487 134.483 171.373 134.304 171.308 134.076C171.243 133.881 171.194 133.669 171.161 133.441C171.161 133.214 171.161 133.002 171.161 132.807C171.161 132.383 171.161 131.977 171.161 131.586C171.194 131.228 171.226 130.935 171.259 130.707C171.324 129.307 171.405 127.615 171.503 125.629C171.601 123.643 171.698 121.43 171.796 118.988C171.568 118.956 171.356 118.939 171.161 118.939C170.966 118.907 170.738 118.874 170.478 118.842C169.013 118.744 167.418 118.744 165.692 118.842C164 118.939 162.34 119.102 160.712 119.33C160.679 120.925 160.679 122.439 160.712 123.871C160.744 125.271 160.777 126.557 160.81 127.729C160.875 128.868 160.94 129.861 161.005 130.707C161.07 131.521 161.135 132.123 161.2 132.514C161.233 132.839 161.184 133.067 161.054 133.197C160.924 133.36 160.728 133.572 160.468 133.832C160.24 134.092 159.931 134.337 159.54 134.564C159.182 134.825 158.743 135.036 158.222 135.199C157.701 135.395 157.099 135.492 156.415 135.492C156.09 135.492 155.927 135.346 155.927 135.053C155.927 134.63 155.927 133.962 155.927 133.051C155.959 132.139 155.976 131.033 155.976 129.73C156.008 128.428 156.024 126.98 156.024 125.385C156.057 123.757 156.09 122.032 156.122 120.209C155.959 120.242 155.813 120.274 155.683 120.307C155.585 120.339 155.471 120.372 155.341 120.404ZM194.892 128.51C194.957 128.738 195.054 128.949 195.185 129.145C195.282 129.307 195.412 129.47 195.575 129.633C195.771 129.763 195.998 129.844 196.259 129.877C196.031 130.333 195.803 130.642 195.575 130.805C195.445 130.902 195.331 130.967 195.233 131C194.94 131.098 194.501 131.146 193.915 131.146C193.329 131.146 192.759 130.967 192.206 130.609C192.011 130.447 191.832 130.202 191.669 129.877C191.506 129.617 191.36 129.258 191.229 128.803C191.132 128.314 191.05 127.696 190.985 126.947C190.53 127.924 190.009 128.705 189.423 129.291C188.869 129.844 188.316 130.251 187.763 130.512C187.144 130.87 186.509 131.081 185.858 131.146C185.045 131.212 184.263 131.081 183.515 130.756C182.799 130.398 182.18 129.877 181.659 129.193C181.171 128.477 180.797 127.615 180.536 126.605C180.276 125.596 180.194 124.457 180.292 123.188C180.39 121.853 180.65 120.665 181.073 119.623C181.496 118.581 182.001 117.654 182.587 116.84C183.173 116.026 183.791 115.342 184.442 114.789C185.093 114.203 185.712 113.731 186.298 113.373C186.916 112.982 187.437 112.706 187.86 112.543C188.316 112.348 188.609 112.234 188.739 112.201C189.097 112.104 189.407 112.071 189.667 112.104C189.927 112.136 190.155 112.283 190.351 112.543C190.416 112.641 190.497 112.755 190.595 112.885C190.66 113.015 190.741 113.194 190.839 113.422C190.937 113.617 191.018 113.845 191.083 114.105C190.302 114.464 189.569 114.87 188.886 115.326C188.202 115.749 187.567 116.27 186.981 116.889C186.428 117.507 185.94 118.256 185.517 119.135C185.093 120.014 184.768 121.088 184.54 122.357C184.215 123.952 184.296 125.238 184.784 126.215C185.305 127.191 186.005 127.598 186.884 127.436C187.405 127.273 187.909 126.964 188.397 126.508C188.821 126.117 189.26 125.531 189.716 124.75C190.204 123.969 190.66 122.895 191.083 121.527C191.246 119.574 191.376 118.044 191.474 116.938C191.604 115.798 191.718 114.936 191.815 114.35C191.946 113.666 192.043 113.21 192.108 112.982C192.206 112.82 192.401 112.673 192.694 112.543C192.987 112.38 193.313 112.25 193.671 112.152C194.029 112.055 194.354 112.006 194.647 112.006C194.94 111.973 195.136 111.973 195.233 112.006C195.299 112.038 195.331 112.445 195.331 113.227C195.331 113.975 195.299 114.936 195.233 116.107C195.201 117.247 195.152 118.5 195.087 119.867C195.022 121.202 194.957 122.471 194.892 123.676C194.859 124.88 194.826 125.938 194.794 126.85C194.794 127.729 194.826 128.282 194.892 128.51ZM204.169 129.682C204.136 129.877 203.957 130.089 203.632 130.316C203.339 130.512 202.981 130.691 202.558 130.854C202.167 131.016 201.793 131.114 201.435 131.146C201.076 131.212 200.832 131.179 200.702 131.049C200.572 130.919 200.36 130.674 200.067 130.316C199.774 129.958 199.595 129.372 199.53 128.559C199.465 127.712 199.433 126.654 199.433 125.385C199.433 124.083 199.416 122.65 199.384 121.088V119.135C199.384 118.549 199.368 117.865 199.335 117.084C199.335 116.303 199.319 115.489 199.286 114.643C199.579 114.48 199.872 114.333 200.165 114.203C200.491 114.04 200.784 113.91 201.044 113.812C201.337 113.682 201.614 113.585 201.874 113.52C202.558 113.324 203.078 113.21 203.437 113.178C203.795 113.145 204.006 113.259 204.071 113.52C204.104 113.715 204.088 114.187 204.022 114.936C203.957 115.587 203.876 116.579 203.778 117.914C203.681 119.216 203.518 121.039 203.29 123.383C203.713 122.341 204.055 121.446 204.315 120.697C204.608 119.949 204.853 119.346 205.048 118.891C205.243 118.337 205.422 117.898 205.585 117.572C205.748 117.149 205.959 116.677 206.22 116.156C206.48 115.635 206.741 115.147 207.001 114.691C207.294 114.236 207.554 113.829 207.782 113.471C208.043 113.113 208.238 112.901 208.368 112.836C208.466 112.771 208.759 112.771 209.247 112.836C209.735 112.901 210.256 113.064 210.81 113.324C211.363 113.552 211.9 113.894 212.421 114.35C212.942 114.773 213.284 115.294 213.446 115.912C213.642 116.628 213.707 117.572 213.642 118.744C213.609 119.916 213.528 121.12 213.397 122.357C213.3 123.594 213.218 124.766 213.153 125.873C213.088 126.98 213.153 127.826 213.349 128.412C213.414 128.738 213.511 129.031 213.642 129.291C213.707 129.551 213.788 129.796 213.886 130.023C214.016 130.219 214.146 130.365 214.276 130.463C213.495 130.821 212.86 131.081 212.372 131.244C211.884 131.407 211.509 131.521 211.249 131.586C210.924 131.684 210.696 131.716 210.565 131.684C210.272 131.586 210.012 131.342 209.784 130.951C209.589 130.561 209.41 129.942 209.247 129.096C209.182 128.835 209.149 128.412 209.149 127.826C209.182 127.208 209.231 126.524 209.296 125.775C209.361 124.994 209.426 124.197 209.491 123.383C209.589 122.536 209.654 121.755 209.687 121.039C209.752 120.29 209.8 119.656 209.833 119.135C209.866 118.581 209.866 118.207 209.833 118.012C209.67 117.426 209.442 117.019 209.149 116.791C208.856 116.531 208.629 116.498 208.466 116.693C208.043 117.182 207.587 117.979 207.099 119.086C206.643 120.16 206.203 121.348 205.78 122.65C205.357 123.92 204.999 125.189 204.706 126.459C204.413 127.729 204.234 128.803 204.169 129.682ZM222.479 131.439C221.796 131.439 221.096 131.26 220.38 130.902C219.664 130.544 218.996 130.007 218.378 129.291C217.759 128.542 217.255 127.631 216.864 126.557C216.474 125.45 216.278 124.164 216.278 122.699C216.278 120.551 216.555 118.777 217.108 117.377C217.662 115.945 218.329 114.805 219.11 113.959C219.924 113.08 220.803 112.462 221.747 112.104C222.691 111.745 223.554 111.566 224.335 111.566C225.149 111.566 225.816 111.713 226.337 112.006C226.89 112.266 227.346 112.576 227.704 112.934V112.006C227.899 111.843 228.111 111.697 228.339 111.566C228.599 111.436 228.86 111.339 229.12 111.273C229.381 111.176 229.657 111.127 229.95 111.127H230.683C230.878 111.16 231.073 111.192 231.269 111.225C231.496 111.257 231.659 111.339 231.757 111.469C231.562 115.733 231.399 119.184 231.269 121.82C231.138 124.457 231.041 126.508 230.976 127.973C230.878 129.698 230.813 130.951 230.78 131.732C230.715 133.1 230.536 134.451 230.243 135.785C229.95 137.152 229.494 138.373 228.876 139.447C228.257 140.521 227.444 141.384 226.435 142.035C225.425 142.686 224.188 143.012 222.724 143.012C221.454 143.012 220.429 142.768 219.647 142.279C218.899 141.791 218.313 141.189 217.89 140.473C217.499 139.757 217.239 138.992 217.108 138.178C216.978 137.396 216.913 136.68 216.913 136.029C216.913 135.867 216.994 135.622 217.157 135.297C217.353 134.971 217.613 134.63 217.938 134.271C218.297 133.946 218.736 133.653 219.257 133.393C219.778 133.132 220.364 132.969 221.015 132.904C220.722 133.783 220.543 134.581 220.478 135.297C220.412 135.688 220.396 136.078 220.429 136.469C220.429 137.543 220.64 138.438 221.063 139.154C221.487 139.87 222.138 140.229 223.017 140.229C223.961 140.229 224.726 139.822 225.312 139.008C225.897 138.227 226.337 137.266 226.63 136.127C226.955 135.02 227.167 133.848 227.265 132.611C227.395 131.407 227.46 130.382 227.46 129.535V128.119C227.265 128.477 227.021 128.852 226.728 129.242C226.467 129.633 226.142 129.991 225.751 130.316C225.36 130.642 224.888 130.902 224.335 131.098C223.814 131.326 223.196 131.439 222.479 131.439ZM224.481 114.35C223.928 114.35 223.391 114.594 222.87 115.082C222.382 115.57 221.942 116.221 221.552 117.035C221.161 117.816 220.852 118.712 220.624 119.721C220.396 120.73 220.282 121.739 220.282 122.748C220.282 123.399 220.315 124.066 220.38 124.75C220.478 125.434 220.64 126.068 220.868 126.654C221.129 127.208 221.454 127.663 221.845 128.021C222.235 128.38 222.756 128.559 223.407 128.559C223.896 128.526 224.351 128.331 224.774 127.973C225.132 127.68 225.491 127.208 225.849 126.557C226.239 125.906 226.549 124.978 226.776 123.773C227.037 124.034 227.232 124.278 227.362 124.506C227.525 124.734 227.655 124.945 227.753 125.141C227.785 124.88 227.802 124.571 227.802 124.213C227.834 123.855 227.851 123.448 227.851 122.992C227.851 122.113 227.802 121.169 227.704 120.16C227.606 119.118 227.427 118.174 227.167 117.328C226.939 116.482 226.597 115.782 226.142 115.229C225.718 114.643 225.165 114.35 224.481 114.35ZM78.7539 167.533C75.987 167.533 73.7897 166.312 72.1621 163.871C70.5671 161.43 69.5905 157.947 69.2324 153.422C69.1022 151.859 69.0859 150.313 69.1836 148.783C69.2812 147.253 69.444 145.854 69.6719 144.584C69.8997 143.314 70.1764 142.224 70.502 141.312C70.8275 140.401 71.153 139.783 71.4785 139.457C71.804 139.132 72.1784 138.839 72.6016 138.578C73.0247 138.318 73.4316 138.122 73.8223 137.992C74.2454 137.829 74.6361 137.764 74.9941 137.797C75.3522 137.797 75.6452 137.895 75.873 138.09C75.1895 140.238 74.6686 142.37 74.3105 144.486C73.9525 146.57 73.7409 148.555 73.6758 150.443C73.6432 152.331 73.7246 154.089 73.9199 155.717C74.1478 157.344 74.4896 158.744 74.9453 159.916C75.401 161.088 75.9707 162.016 76.6543 162.699C77.3379 163.35 78.1191 163.676 78.998 163.676C80.528 163.676 81.6836 163.008 82.4648 161.674C83.2786 160.339 83.8483 158.63 84.1738 156.547C84.4993 154.464 84.6621 152.152 84.6621 149.613C84.6621 147.074 84.6458 144.584 84.6133 142.143C84.5807 140.971 84.6621 140.076 84.8574 139.457C85.0853 138.806 85.5573 138.35 86.2734 138.09C86.5339 137.992 86.7943 137.911 87.0547 137.846C87.5755 137.715 87.9987 137.748 88.3242 137.943C88.5846 138.985 88.7799 140.287 88.9102 141.85C89.0729 143.38 89.1868 144.893 89.252 146.391C89.3496 148.148 89.3984 149.955 89.3984 151.811C89.4635 152.462 89.5286 153.357 89.5938 154.496C89.6914 155.635 89.7402 156.905 89.7402 158.305C89.7402 159.704 89.6914 161.202 89.5938 162.797C89.4961 164.359 89.3008 165.922 89.0078 167.484C88.7148 169.014 88.3079 170.479 87.7871 171.879C87.2663 173.311 86.5664 174.564 85.6875 175.639C84.8086 176.745 83.7507 177.608 82.5137 178.227C81.2767 178.878 79.8118 179.203 78.1191 179.203C76.752 179.203 75.5475 178.829 74.5059 178.08C73.4642 177.331 72.6178 176.469 71.9668 175.492C71.3483 174.548 70.9251 173.637 70.6973 172.758C70.502 171.879 70.5508 171.293 70.8438 171L73.2852 168.803C73.6107 170.398 74.0664 171.618 74.6523 172.465C75.2708 173.311 75.8893 173.93 76.5078 174.32C77.224 174.776 77.9727 175.036 78.7539 175.102C80.0234 175.102 81.0488 174.776 81.8301 174.125C82.6439 173.507 83.2949 172.628 83.7832 171.488C84.2715 170.349 84.6296 168.998 84.8574 167.436C85.0853 165.84 85.248 164.115 85.3457 162.26C84.7272 163.725 83.8809 164.978 82.8066 166.02C81.765 167.029 80.4141 167.533 78.7539 167.533ZM107.025 162.602C106.96 163.871 106.732 165.043 106.342 166.117C105.984 167.191 105.479 168.135 104.828 168.949C104.177 169.73 103.396 170.349 102.484 170.805C101.605 171.26 100.629 171.505 99.5547 171.537C98.6107 171.57 97.7155 171.342 96.8691 170.854C96.0553 170.365 95.3392 169.682 94.7207 168.803C94.1022 167.924 93.6302 166.882 93.3047 165.678C93.0117 164.441 92.9303 163.106 93.0605 161.674C93.1582 160.014 93.4674 158.598 93.9883 157.426C94.5091 156.221 95.0625 155.229 95.6484 154.447C96.2344 153.666 96.7715 153.096 97.2598 152.738C97.7806 152.348 98.1061 152.12 98.2363 152.055C98.4642 151.957 98.6758 151.941 98.8711 152.006C99.0664 152.038 99.278 152.087 99.5059 152.152C99.571 152.185 99.6361 152.266 99.7012 152.396C99.8314 152.624 99.9128 153.048 99.9453 153.666C100.108 153.308 100.32 153.015 100.58 152.787C100.84 152.559 101.101 152.396 101.361 152.299C101.687 152.169 102.012 152.087 102.338 152.055C102.566 152.022 102.956 152.201 103.51 152.592C104.096 152.982 104.649 153.601 105.17 154.447C105.723 155.294 106.195 156.4 106.586 157.768C106.977 159.102 107.123 160.714 107.025 162.602ZM103.705 162.016C103.738 161.234 103.705 160.453 103.607 159.672C103.542 158.858 103.412 158.126 103.217 157.475C103.054 156.791 102.842 156.254 102.582 155.863C102.322 155.44 102.061 155.229 101.801 155.229C101.508 155.294 101.182 155.44 100.824 155.668C100.531 155.863 100.206 156.173 99.8477 156.596C99.4896 157.019 99.1478 157.621 98.8223 158.402C98.7897 158.305 98.7572 158.126 98.7246 157.865C98.6921 157.637 98.6595 157.344 98.627 156.986C98.627 156.596 98.6595 156.075 98.7246 155.424C98.2689 155.977 97.9108 156.628 97.6504 157.377C97.4225 158.126 97.2435 158.842 97.1133 159.525C96.9831 160.339 96.8854 161.153 96.8203 161.967C96.7878 162.846 96.8203 163.708 96.918 164.555C97.0482 165.401 97.2435 166.15 97.5039 166.801C97.7969 167.452 98.1387 167.973 98.5293 168.363C98.9199 168.754 99.3919 168.933 99.9453 168.9C100.499 168.868 100.987 168.64 101.41 168.217C101.833 167.794 102.208 167.257 102.533 166.605C102.859 165.954 103.119 165.222 103.314 164.408C103.51 163.594 103.64 162.797 103.705 162.016ZM120.746 152.836C120.746 152.478 120.958 152.217 121.381 152.055C121.837 151.859 122.309 151.762 122.797 151.762C123.318 151.762 123.79 151.859 124.213 152.055C124.636 152.217 124.831 152.445 124.799 152.738C124.766 152.966 124.734 153.422 124.701 154.105C124.669 154.757 124.62 155.538 124.555 156.449C124.522 157.361 124.473 158.337 124.408 159.379C124.343 160.421 124.278 161.446 124.213 162.455C124.18 163.432 124.148 164.343 124.115 165.189C124.115 166.036 124.115 166.687 124.115 167.143C124.115 167.729 124.148 168.266 124.213 168.754C124.278 169.177 124.359 169.6 124.457 170.023C124.555 170.414 124.701 170.691 124.896 170.854C124.636 170.951 124.359 171.016 124.066 171.049C123.806 171.081 123.562 171.114 123.334 171.146C123.074 171.179 122.813 171.195 122.553 171.195C121.999 171.195 121.527 171.081 121.137 170.854C120.779 170.626 120.6 170.154 120.6 169.438C120.6 169.079 120.616 168.559 120.648 167.875C120.714 167.191 120.779 166.459 120.844 165.678C120.616 166.361 120.339 167.061 120.014 167.777C119.688 168.493 119.281 169.128 118.793 169.682C118.337 170.235 117.816 170.691 117.23 171.049C116.645 171.407 115.977 171.586 115.229 171.586C114.382 171.586 113.601 171.407 112.885 171.049C112.201 170.691 111.599 170.186 111.078 169.535C110.557 168.852 110.167 168.021 109.906 167.045C109.646 166.068 109.548 164.945 109.613 163.676C109.613 162.699 109.63 161.658 109.662 160.551C109.695 159.607 109.743 158.516 109.809 157.279C109.874 156.042 109.988 154.757 110.15 153.422C110.183 153.292 110.411 153.129 110.834 152.934C111.257 152.738 111.729 152.576 112.25 152.445C112.771 152.315 113.275 152.266 113.764 152.299C114.252 152.331 114.61 152.527 114.838 152.885C114.675 153.471 114.512 154.171 114.35 154.984C114.187 155.766 114.04 156.579 113.91 157.426C113.78 158.272 113.682 159.102 113.617 159.916C113.552 160.73 113.52 161.479 113.52 162.162C113.52 162.781 113.552 163.464 113.617 164.213C113.682 164.929 113.796 165.613 113.959 166.264C114.154 166.882 114.415 167.403 114.74 167.826C115.098 168.249 115.554 168.461 116.107 168.461C116.726 168.461 117.263 168.201 117.719 167.68C118.207 167.126 118.614 166.426 118.939 165.58C119.265 164.734 119.542 163.773 119.77 162.699C119.997 161.592 120.176 160.502 120.307 159.428C120.469 158.354 120.567 157.328 120.6 156.352C120.665 155.342 120.714 154.496 120.746 153.812V152.836ZM141.449 156.01C141.449 156.465 141.319 156.938 141.059 157.426C140.831 157.882 140.538 158.321 140.18 158.744C139.822 159.167 139.415 159.542 138.959 159.867C138.536 160.16 138.129 160.339 137.738 160.404C137.999 159.395 138.08 158.614 137.982 158.061C137.885 157.507 137.722 157.1 137.494 156.84C137.234 156.547 136.908 156.384 136.518 156.352C135.932 156.352 135.362 156.693 134.809 157.377C134.288 158.028 133.832 158.842 133.441 159.818C133.051 160.762 132.742 161.788 132.514 162.895C132.286 163.969 132.172 164.945 132.172 165.824C132.139 166.443 132.156 167.045 132.221 167.631C132.253 168.119 132.302 168.624 132.367 169.145C132.465 169.665 132.595 170.072 132.758 170.365C132.562 170.528 132.237 170.723 131.781 170.951C131.358 171.179 130.902 171.326 130.414 171.391C129.958 171.456 129.535 171.374 129.145 171.146C128.786 170.919 128.591 170.43 128.559 169.682C128.493 168.965 128.445 168.168 128.412 167.289C128.412 166.378 128.412 165.482 128.412 164.604C128.445 163.692 128.477 162.797 128.51 161.918C128.542 161.039 128.591 160.225 128.656 159.477C128.721 158.044 128.754 156.938 128.754 156.156C128.754 155.375 128.738 154.626 128.705 153.91C128.705 153.78 128.917 153.601 129.34 153.373C129.796 153.113 130.284 152.885 130.805 152.689C131.358 152.494 131.863 152.38 132.318 152.348C132.774 152.315 133.002 152.413 133.002 152.641C133.002 152.999 132.953 153.715 132.855 154.789C132.79 155.831 132.693 156.921 132.562 158.061C132.79 157.442 133.083 156.775 133.441 156.059C133.832 155.342 134.271 154.675 134.76 154.057C135.248 153.438 135.801 152.934 136.42 152.543C137.038 152.12 137.722 151.908 138.471 151.908C139.057 151.908 139.529 152.087 139.887 152.445C140.277 152.803 140.587 153.21 140.814 153.666C141.042 154.122 141.205 154.577 141.303 155.033C141.4 155.489 141.449 155.814 141.449 156.01ZM150.727 161.723C151.443 161.983 152.126 162.227 152.777 162.455C153.428 162.683 153.998 162.96 154.486 163.285C154.975 163.611 155.365 164.001 155.658 164.457C155.951 164.88 156.098 165.417 156.098 166.068C156.098 166.85 155.919 167.582 155.561 168.266C155.235 168.949 154.747 169.551 154.096 170.072C153.445 170.593 152.647 171 151.703 171.293C150.792 171.618 149.766 171.781 148.627 171.781C147.357 171.781 146.332 171.651 145.551 171.391C144.77 171.163 144.167 170.886 143.744 170.561C143.321 170.235 143.044 169.91 142.914 169.584C142.784 169.258 142.719 168.998 142.719 168.803C142.719 168.412 142.8 167.989 142.963 167.533C143.126 167.045 143.435 166.524 143.891 165.971C144.086 165.743 144.298 165.531 144.525 165.336C144.981 164.945 145.437 164.701 145.893 164.604C145.827 165.352 145.909 165.971 146.137 166.459C146.397 166.915 146.723 167.273 147.113 167.533C147.536 167.794 147.992 167.973 148.48 168.07C149.001 168.168 149.49 168.217 149.945 168.217C150.401 168.217 150.857 168.152 151.312 168.021C151.801 167.891 152.24 167.729 152.631 167.533C153.021 167.305 153.331 167.061 153.559 166.801C153.819 166.508 153.949 166.199 153.949 165.873C153.949 165.515 153.803 165.222 153.51 164.994C153.217 164.766 152.842 164.587 152.387 164.457C151.964 164.294 151.492 164.18 150.971 164.115C150.482 164.018 150.01 163.92 149.555 163.822C149.099 163.725 148.48 163.594 147.699 163.432C146.951 163.236 146.202 162.943 145.453 162.553C144.737 162.162 144.102 161.641 143.549 160.99C143.028 160.339 142.768 159.477 142.768 158.402C142.768 157.165 143.077 156.091 143.695 155.18C144.346 154.236 145.128 153.454 146.039 152.836C146.983 152.185 147.976 151.697 149.018 151.371C150.059 151.046 150.987 150.883 151.801 150.883C152.224 150.883 152.68 150.948 153.168 151.078C153.656 151.176 154.112 151.371 154.535 151.664C154.958 151.924 155.3 152.283 155.561 152.738C155.854 153.194 156 153.78 156 154.496C156 155.212 155.935 155.798 155.805 156.254C155.707 156.677 155.544 157.019 155.316 157.279C155.121 157.507 154.877 157.654 154.584 157.719C154.291 157.784 153.949 157.816 153.559 157.816C153.298 157.816 153.054 157.784 152.826 157.719C152.631 157.654 152.419 157.589 152.191 157.523C151.964 157.458 151.752 157.344 151.557 157.182C151.882 156.791 152.126 156.417 152.289 156.059C152.484 155.701 152.582 155.261 152.582 154.74C152.582 154.285 152.452 153.878 152.191 153.52C151.964 153.161 151.573 152.982 151.02 152.982C150.434 152.982 149.864 153.096 149.311 153.324C148.79 153.552 148.318 153.861 147.895 154.252C147.504 154.643 147.178 155.098 146.918 155.619C146.69 156.107 146.576 156.645 146.576 157.23C146.576 158.109 146.902 158.939 147.553 159.721C148.236 160.502 149.294 161.169 150.727 161.723ZM165.473 171.537C163.194 171.537 161.436 170.772 160.199 169.242C158.962 167.712 158.344 165.71 158.344 163.236C158.344 161.511 158.588 159.9 159.076 158.402C159.597 156.872 160.281 155.554 161.127 154.447C161.973 153.34 162.95 152.478 164.057 151.859C165.196 151.208 166.384 150.883 167.621 150.883C168.826 150.883 169.851 151.322 170.697 152.201C171.544 153.048 171.967 154.268 171.967 155.863C171.967 156.905 171.739 157.947 171.283 158.988C170.827 159.997 170.225 160.909 169.477 161.723C168.76 162.504 167.963 163.139 167.084 163.627C166.205 164.115 165.359 164.359 164.545 164.359C164.024 164.359 163.585 164.294 163.227 164.164C162.868 164.034 162.543 163.839 162.25 163.578C162.348 165.434 162.755 166.736 163.471 167.484C164.187 168.201 165.115 168.559 166.254 168.559C167.035 168.559 167.719 168.396 168.305 168.07C168.923 167.745 169.444 167.37 169.867 166.947C170.29 166.524 170.632 166.101 170.893 165.678C171.153 165.222 171.332 164.88 171.43 164.652C171.527 164.457 171.69 164.359 171.918 164.359C172.178 164.359 172.309 164.555 172.309 164.945C172.309 165.303 172.178 165.857 171.918 166.605C171.69 167.322 171.299 168.054 170.746 168.803C170.193 169.519 169.477 170.154 168.598 170.707C167.751 171.26 166.71 171.537 165.473 171.537ZM167.719 152.982C167.523 152.982 167.149 153.194 166.596 153.617C166.075 154.008 165.505 154.594 164.887 155.375C164.301 156.156 163.747 157.1 163.227 158.207C162.738 159.281 162.429 160.502 162.299 161.869C164.252 161.413 165.798 160.697 166.938 159.721C168.077 158.744 168.646 157.312 168.646 155.424C168.646 154.48 168.533 153.845 168.305 153.52C168.077 153.161 167.882 152.982 167.719 152.982ZM181.488 139.359C181.423 140.531 181.309 141.882 181.146 143.412C180.984 144.942 180.805 146.586 180.609 148.344C180.447 150.102 180.268 151.941 180.072 153.861C179.91 155.782 179.763 157.719 179.633 159.672C179.503 161.625 179.438 163.22 179.438 164.457C179.47 165.661 179.551 166.654 179.682 167.436C179.812 168.217 179.991 168.835 180.219 169.291C180.447 169.747 180.74 170.186 181.098 170.609C180.674 170.87 180.284 171.065 179.926 171.195C179.568 171.326 179.258 171.423 178.998 171.488C178.673 171.586 178.38 171.635 178.119 171.635C177.631 171.635 177.208 171.407 176.85 170.951C176.492 170.463 176.199 169.844 175.971 169.096C175.775 168.347 175.613 167.517 175.482 166.605C175.385 165.661 175.336 164.734 175.336 163.822C175.336 162.846 175.368 161.723 175.434 160.453C175.499 159.151 175.564 157.784 175.629 156.352C175.727 154.887 175.824 153.373 175.922 151.811C176.02 150.215 176.101 148.637 176.166 147.074C176.231 145.87 176.296 144.779 176.361 143.803C176.426 142.956 176.475 142.191 176.508 141.508C176.54 140.792 176.524 140.368 176.459 140.238C176.654 139.978 176.898 139.783 177.191 139.652C177.484 139.522 177.761 139.408 178.021 139.311C178.347 139.213 178.673 139.132 178.998 139.066H179.926C180.186 139.066 180.463 139.099 180.756 139.164C181.049 139.197 181.293 139.262 181.488 139.359ZM193.012 139.262C193.956 139.327 194.802 139.555 195.551 139.945C196.202 140.303 196.788 140.873 197.309 141.654C197.829 142.403 198.106 143.477 198.139 144.877C197.65 145.235 197.162 145.495 196.674 145.658C196.186 145.821 195.746 145.935 195.355 146C194.9 146.065 194.46 146.065 194.037 146C194.167 145.089 194.167 144.389 194.037 143.9C193.939 143.412 193.793 143.054 193.598 142.826C193.37 142.566 193.077 142.419 192.719 142.387C191.645 142.387 190.847 143.201 190.326 144.828C189.838 146.423 189.545 148.62 189.447 151.42C189.903 151.355 190.31 151.273 190.668 151.176C191.026 151.078 191.433 151.013 191.889 150.98C192.312 150.948 192.719 150.932 193.109 150.932C193.467 150.932 193.826 150.964 194.184 151.029C194.574 151.094 194.932 151.208 195.258 151.371C195.323 151.924 195.323 152.429 195.258 152.885C195.193 153.34 195.095 153.747 194.965 154.105C194.835 154.496 194.656 154.87 194.428 155.229C194.037 155.033 193.549 154.903 192.963 154.838C192.41 154.773 191.872 154.74 191.352 154.74C190.733 154.74 190.098 154.773 189.447 154.838C189.48 156.335 189.512 157.751 189.545 159.086C189.577 160.388 189.61 161.674 189.643 162.943C189.708 164.18 189.773 165.434 189.838 166.703C189.903 167.94 189.968 169.21 190.033 170.512C189.675 170.967 189.285 171.244 188.861 171.342C188.471 171.472 188.096 171.521 187.738 171.488C187.315 171.456 186.892 171.342 186.469 171.146C186.208 168.998 185.997 166.98 185.834 165.092C185.704 163.171 185.59 161.495 185.492 160.062C185.362 158.402 185.264 156.872 185.199 155.473C184.646 155.538 184.174 155.587 183.783 155.619C183.425 155.619 183.148 155.603 182.953 155.57C182.823 155.57 182.758 155.473 182.758 155.277L182.709 152.982C182.709 152.852 182.774 152.787 182.904 152.787C183.132 152.722 183.425 152.657 183.783 152.592C184.174 152.494 184.63 152.38 185.15 152.25C185.281 148.116 185.98 144.926 187.25 142.68C188.52 140.401 190.44 139.262 193.012 139.262ZM85.8584 194.998C85.6631 194.803 85.5166 194.591 85.4189 194.363C85.3213 194.103 85.2399 193.842 85.1748 193.582C85.1097 193.289 85.0609 192.996 85.0283 192.703C84.9958 192.443 84.9958 192.182 85.0283 191.922C85.0283 191.434 85.126 191.059 85.3213 190.799C85.6794 190.734 86.07 190.669 86.4932 190.604C86.9163 190.506 87.3232 190.424 87.7139 190.359C88.1696 190.294 88.6416 190.229 89.1299 190.164C89.3903 189.904 89.7321 189.627 90.1553 189.334C90.611 189.008 91.1156 188.715 91.6689 188.455C92.0921 188.26 92.3851 188.26 92.5479 188.455C92.7106 188.65 92.8245 189.057 92.8896 189.676C93.7035 189.611 94.5498 189.546 95.4287 189.48C96.3076 189.415 97.2191 189.383 98.1631 189.383C99.4326 189.35 100.621 189.318 101.728 189.285C102.672 189.253 103.616 189.253 104.56 189.285C105.536 189.285 106.285 189.301 106.806 189.334C107.066 189.367 107.261 189.562 107.392 189.92C107.554 190.245 107.603 190.685 107.538 191.238C107.506 191.759 107.343 192.329 107.05 192.947C106.757 193.566 106.317 194.168 105.731 194.754C104.95 194.591 104.12 194.461 103.241 194.363C102.395 194.266 101.614 194.184 100.897 194.119C100.051 194.054 99.2373 194.038 98.4561 194.07C97.512 194.07 96.568 194.103 95.624 194.168C94.68 194.201 93.7848 194.249 92.9385 194.314C92.9059 195.779 92.8734 197.488 92.8408 199.441C92.8408 201.362 92.8245 203.494 92.792 205.838C93.2477 205.773 93.6872 205.74 94.1104 205.74C94.5335 205.708 94.973 205.675 95.4287 205.643C96.6006 205.577 97.7399 205.512 98.8467 205.447C99.9535 205.382 100.914 205.415 101.728 205.545C102.574 205.643 103.209 205.887 103.632 206.277C104.055 206.668 104.153 207.286 103.925 208.133L103.241 210.477C103.176 210.314 102.997 210.184 102.704 210.086C102.444 209.956 102.134 209.858 101.776 209.793C101.386 209.695 100.946 209.614 100.458 209.549C99.3187 209.419 98.0654 209.402 96.6982 209.5C95.3311 209.598 94.0127 209.744 92.7432 209.939C92.7432 211.567 92.7594 213.113 92.792 214.578C92.8571 216.01 92.9222 217.312 92.9873 218.484C93.085 219.656 93.1663 220.665 93.2314 221.512C93.2965 222.358 93.3454 222.993 93.3779 223.416C93.4105 223.709 93.3779 223.937 93.2803 224.1C93.1175 224.295 92.9222 224.523 92.6943 224.783C92.4665 225.044 92.1735 225.304 91.8154 225.564C91.4574 225.825 91.0179 226.036 90.4971 226.199C90.0088 226.395 89.4391 226.508 88.7881 226.541C88.4951 226.541 88.3486 226.395 88.3486 226.102V210.965C87.7952 210.932 87.2907 210.509 86.835 209.695C86.3792 208.882 86.1676 207.97 86.2002 206.961C86.4281 206.896 86.6559 206.847 86.8838 206.814C87.1442 206.782 87.3883 206.733 87.6162 206.668C87.8766 206.603 88.1208 206.554 88.3486 206.521C88.3486 204.178 88.3649 201.997 88.3975 199.979C88.43 197.928 88.4788 196.17 88.5439 194.705C88.251 194.738 87.9417 194.77 87.6162 194.803C87.3558 194.835 87.0628 194.868 86.7373 194.9C86.4118 194.933 86.1188 194.965 85.8584 194.998ZM120.087 213.602C120.022 214.871 119.794 216.043 119.403 217.117C119.045 218.191 118.541 219.135 117.89 219.949C117.239 220.73 116.457 221.349 115.546 221.805C114.667 222.26 113.69 222.505 112.616 222.537C111.672 222.57 110.777 222.342 109.931 221.854C109.117 221.365 108.401 220.682 107.782 219.803C107.164 218.924 106.692 217.882 106.366 216.678C106.073 215.441 105.992 214.106 106.122 212.674C106.22 211.014 106.529 209.598 107.05 208.426C107.571 207.221 108.124 206.229 108.71 205.447C109.296 204.666 109.833 204.096 110.321 203.738C110.842 203.348 111.168 203.12 111.298 203.055C111.526 202.957 111.737 202.941 111.933 203.006C112.128 203.038 112.34 203.087 112.567 203.152C112.632 203.185 112.698 203.266 112.763 203.396C112.893 203.624 112.974 204.048 113.007 204.666C113.17 204.308 113.381 204.015 113.642 203.787C113.902 203.559 114.162 203.396 114.423 203.299C114.748 203.169 115.074 203.087 115.399 203.055C115.627 203.022 116.018 203.201 116.571 203.592C117.157 203.982 117.711 204.601 118.231 205.447C118.785 206.294 119.257 207.4 119.647 208.768C120.038 210.102 120.185 211.714 120.087 213.602ZM116.767 213.016C116.799 212.234 116.767 211.453 116.669 210.672C116.604 209.858 116.474 209.126 116.278 208.475C116.116 207.791 115.904 207.254 115.644 206.863C115.383 206.44 115.123 206.229 114.862 206.229C114.569 206.294 114.244 206.44 113.886 206.668C113.593 206.863 113.267 207.173 112.909 207.596C112.551 208.019 112.209 208.621 111.884 209.402C111.851 209.305 111.819 209.126 111.786 208.865C111.754 208.637 111.721 208.344 111.688 207.986C111.688 207.596 111.721 207.075 111.786 206.424C111.33 206.977 110.972 207.628 110.712 208.377C110.484 209.126 110.305 209.842 110.175 210.525C110.045 211.339 109.947 212.153 109.882 212.967C109.849 213.846 109.882 214.708 109.979 215.555C110.11 216.401 110.305 217.15 110.565 217.801C110.858 218.452 111.2 218.973 111.591 219.363C111.981 219.754 112.453 219.933 113.007 219.9C113.56 219.868 114.049 219.64 114.472 219.217C114.895 218.794 115.269 218.257 115.595 217.605C115.92 216.954 116.181 216.222 116.376 215.408C116.571 214.594 116.701 213.797 116.767 213.016ZM135.956 207.01C135.956 207.465 135.826 207.938 135.565 208.426C135.338 208.882 135.045 209.321 134.687 209.744C134.328 210.167 133.922 210.542 133.466 210.867C133.043 211.16 132.636 211.339 132.245 211.404C132.506 210.395 132.587 209.614 132.489 209.061C132.392 208.507 132.229 208.1 132.001 207.84C131.741 207.547 131.415 207.384 131.024 207.352C130.438 207.352 129.869 207.693 129.315 208.377C128.795 209.028 128.339 209.842 127.948 210.818C127.558 211.762 127.248 212.788 127.021 213.895C126.793 214.969 126.679 215.945 126.679 216.824C126.646 217.443 126.662 218.045 126.728 218.631C126.76 219.119 126.809 219.624 126.874 220.145C126.972 220.665 127.102 221.072 127.265 221.365C127.069 221.528 126.744 221.723 126.288 221.951C125.865 222.179 125.409 222.326 124.921 222.391C124.465 222.456 124.042 222.374 123.651 222.146C123.293 221.919 123.098 221.43 123.065 220.682C123 219.965 122.951 219.168 122.919 218.289C122.919 217.378 122.919 216.482 122.919 215.604C122.951 214.692 122.984 213.797 123.017 212.918C123.049 212.039 123.098 211.225 123.163 210.477C123.228 209.044 123.261 207.938 123.261 207.156C123.261 206.375 123.244 205.626 123.212 204.91C123.212 204.78 123.424 204.601 123.847 204.373C124.302 204.113 124.791 203.885 125.312 203.689C125.865 203.494 126.369 203.38 126.825 203.348C127.281 203.315 127.509 203.413 127.509 203.641C127.509 203.999 127.46 204.715 127.362 205.789C127.297 206.831 127.2 207.921 127.069 209.061C127.297 208.442 127.59 207.775 127.948 207.059C128.339 206.342 128.778 205.675 129.267 205.057C129.755 204.438 130.308 203.934 130.927 203.543C131.545 203.12 132.229 202.908 132.978 202.908C133.563 202.908 134.035 203.087 134.394 203.445C134.784 203.803 135.093 204.21 135.321 204.666C135.549 205.122 135.712 205.577 135.81 206.033C135.907 206.489 135.956 206.814 135.956 207.01ZM144.062 222.537C141.783 222.537 140.025 221.772 138.788 220.242C137.551 218.712 136.933 216.71 136.933 214.236C136.933 212.511 137.177 210.9 137.665 209.402C138.186 207.872 138.869 206.554 139.716 205.447C140.562 204.34 141.539 203.478 142.646 202.859C143.785 202.208 144.973 201.883 146.21 201.883C147.414 201.883 148.44 202.322 149.286 203.201C150.132 204.048 150.556 205.268 150.556 206.863C150.556 207.905 150.328 208.947 149.872 209.988C149.416 210.997 148.814 211.909 148.065 212.723C147.349 213.504 146.552 214.139 145.673 214.627C144.794 215.115 143.948 215.359 143.134 215.359C142.613 215.359 142.174 215.294 141.815 215.164C141.457 215.034 141.132 214.839 140.839 214.578C140.937 216.434 141.343 217.736 142.06 218.484C142.776 219.201 143.703 219.559 144.843 219.559C145.624 219.559 146.308 219.396 146.894 219.07C147.512 218.745 148.033 218.37 148.456 217.947C148.879 217.524 149.221 217.101 149.481 216.678C149.742 216.222 149.921 215.88 150.019 215.652C150.116 215.457 150.279 215.359 150.507 215.359C150.767 215.359 150.897 215.555 150.897 215.945C150.897 216.303 150.767 216.857 150.507 217.605C150.279 218.322 149.888 219.054 149.335 219.803C148.782 220.519 148.065 221.154 147.187 221.707C146.34 222.26 145.299 222.537 144.062 222.537ZM146.308 203.982C146.112 203.982 145.738 204.194 145.185 204.617C144.664 205.008 144.094 205.594 143.476 206.375C142.89 207.156 142.336 208.1 141.815 209.207C141.327 210.281 141.018 211.502 140.888 212.869C142.841 212.413 144.387 211.697 145.526 210.721C146.666 209.744 147.235 208.312 147.235 206.424C147.235 205.48 147.121 204.845 146.894 204.52C146.666 204.161 146.47 203.982 146.308 203.982ZM161.444 212.723C162.16 212.983 162.844 213.227 163.495 213.455C164.146 213.683 164.716 213.96 165.204 214.285C165.692 214.611 166.083 215.001 166.376 215.457C166.669 215.88 166.815 216.417 166.815 217.068C166.815 217.85 166.636 218.582 166.278 219.266C165.953 219.949 165.465 220.551 164.813 221.072C164.162 221.593 163.365 222 162.421 222.293C161.509 222.618 160.484 222.781 159.345 222.781C158.075 222.781 157.05 222.651 156.269 222.391C155.487 222.163 154.885 221.886 154.462 221.561C154.039 221.235 153.762 220.91 153.632 220.584C153.502 220.258 153.437 219.998 153.437 219.803C153.437 219.412 153.518 218.989 153.681 218.533C153.843 218.045 154.153 217.524 154.608 216.971C154.804 216.743 155.015 216.531 155.243 216.336C155.699 215.945 156.155 215.701 156.61 215.604C156.545 216.352 156.627 216.971 156.854 217.459C157.115 217.915 157.44 218.273 157.831 218.533C158.254 218.794 158.71 218.973 159.198 219.07C159.719 219.168 160.207 219.217 160.663 219.217C161.119 219.217 161.575 219.152 162.03 219.021C162.519 218.891 162.958 218.729 163.349 218.533C163.739 218.305 164.049 218.061 164.276 217.801C164.537 217.508 164.667 217.199 164.667 216.873C164.667 216.515 164.521 216.222 164.228 215.994C163.935 215.766 163.56 215.587 163.104 215.457C162.681 215.294 162.209 215.18 161.688 215.115C161.2 215.018 160.728 214.92 160.272 214.822C159.817 214.725 159.198 214.594 158.417 214.432C157.668 214.236 156.92 213.943 156.171 213.553C155.455 213.162 154.82 212.641 154.267 211.99C153.746 211.339 153.485 210.477 153.485 209.402C153.485 208.165 153.795 207.091 154.413 206.18C155.064 205.236 155.845 204.454 156.757 203.836C157.701 203.185 158.694 202.697 159.735 202.371C160.777 202.046 161.705 201.883 162.519 201.883C162.942 201.883 163.397 201.948 163.886 202.078C164.374 202.176 164.83 202.371 165.253 202.664C165.676 202.924 166.018 203.283 166.278 203.738C166.571 204.194 166.718 204.78 166.718 205.496C166.718 206.212 166.653 206.798 166.522 207.254C166.425 207.677 166.262 208.019 166.034 208.279C165.839 208.507 165.595 208.654 165.302 208.719C165.009 208.784 164.667 208.816 164.276 208.816C164.016 208.816 163.772 208.784 163.544 208.719C163.349 208.654 163.137 208.589 162.909 208.523C162.681 208.458 162.47 208.344 162.274 208.182C162.6 207.791 162.844 207.417 163.007 207.059C163.202 206.701 163.3 206.261 163.3 205.74C163.3 205.285 163.17 204.878 162.909 204.52C162.681 204.161 162.291 203.982 161.737 203.982C161.151 203.982 160.582 204.096 160.028 204.324C159.507 204.552 159.035 204.861 158.612 205.252C158.222 205.643 157.896 206.098 157.636 206.619C157.408 207.107 157.294 207.645 157.294 208.23C157.294 209.109 157.619 209.939 158.271 210.721C158.954 211.502 160.012 212.169 161.444 212.723ZM188.007 200.271C187.649 200.206 187.16 200.141 186.542 200.076C185.956 200.011 185.354 199.962 184.735 199.93C184.019 199.897 183.254 199.881 182.44 199.881C181.627 199.816 180.601 199.816 179.364 199.881C178.16 199.913 176.89 199.93 175.556 199.93C175.523 200.776 175.458 201.639 175.36 202.518C175.295 203.396 175.23 204.259 175.165 205.105C175.002 206.668 174.856 208.263 174.726 209.891C174.628 211.518 174.579 213.064 174.579 214.529C174.579 215.994 174.66 217.329 174.823 218.533C175.019 219.705 175.36 220.633 175.849 221.316C175.458 221.609 175.035 221.837 174.579 222C174.123 222.13 173.716 222.228 173.358 222.293C172.935 222.391 172.512 222.439 172.089 222.439C171.698 222.439 171.373 222.309 171.112 222.049C170.852 221.788 170.705 221.333 170.673 220.682C170.608 219.575 170.591 218.468 170.624 217.361C170.689 216.222 170.754 215.034 170.819 213.797C170.917 212.56 171.015 211.242 171.112 209.842C171.21 208.41 171.308 206.847 171.405 205.154C171.503 203.396 171.552 201.688 171.552 200.027C170.315 200.06 169.273 200.076 168.427 200.076C167.58 200.076 167.108 200.06 167.011 200.027C166.913 199.962 166.799 199.816 166.669 199.588C166.539 199.393 166.376 199.1 166.181 198.709C165.953 198.318 165.676 197.765 165.351 197.049C165.969 197.049 166.653 197.049 167.401 197.049C168.118 197.049 168.785 197.033 169.403 197C170.119 196.967 170.836 196.935 171.552 196.902C171.519 196.382 171.503 195.828 171.503 195.242C171.47 194.786 171.454 194.282 171.454 193.729C171.454 193.143 171.438 192.605 171.405 192.117C171.405 191.922 171.633 191.694 172.089 191.434C172.577 191.141 173.098 190.88 173.651 190.652C174.205 190.424 174.709 190.278 175.165 190.213C175.653 190.148 175.897 190.262 175.897 190.555C175.897 190.848 175.881 191.564 175.849 192.703C175.849 193.81 175.816 195.161 175.751 196.756C176.076 196.756 176.321 196.74 176.483 196.707C178.209 196.642 179.592 196.577 180.634 196.512C181.708 196.414 182.587 196.398 183.271 196.463C183.954 196.528 184.556 196.691 185.077 196.951C185.598 197.212 186.184 197.635 186.835 198.221C187.063 198.416 187.258 198.628 187.421 198.855C187.584 199.051 187.714 199.279 187.812 199.539C187.942 199.767 188.007 200.011 188.007 200.271Z" fill="#FF8888"/>
</svg>
