<svg width="260" height="260" viewBox="0 0 260 260" fill="none" xmlns="http://www.w3.org/2000/svg">
<circle cx="130" cy="130" r="125" fill="white" stroke="#FFBB00" stroke-width="10"/>
<path d="M102.96 187V158.6H122.04V163.44H108.48V170.76H119.76V175.24H108.48V187H102.96ZM125.409 187V166.04H130.769V187H125.409ZM125.409 163.12V157.8H130.769V163.12H125.409ZM135.564 157.8H140.924V180.28C140.924 181.24 141.084 181.893 141.404 182.24C141.724 182.56 142.164 182.72 142.724 182.72C143.151 182.72 143.591 182.667 144.044 182.56C144.497 182.453 144.897 182.32 145.244 182.16L145.964 186.24C145.244 186.587 144.404 186.853 143.444 187.04C142.484 187.227 141.617 187.32 140.844 187.32C139.164 187.32 137.857 186.88 136.924 186C136.017 185.093 135.564 183.813 135.564 182.16V157.8ZM158.019 187.4C156.339 187.4 154.819 187.12 153.459 186.56C152.099 185.973 150.939 185.187 149.979 184.2C149.019 183.187 148.273 182.04 147.739 180.76C147.233 179.453 146.979 178.08 146.979 176.64C146.979 174.64 147.419 172.813 148.299 171.16C149.206 169.507 150.486 168.187 152.139 167.2C153.819 166.187 155.793 165.68 158.059 165.68C160.353 165.68 162.313 166.187 163.939 167.2C165.566 168.187 166.806 169.507 167.659 171.16C168.539 172.787 168.979 174.547 168.979 176.44C168.979 176.76 168.966 177.093 168.939 177.44C168.913 177.76 168.886 178.027 168.859 178.24H152.659C152.766 179.307 153.073 180.24 153.579 181.04C154.113 181.84 154.779 182.453 155.579 182.88C156.406 183.28 157.286 183.48 158.219 183.48C159.286 183.48 160.286 183.227 161.219 182.72C162.179 182.187 162.833 181.493 163.179 180.64L167.779 181.92C167.273 182.987 166.539 183.933 165.579 184.76C164.646 185.587 163.539 186.24 162.259 186.72C160.979 187.173 159.566 187.4 158.019 187.4ZM152.539 174.84H163.499C163.393 173.773 163.086 172.853 162.579 172.08C162.099 171.28 161.459 170.667 160.659 170.24C159.859 169.787 158.966 169.56 157.979 169.56C157.019 169.56 156.139 169.787 155.339 170.24C154.566 170.667 153.926 171.28 153.419 172.08C152.939 172.853 152.646 173.773 152.539 174.84Z" fill="#0088BB"/>
<g filter="url(#filter0_d_16_118)">
<path d="M158.195 67.5675H136.459C132.172 67.5432 110.531 67.6577 110.531 67.6577H110.491C102.501 67.6577 96 75.345 96 84.7924C96 84.8396 96.0009 84.8859 96.0009 84.9314L97.3391 124.254L167.832 123.854C170.512 123.854 172.686 121.285 172.686 118.116V84.7037C172.686 75.2547 166.185 67.5675 158.195 67.5675Z" fill="white"/>
</g>
<path d="M158.957 72.3782H134.553C130.407 72.2303 110.126 72.4546 110.126 72.4546C104.697 72.4546 100.255 77.8499 100.255 84.4428L101.265 119.815H168.828V84.3672C168.828 77.776 164.387 72.3782 158.957 72.3782Z" fill="#88BB00"/>
<g filter="url(#filter1_d_16_118)">
<path d="M119.444 58.1675V58.1499L118.613 58.9667H118.376L122.296 55H146.216C150.377 55 153.75 58.413 153.75 62.6231V102.121C153.75 106.331 150.377 109.744 146.216 109.744H114.615C110.453 109.744 107.08 106.331 107.08 102.121V70.3976L107.12 70.356L119.444 58.1675Z" fill="white"/>
</g>
<path d="M110.439 67.0095H110.457L109.399 68.0502L110.462 66.9751V66.9876L110.439 67.0095Z" fill="url(#paint0_linear_16_118)"/>
<path d="M110.461 66.9876V66.9751L118.376 58.9667H118.613L110.461 66.9876Z" fill="url(#paint1_linear_16_118)"/>
<path d="M110.461 66.9876V66.9751L118.376 58.9667H118.613L110.461 66.9876Z" fill="url(#paint2_linear_16_118)"/>
<path d="M107.056 70.356L109.399 68.0502L107.12 70.356H107.056Z" fill="url(#paint3_linear_16_118)"/>
<path d="M110.462 66.9876V67.0049L110.457 67.0099H110.439L110.462 66.9876Z" fill="url(#paint4_linear_16_118)"/>
<path d="M110.462 66.9876V67.0049L110.457 67.0099H110.439L110.462 66.9876Z" fill="url(#paint5_linear_16_118)"/>
<path d="M118.631 58.9667H118.614L119.444 58.1499V58.1676L118.81 58.7914L118.631 58.9667Z" fill="url(#paint6_linear_16_118)"/>
<path d="M118.631 58.9667H118.614L119.444 58.1499V58.1676L118.81 58.7914L118.631 58.9667Z" fill="url(#paint7_linear_16_118)"/>
<path d="M110.861 66.6111L110.461 67.0046V66.9876L118.613 58.9667H118.631L110.861 66.6111Z" fill="url(#paint8_linear_16_118)"/>
<path d="M110.861 66.6111L110.461 67.0046V66.9876L118.613 58.9667H118.631L110.861 66.6111Z" fill="url(#paint9_linear_16_118)"/>
<path d="M110.861 66.6111L110.461 67.0046V66.9876L118.613 58.9667H118.631L110.861 66.6111Z" fill="url(#paint10_linear_16_118)"/>
<path d="M118.81 58.9667V58.7914L119.444 58.1675V58.9667H118.81Z" fill="url(#paint11_linear_16_118)"/>
<path d="M118.81 58.9667V58.7914L119.444 58.1675V58.9667H118.81Z" fill="url(#paint12_linear_16_118)"/>
<path d="M118.81 58.9667V58.7914L119.444 58.1675V58.9667H118.81Z" fill="url(#paint13_linear_16_118)"/>
<path d="M110.461 67.0096H110.457L110.461 67.0046V67.0096Z" fill="url(#paint14_linear_16_118)"/>
<path d="M110.461 67.0096H110.457L110.461 67.0046V67.0096Z" fill="url(#paint15_linear_16_118)"/>
<path d="M110.461 67.0096H110.457L110.461 67.0046V67.0096Z" fill="url(#paint16_linear_16_118)"/>
<path d="M118.809 58.7913V58.9667H118.631L118.809 58.7913Z" fill="url(#paint17_linear_16_118)"/>
<path d="M118.809 58.7913V58.9667H118.631L118.809 58.7913Z" fill="url(#paint18_linear_16_118)"/>
<path d="M118.809 58.7913V58.9667H118.631L118.809 58.7913Z" fill="url(#paint19_linear_16_118)"/>
<path d="M120.549 55.9604H121.648V57.8681C121.647 70.4967 115.68 70.3665 108.318 70.3665H106.083L106.776 69.6529L120.24 55.9604H120.549Z" fill="#DDDDDD"/>
<path opacity="0.7608" d="M182.521 90.8259C180.556 88.2406 176.235 87.1747 172.065 87.1747H152.925C152.925 87.1747 148.815 77.6516 141.872 77.8296C137.108 77.9508 129.134 77.8857 129.134 77.8857C121.692 77.8857 116.001 80.0573 112.135 88.0503C112.135 88.0503 106.474 106.285 97.0972 124.894C98.0244 125.012 102.872 124.894 102.872 124.894C102.872 124.894 154.877 125.084 169.143 124.955C170.881 124.94 172.23 124.536 173.314 123.342C173.652 122.812 173.685 122.859 174.002 122.334C181.479 109.801 183.644 98.6742 183.644 98.6742C184.253 94.7748 184.203 93.0325 182.521 90.8259Z" fill="white"/>
<path opacity="0.7608" d="M167.474 124.683C164.993 124.683 99.0693 124.805 100.418 124.805C106.3 115.6 116.131 88.0843 116.131 88.0843C119.08 82.4005 124.23 81.4118 129.511 81.4118C129.511 81.4118 140.188 80.3858 143.079 82.2932C146.662 84.646 149.523 90.743 149.523 90.743L172.505 90.7991C176.855 90.6185 180.197 94.4064 179.438 98.04C179.438 98.04 174.459 118.01 167.474 124.683Z" fill="#88BB00"/>
<defs>
<filter id="filter0_d_16_118" x="92.7071" y="64.2712" width="84.6855" height="64.6896" filterUnits="userSpaceOnUse" color-interpolation-filters="sRGB">
<feFlood flood-opacity="0" result="BackgroundImageFix"/>
<feColorMatrix in="SourceAlpha" type="matrix" values="0 0 0 0 0 0 0 0 0 0 0 0 0 0 0 0 0 0 127 0" result="hardAlpha"/>
<feOffset dx="0.7071" dy="0.7071"/>
<feGaussianBlur stdDeviation="2"/>
<feColorMatrix type="matrix" values="0 0 0 0 0 0 0 0 0 0 0 0 0 0 0 0 0 0 0.3294 0"/>
<feBlend mode="normal" in2="BackgroundImageFix" result="effect1_dropShadow_16_118"/>
<feBlend mode="normal" in="SourceGraphic" in2="effect1_dropShadow_16_118" result="shape"/>
</filter>
<filter id="filter1_d_16_118" x="102.385" y="51.7193" width="54.6699" height="62.7436" filterUnits="userSpaceOnUse" color-interpolation-filters="sRGB">
<feFlood flood-opacity="0" result="BackgroundImageFix"/>
<feColorMatrix in="SourceAlpha" type="matrix" values="0 0 0 0 0 0 0 0 0 0 0 0 0 0 0 0 0 0 127 0" result="hardAlpha"/>
<feOffset dx="-0.6947" dy="0.7193"/>
<feGaussianBlur stdDeviation="2"/>
<feColorMatrix type="matrix" values="0 0 0 0 0 0 0 0 0 0 0 0 0 0 0 0 0 0 0.3294 0"/>
<feBlend mode="normal" in2="BackgroundImageFix" result="effect1_dropShadow_16_118"/>
<feBlend mode="normal" in="SourceGraphic" in2="effect1_dropShadow_16_118" result="shape"/>
</filter>
<linearGradient id="paint0_linear_16_118" x1="-30045.8" y1="10044.4" x2="-30054.2" y2="9981.91" gradientUnits="userSpaceOnUse">
<stop stop-color="#F8F8F8"/>
<stop offset="0.01" stop-color="#F8F8F8"/>
<stop offset="0.99" stop-color="#EBEBEB"/>
<stop offset="1" stop-color="#EBEBEB"/>
</linearGradient>
<linearGradient id="paint1_linear_16_118" x1="-30040.7" y1="10043.7" x2="-30048.7" y2="9981.14" gradientUnits="userSpaceOnUse">
<stop stop-color="#F8F8F8"/>
<stop offset="0.01" stop-color="#F8F8F8"/>
<stop offset="0.99" stop-color="#EBEBEB"/>
<stop offset="1" stop-color="#EBEBEB"/>
</linearGradient>
<linearGradient id="paint2_linear_16_118" x1="-30051.7" y1="9984.88" x2="-30019.8" y2="10028.6" gradientUnits="userSpaceOnUse">
<stop stop-color="#949494"/>
<stop offset="0.01" stop-color="#949494"/>
<stop offset="0.34" stop-color="#CCCCCC"/>
<stop offset="1" stop-color="#CCCCCC"/>
</linearGradient>
<linearGradient id="paint3_linear_16_118" x1="-7309.71" y1="-2020.28" x2="-7306.53" y2="-1951.21" gradientUnits="userSpaceOnUse">
<stop stop-color="#F8F8F8"/>
<stop offset="0.01" stop-color="#F8F8F8"/>
<stop offset="0.99" stop-color="#EBEBEB"/>
<stop offset="1" stop-color="#EBEBEB"/>
</linearGradient>
<linearGradient id="paint4_linear_16_118" x1="-29963.4" y1="10225.7" x2="-29971.7" y2="10162" gradientUnits="userSpaceOnUse">
<stop stop-color="#F8F8F8"/>
<stop offset="0.01" stop-color="#F8F8F8"/>
<stop offset="0.99" stop-color="#EBEBEB"/>
<stop offset="1" stop-color="#EBEBEB"/>
</linearGradient>
<linearGradient id="paint5_linear_16_118" x1="-29966.3" y1="10179.2" x2="-29973.2" y2="10170.6" gradientUnits="userSpaceOnUse">
<stop stop-color="#F8F8F8"/>
<stop offset="0.01" stop-color="#F8F8F8"/>
<stop offset="0.41" stop-color="#CCCCCC"/>
<stop offset="0.99" stop-color="#EBEBEB"/>
<stop offset="1" stop-color="#EBEBEB"/>
</linearGradient>
<linearGradient id="paint6_linear_16_118" x1="-30035.7" y1="10042.9" x2="-30043.7" y2="9980.3" gradientUnits="userSpaceOnUse">
<stop stop-color="#F8F8F8"/>
<stop offset="0.01" stop-color="#F8F8F8"/>
<stop offset="0.99" stop-color="#EBEBEB"/>
<stop offset="1" stop-color="#EBEBEB"/>
</linearGradient>
<linearGradient id="paint7_linear_16_118" x1="-30039" y1="9990.79" x2="-30045.7" y2="9982.2" gradientUnits="userSpaceOnUse">
<stop stop-color="#F8F8F8"/>
<stop offset="0.01" stop-color="#F8F8F8"/>
<stop offset="0.41" stop-color="#CCCCCC"/>
<stop offset="0.99" stop-color="#EBEBEB"/>
<stop offset="1" stop-color="#EBEBEB"/>
</linearGradient>
<linearGradient id="paint8_linear_16_118" x1="-30040.6" y1="10043.8" x2="-30048.5" y2="9981.25" gradientUnits="userSpaceOnUse">
<stop stop-color="#F8F8F8"/>
<stop offset="0.01" stop-color="#F8F8F8"/>
<stop offset="0.99" stop-color="#EBEBEB"/>
<stop offset="1" stop-color="#EBEBEB"/>
</linearGradient>
<linearGradient id="paint9_linear_16_118" x1="-30051.5" y1="9984.99" x2="-30019.7" y2="10028.7" gradientUnits="userSpaceOnUse">
<stop stop-color="#949494"/>
<stop offset="0.01" stop-color="#949494"/>
<stop offset="0.34" stop-color="#CCCCCC"/>
<stop offset="1" stop-color="#CCCCCC"/>
</linearGradient>
<linearGradient id="paint10_linear_16_118" x1="-30043.7" y1="9995.07" x2="-30050.4" y2="9986.49" gradientUnits="userSpaceOnUse">
<stop stop-color="#F8F8F8"/>
<stop offset="0.01" stop-color="#F8F8F8"/>
<stop offset="0.41" stop-color="#CCCCCC"/>
<stop offset="0.99" stop-color="#EBEBEB"/>
<stop offset="1" stop-color="#EBEBEB"/>
</linearGradient>
<linearGradient id="paint11_linear_16_118" x1="-30034.1" y1="10042.7" x2="-30047" y2="9981.1" gradientUnits="userSpaceOnUse">
<stop stop-color="#F8F8F8"/>
<stop offset="0.01" stop-color="#F8F8F8"/>
<stop offset="0.99" stop-color="#EBEBEB"/>
<stop offset="1" stop-color="#EBEBEB"/>
</linearGradient>
<linearGradient id="paint12_linear_16_118" x1="-7298.24" y1="-2024.43" x2="-7293.04" y2="-1955.51" gradientUnits="userSpaceOnUse">
<stop stop-color="#F8F8F8"/>
<stop offset="0.01" stop-color="#F8F8F8"/>
<stop offset="0.99" stop-color="#EBEBEB"/>
<stop offset="1" stop-color="#EBEBEB"/>
</linearGradient>
<linearGradient id="paint13_linear_16_118" x1="-30037.4" y1="9990.55" x2="-30045.8" y2="9984.03" gradientUnits="userSpaceOnUse">
<stop stop-color="#F8F8F8"/>
<stop offset="0.01" stop-color="#F8F8F8"/>
<stop offset="0.41" stop-color="#CCCCCC"/>
<stop offset="0.99" stop-color="#EBEBEB"/>
<stop offset="1" stop-color="#EBEBEB"/>
</linearGradient>
<linearGradient id="paint14_linear_16_118" x1="-29405.9" y1="10039.2" x2="-29406" y2="10039.1" gradientUnits="userSpaceOnUse">
<stop stop-color="#F8F8F8"/>
<stop offset="0.01" stop-color="#F8F8F8"/>
<stop offset="0.99" stop-color="#EBEBEB"/>
<stop offset="1" stop-color="#EBEBEB"/>
</linearGradient>
<linearGradient id="paint15_linear_16_118" x1="-7145.75" y1="-1967.75" x2="-7145.75" y2="-1967.74" gradientUnits="userSpaceOnUse">
<stop stop-color="#F8F8F8"/>
<stop offset="0.01" stop-color="#F8F8F8"/>
<stop offset="0.99" stop-color="#EBEBEB"/>
<stop offset="1" stop-color="#EBEBEB"/>
</linearGradient>
<linearGradient id="paint16_linear_16_118" x1="-29402.4" y1="10043.7" x2="-29409.5" y2="10035.5" gradientUnits="userSpaceOnUse">
<stop stop-color="#F8F8F8"/>
<stop offset="0.01" stop-color="#F8F8F8"/>
<stop offset="0.41" stop-color="#CCCCCC"/>
<stop offset="0.99" stop-color="#EBEBEB"/>
<stop offset="1" stop-color="#EBEBEB"/>
</linearGradient>
<linearGradient id="paint17_linear_16_118" x1="-29964.5" y1="10044" x2="-29972.5" y2="9981.39" gradientUnits="userSpaceOnUse">
<stop stop-color="#F8F8F8"/>
<stop offset="0.01" stop-color="#F8F8F8"/>
<stop offset="0.99" stop-color="#EBEBEB"/>
<stop offset="1" stop-color="#EBEBEB"/>
</linearGradient>
<linearGradient id="paint18_linear_16_118" x1="-7281.42" y1="-2024.54" x2="-7278.24" y2="-1955.45" gradientUnits="userSpaceOnUse">
<stop stop-color="#F8F8F8"/>
<stop offset="0.01" stop-color="#F8F8F8"/>
<stop offset="0.99" stop-color="#EBEBEB"/>
<stop offset="1" stop-color="#EBEBEB"/>
</linearGradient>
<linearGradient id="paint19_linear_16_118" x1="-29967.8" y1="9992.1" x2="-29974.5" y2="9983.53" gradientUnits="userSpaceOnUse">
<stop stop-color="#F8F8F8"/>
<stop offset="0.01" stop-color="#F8F8F8"/>
<stop offset="0.41" stop-color="#CCCCCC"/>
<stop offset="0.99" stop-color="#EBEBEB"/>
<stop offset="1" stop-color="#EBEBEB"/>
</linearGradient>
</defs>
</svg>
