<svg width="183" height="118" viewBox="0 0 183 118" fill="none" xmlns="http://www.w3.org/2000/svg">
<path d="M1.23047 9.57031C0.957031 9.29688 0.751953 9.00065 0.615234 8.68164C0.478516 8.31706 0.364583 7.95247 0.273438 7.58789C0.182292 7.17773 0.113932 6.76758 0.0683594 6.35742C0.0227865 5.99284 0.0227865 5.62826 0.0683594 5.26367C0.0683594 4.58008 0.205078 4.05599 0.478516 3.69141C0.979818 3.60026 1.52669 3.50911 2.11914 3.41797C2.71159 3.28125 3.28125 3.16732 3.82812 3.07617C4.46615 2.98503 5.12695 2.89388 5.81055 2.80273C6.17513 2.43815 6.65365 2.05078 7.24609 1.64062C7.88411 1.1849 8.59049 0.77474 9.36523 0.410156C9.95768 0.136719 10.3678 0.136719 10.5957 0.410156C10.8236 0.683594 10.9831 1.25326 11.0742 2.11914C12.2135 2.02799 13.3984 1.93685 14.6289 1.8457C15.8594 1.75456 17.1354 1.70898 18.457 1.70898C20.2344 1.66341 21.8978 1.61784 23.4473 1.57227C24.7689 1.52669 26.0905 1.52669 27.4121 1.57227C28.7793 1.57227 29.8275 1.59505 30.5566 1.64062C30.9212 1.6862 31.1947 1.95964 31.377 2.46094C31.6048 2.91667 31.6732 3.5319 31.582 4.30664C31.5365 5.03581 31.3086 5.83333 30.8984 6.69922C30.4883 7.5651 29.873 8.4082 29.0527 9.22852C27.959 9.00065 26.7969 8.81836 25.5664 8.68164C24.3815 8.54492 23.2878 8.43099 22.2852 8.33984C21.1003 8.2487 19.9609 8.22591 18.8672 8.27148C17.5456 8.27148 16.224 8.31706 14.9023 8.4082C13.5807 8.45378 12.3275 8.52214 11.1426 8.61328C11.097 10.6641 11.0514 13.0566 11.0059 15.791C11.0059 18.4798 10.9831 21.4648 10.9375 24.7461C11.5755 24.6549 12.1908 24.6094 12.7832 24.6094C13.3757 24.5638 13.9909 24.5182 14.6289 24.4727C16.2695 24.3815 17.8646 24.2904 19.4141 24.1992C20.9635 24.1081 22.3079 24.1536 23.4473 24.3359C24.6322 24.4727 25.5208 24.8145 26.1133 25.3613C26.7057 25.9082 26.8424 26.7741 26.5234 27.959L25.5664 31.2402C25.4753 31.0124 25.2246 30.8301 24.8145 30.6934C24.4499 30.5111 24.0169 30.3743 23.5156 30.2832C22.9688 30.1465 22.3535 30.0326 21.6699 29.9414C20.0749 29.7591 18.3203 29.7363 16.4062 29.873C14.4922 30.0098 12.6465 30.2148 10.8691 30.4883C10.8691 32.7669 10.8919 34.9316 10.9375 36.9824C11.0286 38.9876 11.1198 40.8105 11.2109 42.4512C11.3477 44.0918 11.4616 45.5046 11.5527 46.6895C11.6439 47.8743 11.7122 48.763 11.7578 49.3555C11.8034 49.7656 11.7578 50.0846 11.6211 50.3125C11.3932 50.5859 11.1198 50.9049 10.8008 51.2695C10.4818 51.6341 10.0716 51.9987 9.57031 52.3633C9.06901 52.7279 8.45378 53.0241 7.72461 53.252C7.04102 53.5254 6.24349 53.6849 5.33203 53.7305C4.92188 53.7305 4.7168 53.5254 4.7168 53.1152V31.9238C3.94206 31.8783 3.23568 31.2858 2.59766 30.1465C1.95964 29.0072 1.66341 27.7311 1.70898 26.3184C2.02799 26.2272 2.34701 26.1589 2.66602 26.1133C3.0306 26.0677 3.3724 25.9993 3.69141 25.9082C4.05599 25.8171 4.39779 25.7487 4.7168 25.7031C4.7168 22.4219 4.73958 19.3685 4.78516 16.543C4.83073 13.6719 4.89909 11.2109 4.99023 9.16016C4.58008 9.20573 4.14714 9.2513 3.69141 9.29688C3.32682 9.34245 2.91667 9.38802 2.46094 9.43359C2.00521 9.47917 1.59505 9.52474 1.23047 9.57031ZM49.1504 35.6152C49.0592 37.3926 48.7402 39.0332 48.1934 40.5371C47.6921 42.041 46.9857 43.3626 46.0742 44.502C45.1628 45.5957 44.069 46.4616 42.793 47.0996C41.5625 47.7376 40.1953 48.0794 38.6914 48.125C37.3698 48.1706 36.1165 47.8516 34.9316 47.168C33.7923 46.4844 32.7897 45.5273 31.9238 44.2969C31.0579 43.0664 30.3971 41.6081 29.9414 39.9219C29.5312 38.1901 29.4173 36.3216 29.5996 34.3164C29.7363 31.9922 30.1693 30.0098 30.8984 28.3691C31.6276 26.6829 32.4023 25.293 33.2227 24.1992C34.043 23.1055 34.7949 22.3079 35.4785 21.8066C36.2077 21.2598 36.6634 20.9408 36.8457 20.8496C37.1647 20.7129 37.4609 20.6901 37.7344 20.7812C38.0078 20.8268 38.304 20.8952 38.623 20.9863C38.7142 21.0319 38.8053 21.1458 38.8965 21.3281C39.0788 21.6471 39.1927 22.2396 39.2383 23.1055C39.4661 22.6042 39.7624 22.194 40.127 21.875C40.4915 21.556 40.8561 21.3281 41.2207 21.1914C41.6764 21.0091 42.1322 20.8952 42.5879 20.8496C42.9069 20.804 43.4538 21.0547 44.2285 21.6016C45.0488 22.1484 45.8236 23.0143 46.5527 24.1992C47.3275 25.3841 47.9883 26.9336 48.5352 28.8477C49.082 30.7161 49.2871 32.972 49.1504 35.6152ZM44.502 34.7949C44.5475 33.7012 44.502 32.6074 44.3652 31.5137C44.2741 30.3743 44.0918 29.349 43.8184 28.4375C43.5905 27.4805 43.2943 26.7285 42.9297 26.1816C42.5651 25.5892 42.2005 25.293 41.8359 25.293C41.4258 25.3841 40.9701 25.5892 40.4688 25.9082C40.0586 26.1816 39.6029 26.6146 39.1016 27.207C38.6003 27.7995 38.1217 28.6426 37.666 29.7363C37.6204 29.5996 37.5749 29.349 37.5293 28.9844C37.4837 28.6654 37.4382 28.2552 37.3926 27.7539C37.3926 27.207 37.4382 26.4779 37.5293 25.5664C36.8913 26.3411 36.39 27.2526 36.0254 28.3008C35.7064 29.349 35.4557 30.3516 35.2734 31.3086C35.0911 32.4479 34.9544 33.5872 34.8633 34.7266C34.8177 35.957 34.8633 37.1647 35 38.3496C35.1823 39.5345 35.4557 40.5827 35.8203 41.4941C36.2305 42.4056 36.709 43.1348 37.2559 43.6816C37.8027 44.2285 38.4635 44.4792 39.2383 44.4336C40.013 44.388 40.6966 44.069 41.2891 43.4766C41.8815 42.8841 42.4056 42.1322 42.8613 41.2207C43.3171 40.3092 43.6816 39.2839 43.9551 38.1445C44.2285 37.0052 44.4108 35.8887 44.502 34.7949ZM71.5723 38.7598C71.5723 39.2611 71.39 40.0358 71.0254 41.084C70.7064 42.0866 70.1595 43.112 69.3848 44.1602C68.61 45.1628 67.6074 46.0514 66.377 46.8262C65.1921 47.6009 63.7337 47.9883 62.002 47.9883C59.541 47.9883 57.4674 47.3275 55.7812 46.0059C54.1406 44.6387 52.9785 42.7018 52.2949 40.1953C51.748 38.099 51.5885 35.8659 51.8164 33.4961C52.0898 31.0807 52.7507 28.8477 53.7988 26.7969C54.847 24.7461 56.3053 23.0143 58.1738 21.6016C60.0423 20.1432 62.321 19.3457 65.0098 19.209C66.377 19.1634 67.5163 19.4141 68.4277 19.9609C69.3392 20.5078 70.0456 21.2142 70.5469 22.0801C71.0482 22.946 71.3444 23.903 71.4355 24.9512C71.5267 25.9538 71.4128 26.9108 71.0938 27.8223C70.8203 28.7337 70.3646 29.5085 69.7266 30.1465C69.1341 30.7389 68.3594 31.0579 67.4023 31.1035C66.4453 31.1947 65.6478 31.0807 65.0098 30.7617C64.4173 30.3971 63.9388 29.9642 63.5742 29.4629C63.2552 28.9616 63.0273 28.4375 62.8906 27.8906C62.7995 27.3438 62.7995 26.8652 62.8906 26.4551C63.0273 25.8626 63.2552 25.3158 63.5742 24.8145C63.8477 24.3587 64.235 23.903 64.7363 23.4473C65.2832 22.9915 65.9896 22.627 66.8555 22.3535C66.7188 22.2624 66.582 22.2168 66.4453 22.2168C66.3086 22.2168 66.1719 22.194 66.0352 22.1484C65.8529 22.1484 65.7161 22.1257 65.625 22.0801C64.8958 22.0801 64.0527 22.3307 63.0957 22.832C62.1842 23.3333 61.2956 24.1309 60.4297 25.2246C59.6094 26.3184 58.903 27.7311 58.3105 29.4629C57.7637 31.1491 57.4902 33.1999 57.4902 35.6152C57.4902 36.6634 57.6042 37.7116 57.832 38.7598C58.0599 39.7624 58.4017 40.6738 58.8574 41.4941C59.3587 42.2689 59.9512 42.9069 60.6348 43.4082C61.3639 43.8639 62.207 44.0918 63.1641 44.0918C64.2578 44.0918 65.2148 43.8639 66.0352 43.4082C66.901 42.9069 67.6302 42.3372 68.2227 41.6992C68.8151 41.0612 69.2708 40.4232 69.5898 39.7852C69.9544 39.1471 70.2051 38.6686 70.3418 38.3496C70.4785 38.0762 70.7064 37.9395 71.0254 37.9395C71.39 37.9395 71.5723 38.2129 71.5723 38.7598ZM91.0547 21.9434C91.0547 21.4421 91.3509 21.0775 91.9434 20.8496C92.5814 20.5762 93.2422 20.4395 93.9258 20.4395C94.6549 20.4395 95.3158 20.5762 95.9082 20.8496C96.5007 21.0775 96.7741 21.3965 96.7285 21.8066C96.6829 22.1257 96.6374 22.7637 96.5918 23.7207C96.5462 24.6322 96.4779 25.7259 96.3867 27.002C96.3411 28.278 96.2728 29.6452 96.1816 31.1035C96.0905 32.5618 95.9993 33.9974 95.9082 35.4102C95.8626 36.7773 95.8171 38.0534 95.7715 39.2383C95.7715 40.4232 95.7715 41.3346 95.7715 41.9727C95.7715 42.793 95.8171 43.5449 95.9082 44.2285C95.9993 44.821 96.1133 45.4134 96.25 46.0059C96.3867 46.5527 96.5918 46.9401 96.8652 47.168C96.5007 47.3047 96.1133 47.3958 95.7031 47.4414C95.3385 47.487 94.9967 47.5326 94.6777 47.5781C94.3132 47.6237 93.9486 47.6465 93.584 47.6465C92.8092 47.6465 92.1484 47.487 91.6016 47.168C91.1003 46.849 90.8496 46.1882 90.8496 45.1855C90.8496 44.6842 90.8724 43.9551 90.918 42.998C91.0091 42.041 91.1003 41.0156 91.1914 39.9219C90.8724 40.8789 90.485 41.8587 90.0293 42.8613C89.5736 43.8639 89.0039 44.7526 88.3203 45.5273C87.6823 46.3021 86.9531 46.9401 86.1328 47.4414C85.3125 47.9427 84.3783 48.1934 83.3301 48.1934C82.1452 48.1934 81.0514 47.9427 80.0488 47.4414C79.0918 46.9401 78.2487 46.2337 77.5195 45.3223C76.7904 44.3652 76.2435 43.2031 75.8789 41.8359C75.5143 40.4688 75.3776 38.8965 75.4688 37.1191C75.4688 35.752 75.4915 34.2936 75.5371 32.7441C75.5827 31.4225 75.651 29.8958 75.7422 28.1641C75.8333 26.4323 75.9928 24.6322 76.2207 22.7637C76.2663 22.5814 76.5853 22.3535 77.1777 22.0801C77.7702 21.8066 78.431 21.5788 79.1602 21.3965C79.8893 21.2142 80.5957 21.1458 81.2793 21.1914C81.9629 21.237 82.4642 21.5104 82.7832 22.0117C82.5553 22.832 82.3275 23.8118 82.0996 24.9512C81.8717 26.0449 81.6667 27.1842 81.4844 28.3691C81.3021 29.554 81.1654 30.7161 81.0742 31.8555C80.9831 32.9948 80.9375 34.043 80.9375 35C80.9375 35.8659 80.9831 36.8229 81.0742 37.8711C81.1654 38.8737 81.3249 39.8307 81.5527 40.7422C81.8262 41.6081 82.1908 42.3372 82.6465 42.9297C83.1478 43.5221 83.7858 43.8184 84.5605 43.8184C85.4264 43.8184 86.1784 43.4538 86.8164 42.7246C87.5 41.9499 88.0697 40.9701 88.5254 39.7852C88.9811 38.6003 89.3685 37.2559 89.6875 35.752C90.0065 34.2025 90.2572 32.6758 90.4395 31.1719C90.6673 29.668 90.804 28.2324 90.8496 26.8652C90.9408 25.4525 91.0091 24.2676 91.0547 23.3105V21.9434ZM112.314 34.3848C113.317 34.7493 114.274 35.0911 115.186 35.4102C116.097 35.7292 116.895 36.1165 117.578 36.5723C118.262 37.028 118.809 37.5749 119.219 38.2129C119.629 38.8053 119.834 39.5573 119.834 40.4688C119.834 41.5625 119.583 42.5879 119.082 43.5449C118.626 44.502 117.943 45.3451 117.031 46.0742C116.12 46.8034 115.003 47.373 113.682 47.7832C112.406 48.2389 110.97 48.4668 109.375 48.4668C107.598 48.4668 106.162 48.2845 105.068 47.9199C103.975 47.6009 103.132 47.2135 102.539 46.7578C101.947 46.3021 101.559 45.8464 101.377 45.3906C101.195 44.9349 101.104 44.5703 101.104 44.2969C101.104 43.75 101.217 43.1576 101.445 42.5195C101.673 41.8359 102.106 41.1068 102.744 40.332C103.018 40.013 103.314 39.7168 103.633 39.4434C104.271 38.8965 104.909 38.5547 105.547 38.418C105.456 39.4661 105.57 40.332 105.889 41.0156C106.253 41.6536 106.709 42.1549 107.256 42.5195C107.848 42.8841 108.486 43.1348 109.17 43.2715C109.899 43.4082 110.583 43.4766 111.221 43.4766C111.859 43.4766 112.497 43.3854 113.135 43.2031C113.818 43.0208 114.434 42.793 114.98 42.5195C115.527 42.2005 115.96 41.8587 116.279 41.4941C116.644 41.084 116.826 40.651 116.826 40.1953C116.826 39.694 116.621 39.2839 116.211 38.9648C115.801 38.6458 115.277 38.3952 114.639 38.2129C114.046 37.985 113.385 37.8255 112.656 37.7344C111.973 37.5977 111.312 37.4609 110.674 37.3242C110.036 37.1875 109.17 37.0052 108.076 36.7773C107.028 36.5039 105.98 36.0938 104.932 35.5469C103.929 35 103.04 34.2708 102.266 33.3594C101.536 32.4479 101.172 31.2402 101.172 29.7363C101.172 28.0046 101.605 26.5007 102.471 25.2246C103.382 23.903 104.476 22.8092 105.752 21.9434C107.074 21.0319 108.464 20.3483 109.922 19.8926C111.38 19.4368 112.679 19.209 113.818 19.209C114.411 19.209 115.049 19.3001 115.732 19.4824C116.416 19.6191 117.054 19.8926 117.646 20.3027C118.239 20.6673 118.717 21.1686 119.082 21.8066C119.492 22.4447 119.697 23.265 119.697 24.2676C119.697 25.2702 119.606 26.0905 119.424 26.7285C119.287 27.321 119.059 27.7995 118.74 28.1641C118.467 28.4831 118.125 28.6882 117.715 28.7793C117.305 28.8704 116.826 28.916 116.279 28.916C115.915 28.916 115.573 28.8704 115.254 28.7793C114.98 28.6882 114.684 28.597 114.365 28.5059C114.046 28.4147 113.75 28.2552 113.477 28.0273C113.932 27.4805 114.274 26.9564 114.502 26.4551C114.775 25.9538 114.912 25.3385 114.912 24.6094C114.912 23.9714 114.73 23.4017 114.365 22.9004C114.046 22.3991 113.499 22.1484 112.725 22.1484C111.904 22.1484 111.107 22.3079 110.332 22.627C109.603 22.946 108.942 23.3789 108.35 23.9258C107.803 24.4727 107.347 25.1107 106.982 25.8398C106.663 26.5234 106.504 27.2754 106.504 28.0957C106.504 29.3262 106.96 30.4883 107.871 31.582C108.828 32.6758 110.309 33.61 112.314 34.3848ZM157.363 35.6152C157.272 37.3926 156.953 39.0332 156.406 40.5371C155.905 42.041 155.199 43.3626 154.287 44.502C153.376 45.5957 152.282 46.4616 151.006 47.0996C149.775 47.7376 148.408 48.0794 146.904 48.125C145.583 48.1706 144.329 47.8516 143.145 47.168C142.005 46.4844 141.003 45.5273 140.137 44.2969C139.271 43.0664 138.61 41.6081 138.154 39.9219C137.744 38.1901 137.63 36.3216 137.812 34.3164C137.949 31.9922 138.382 30.0098 139.111 28.3691C139.84 26.6829 140.615 25.293 141.436 24.1992C142.256 23.1055 143.008 22.3079 143.691 21.8066C144.421 21.2598 144.876 20.9408 145.059 20.8496C145.378 20.7129 145.674 20.6901 145.947 20.7812C146.221 20.8268 146.517 20.8952 146.836 20.9863C146.927 21.0319 147.018 21.1458 147.109 21.3281C147.292 21.6471 147.406 22.2396 147.451 23.1055C147.679 22.6042 147.975 22.194 148.34 21.875C148.704 21.556 149.069 21.3281 149.434 21.1914C149.889 21.0091 150.345 20.8952 150.801 20.8496C151.12 20.804 151.667 21.0547 152.441 21.6016C153.262 22.1484 154.036 23.0143 154.766 24.1992C155.54 25.3841 156.201 26.9336 156.748 28.8477C157.295 30.7161 157.5 32.972 157.363 35.6152ZM152.715 34.7949C152.76 33.7012 152.715 32.6074 152.578 31.5137C152.487 30.3743 152.305 29.349 152.031 28.4375C151.803 27.4805 151.507 26.7285 151.143 26.1816C150.778 25.5892 150.413 25.293 150.049 25.293C149.639 25.3841 149.183 25.5892 148.682 25.9082C148.271 26.1816 147.816 26.6146 147.314 27.207C146.813 27.7995 146.335 28.6426 145.879 29.7363C145.833 29.5996 145.788 29.349 145.742 28.9844C145.697 28.6654 145.651 28.2552 145.605 27.7539C145.605 27.207 145.651 26.4779 145.742 25.5664C145.104 26.3411 144.603 27.2526 144.238 28.3008C143.919 29.349 143.669 30.3516 143.486 31.3086C143.304 32.4479 143.167 33.5872 143.076 34.7266C143.031 35.957 143.076 37.1647 143.213 38.3496C143.395 39.5345 143.669 40.5827 144.033 41.4941C144.443 42.4056 144.922 43.1348 145.469 43.6816C146.016 44.2285 146.676 44.4792 147.451 44.4336C148.226 44.388 148.91 44.069 149.502 43.4766C150.094 42.8841 150.618 42.1322 151.074 41.2207C151.53 40.3092 151.895 39.2839 152.168 38.1445C152.441 37.0052 152.624 35.8887 152.715 34.7949ZM168.164 45.5273C168.118 45.8008 167.868 46.097 167.412 46.416C167.002 46.6895 166.501 46.9401 165.908 47.168C165.361 47.3958 164.837 47.5326 164.336 47.5781C163.835 47.6693 163.493 47.6237 163.311 47.4414C163.128 47.2591 162.832 46.9173 162.422 46.416C162.012 45.9147 161.761 45.0944 161.67 43.9551C161.579 42.7702 161.533 41.2891 161.533 39.5117C161.533 37.6888 161.51 35.6836 161.465 33.4961V30.7617C161.465 29.9414 161.442 28.9844 161.396 27.8906C161.396 26.7969 161.374 25.6576 161.328 24.4727C161.738 24.2448 162.148 24.0397 162.559 23.8574C163.014 23.6296 163.424 23.4473 163.789 23.3105C164.199 23.1283 164.587 22.9915 164.951 22.9004C165.908 22.627 166.637 22.4674 167.139 22.4219C167.64 22.3763 167.936 22.5358 168.027 22.9004C168.073 23.1738 168.05 23.8346 167.959 24.8828C167.868 25.7943 167.754 27.1842 167.617 29.0527C167.48 30.8757 167.253 33.4277 166.934 36.709C167.526 35.2507 168.005 33.9974 168.369 32.9492C168.779 31.901 169.121 31.0579 169.395 30.4199C169.668 29.6452 169.919 29.0299 170.146 28.5742C170.374 27.9818 170.671 27.321 171.035 26.5918C171.4 25.8626 171.764 25.179 172.129 24.541C172.539 23.903 172.904 23.3333 173.223 22.832C173.587 22.3307 173.861 22.0345 174.043 21.9434C174.18 21.8522 174.59 21.8522 175.273 21.9434C175.957 22.0345 176.686 22.2624 177.461 22.627C178.236 22.946 178.988 23.4245 179.717 24.0625C180.446 24.6549 180.924 25.3841 181.152 26.25C181.426 27.2526 181.517 28.5742 181.426 30.2148C181.38 31.8555 181.266 33.5417 181.084 35.2734C180.947 37.0052 180.833 38.6458 180.742 40.1953C180.651 41.7448 180.742 42.9297 181.016 43.75C181.107 44.2057 181.243 44.6159 181.426 44.9805C181.517 45.3451 181.631 45.6868 181.768 46.0059C181.95 46.2793 182.132 46.4844 182.314 46.6211C181.221 47.1224 180.332 47.487 179.648 47.7148C178.965 47.9427 178.441 48.1022 178.076 48.1934C177.62 48.3301 177.301 48.3757 177.119 48.3301C176.709 48.1934 176.344 47.8516 176.025 47.3047C175.752 46.7578 175.501 45.8919 175.273 44.707C175.182 44.3424 175.137 43.75 175.137 42.9297C175.182 42.0638 175.251 41.1068 175.342 40.0586C175.433 38.9648 175.524 37.8483 175.615 36.709C175.752 35.5241 175.843 34.4303 175.889 33.4277C175.98 32.3796 176.048 31.4909 176.094 30.7617C176.139 29.987 176.139 29.4629 176.094 29.1895C175.866 28.3691 175.547 27.7995 175.137 27.4805C174.727 27.1159 174.408 27.0703 174.18 27.3438C173.587 28.0273 172.949 29.1439 172.266 30.6934C171.628 32.1973 171.012 33.8607 170.42 35.6836C169.827 37.4609 169.326 39.2383 168.916 41.0156C168.506 42.793 168.255 44.2969 168.164 45.5273ZM45.5273 69.9531C45.026 69.862 44.3424 69.7708 43.4766 69.6797C42.6562 69.5885 41.8132 69.5202 40.9473 69.4746C39.9447 69.429 38.8737 69.4062 37.7344 69.4062C36.5951 69.3151 35.1595 69.3151 33.4277 69.4062C31.7415 69.4518 29.9642 69.4746 28.0957 69.4746C28.0501 70.6595 27.959 71.8672 27.8223 73.0977C27.7311 74.3281 27.64 75.5358 27.5488 76.7207C27.321 78.9082 27.1159 81.1413 26.9336 83.4199C26.7969 85.6986 26.7285 87.8633 26.7285 89.9141C26.7285 91.9648 26.8424 93.8333 27.0703 95.5195C27.3438 97.1602 27.8223 98.459 28.5059 99.416C27.959 99.8262 27.3665 100.145 26.7285 100.373C26.0905 100.555 25.5208 100.692 25.0195 100.783C24.4271 100.92 23.8346 100.988 23.2422 100.988C22.6953 100.988 22.2396 100.806 21.875 100.441C21.5104 100.077 21.3053 99.4388 21.2598 98.5273C21.1686 96.9779 21.1458 95.4284 21.1914 93.8789C21.2826 92.2839 21.3737 90.6204 21.4648 88.8887C21.6016 87.1569 21.7383 85.3112 21.875 83.3516C22.0117 81.3464 22.1484 79.1589 22.2852 76.7891C22.4219 74.3281 22.4902 71.9355 22.4902 69.6113C20.7585 69.6569 19.3001 69.6797 18.1152 69.6797C16.9303 69.6797 16.2695 69.6569 16.1328 69.6113C15.9961 69.5202 15.8366 69.3151 15.6543 68.9961C15.472 68.7227 15.2441 68.3125 14.9707 67.7656C14.6517 67.2188 14.2643 66.444 13.8086 65.4414C14.6745 65.4414 15.6315 65.4414 16.6797 65.4414C17.6823 65.4414 18.6165 65.4186 19.4824 65.373C20.485 65.3275 21.4876 65.2819 22.4902 65.2363C22.4447 64.5072 22.4219 63.7324 22.4219 62.9121C22.3763 62.2741 22.3535 61.5677 22.3535 60.793C22.3535 59.9727 22.3307 59.2207 22.2852 58.5371C22.2852 58.2637 22.6042 57.9447 23.2422 57.5801C23.9258 57.1699 24.6549 56.8053 25.4297 56.4863C26.2044 56.1673 26.9108 55.9622 27.5488 55.8711C28.2324 55.7799 28.5742 55.9395 28.5742 56.3496C28.5742 56.7598 28.5514 57.7624 28.5059 59.3574C28.5059 60.9069 28.4603 62.7982 28.3691 65.0312C28.8249 65.0312 29.1667 65.0085 29.3945 64.9629C31.8099 64.8717 33.7467 64.7806 35.2051 64.6895C36.709 64.5527 37.9395 64.5299 38.8965 64.6211C39.8535 64.7122 40.6966 64.9401 41.4258 65.3047C42.1549 65.6693 42.9753 66.2617 43.8867 67.082C44.2057 67.3555 44.4792 67.6517 44.707 67.9707C44.9349 68.2441 45.1172 68.5632 45.2539 68.9277C45.4362 69.2467 45.5273 69.5885 45.5273 69.9531ZM39.7852 89.6406C40.332 88 40.7878 86.61 41.1523 85.4707C41.5625 84.3314 41.9043 83.4199 42.1777 82.7363C42.4967 81.916 42.7702 81.2552 42.998 80.7539C43.2715 80.0247 43.5677 79.2956 43.8867 78.5664C44.2513 77.8372 44.6159 77.1764 44.9805 76.584C45.3451 75.946 45.6868 75.4219 46.0059 75.0117C46.3249 74.6016 46.5983 74.3281 46.8262 74.1914C47.0085 74.1003 47.4186 74.1003 48.0566 74.1914C48.7402 74.2826 49.4694 74.5104 50.2441 74.875C51.0645 75.194 51.8164 75.6497 52.5 76.2422C53.2292 76.8346 53.7305 77.5638 54.0039 78.4297C54.2773 79.4779 54.3685 80.8451 54.2773 82.5312C54.1862 84.2174 54.0495 85.9492 53.8672 87.7266C53.7305 89.5039 53.6165 91.1901 53.5254 92.7852C53.4798 94.3802 53.5938 95.5879 53.8672 96.4082C54.0495 96.8639 54.2318 97.3197 54.4141 97.7754C54.5964 98.14 54.8014 98.5273 55.0293 98.9375C55.3027 99.3021 55.599 99.6211 55.918 99.8945C54.5964 100.396 53.5254 100.76 52.7051 100.988C51.9303 101.262 51.3379 101.444 50.9277 101.535C50.4264 101.672 50.0846 101.695 49.9023 101.604C49.5378 101.467 49.196 101.125 48.877 100.578C48.5579 100.031 48.2845 99.1654 48.0566 97.9805C47.9655 97.6159 47.9427 96.9779 47.9883 96.0664C48.0339 95.1549 48.1022 94.1296 48.1934 92.9902C48.2845 91.8509 48.3757 90.666 48.4668 89.4355C48.5579 88.1595 48.6491 86.9746 48.7402 85.8809C48.8314 84.7871 48.877 83.8301 48.877 83.0098C48.9225 82.1895 48.9225 81.6426 48.877 81.3691C48.6491 80.5944 48.3301 80.0475 47.9199 79.7285C47.5098 79.3639 47.1908 79.3184 46.9629 79.5918C46.416 80.2754 45.8008 81.4603 45.1172 83.1465C44.4792 84.7871 43.8639 86.5872 43.2715 88.5469C42.679 90.4609 42.1549 92.375 41.6992 94.2891C41.2891 96.2031 41.0384 97.7754 40.9473 99.0059C40.9473 99.2793 40.7194 99.5755 40.2637 99.8945C39.8535 100.168 39.375 100.419 38.8281 100.646C38.3268 100.874 37.8255 101.011 37.3242 101.057C36.8229 101.148 36.4811 101.079 36.2988 100.852C36.1621 100.715 35.8659 100.396 35.4102 99.8945C35 99.3932 34.7721 98.5501 34.7266 97.3652C34.6354 96.2259 34.6354 94.6764 34.7266 92.7168C34.8177 90.7116 34.8405 88.6152 34.7949 86.4277V81.3691C34.7949 79.3184 34.7721 76.4928 34.7266 72.8926C34.7266 69.2467 34.7038 64.4388 34.6582 58.4688C35.1595 58.1953 35.6152 57.9674 36.0254 57.7852C36.4355 57.5573 36.8229 57.375 37.1875 57.2383C37.5977 57.056 37.985 56.9193 38.3496 56.8281C40.3092 56.3268 41.3346 56.3268 41.4258 56.8281C41.4714 57.2839 41.4258 58.7422 41.2891 61.2031C41.2435 62.2513 41.1751 63.5729 41.084 65.168C40.9928 66.763 40.8789 68.6999 40.7422 70.9785C40.651 73.2572 40.5143 75.946 40.332 79.0449C40.1953 82.0983 40.013 85.6302 39.7852 89.6406ZM68.3594 101.125C65.1693 101.125 62.7083 100.054 60.9766 97.9121C59.2448 95.7702 58.3789 92.9674 58.3789 89.5039C58.3789 87.0885 58.7207 84.8327 59.4043 82.7363C60.1335 80.5944 61.0905 78.7487 62.2754 77.1992C63.4603 75.6497 64.8275 74.4421 66.377 73.5762C67.972 72.6647 69.6354 72.209 71.3672 72.209C73.0534 72.209 74.4889 72.8242 75.6738 74.0547C76.8587 75.2396 77.4512 76.9486 77.4512 79.1816C77.4512 80.64 77.1322 82.0983 76.4941 83.5566C75.8561 84.9694 75.013 86.2454 73.9648 87.3848C72.9622 88.4785 71.8457 89.3672 70.6152 90.0508C69.3848 90.7344 68.1999 91.0762 67.0605 91.0762C66.3314 91.0762 65.7161 90.985 65.2148 90.8027C64.7135 90.6204 64.2578 90.347 63.8477 89.9824C63.9844 92.5801 64.554 94.403 65.5566 95.4512C66.5592 96.4538 67.8581 96.9551 69.4531 96.9551C70.5469 96.9551 71.5039 96.7272 72.3242 96.2715C73.1901 95.8158 73.9193 95.2917 74.5117 94.6992C75.1042 94.1068 75.5827 93.5143 75.9473 92.9219C76.3118 92.2839 76.5625 91.8053 76.6992 91.4863C76.8359 91.2129 77.0638 91.0762 77.3828 91.0762C77.7474 91.0762 77.9297 91.3496 77.9297 91.8965C77.9297 92.3978 77.7474 93.1725 77.3828 94.2207C77.0638 95.2233 76.5169 96.2487 75.7422 97.2969C74.9674 98.2995 73.9648 99.1882 72.7344 99.9629C71.5495 100.738 70.0911 101.125 68.3594 101.125ZM71.5039 75.1484C71.2305 75.1484 70.7064 75.4447 69.9316 76.0371C69.2025 76.584 68.4049 77.4043 67.5391 78.498C66.7188 79.5918 65.944 80.9134 65.2148 82.4629C64.5312 83.9668 64.0983 85.6758 63.916 87.5898C66.6504 86.9518 68.8151 85.9492 70.4102 84.582C72.0052 83.2148 72.8027 81.2096 72.8027 78.5664C72.8027 77.2448 72.6432 76.3561 72.3242 75.9004C72.0052 75.3991 71.7318 75.1484 71.5039 75.1484ZM104.111 100.988C103.154 100.988 102.174 100.738 101.172 100.236C100.169 99.735 99.235 98.9831 98.3691 97.9805C97.5033 96.9323 96.7969 95.6562 96.25 94.1523C95.7031 92.6029 95.4297 90.8027 95.4297 88.752C95.4297 85.7441 95.8171 83.2604 96.5918 81.3008C97.3665 79.2956 98.3008 77.7005 99.3945 76.5156C100.534 75.2852 101.764 74.4193 103.086 73.918C104.408 73.4167 105.615 73.166 106.709 73.166C107.848 73.166 108.783 73.3711 109.512 73.7812C110.286 74.1458 110.924 74.5788 111.426 75.0801V73.7812C111.699 73.5534 111.995 73.3483 112.314 73.166C112.679 72.9837 113.044 72.847 113.408 72.7559C113.773 72.6191 114.16 72.5508 114.57 72.5508H115.596C115.869 72.5964 116.143 72.6419 116.416 72.6875C116.735 72.7331 116.963 72.847 117.1 73.0293C116.826 78.9993 116.598 83.8301 116.416 87.5215C116.234 91.2129 116.097 94.084 116.006 96.1348C115.869 98.5501 115.778 100.305 115.732 101.398C115.641 103.312 115.391 105.204 114.98 107.072C114.57 108.986 113.932 110.695 113.066 112.199C112.201 113.703 111.061 114.911 109.648 115.822C108.236 116.734 106.504 117.189 104.453 117.189C102.676 117.189 101.24 116.848 100.146 116.164C99.0983 115.48 98.278 114.637 97.6855 113.635C97.1387 112.632 96.7741 111.561 96.5918 110.422C96.4095 109.328 96.3184 108.326 96.3184 107.414C96.3184 107.186 96.4323 106.844 96.6602 106.389C96.9336 105.933 97.2982 105.454 97.7539 104.953C98.2552 104.497 98.8704 104.087 99.5996 103.723C100.329 103.358 101.149 103.13 102.061 103.039C101.65 104.27 101.4 105.386 101.309 106.389C101.217 106.936 101.195 107.482 101.24 108.029C101.24 109.533 101.536 110.786 102.129 111.789C102.721 112.792 103.633 113.293 104.863 113.293C106.185 113.293 107.256 112.723 108.076 111.584C108.896 110.49 109.512 109.146 109.922 107.551C110.378 106.001 110.674 104.361 110.811 102.629C110.993 100.943 111.084 99.5072 111.084 98.3223V96.3398C110.811 96.8411 110.469 97.3652 110.059 97.9121C109.694 98.459 109.238 98.9603 108.691 99.416C108.145 99.8717 107.484 100.236 106.709 100.51C105.98 100.829 105.114 100.988 104.111 100.988ZM106.914 77.0625C106.139 77.0625 105.387 77.4043 104.658 78.0879C103.975 78.7715 103.359 79.6829 102.812 80.8223C102.266 81.916 101.833 83.1693 101.514 84.582C101.195 85.9948 101.035 87.4076 101.035 88.8203C101.035 89.7318 101.081 90.666 101.172 91.623C101.309 92.5801 101.536 93.4688 101.855 94.2891C102.22 95.0638 102.676 95.7018 103.223 96.2031C103.77 96.7044 104.499 96.9551 105.41 96.9551C106.094 96.9095 106.732 96.6361 107.324 96.1348C107.826 95.7246 108.327 95.0638 108.828 94.1523C109.375 93.2409 109.808 91.9421 110.127 90.2559C110.492 90.6204 110.765 90.9622 110.947 91.2812C111.175 91.6003 111.357 91.8965 111.494 92.1699C111.54 91.8053 111.562 91.3724 111.562 90.8711C111.608 90.3698 111.631 89.8001 111.631 89.1621C111.631 87.9316 111.562 86.61 111.426 85.1973C111.289 83.7389 111.038 82.4173 110.674 81.2324C110.355 80.0475 109.876 79.0677 109.238 78.293C108.646 77.4727 107.871 77.0625 106.914 77.0625ZM140.205 88.6152C140.114 90.3926 139.795 92.0332 139.248 93.5371C138.747 95.041 138.04 96.3626 137.129 97.502C136.217 98.5957 135.124 99.4616 133.848 100.1C132.617 100.738 131.25 101.079 129.746 101.125C128.424 101.171 127.171 100.852 125.986 100.168C124.847 99.4844 123.844 98.5273 122.979 97.2969C122.113 96.0664 121.452 94.6081 120.996 92.9219C120.586 91.1901 120.472 89.3216 120.654 87.3164C120.791 84.9922 121.224 83.0098 121.953 81.3691C122.682 79.6829 123.457 78.293 124.277 77.1992C125.098 76.1055 125.85 75.3079 126.533 74.8066C127.262 74.2598 127.718 73.9408 127.9 73.8496C128.219 73.7129 128.516 73.6901 128.789 73.7812C129.062 73.8268 129.359 73.8952 129.678 73.9863C129.769 74.0319 129.86 74.1458 129.951 74.3281C130.133 74.6471 130.247 75.2396 130.293 76.1055C130.521 75.6042 130.817 75.194 131.182 74.875C131.546 74.556 131.911 74.3281 132.275 74.1914C132.731 74.0091 133.187 73.8952 133.643 73.8496C133.962 73.804 134.508 74.0547 135.283 74.6016C136.104 75.1484 136.878 76.0143 137.607 77.1992C138.382 78.3841 139.043 79.9336 139.59 81.8477C140.137 83.7161 140.342 85.972 140.205 88.6152ZM135.557 87.7949C135.602 86.7012 135.557 85.6074 135.42 84.5137C135.329 83.3743 135.146 82.349 134.873 81.4375C134.645 80.4805 134.349 79.7285 133.984 79.1816C133.62 78.5892 133.255 78.293 132.891 78.293C132.48 78.3841 132.025 78.5892 131.523 78.9082C131.113 79.1816 130.658 79.6146 130.156 80.207C129.655 80.7995 129.176 81.6426 128.721 82.7363C128.675 82.5996 128.63 82.349 128.584 81.9844C128.538 81.6654 128.493 81.2552 128.447 80.7539C128.447 80.207 128.493 79.4779 128.584 78.5664C127.946 79.3411 127.445 80.2526 127.08 81.3008C126.761 82.349 126.51 83.3516 126.328 84.3086C126.146 85.4479 126.009 86.5872 125.918 87.7266C125.872 88.957 125.918 90.1647 126.055 91.3496C126.237 92.5345 126.51 93.5827 126.875 94.4941C127.285 95.4056 127.764 96.1348 128.311 96.6816C128.857 97.2285 129.518 97.4792 130.293 97.4336C131.068 97.388 131.751 97.069 132.344 96.4766C132.936 95.8841 133.46 95.1322 133.916 94.2207C134.372 93.3092 134.736 92.2839 135.01 91.1445C135.283 90.0052 135.465 88.8887 135.557 87.7949ZM163.652 96.8867C163.743 97.2057 163.88 97.502 164.062 97.7754C164.199 98.0033 164.382 98.2311 164.609 98.459C164.883 98.6413 165.202 98.7552 165.566 98.8008C165.247 99.4388 164.928 99.8717 164.609 100.1C164.427 100.236 164.268 100.327 164.131 100.373C163.721 100.51 163.105 100.578 162.285 100.578C161.465 100.578 160.667 100.327 159.893 99.8262C159.619 99.5983 159.368 99.2565 159.141 98.8008C158.913 98.4362 158.708 97.9349 158.525 97.2969C158.389 96.6133 158.275 95.7474 158.184 94.6992C157.546 96.0664 156.816 97.1602 155.996 97.9805C155.221 98.7552 154.447 99.3249 153.672 99.6895C152.806 100.191 151.917 100.487 151.006 100.578C149.867 100.669 148.773 100.487 147.725 100.031C146.722 99.5299 145.856 98.8008 145.127 97.8438C144.443 96.8411 143.919 95.6335 143.555 94.2207C143.19 92.8079 143.076 91.2129 143.213 89.4355C143.35 87.5671 143.714 85.9036 144.307 84.4453C144.899 82.987 145.605 81.6882 146.426 80.5488C147.246 79.4095 148.112 78.4525 149.023 77.6777C149.935 76.8574 150.801 76.1966 151.621 75.6953C152.487 75.1484 153.216 74.7611 153.809 74.5332C154.447 74.2598 154.857 74.1003 155.039 74.0547C155.54 73.918 155.973 73.8724 156.338 73.918C156.702 73.9635 157.021 74.1686 157.295 74.5332C157.386 74.6699 157.5 74.8294 157.637 75.0117C157.728 75.194 157.842 75.4447 157.979 75.7637C158.115 76.0371 158.229 76.3561 158.32 76.7207C157.227 77.222 156.201 77.7917 155.244 78.4297C154.287 79.0221 153.398 79.7513 152.578 80.6172C151.803 81.4831 151.12 82.5312 150.527 83.7617C149.935 84.9922 149.479 86.4961 149.16 88.2734C148.704 90.5065 148.818 92.3066 149.502 93.6738C150.231 95.041 151.211 95.6107 152.441 95.3828C153.171 95.1549 153.877 94.722 154.561 94.084C155.153 93.5371 155.768 92.7168 156.406 91.623C157.09 90.5293 157.728 89.0254 158.32 87.1113C158.548 84.377 158.73 82.235 158.867 80.6855C159.049 79.0905 159.209 77.8828 159.346 77.0625C159.528 76.1055 159.665 75.4674 159.756 75.1484C159.893 74.9206 160.166 74.7155 160.576 74.5332C160.986 74.3053 161.442 74.123 161.943 73.9863C162.445 73.8496 162.9 73.7812 163.311 73.7812C163.721 73.7357 163.994 73.7357 164.131 73.7812C164.222 73.8268 164.268 74.3965 164.268 75.4902C164.268 76.5384 164.222 77.8828 164.131 79.5234C164.085 81.1185 164.017 82.873 163.926 84.7871C163.835 86.6556 163.743 88.4329 163.652 90.1191C163.607 91.8053 163.561 93.2865 163.516 94.5625C163.516 95.793 163.561 96.5677 163.652 96.8867ZM178.418 56.0762C178.327 57.7168 178.167 59.6081 177.939 61.75C177.712 63.8919 177.461 66.1934 177.188 68.6543C176.96 71.1152 176.709 73.6901 176.436 76.3789C176.208 79.0677 176.003 81.7793 175.82 84.5137C175.638 87.248 175.547 89.4811 175.547 91.2129C175.592 92.8991 175.706 94.2891 175.889 95.3828C176.071 96.4766 176.322 97.3424 176.641 97.9805C176.96 98.6185 177.37 99.2337 177.871 99.8262C177.279 100.191 176.732 100.464 176.23 100.646C175.729 100.829 175.296 100.965 174.932 101.057C174.476 101.193 174.066 101.262 173.701 101.262C173.018 101.262 172.425 100.943 171.924 100.305C171.423 99.6211 171.012 98.7552 170.693 97.707C170.42 96.6589 170.192 95.4967 170.01 94.2207C169.873 92.8991 169.805 91.6003 169.805 90.3242C169.805 88.957 169.85 87.3848 169.941 85.6074C170.033 83.7845 170.124 81.8704 170.215 79.8652C170.352 77.8145 170.488 75.6953 170.625 73.5078C170.762 71.2747 170.876 69.0645 170.967 66.877C171.058 65.1908 171.149 63.6641 171.24 62.2969C171.331 61.112 171.4 60.041 171.445 59.084C171.491 58.0814 171.468 57.4889 171.377 57.3066C171.65 56.9421 171.992 56.6686 172.402 56.4863C172.812 56.304 173.2 56.1445 173.564 56.0078C174.02 55.8711 174.476 55.7572 174.932 55.666H176.23C176.595 55.666 176.982 55.7116 177.393 55.8027C177.803 55.8483 178.145 55.9395 178.418 56.0762Z" fill="#0088BB"/>
</svg>
