<svg width="187" height="118" viewBox="0 0 187 118" fill="none" xmlns="http://www.w3.org/2000/svg">
<path d="M15.3809 52.2266C13.2389 52.2266 11.2337 51.6569 9.36523 50.5176C7.54232 49.3783 5.92448 47.7376 4.51172 45.5957C3.09896 43.4538 1.98242 40.8561 1.16211 37.8027C0.38737 34.7038 0 31.2174 0 27.3438C0 23.4701 0.524089 19.8698 1.57227 16.543C2.62044 13.2161 4.01042 10.3223 5.74219 7.86133C7.47396 5.40039 9.47917 3.48633 11.7578 2.11914C14.082 0.70638 16.4746 0 18.9355 0C21.4421 0 23.4928 0.341797 25.0879 1.02539C26.6829 1.70898 27.9362 2.64323 28.8477 3.82812C29.7591 4.96745 30.3743 6.31185 30.6934 7.86133C31.0124 9.41081 31.1263 11.0286 31.0352 12.7148C30.9896 13.8086 30.7617 14.9251 30.3516 16.0645C29.9414 17.1582 29.4401 18.138 28.8477 19.0039C28.2552 19.8698 27.6172 20.5306 26.9336 20.9863C26.25 21.4421 25.5892 21.5332 24.9512 21.2598C24.4499 21.123 23.903 20.9635 23.3105 20.7812C22.2168 20.4167 20.918 19.8926 19.4141 19.209C20.3255 18.571 21.1686 17.8418 21.9434 17.0215C22.5814 16.2923 23.151 15.4036 23.6523 14.3555C24.1992 13.3073 24.4727 12.0996 24.4727 10.7324C24.4727 9.54753 24.3132 8.54492 23.9941 7.72461C23.7207 6.85872 23.3333 6.17513 22.832 5.67383C22.3763 5.12695 21.8522 4.73958 21.2598 4.51172C20.6673 4.23828 20.0749 4.10156 19.4824 4.10156C17.9785 4.10156 16.4746 4.69401 14.9707 5.87891C13.5124 7.0638 12.1908 8.72721 11.0059 10.8691C9.86654 12.9655 8.93229 15.472 8.20312 18.3887C7.47396 21.3053 7.10938 24.4727 7.10938 27.8906C7.10938 30.5794 7.36003 33.0859 7.86133 35.4102C8.4082 37.6888 9.11458 39.6712 9.98047 41.3574C10.8464 42.998 11.849 44.2969 12.9883 45.2539C14.1732 46.1654 15.4264 46.6211 16.748 46.6211C17.7507 46.6211 18.7077 46.3477 19.6191 45.8008C20.5306 45.2539 21.3053 44.502 21.9434 43.5449C22.5814 42.5879 23.0827 41.4258 23.4473 40.0586C23.8574 38.6914 24.0625 37.1875 24.0625 35.5469C24.0625 34.043 24.0169 32.8809 23.9258 32.0605C23.8802 31.1947 23.8118 30.5566 23.7207 30.1465C23.6751 29.6908 23.6068 29.4173 23.5156 29.3262C23.4701 29.235 23.4473 29.1895 23.4473 29.1895C23.4928 29.1895 23.8574 29.2122 24.541 29.2578C25.2246 29.3034 25.9766 29.4173 26.7969 29.5996C27.6628 29.7363 28.4603 29.987 29.1895 30.3516C29.9186 30.6706 30.3971 31.1263 30.625 31.7188C30.8073 32.3112 30.9212 33.4277 30.9668 35.0684C31.0124 36.6634 30.9896 38.4408 30.8984 40.4004C30.8529 42.3145 30.7845 44.2285 30.6934 46.1426C30.6478 48.0566 30.625 49.6289 30.625 50.8594C30.625 51.1784 30.306 51.543 29.668 51.9531C29.0755 52.3633 28.3919 52.7051 27.6172 52.9785C26.888 53.2975 26.2044 53.4798 25.5664 53.5254C24.9284 53.571 24.5866 53.4115 24.541 53.0469V48.7402V46.5527C23.8118 48.0111 22.7181 49.3099 21.2598 50.4492C19.8014 51.6341 17.8418 52.2266 15.3809 52.2266ZM45.5273 47.373C42.3372 47.373 39.8763 46.3021 38.1445 44.1602C36.4128 42.0182 35.5469 39.2155 35.5469 35.752C35.5469 33.3366 35.8887 31.0807 36.5723 28.9844C37.3014 26.8424 38.2585 24.9967 39.4434 23.4473C40.6283 21.8978 41.9954 20.6901 43.5449 19.8242C45.14 18.9128 46.8034 18.457 48.5352 18.457C50.2214 18.457 51.6569 19.0723 52.8418 20.3027C54.0267 21.4876 54.6191 23.1966 54.6191 25.4297C54.6191 26.888 54.3001 28.3464 53.6621 29.8047C53.0241 31.2174 52.181 32.4935 51.1328 33.6328C50.1302 34.7266 49.0137 35.6152 47.7832 36.2988C46.5527 36.9824 45.3678 37.3242 44.2285 37.3242C43.4993 37.3242 42.8841 37.2331 42.3828 37.0508C41.8815 36.8685 41.4258 36.5951 41.0156 36.2305C41.1523 38.8281 41.722 40.651 42.7246 41.6992C43.7272 42.7018 45.026 43.2031 46.6211 43.2031C47.7148 43.2031 48.6719 42.9753 49.4922 42.5195C50.3581 42.0638 51.0872 41.5397 51.6797 40.9473C52.2721 40.3548 52.7507 39.7624 53.1152 39.1699C53.4798 38.5319 53.7305 38.0534 53.8672 37.7344C54.0039 37.4609 54.2318 37.3242 54.5508 37.3242C54.9154 37.3242 55.0977 37.5977 55.0977 38.1445C55.0977 38.6458 54.9154 39.4206 54.5508 40.4688C54.2318 41.4714 53.6849 42.4967 52.9102 43.5449C52.1354 44.5475 51.1328 45.4362 49.9023 46.2109C48.7174 46.9857 47.2591 47.373 45.5273 47.373ZM48.6719 21.3965C48.3984 21.3965 47.8743 21.6927 47.0996 22.2852C46.3704 22.832 45.5729 23.6523 44.707 24.7461C43.8867 25.8398 43.112 27.1615 42.3828 28.7109C41.6992 30.2148 41.2663 31.9238 41.084 33.8379C43.8184 33.1999 45.9831 32.1973 47.5781 30.8301C49.1732 29.4629 49.9707 27.4577 49.9707 24.8145C49.9707 23.4928 49.8112 22.6042 49.4922 22.1484C49.1732 21.6471 48.8997 21.3965 48.6719 21.3965ZM84.7656 16.2012C84.2643 16.11 83.5807 16.0189 82.7148 15.9277C81.8945 15.8366 81.0514 15.7682 80.1855 15.7227C79.1829 15.6771 78.112 15.6543 76.9727 15.6543C75.8333 15.5632 74.3978 15.5632 72.666 15.6543C70.9798 15.6999 69.2025 15.7227 67.334 15.7227C67.2884 16.9076 67.1973 18.1152 67.0605 19.3457C66.9694 20.5762 66.8783 21.7839 66.7871 22.9688C66.5592 25.1562 66.3542 27.3893 66.1719 29.668C66.0352 31.9466 65.9668 34.1113 65.9668 36.1621C65.9668 38.2129 66.0807 40.0814 66.3086 41.7676C66.582 43.4082 67.0605 44.707 67.7441 45.6641C67.1973 46.0742 66.6048 46.3932 65.9668 46.6211C65.3288 46.8034 64.7591 46.9401 64.2578 47.0312C63.6654 47.168 63.0729 47.2363 62.4805 47.2363C61.9336 47.2363 61.4779 47.054 61.1133 46.6895C60.7487 46.3249 60.5436 45.6868 60.498 44.7754C60.4069 43.2259 60.3841 41.6764 60.4297 40.127C60.5208 38.5319 60.612 36.8685 60.7031 35.1367C60.8398 33.4049 60.9766 31.5592 61.1133 29.5996C61.25 27.5944 61.3867 25.4069 61.5234 23.0371C61.6602 20.5762 61.7285 18.1836 61.7285 15.8594C59.9967 15.9049 58.5384 15.9277 57.3535 15.9277C56.1686 15.9277 55.5078 15.9049 55.3711 15.8594C55.2344 15.7682 55.0749 15.5632 54.8926 15.2441C54.7103 14.9707 54.4824 14.5605 54.209 14.0137C53.89 13.4668 53.5026 12.6921 53.0469 11.6895C53.9128 11.6895 54.8698 11.6895 55.918 11.6895C56.9206 11.6895 57.8548 11.6667 58.7207 11.6211C59.7233 11.5755 60.7259 11.5299 61.7285 11.4844C61.6829 10.7552 61.6602 9.98047 61.6602 9.16016C61.6146 8.52214 61.5918 7.81576 61.5918 7.04102C61.5918 6.2207 61.569 5.46875 61.5234 4.78516C61.5234 4.51172 61.8424 4.19271 62.4805 3.82812C63.1641 3.41797 63.8932 3.05339 64.668 2.73438C65.4427 2.41536 66.1491 2.21029 66.7871 2.11914C67.4707 2.02799 67.8125 2.1875 67.8125 2.59766C67.8125 3.00781 67.7897 4.01042 67.7441 5.60547C67.7441 7.15495 67.6986 9.04622 67.6074 11.2793C68.0632 11.2793 68.4049 11.2565 68.6328 11.2109C71.0482 11.1198 72.985 11.0286 74.4434 10.9375C75.9473 10.8008 77.1777 10.778 78.1348 10.8691C79.0918 10.9603 79.9349 11.1882 80.6641 11.5527C81.3932 11.9173 82.2135 12.5098 83.125 13.3301C83.444 13.6035 83.7174 13.8997 83.9453 14.2188C84.1732 14.4922 84.3555 14.8112 84.4922 15.1758C84.6745 15.4948 84.7656 15.8366 84.7656 16.2012ZM98.7793 33.6328C99.7819 33.9974 100.739 34.3392 101.65 34.6582C102.562 34.9772 103.359 35.3646 104.043 35.8203C104.727 36.276 105.273 36.8229 105.684 37.4609C106.094 38.0534 106.299 38.8053 106.299 39.7168C106.299 40.8105 106.048 41.8359 105.547 42.793C105.091 43.75 104.408 44.5931 103.496 45.3223C102.585 46.0514 101.468 46.6211 100.146 47.0312C98.8704 47.487 97.4349 47.7148 95.8398 47.7148C94.0625 47.7148 92.627 47.5326 91.5332 47.168C90.4395 46.849 89.5964 46.4616 89.0039 46.0059C88.4115 45.5501 88.0241 45.0944 87.8418 44.6387C87.6595 44.1829 87.5684 43.8184 87.5684 43.5449C87.5684 42.998 87.6823 42.4056 87.9102 41.7676C88.138 41.084 88.571 40.3548 89.209 39.5801C89.4824 39.2611 89.7786 38.9648 90.0977 38.6914C90.7357 38.1445 91.3737 37.8027 92.0117 37.666C91.9206 38.7142 92.0345 39.5801 92.3535 40.2637C92.7181 40.9017 93.1738 41.403 93.7207 41.7676C94.3132 42.1322 94.9512 42.3828 95.6348 42.5195C96.3639 42.6562 97.0475 42.7246 97.6855 42.7246C98.3236 42.7246 98.9616 42.6335 99.5996 42.4512C100.283 42.2689 100.898 42.041 101.445 41.7676C101.992 41.4486 102.425 41.1068 102.744 40.7422C103.109 40.332 103.291 39.8991 103.291 39.4434C103.291 38.9421 103.086 38.5319 102.676 38.2129C102.266 37.8939 101.742 37.6432 101.104 37.4609C100.511 37.2331 99.8503 37.0736 99.1211 36.9824C98.4375 36.8457 97.7767 36.709 97.1387 36.5723C96.5007 36.4355 95.6348 36.2533 94.541 36.0254C93.4928 35.752 92.4447 35.3418 91.3965 34.7949C90.3939 34.248 89.5052 33.5189 88.7305 32.6074C88.0013 31.696 87.6367 30.4883 87.6367 28.9844C87.6367 27.2526 88.0697 25.7487 88.9355 24.4727C89.847 23.151 90.9408 22.0573 92.2168 21.1914C93.5384 20.2799 94.9284 19.5964 96.3867 19.1406C97.8451 18.6849 99.1439 18.457 100.283 18.457C100.876 18.457 101.514 18.5482 102.197 18.7305C102.881 18.8672 103.519 19.1406 104.111 19.5508C104.704 19.9154 105.182 20.4167 105.547 21.0547C105.957 21.6927 106.162 22.513 106.162 23.5156C106.162 24.5182 106.071 25.3385 105.889 25.9766C105.752 26.569 105.524 27.0475 105.205 27.4121C104.932 27.7311 104.59 27.9362 104.18 28.0273C103.77 28.1185 103.291 28.1641 102.744 28.1641C102.38 28.1641 102.038 28.1185 101.719 28.0273C101.445 27.9362 101.149 27.8451 100.83 27.7539C100.511 27.6628 100.215 27.5033 99.9414 27.2754C100.397 26.7285 100.739 26.2044 100.967 25.7031C101.24 25.2018 101.377 24.5866 101.377 23.8574C101.377 23.2194 101.195 22.6497 100.83 22.1484C100.511 21.6471 99.9642 21.3965 99.1895 21.3965C98.3691 21.3965 97.5716 21.556 96.7969 21.875C96.0677 22.194 95.4069 22.627 94.8145 23.1738C94.2676 23.7207 93.8118 24.3587 93.4473 25.0879C93.1283 25.7715 92.9688 26.5234 92.9688 27.3438C92.9688 28.5742 93.4245 29.7363 94.3359 30.8301C95.293 31.9238 96.7741 32.8581 98.7793 33.6328ZM116.006 35.8887C116.553 34.248 117.008 32.8581 117.373 31.7188C117.783 30.5794 118.125 29.668 118.398 28.9844C118.717 28.1641 118.991 27.5033 119.219 27.002C119.492 26.2728 119.788 25.5436 120.107 24.8145C120.472 24.0853 120.837 23.4245 121.201 22.832C121.566 22.194 121.908 21.6699 122.227 21.2598C122.546 20.8496 122.819 20.5762 123.047 20.4395C123.229 20.3483 123.639 20.3483 124.277 20.4395C124.961 20.5306 125.69 20.7585 126.465 21.123C127.285 21.4421 128.037 21.8978 128.721 22.4902C129.45 23.0827 129.951 23.8118 130.225 24.6777C130.498 25.7259 130.589 27.0931 130.498 28.7793C130.407 30.4655 130.27 32.1973 130.088 33.9746C129.951 35.752 129.837 37.4382 129.746 39.0332C129.701 40.6283 129.814 41.8359 130.088 42.6562C130.27 43.112 130.452 43.5677 130.635 44.0234C130.817 44.388 131.022 44.7754 131.25 45.1855C131.523 45.5501 131.82 45.8691 132.139 46.1426C130.817 46.6439 129.746 47.0085 128.926 47.2363C128.151 47.5098 127.559 47.6921 127.148 47.7832C126.647 47.9199 126.305 47.9427 126.123 47.8516C125.758 47.7148 125.417 47.373 125.098 46.8262C124.779 46.2793 124.505 45.4134 124.277 44.2285C124.186 43.8639 124.163 43.2259 124.209 42.3145C124.255 41.403 124.323 40.3776 124.414 39.2383C124.505 38.099 124.596 36.9141 124.688 35.6836C124.779 34.4076 124.87 33.2227 124.961 32.1289C125.052 31.0352 125.098 30.0781 125.098 29.2578C125.143 28.4375 125.143 27.8906 125.098 27.6172C124.87 26.8424 124.551 26.2956 124.141 25.9766C123.73 25.612 123.411 25.5664 123.184 25.8398C122.637 26.5234 122.021 27.7083 121.338 29.3945C120.7 31.0352 120.085 32.8353 119.492 34.7949C118.9 36.709 118.376 38.623 117.92 40.5371C117.51 42.4512 117.259 44.0234 117.168 45.2539C117.168 45.5273 116.94 45.8236 116.484 46.1426C116.074 46.416 115.596 46.6667 115.049 46.8945C114.548 47.1224 114.046 47.2591 113.545 47.3047C113.044 47.3958 112.702 47.3275 112.52 47.0996C112.383 46.9629 112.087 46.6439 111.631 46.1426C111.221 45.6413 110.993 44.7982 110.947 43.6133C110.856 42.474 110.856 40.9245 110.947 38.9648C111.038 36.9596 111.061 34.8633 111.016 32.6758V27.6172C111.016 25.5664 110.993 22.7409 110.947 19.1406C110.947 15.4948 110.924 10.6868 110.879 4.7168C111.38 4.44336 111.836 4.21549 112.246 4.0332C112.656 3.80534 113.044 3.62305 113.408 3.48633C113.818 3.30404 114.206 3.16732 114.57 3.07617C116.53 2.57487 117.555 2.57487 117.646 3.07617C117.692 3.5319 117.646 4.99023 117.51 7.45117C117.464 8.49935 117.396 9.82096 117.305 11.416C117.214 13.0111 117.1 14.9479 116.963 17.2266C116.872 19.5052 116.735 22.194 116.553 25.293C116.416 28.3464 116.234 31.8783 116.006 35.8887ZM157.227 14.9023C157.637 15.3125 157.933 15.8138 158.115 16.4062C158.206 16.6797 158.275 16.9759 158.32 17.2949C158.366 17.5684 158.389 17.8646 158.389 18.1836C158.389 18.8216 158.298 19.4824 158.115 20.166C157.842 20.3939 157.454 20.599 156.953 20.7812C156.497 20.918 156.019 21.0319 155.518 21.123C154.971 21.2598 154.378 21.3281 153.74 21.3281C152.692 21.4193 151.712 21.4421 150.801 21.3965C149.935 21.3053 149.16 21.2142 148.477 21.123C148.841 21.6243 149.297 22.3079 149.844 23.1738C150.436 24.0397 150.983 25.0651 151.484 26.25C151.576 26.6146 151.712 26.9792 151.895 27.3438C151.986 27.6628 152.1 28.0273 152.236 28.4375C152.373 28.8021 152.487 29.1667 152.578 29.5312C152.305 30.0781 151.917 30.5111 151.416 30.8301C151.188 31.0124 150.96 31.1491 150.732 31.2402C150.505 31.377 150.231 31.4909 149.912 31.582C149.639 31.6732 149.297 31.7643 148.887 31.8555C148.522 31.901 148.112 31.9238 147.656 31.9238C147.656 31.4225 147.633 30.944 147.588 30.4883C147.542 29.987 147.497 29.554 147.451 29.1895C147.406 28.7337 147.36 28.3236 147.314 27.959C147.223 27.1387 146.973 26.2044 146.562 25.1562C146.198 24.0625 145.765 23.1283 145.264 22.3535C144.945 22.6725 144.557 23.0827 144.102 23.584C143.646 24.0397 143.19 24.4954 142.734 24.9512C142.279 25.4069 141.846 25.8398 141.436 26.25C141.071 26.6602 140.798 26.9564 140.615 27.1387C140.342 27.3665 140.023 27.6172 139.658 27.8906C139.294 28.1185 138.906 28.278 138.496 28.3691C138.086 28.4603 137.676 28.4831 137.266 28.4375C136.901 28.3464 136.559 28.1185 136.24 27.7539C135.967 27.4805 135.739 27.1387 135.557 26.7285C135.374 26.3639 135.192 25.9766 135.01 25.5664C134.827 25.1107 134.691 24.5866 134.6 23.9941C134.873 24.0397 135.146 24.0397 135.42 23.9941C135.739 23.9486 136.104 23.8574 136.514 23.7207C136.924 23.5384 137.38 23.2878 137.881 22.9688C138.428 22.6497 139.066 22.2396 139.795 21.7383C140.433 21.3281 141.003 20.918 141.504 20.5078C142.005 20.0521 142.438 19.6419 142.803 19.2773C142.438 18.9128 141.96 18.457 141.367 17.9102C140.82 17.3633 140.114 16.8164 139.248 16.2695C138.154 15.4948 137.197 15.0163 136.377 14.834C135.602 14.6061 134.896 14.515 134.258 14.5605C134.531 13.5124 134.896 12.6465 135.352 11.9629C135.579 11.5983 135.83 11.2793 136.104 11.0059C136.742 10.2311 137.425 9.95768 138.154 10.1855C138.883 10.3678 139.544 10.6868 140.137 11.1426C140.684 11.5072 141.39 12.168 142.256 13.125C143.122 14.0365 143.896 15.1986 144.58 16.6113C144.808 16.11 145.104 15.4492 145.469 14.6289C145.833 13.8086 146.243 12.7832 146.699 11.5527C147.064 10.4134 147.314 9.54753 147.451 8.95508C147.633 8.36263 147.679 7.83854 147.588 7.38281C147.861 7.42839 148.112 7.47396 148.34 7.51953C148.613 7.51953 148.864 7.5651 149.092 7.65625L149.707 7.86133C150.026 8.04362 150.368 8.22591 150.732 8.4082C151.006 8.59049 151.302 8.81836 151.621 9.0918C151.986 9.31966 152.305 9.61589 152.578 9.98047C152.441 10.3906 152.259 10.8464 152.031 11.3477C151.849 11.8034 151.644 12.2591 151.416 12.7148C151.188 13.2161 150.915 13.7402 150.596 14.2871C150.368 14.834 150.026 15.4036 149.57 15.9961C149.16 16.5885 148.773 17.1354 148.408 17.6367C149.046 17.5456 149.684 17.4544 150.322 17.3633C151.006 17.2721 151.644 17.1582 152.236 17.0215C152.874 16.8392 153.49 16.6569 154.082 16.4746C154.583 16.2923 155.107 16.0872 155.654 15.8594C156.247 15.5859 156.771 15.2669 157.227 14.9023ZM186.621 16.2012C186.12 16.11 185.436 16.0189 184.57 15.9277C183.75 15.8366 182.907 15.7682 182.041 15.7227C181.038 15.6771 179.967 15.6543 178.828 15.6543C177.689 15.5632 176.253 15.5632 174.521 15.6543C172.835 15.6999 171.058 15.7227 169.189 15.7227C169.144 16.9076 169.053 18.1152 168.916 19.3457C168.825 20.5762 168.734 21.7839 168.643 22.9688C168.415 25.1562 168.21 27.3893 168.027 29.668C167.891 31.9466 167.822 34.1113 167.822 36.1621C167.822 38.2129 167.936 40.0814 168.164 41.7676C168.438 43.4082 168.916 44.707 169.6 45.6641C169.053 46.0742 168.46 46.3932 167.822 46.6211C167.184 46.8034 166.615 46.9401 166.113 47.0312C165.521 47.168 164.928 47.2363 164.336 47.2363C163.789 47.2363 163.333 47.054 162.969 46.6895C162.604 46.3249 162.399 45.6868 162.354 44.7754C162.262 43.2259 162.24 41.6764 162.285 40.127C162.376 38.5319 162.467 36.8685 162.559 35.1367C162.695 33.4049 162.832 31.5592 162.969 29.5996C163.105 27.5944 163.242 25.4069 163.379 23.0371C163.516 20.5762 163.584 18.1836 163.584 15.8594C161.852 15.9049 160.394 15.9277 159.209 15.9277C158.024 15.9277 157.363 15.9049 157.227 15.8594C157.09 15.7682 156.93 15.5632 156.748 15.2441C156.566 14.9707 156.338 14.5605 156.064 14.0137C155.745 13.4668 155.358 12.6921 154.902 11.6895C155.768 11.6895 156.725 11.6895 157.773 11.6895C158.776 11.6895 159.71 11.6667 160.576 11.6211C161.579 11.5755 162.581 11.5299 163.584 11.4844C163.538 10.7552 163.516 9.98047 163.516 9.16016C163.47 8.52214 163.447 7.81576 163.447 7.04102C163.447 6.2207 163.424 5.46875 163.379 4.78516C163.379 4.51172 163.698 4.19271 164.336 3.82812C165.02 3.41797 165.749 3.05339 166.523 2.73438C167.298 2.41536 168.005 2.21029 168.643 2.11914C169.326 2.02799 169.668 2.1875 169.668 2.59766C169.668 3.00781 169.645 4.01042 169.6 5.60547C169.6 7.15495 169.554 9.04622 169.463 11.2793C169.919 11.2793 170.26 11.2565 170.488 11.2109C172.904 11.1198 174.84 11.0286 176.299 10.9375C177.803 10.8008 179.033 10.778 179.99 10.8691C180.947 10.9603 181.79 11.1882 182.52 11.5527C183.249 11.9173 184.069 12.5098 184.98 13.3301C185.299 13.6035 185.573 13.8997 185.801 14.2188C186.029 14.4922 186.211 14.8112 186.348 15.1758C186.53 15.4948 186.621 15.8366 186.621 16.2012ZM61.6602 73.2129C61.6602 73.7142 61.6146 74.694 61.5234 76.1523C61.4323 77.6107 61.3184 79.3652 61.1816 81.416C61.0449 83.4668 60.9082 85.7227 60.7715 88.1836C60.6348 90.6445 60.5208 93.151 60.4297 95.7031C60.3385 98.2552 60.2474 100.648 60.1562 102.881C60.1107 105.068 60.0879 107.028 60.0879 108.76C60.1335 110.492 60.2246 111.95 60.3613 113.135C60.498 114.274 60.7031 115.049 60.9766 115.459L57.9004 116.621C57.6725 116.712 57.3991 116.758 57.0801 116.758C56.7611 116.758 56.4193 116.667 56.0547 116.484C55.7357 116.302 55.4622 115.983 55.2344 115.527C55.0065 115.072 54.8926 114.434 54.8926 113.613C54.8926 113.294 54.8926 112.907 54.8926 112.451C54.9382 111.95 54.9609 111.38 54.9609 110.742C54.4141 111.654 53.8216 112.542 53.1836 113.408C52.5456 114.274 51.8392 115.026 51.0645 115.664C50.3353 116.302 49.5378 116.803 48.6719 117.168C47.806 117.578 46.8945 117.783 45.9375 117.783C45.026 117.783 44.1374 117.578 43.2715 117.168C42.4056 116.803 41.6309 116.234 40.9473 115.459C40.2637 114.684 39.694 113.682 39.2383 112.451C38.8281 111.221 38.623 109.74 38.623 108.008C38.623 104.863 38.9876 102.129 39.7168 99.8047C40.446 97.4349 41.3574 95.4753 42.4512 93.9258C43.5905 92.3307 44.7982 91.1458 46.0742 90.3711C47.3958 89.5508 48.6035 89.1406 49.6973 89.1406C51.3835 89.1406 52.6823 89.5964 53.5938 90.5078C54.5052 91.3737 55.166 92.2852 55.5762 93.2422C55.6217 91.9206 55.6445 90.6901 55.6445 89.5508C55.6901 88.3659 55.7129 87.3633 55.7129 86.543C55.7129 83.1706 55.6445 80.1628 55.5078 77.5195C55.3711 74.8763 55.0293 72.8711 54.4824 71.5039C55.1204 71.1393 55.6901 70.8659 56.1914 70.6836C56.7383 70.5013 57.2168 70.3646 57.627 70.2734C58.1283 70.1367 58.5612 70.0684 58.9258 70.0684C59.9284 70.0684 60.6348 70.3646 61.0449 70.957C61.4551 71.5039 61.6602 72.2559 61.6602 73.2129ZM55.166 104.932C55.2572 103.747 55.3027 102.516 55.3027 101.24C55.3483 99.9186 55.3939 98.597 55.4395 97.2754C55.1204 97.7767 54.7331 98.2096 54.2773 98.5742C53.8672 98.9388 53.4115 99.0299 52.9102 98.8477C53.0924 97.4805 53.0697 96.4323 52.8418 95.7031C52.6595 94.974 52.3861 94.4271 52.0215 94.0625C51.6113 93.6523 51.1328 93.4245 50.5859 93.3789C49.7656 93.3789 48.9453 93.8346 48.125 94.7461C47.3503 95.6576 46.6439 96.7969 46.0059 98.1641C45.4134 99.4857 44.9349 100.921 44.5703 102.471C44.2057 103.975 44.0234 105.365 44.0234 106.641C44.0234 109.193 44.3652 110.97 45.0488 111.973C45.778 112.975 46.5527 113.477 47.373 113.477C48.0566 113.477 48.763 113.203 49.4922 112.656C50.2669 112.109 50.9961 111.403 51.6797 110.537C52.4089 109.671 53.0697 108.76 53.6621 107.803C54.3001 106.8 54.8014 105.843 55.166 104.932ZM84.4922 104.863C84.401 106.641 84.082 108.281 83.5352 109.785C83.0339 111.289 82.3275 112.611 81.416 113.75C80.5046 114.844 79.4108 115.71 78.1348 116.348C76.9043 116.986 75.5371 117.327 74.0332 117.373C72.7116 117.419 71.4583 117.1 70.2734 116.416C69.1341 115.732 68.1315 114.775 67.2656 113.545C66.3997 112.314 65.7389 110.856 65.2832 109.17C64.873 107.438 64.7591 105.57 64.9414 103.564C65.0781 101.24 65.5111 99.2578 66.2402 97.6172C66.9694 95.931 67.7441 94.541 68.5645 93.4473C69.3848 92.3535 70.1367 91.556 70.8203 91.0547C71.5495 90.5078 72.0052 90.1888 72.1875 90.0977C72.5065 89.9609 72.8027 89.9382 73.0762 90.0293C73.3496 90.0749 73.6458 90.1432 73.9648 90.2344C74.056 90.2799 74.1471 90.3939 74.2383 90.5762C74.4206 90.8952 74.5345 91.4876 74.5801 92.3535C74.8079 91.8522 75.1042 91.4421 75.4688 91.123C75.8333 90.804 76.1979 90.5762 76.5625 90.4395C77.0182 90.2572 77.474 90.1432 77.9297 90.0977C78.2487 90.0521 78.7956 90.3027 79.5703 90.8496C80.3906 91.3965 81.1654 92.2624 81.8945 93.4473C82.6693 94.6322 83.3301 96.1816 83.877 98.0957C84.4238 99.9642 84.6289 102.22 84.4922 104.863ZM79.8438 104.043C79.8893 102.949 79.8438 101.855 79.707 100.762C79.6159 99.6224 79.4336 98.597 79.1602 97.6855C78.9323 96.7285 78.6361 95.9766 78.2715 95.4297C77.9069 94.8372 77.5423 94.541 77.1777 94.541C76.7676 94.6322 76.3118 94.8372 75.8105 95.1562C75.4004 95.4297 74.9447 95.8626 74.4434 96.4551C73.9421 97.0475 73.4635 97.8906 73.0078 98.9844C72.9622 98.8477 72.9167 98.597 72.8711 98.2324C72.8255 97.9134 72.7799 97.5033 72.7344 97.002C72.7344 96.4551 72.7799 95.7259 72.8711 94.8145C72.2331 95.5892 71.7318 96.5007 71.3672 97.5488C71.0482 98.597 70.7975 99.5996 70.6152 100.557C70.4329 101.696 70.2962 102.835 70.2051 103.975C70.1595 105.205 70.2051 106.413 70.3418 107.598C70.5241 108.783 70.7975 109.831 71.1621 110.742C71.5723 111.654 72.0508 112.383 72.5977 112.93C73.1445 113.477 73.8053 113.727 74.5801 113.682C75.3548 113.636 76.0384 113.317 76.6309 112.725C77.2233 112.132 77.7474 111.38 78.2031 110.469C78.6589 109.557 79.0234 108.532 79.2969 107.393C79.5703 106.253 79.7526 105.137 79.8438 104.043ZM95.293 114.775C95.2474 115.049 94.9967 115.345 94.541 115.664C94.1309 115.938 93.6296 116.188 93.0371 116.416C92.4902 116.644 91.9661 116.781 91.4648 116.826C90.9635 116.917 90.6217 116.872 90.4395 116.689C90.2572 116.507 89.9609 116.165 89.5508 115.664C89.1406 115.163 88.89 114.342 88.7988 113.203C88.7077 112.018 88.6621 110.537 88.6621 108.76C88.6621 106.937 88.6393 104.932 88.5938 102.744V100.01C88.5938 99.1895 88.571 98.2324 88.5254 97.1387C88.5254 96.0449 88.5026 94.9056 88.457 93.7207C88.8672 93.4928 89.2773 93.2878 89.6875 93.1055C90.1432 92.8776 90.5534 92.6953 90.918 92.5586C91.3281 92.3763 91.7155 92.2396 92.0801 92.1484C93.0371 91.875 93.7663 91.7155 94.2676 91.6699C94.7689 91.6243 95.0651 91.7839 95.1562 92.1484C95.2018 92.4219 95.179 93.0827 95.0879 94.1309C94.9967 95.0423 94.8828 96.4323 94.7461 98.3008C94.6094 100.124 94.3815 102.676 94.0625 105.957C94.6549 104.499 95.1335 103.245 95.498 102.197C95.9082 101.149 96.25 100.306 96.5234 99.668C96.7969 98.8932 97.0475 98.278 97.2754 97.8223C97.5033 97.2298 97.7995 96.569 98.1641 95.8398C98.5286 95.1107 98.8932 94.4271 99.2578 93.7891C99.668 93.151 100.033 92.5814 100.352 92.0801C100.716 91.5788 100.99 91.2826 101.172 91.1914C101.309 91.1003 101.719 91.1003 102.402 91.1914C103.086 91.2826 103.815 91.5104 104.59 91.875C105.365 92.194 106.117 92.6725 106.846 93.3105C107.575 93.903 108.053 94.6322 108.281 95.498C108.555 96.5007 108.646 97.8223 108.555 99.4629C108.509 101.104 108.395 102.79 108.213 104.521C108.076 106.253 107.962 107.894 107.871 109.443C107.78 110.993 107.871 112.178 108.145 112.998C108.236 113.454 108.372 113.864 108.555 114.229C108.646 114.593 108.76 114.935 108.896 115.254C109.079 115.527 109.261 115.732 109.443 115.869C108.35 116.37 107.461 116.735 106.777 116.963C106.094 117.191 105.57 117.35 105.205 117.441C104.749 117.578 104.43 117.624 104.248 117.578C103.838 117.441 103.473 117.1 103.154 116.553C102.881 116.006 102.63 115.14 102.402 113.955C102.311 113.59 102.266 112.998 102.266 112.178C102.311 111.312 102.38 110.355 102.471 109.307C102.562 108.213 102.653 107.096 102.744 105.957C102.881 104.772 102.972 103.678 103.018 102.676C103.109 101.628 103.177 100.739 103.223 100.01C103.268 99.235 103.268 98.7109 103.223 98.4375C102.995 97.6172 102.676 97.0475 102.266 96.7285C101.855 96.3639 101.536 96.3184 101.309 96.5918C100.716 97.2754 100.078 98.3919 99.3945 99.9414C98.7565 101.445 98.1413 103.109 97.5488 104.932C96.9564 106.709 96.4551 108.486 96.0449 110.264C95.6348 112.041 95.3841 113.545 95.293 114.775ZM122.568 117.373C119.378 117.373 116.917 116.302 115.186 114.16C113.454 112.018 112.588 109.215 112.588 105.752C112.588 103.337 112.93 101.081 113.613 98.9844C114.342 96.8424 115.299 94.9967 116.484 93.4473C117.669 91.8978 119.036 90.6901 120.586 89.8242C122.181 88.9128 123.844 88.457 125.576 88.457C127.262 88.457 128.698 89.0723 129.883 90.3027C131.068 91.4876 131.66 93.1966 131.66 95.4297C131.66 96.888 131.341 98.3464 130.703 99.8047C130.065 101.217 129.222 102.493 128.174 103.633C127.171 104.727 126.055 105.615 124.824 106.299C123.594 106.982 122.409 107.324 121.27 107.324C120.54 107.324 119.925 107.233 119.424 107.051C118.923 106.868 118.467 106.595 118.057 106.23C118.193 108.828 118.763 110.651 119.766 111.699C120.768 112.702 122.067 113.203 123.662 113.203C124.756 113.203 125.713 112.975 126.533 112.52C127.399 112.064 128.128 111.54 128.721 110.947C129.313 110.355 129.792 109.762 130.156 109.17C130.521 108.532 130.771 108.053 130.908 107.734C131.045 107.461 131.273 107.324 131.592 107.324C131.956 107.324 132.139 107.598 132.139 108.145C132.139 108.646 131.956 109.421 131.592 110.469C131.273 111.471 130.726 112.497 129.951 113.545C129.176 114.548 128.174 115.436 126.943 116.211C125.758 116.986 124.3 117.373 122.568 117.373ZM125.713 91.3965C125.439 91.3965 124.915 91.6927 124.141 92.2852C123.411 92.832 122.614 93.6523 121.748 94.7461C120.928 95.8398 120.153 97.1615 119.424 98.7109C118.74 100.215 118.307 101.924 118.125 103.838C120.859 103.2 123.024 102.197 124.619 100.83C126.214 99.4629 127.012 97.4577 127.012 94.8145C127.012 93.4928 126.852 92.6042 126.533 92.1484C126.214 91.6471 125.941 91.3965 125.713 91.3965Z" fill="#0088BB"/>
</svg>
