<svg width="298" height="72" viewBox="0 0 298 72" fill="none" xmlns="http://www.w3.org/2000/svg">
<g clip-path="url(#clip0_3_11)">
<path d="M87.163 58.08C85.751 58.08 84.449 57.804 83.259 57.25C82.1036 56.7024 81.0823 55.908 80.267 54.923C79.437 53.926 78.786 52.763 78.315 51.433C77.872 50.104 77.65 48.664 77.65 47.113C77.65 45.479 77.9 43.983 78.398 42.627C78.897 41.242 79.589 40.037 80.475 39.013C81.3725 38.0003 82.4775 37.1927 83.715 36.645C84.962 36.091 86.333 35.814 87.828 35.814C89.379 35.814 90.75 36.133 91.941 36.77C93.1439 37.3646 94.1418 38.3047 94.807 39.47V36.23H101.662V56.087C101.662 58.357 101.108 60.337 100 62.027C98.892 63.717 97.341 65.018 95.347 65.932C93.353 66.874 91.027 67.344 88.368 67.344C86.07 67.344 84.048 66.984 82.303 66.264C80.5855 65.544 79.0311 64.4845 77.733 63.149L81.888 58.829C82.691 59.576 83.646 60.199 84.754 60.698C85.8861 61.2234 87.12 61.4927 88.368 61.487C89.338 61.487 90.224 61.307 91.027 60.947C91.857 60.587 92.522 60.005 93.021 59.202C93.519 58.427 93.769 57.388 93.769 56.087V54.674C93.159 55.81 92.246 56.668 91.027 57.25C89.836 57.803 88.548 58.08 87.163 58.08ZM89.988 51.85C90.376 51.85 90.736 51.808 91.068 51.725C91.428 51.614 91.761 51.475 92.066 51.309C92.37 51.115 92.661 50.879 92.938 50.603C93.2441 50.2963 93.5218 49.9626 93.768 49.606V45.7C93.5392 45.0687 93.1863 44.4896 92.73 43.997C92.287 43.498 91.802 43.124 91.276 42.875C90.786 42.6096 90.2388 42.4671 89.6815 42.46C89.1243 42.4529 88.5737 42.5812 88.077 42.834C87.607 43.083 87.191 43.443 86.831 43.914C86.471 44.357 86.194 44.869 86.001 45.451C85.8036 46.0545 85.7053 46.686 85.71 47.321C85.71 47.985 85.807 48.594 86 49.148C86.222 49.702 86.526 50.186 86.914 50.602C87.302 50.99 87.759 51.294 88.285 51.516C88.8246 51.7401 89.4038 51.853 89.988 51.848V51.85ZM127.645 58.08H119.752V45.785C119.752 44.705 119.502 43.93 119.004 43.459C118.533 42.96 117.979 42.711 117.342 42.711C116.899 42.711 116.428 42.849 115.93 43.126C115.407 43.3937 114.942 43.7605 114.559 44.206C114.138 44.6858 113.8 45.2336 113.562 45.826V58.08H105.669V36.23H112.772V39.47C113.291 38.674 113.971 37.9949 114.767 37.476C115.57 36.922 116.497 36.506 117.55 36.229C118.602 35.953 119.752 35.814 120.998 35.814C122.493 35.814 123.684 36.077 124.57 36.604C125.457 37.13 126.121 37.808 126.564 38.639C127.003 39.4549 127.298 40.3401 127.437 41.256C127.575 42.142 127.645 42.959 127.645 43.707V58.08ZM142.23 58.496C140.291 58.496 138.574 58.191 137.078 57.582C135.583 56.972 134.323 56.142 133.298 55.09C132.312 54.0268 131.537 52.7862 131.013 51.434C130.512 50.0629 130.26 48.6137 130.266 47.154C130.266 45.659 130.515 44.234 131.013 42.876C131.523 41.5172 132.3 40.2742 133.298 39.22C134.323 38.168 135.583 37.337 137.078 36.728C138.574 36.118 140.291 35.814 142.23 35.814C144.196 35.814 145.913 36.119 147.381 36.728C148.876 37.338 150.123 38.168 151.12 39.22C152.136 40.2596 152.915 41.5068 153.404 42.876C153.931 44.233 154.194 45.659 154.194 47.155C154.194 48.65 153.931 50.077 153.404 51.434C152.902 52.7968 152.125 54.0414 151.12 55.09C150.123 56.142 148.876 56.973 147.381 57.582C145.913 58.192 144.196 58.496 142.23 58.496ZM138.366 47.155C138.366 48.125 138.532 48.969 138.865 49.689C139.197 50.381 139.654 50.921 140.236 51.309C140.817 51.669 141.482 51.849 142.23 51.849C142.977 51.849 143.642 51.669 144.224 51.309C144.805 50.921 145.262 50.381 145.595 49.689C145.927 48.969 146.093 48.124 146.093 47.155C146.093 46.185 145.927 45.355 145.595 44.662C145.262 43.942 144.805 43.402 144.224 43.042C143.642 42.655 142.977 42.461 142.23 42.461C141.482 42.461 140.817 42.655 140.236 43.042C139.654 43.402 139.197 43.942 138.865 44.662C138.532 45.355 138.366 46.186 138.366 47.155ZM192.215 58.08H184.322V45.785C184.322 44.705 184.101 43.93 183.658 43.459C183.242 42.96 182.73 42.711 182.121 42.711C181.511 42.711 180.847 43.001 180.127 43.583C179.403 44.1701 178.856 44.9471 178.548 45.827V58.08H170.655V45.784C170.655 44.704 170.433 43.929 169.99 43.458C169.575 42.959 169.063 42.71 168.453 42.71C167.844 42.71 167.179 43 166.459 43.582C165.739 44.164 165.213 44.912 164.881 45.826V58.08H156.988V36.228H164.091V39.468C164.867 38.278 165.933 37.378 167.29 36.768C168.647 36.132 170.253 35.813 172.109 35.813C173.909 35.813 175.266 36.201 176.18 36.976C177.094 37.752 177.703 38.624 178.008 39.593C178.783 38.403 179.85 37.475 181.207 36.81C182.564 36.145 184.087 35.813 185.776 35.813C187.216 35.813 188.366 36.076 189.224 36.603C190.083 37.129 190.72 37.807 191.135 38.638C191.578 39.468 191.869 40.341 192.008 41.255C192.146 42.141 192.215 42.958 192.215 43.706V58.08ZM206.814 58.496C204.903 58.496 203.2 58.206 201.705 57.623C200.209 57.014 198.949 56.197 197.924 55.173C196.935 54.1598 196.158 52.9589 195.64 51.641C195.112 50.3057 194.844 48.8819 194.85 47.446C194.85 45.341 195.307 43.416 196.221 41.671C197.135 39.899 198.478 38.487 200.251 37.434C202.023 36.354 204.211 35.814 206.814 35.814C209.418 35.814 211.606 36.34 213.378 37.393C215.15 38.445 216.494 39.83 217.408 41.547C218.322 43.264 218.778 45.133 218.778 47.155C218.778 47.57 218.751 48 218.695 48.443C218.668 48.858 218.626 49.232 218.571 49.564H203.242C203.297 50.34 203.505 50.977 203.865 51.475C204.253 51.946 204.723 52.292 205.277 52.514C205.955 52.7691 206.679 52.8787 207.402 52.8356C208.125 52.7926 208.83 52.5978 209.473 52.264C210.249 51.877 210.761 51.337 211.01 50.644L217.698 52.555C217.117 53.719 216.3 54.743 215.247 55.63C214.223 56.516 213.004 57.222 211.592 57.748C210.179 58.247 208.587 58.496 206.814 58.496ZM203.076 44.829H210.304C210.221 44.109 210.013 43.499 209.681 43.001C209.38 42.5064 208.949 42.104 208.435 41.838C207.936 41.561 207.354 41.422 206.69 41.422C206.025 41.422 205.43 41.561 204.903 41.838C204.4 42.1194 203.973 42.518 203.657 43C203.353 43.498 203.159 44.109 203.076 44.829ZM230.135 58.496C228.224 58.496 226.341 58.191 224.485 57.582C222.657 56.945 221.107 56.032 219.833 54.84L222.533 49.98C223.89 50.866 225.192 51.558 226.438 52.057C227.712 52.555 228.861 52.805 229.886 52.805C230.467 52.805 230.897 52.735 231.174 52.597C231.451 52.431 231.589 52.167 231.589 51.807C231.591 51.6879 231.566 51.57 231.515 51.462C231.465 51.3541 231.39 51.2591 231.298 51.184C231.104 51.018 230.786 50.852 230.343 50.686C229.812 50.481 229.271 50.3008 228.723 50.146C227.006 49.536 225.565 48.969 224.402 48.443C223.267 47.917 222.408 47.28 221.827 46.532C221.273 45.756 220.996 44.732 220.996 43.458C220.996 41.962 221.37 40.647 222.117 39.511C222.865 38.348 223.931 37.434 225.316 36.769C226.729 36.105 228.418 35.773 230.384 35.773C231.852 35.773 233.32 36.008 234.788 36.479C236.283 36.922 237.723 37.739 239.108 38.929L236.117 43.749C234.732 42.89 233.555 42.281 232.586 41.921C231.644 41.561 230.8 41.381 230.052 41.381C229.692 41.381 229.373 41.422 229.096 41.505C228.871 41.5724 228.67 41.7021 228.515 41.879C228.376 42.045 228.307 42.267 228.307 42.544C228.307 42.821 228.404 43.056 228.598 43.25C228.792 43.416 229.096 43.582 229.512 43.748C229.927 43.887 230.453 44.053 231.09 44.247C232.974 44.801 234.511 45.369 235.702 45.95C236.893 46.504 237.765 47.183 238.319 47.986C238.9 48.789 239.191 49.841 239.191 51.143C239.191 53.442 238.374 55.242 236.74 56.543C235.134 57.845 232.932 58.496 230.135 58.496Z" fill="#FFBB00"/>
<path d="M84.907 27.801C84.6126 27.9217 84.3162 28.0373 84.018 28.148C83.671 28.278 83.296 28.379 82.891 28.451C82.501 28.538 82.104 28.581 81.699 28.581C81.1938 28.587 80.6925 28.4914 80.225 28.3C79.7835 28.1176 79.4062 27.8082 79.141 27.411C78.881 26.992 78.751 26.451 78.751 25.786V19.262H77.256V17.029H78.751V13.345H81.656V17.029H84.04V19.262H81.656V24.81C81.67 25.2 81.778 25.482 81.981 25.656C82.183 25.829 82.436 25.916 82.739 25.916C83.043 25.916 83.339 25.866 83.628 25.764C83.917 25.663 84.148 25.576 84.322 25.504L84.907 27.801ZM86.42 28.387V17.029H89.324V28.387H86.42ZM86.42 15.447V12.565H89.324V15.447H86.42ZM102.499 28.387H99.595V22.014C99.595 21.104 99.435 20.439 99.118 20.02C98.8 19.601 98.359 19.392 97.796 19.392C97.406 19.392 97.008 19.492 96.604 19.695C96.214 19.898 95.859 20.179 95.542 20.541C95.224 20.887 94.992 21.291 94.848 21.754V28.387H91.944V17.029H94.566V19.132C94.8471 18.6493 95.2234 18.2288 95.672 17.896C96.12 17.549 96.632 17.289 97.211 17.116C97.8141 16.9265 98.4428 16.8313 99.075 16.834C99.782 16.834 100.361 16.964 100.808 17.224C101.271 17.47 101.618 17.81 101.849 18.244C102.094 18.662 102.261 19.139 102.347 19.674C102.448 20.208 102.499 20.75 102.499 21.299V28.387ZM105.072 30.597C105.332 30.655 105.571 30.706 105.788 30.749C106.019 30.792 106.214 30.814 106.373 30.814C106.647 30.814 106.871 30.742 107.045 30.597C107.232 30.467 107.413 30.222 107.587 29.86C107.76 29.514 107.941 29.022 108.128 28.387L103.642 17.029H106.655L109.711 25.417L112.398 17.029H115.172L110.404 30.641C110.231 31.146 109.963 31.601 109.602 32.006C109.246 32.4321 108.792 32.7664 108.28 32.981C107.76 33.227 107.175 33.35 106.524 33.35C106.291 33.3497 106.059 33.3279 105.831 33.285C105.573 33.2502 105.319 33.1923 105.072 33.112V30.597Z" fill="#FF8888"/>
<path d="M0.76001 36.828C0.76001 20.102 14.32 6.54199 31.046 6.54199C47.773 6.54199 61.333 20.102 61.333 36.828C61.333 53.555 47.773 67.115 31.046 67.115C14.32 67.115 0.76001 53.555 0.76001 36.828Z" fill="white"/>
<path fill-rule="evenodd" clip-rule="evenodd" d="M31.046 6.54199C14.32 6.54199 0.76001 20.102 0.76001 36.828C0.76001 53.555 14.32 67.115 31.046 67.115C47.773 67.115 61.333 53.555 61.333 36.828C61.333 20.102 47.773 6.54199 31.046 6.54199ZM49.218 30.014C49.8146 30.014 50.4054 29.8965 50.9565 29.6682C51.5077 29.4399 52.0085 29.1052 52.4304 28.6834C52.8523 28.2615 53.1869 27.7607 53.4152 27.2095C53.6435 26.6583 53.761 26.0676 53.761 25.471C53.761 24.8744 53.6435 24.2836 53.4152 23.7325C53.1869 23.1813 52.8523 22.6805 52.4304 22.2586C52.0085 21.8367 51.5077 21.5021 50.9565 21.2738C50.4054 21.0455 49.8146 20.928 49.218 20.928C48.0131 20.928 46.8576 21.4066 46.0056 22.2586C45.1536 23.1106 44.675 24.2661 44.675 25.471C44.675 26.6759 45.1536 27.8314 46.0056 28.6834C46.8576 29.5354 48.0131 30.014 49.218 30.014ZM44.675 34.557C44.675 35.7619 44.1964 36.9174 43.3444 37.7694C42.4924 38.6214 41.3369 39.1 40.132 39.1C38.9271 39.1 37.7716 38.6214 36.9196 37.7694C36.0676 36.9174 35.589 35.7619 35.589 34.557C35.589 33.3521 36.0676 32.1966 36.9196 31.3446C37.7716 30.4926 38.9271 30.014 40.132 30.014C41.3369 30.014 42.4924 30.4926 43.3444 31.3446C44.1964 32.1966 44.675 33.3521 44.675 34.557ZM31.046 48.186C31.6426 48.186 32.2334 48.0685 32.7845 47.8402C33.3357 47.6119 33.8365 47.2772 34.2584 46.8554C34.6803 46.4335 35.0149 45.9327 35.2432 45.3815C35.4715 44.8303 35.589 44.2396 35.589 43.643C35.589 43.0464 35.4715 42.4556 35.2432 41.9045C35.0149 41.3533 34.6803 40.8525 34.2584 40.4306C33.8365 40.0088 33.3357 39.6741 32.7845 39.4458C32.2334 39.2175 31.6426 39.1 31.046 39.1C29.8411 39.1 28.6856 39.5786 27.8336 40.4306C26.9816 41.2826 26.503 42.4381 26.503 43.643C26.503 44.8479 26.9816 46.0034 27.8336 46.8554C28.6856 47.7074 29.8411 48.186 31.046 48.186ZM26.503 52.729C26.503 53.3256 26.3855 53.9163 26.1572 54.4675C25.9289 55.0187 25.5943 55.5195 25.1724 55.9414C24.7505 56.3632 24.2497 56.6979 23.6985 56.9262C23.1474 57.1545 22.5566 57.272 21.96 57.272C21.3634 57.272 20.7727 57.1545 20.2215 56.9262C19.6703 56.6979 19.1695 56.3632 18.7476 55.9414C18.3258 55.5195 17.9911 55.0187 17.7628 54.4675C17.5345 53.9163 17.417 53.3256 17.417 52.729C17.417 51.5241 17.8956 50.3686 18.7476 49.5166C19.5996 48.6646 20.7551 48.186 21.96 48.186C23.1649 48.186 24.3204 48.6646 25.1724 49.5166C26.0244 50.3686 26.503 51.5241 26.503 52.729ZM12.874 48.186C13.4706 48.186 14.0614 48.0685 14.6125 47.8402C15.1637 47.6119 15.6645 47.2772 16.0864 46.8554C16.5083 46.4335 16.8429 45.9327 17.0712 45.3815C17.2995 44.8303 17.417 44.2396 17.417 43.643C17.417 43.0464 17.2995 42.4556 17.0712 41.9045C16.8429 41.3533 16.5083 40.8525 16.0864 40.4306C15.6645 40.0088 15.1637 39.6741 14.6125 39.4458C14.0614 39.2175 13.4706 39.1 12.874 39.1C11.6691 39.1 10.5136 39.5786 9.66162 40.4306C8.80965 41.2826 8.33101 42.4381 8.33101 43.643C8.33101 44.8479 8.80965 46.0034 9.66162 46.8554C10.5136 47.7074 11.6691 48.186 12.874 48.186Z" fill="#00B0DC"/>
</g>
<defs>
<clipPath id="clip0_3_11">
<rect width="298" height="72" fill="white"/>
</clipPath>
</defs>
</svg>
