<svg width="260" height="260" viewBox="0 0 260 260" fill="none" xmlns="http://www.w3.org/2000/svg">
<circle cx="130" cy="130" r="125" fill="white" stroke="#FFBB00" stroke-width="10"/>
<path d="M85.96 177V148.6H98C99.3067 148.6 100.507 148.867 101.6 149.4C102.693 149.933 103.64 150.653 104.44 151.56C105.267 152.467 105.907 153.48 106.36 154.6C106.813 155.72 107.04 156.867 107.04 158.04C107.04 159.64 106.667 161.16 105.92 162.6C105.173 164.04 104.147 165.213 102.84 166.12C101.533 167.027 99.9867 167.48 98.2 167.48H91.48V177H85.96ZM91.48 162.64H97.88C98.5467 162.64 99.1467 162.453 99.68 162.08C100.213 161.707 100.64 161.173 100.96 160.48C101.28 159.76 101.44 158.947 101.44 158.04C101.44 157.053 101.253 156.213 100.88 155.52C100.533 154.827 100.067 154.307 99.48 153.96C98.92 153.613 98.3067 153.44 97.64 153.44H91.48V162.64ZM110.322 147.8H115.682V170.28C115.682 171.24 115.842 171.893 116.162 172.24C116.482 172.56 116.922 172.72 117.482 172.72C117.909 172.72 118.349 172.667 118.802 172.56C119.255 172.453 119.655 172.32 120.002 172.16L120.722 176.24C120.002 176.587 119.162 176.853 118.202 177.04C117.242 177.227 116.375 177.32 115.602 177.32C113.922 177.32 112.615 176.88 111.682 176C110.775 175.093 110.322 173.813 110.322 172.16V147.8ZM121.617 170.8C121.617 169.44 121.991 168.253 122.737 167.24C123.511 166.2 124.577 165.4 125.937 164.84C127.297 164.28 128.857 164 130.617 164C131.497 164 132.391 164.067 133.297 164.2C134.204 164.333 134.991 164.547 135.657 164.84V163.72C135.657 162.387 135.257 161.36 134.457 160.64C133.684 159.92 132.524 159.56 130.977 159.56C129.831 159.56 128.737 159.76 127.697 160.16C126.657 160.56 125.564 161.147 124.417 161.92L122.697 158.4C124.084 157.493 125.497 156.813 126.937 156.36C128.404 155.907 129.937 155.68 131.537 155.68C134.524 155.68 136.844 156.427 138.497 157.92C140.177 159.413 141.017 161.547 141.017 164.32V171C141.017 171.56 141.111 171.96 141.297 172.2C141.511 172.44 141.844 172.587 142.297 172.64V177C141.817 177.08 141.377 177.147 140.977 177.2C140.604 177.253 140.284 177.28 140.017 177.28C138.951 177.28 138.137 177.04 137.577 176.56C137.044 176.08 136.711 175.493 136.577 174.8L136.457 173.72C135.551 174.893 134.417 175.8 133.057 176.44C131.697 177.08 130.311 177.4 128.897 177.4C127.511 177.4 126.257 177.12 125.137 176.56C124.044 175.973 123.177 175.187 122.537 174.2C121.924 173.187 121.617 172.053 121.617 170.8ZM134.657 171.88C134.951 171.56 135.191 171.24 135.377 170.92C135.564 170.6 135.657 170.307 135.657 170.04V167.92C135.017 167.653 134.324 167.453 133.577 167.32C132.831 167.16 132.124 167.08 131.457 167.08C130.071 167.08 128.924 167.387 128.017 168C127.137 168.587 126.697 169.373 126.697 170.36C126.697 170.893 126.844 171.4 127.137 171.88C127.431 172.36 127.857 172.747 128.417 173.04C128.977 173.333 129.644 173.48 130.417 173.48C131.217 173.48 132.004 173.333 132.777 173.04C133.551 172.72 134.177 172.333 134.657 171.88ZM165.506 177H160.146V165.24C160.146 163.56 159.853 162.333 159.266 161.56C158.679 160.787 157.866 160.4 156.826 160.4C156.106 160.4 155.373 160.587 154.626 160.96C153.906 161.333 153.253 161.853 152.666 162.52C152.079 163.16 151.653 163.907 151.386 164.76V177H146.026V156.04H150.866V159.92C151.399 159.013 152.079 158.253 152.906 157.64C153.733 157 154.679 156.52 155.746 156.2C156.839 155.853 157.986 155.68 159.186 155.68C160.493 155.68 161.559 155.92 162.386 156.4C163.239 156.853 163.879 157.48 164.306 158.28C164.759 159.053 165.066 159.933 165.226 160.92C165.413 161.907 165.506 162.907 165.506 163.92V177Z" fill="#0088BB"/>
<g filter="url(#filter0_d_16_25)">
<path d="M129 45.9414C136.531 45.9414 141.983 45.944 146.254 46.3311C150.484 46.7145 153.267 47.4565 155.529 48.7627C158.731 50.611 161.389 53.2694 163.237 56.4707C164.543 58.733 165.286 61.5156 165.669 65.7461C166.056 70.0171 166.059 75.4689 166.059 83C166.059 90.5311 166.056 95.9829 165.669 100.254C165.286 104.484 164.543 107.267 163.237 109.529C161.389 112.731 158.731 115.389 155.529 117.237C153.267 118.543 150.484 119.286 146.254 119.669C141.983 120.056 136.531 120.059 129 120.059H91.9414V83C91.9414 75.4689 91.944 70.0172 92.3311 65.7461C92.7145 61.5156 93.4565 58.733 94.7627 56.4707C96.611 53.2694 99.2694 50.611 102.471 48.7627C104.733 47.4565 107.516 46.7145 111.746 46.3311C116.017 45.944 121.469 45.9414 129 45.9414Z" fill="white" stroke="#40B3FF" stroke-width="5.88235"/>
<rect width="24" height="6" rx="3" transform="matrix(1 0 0 -1 105 75)" fill="#40B3FF"/>
<rect width="48" height="6" rx="3" transform="matrix(1 0 0 -1 105 86)" fill="#40B3FF"/>
</g>
<defs>
<filter id="filter0_d_16_25" x="83.7059" y="37.7059" width="91.7647" height="91.7647" filterUnits="userSpaceOnUse" color-interpolation-filters="sRGB">
<feFlood flood-opacity="0" result="BackgroundImageFix"/>
<feColorMatrix in="SourceAlpha" type="matrix" values="0 0 0 0 0 0 0 0 0 0 0 0 0 0 0 0 0 0 127 0" result="hardAlpha"/>
<feOffset dx="0.588235" dy="0.588235"/>
<feGaussianBlur stdDeviation="2.94118"/>
<feColorMatrix type="matrix" values="0 0 0 0 0 0 0 0 0 0 0 0 0 0 0 0 0 0 0.2 0"/>
<feBlend mode="normal" in2="BackgroundImageFix" result="effect1_dropShadow_16_25"/>
<feBlend mode="normal" in="SourceGraphic" in2="effect1_dropShadow_16_25" result="shape"/>
</filter>
</defs>
</svg>
