<svg width="260" height="260" viewBox="0 0 260 260" fill="none" xmlns="http://www.w3.org/2000/svg">
<circle cx="130" cy="130" r="125" fill="white" stroke="#FFBB00" stroke-width="10"/>
<path d="M66.96 184V155.6H79.52C80.8267 155.6 82.0267 155.867 83.12 156.4C84.24 156.933 85.2 157.653 86 158.56C86.8267 159.467 87.4533 160.48 87.88 161.6C88.3333 162.72 88.56 163.867 88.56 165.04C88.56 166.24 88.3467 167.4 87.92 168.52C87.52 169.613 86.9333 170.573 86.16 171.4C85.3867 172.227 84.48 172.867 83.44 173.32L89.92 184H83.84L78 174.48H72.48V184H66.96ZM72.48 169.64H79.4C80.0933 169.64 80.7067 169.44 81.24 169.04C81.7733 168.613 82.2 168.053 82.52 167.36C82.84 166.667 83 165.893 83 165.04C83 164.133 82.8133 163.347 82.44 162.68C82.0667 161.987 81.5867 161.44 81 161.04C80.44 160.64 79.8267 160.44 79.16 160.44H72.48V169.64ZM102.058 184.4C100.378 184.4 98.8584 184.12 97.4984 183.56C96.1384 182.973 94.9784 182.187 94.0184 181.2C93.0584 180.187 92.3118 179.04 91.7784 177.76C91.2718 176.453 91.0184 175.08 91.0184 173.64C91.0184 171.64 91.4584 169.813 92.3384 168.16C93.2451 166.507 94.5251 165.187 96.1784 164.2C97.8584 163.187 99.8318 162.68 102.098 162.68C104.392 162.68 106.352 163.187 107.978 164.2C109.605 165.187 110.845 166.507 111.698 168.16C112.578 169.787 113.018 171.547 113.018 173.44C113.018 173.76 113.005 174.093 112.978 174.44C112.952 174.76 112.925 175.027 112.898 175.24H96.6984C96.8051 176.307 97.1118 177.24 97.6184 178.04C98.1518 178.84 98.8184 179.453 99.6184 179.88C100.445 180.28 101.325 180.48 102.258 180.48C103.325 180.48 104.325 180.227 105.258 179.72C106.218 179.187 106.872 178.493 107.218 177.64L111.818 178.92C111.312 179.987 110.578 180.933 109.618 181.76C108.685 182.587 107.578 183.24 106.298 183.72C105.018 184.173 103.605 184.4 102.058 184.4ZM96.5784 171.84H107.538C107.432 170.773 107.125 169.853 106.618 169.08C106.138 168.28 105.498 167.667 104.698 167.24C103.898 166.787 103.005 166.56 102.018 166.56C101.058 166.56 100.178 166.787 99.3784 167.24C98.6051 167.667 97.9651 168.28 97.4584 169.08C96.9784 169.853 96.6851 170.773 96.5784 171.84ZM121.338 184L113.618 163.04H119.178L124.458 179.12L129.778 163.04H134.858L127.178 184H121.338ZM137.69 184V163.04H143.05V184H137.69ZM137.69 160.12V154.8H143.05V160.12H137.69ZM157.605 184.4C155.925 184.4 154.405 184.12 153.045 183.56C151.685 182.973 150.525 182.187 149.565 181.2C148.605 180.187 147.859 179.04 147.325 177.76C146.819 176.453 146.565 175.08 146.565 173.64C146.565 171.64 147.005 169.813 147.885 168.16C148.792 166.507 150.072 165.187 151.725 164.2C153.405 163.187 155.379 162.68 157.645 162.68C159.939 162.68 161.899 163.187 163.525 164.2C165.152 165.187 166.392 166.507 167.245 168.16C168.125 169.787 168.565 171.547 168.565 173.44C168.565 173.76 168.552 174.093 168.525 174.44C168.499 174.76 168.472 175.027 168.445 175.24H152.245C152.352 176.307 152.659 177.24 153.165 178.04C153.699 178.84 154.365 179.453 155.165 179.88C155.992 180.28 156.872 180.48 157.805 180.48C158.872 180.48 159.872 180.227 160.805 179.72C161.765 179.187 162.419 178.493 162.765 177.64L167.365 178.92C166.859 179.987 166.125 180.933 165.165 181.76C164.232 182.587 163.125 183.24 161.845 183.72C160.565 184.173 159.152 184.4 157.605 184.4ZM152.125 171.84H163.085C162.979 170.773 162.672 169.853 162.165 169.08C161.685 168.28 161.045 167.667 160.245 167.24C159.445 166.787 158.552 166.56 157.565 166.56C156.605 166.56 155.725 166.787 154.925 167.24C154.152 167.667 153.512 168.28 153.005 169.08C152.525 169.853 152.232 170.773 152.125 171.84ZM197.245 163.04H202.325L193.565 184H189.085L185.565 175L182.125 184H177.605L168.885 163.04H173.925L180.165 178.88L182.605 172.04L178.965 163.08H183.405L185.565 169.48L187.765 163.08H192.205L188.565 172.04L191.045 178.88L197.245 163.04Z" fill="#0088BB"/>
<g clip-path="url(#clip0_16_45)">
<g filter="url(#filter0_d_16_45)">
<rect x="90" y="55" width="80" height="80" rx="10" fill="white"/>
<path d="M127.619 124H114.436V122.374C114.436 121.71 114.528 121.09 114.714 120.514C114.899 119.928 115.148 119.381 115.461 118.873C115.773 118.355 116.14 117.872 116.56 117.423C116.979 116.964 117.429 116.524 117.907 116.104C118.386 115.675 118.874 115.265 119.372 114.874C119.87 114.474 120.358 114.073 120.837 113.673C121.286 113.292 121.696 112.921 122.067 112.56C122.438 112.188 122.756 111.808 123.02 111.417C123.283 111.026 123.488 110.616 123.635 110.187C123.781 109.747 123.854 109.273 123.854 108.766C123.854 108.209 123.767 107.726 123.591 107.315C123.425 106.896 123.186 106.549 122.873 106.275C122.57 105.992 122.209 105.782 121.789 105.646C121.369 105.499 120.91 105.426 120.412 105.426C119.553 105.426 118.679 105.626 117.79 106.026C116.901 106.427 116.047 107.027 115.227 107.828V104.562C115.656 104.239 116.091 103.961 116.53 103.727C116.97 103.482 117.424 103.282 117.893 103.126C118.361 102.96 118.854 102.838 119.372 102.76C119.89 102.682 120.441 102.643 121.027 102.643C121.975 102.643 122.834 102.77 123.605 103.023C124.377 103.268 125.036 103.634 125.583 104.122C126.13 104.601 126.55 105.201 126.843 105.924C127.146 106.646 127.297 107.477 127.297 108.414C127.297 109.264 127.189 110.03 126.975 110.714C126.77 111.388 126.472 112.018 126.081 112.604C125.7 113.189 125.236 113.746 124.689 114.273C124.143 114.801 123.532 115.343 122.858 115.899C122.292 116.358 121.726 116.808 121.159 117.247C120.603 117.677 120.1 118.102 119.65 118.521C119.201 118.932 118.835 119.347 118.552 119.767C118.278 120.177 118.142 120.592 118.142 121.012V121.085H127.619V124ZM131.003 118.141C131.003 117.535 131.076 116.949 131.223 116.383C131.379 115.816 131.608 115.294 131.911 114.815C132.214 114.337 132.595 113.907 133.054 113.526C133.513 113.146 134.05 112.838 134.665 112.604C133.757 112.096 133.034 111.446 132.497 110.655C131.96 109.854 131.691 108.971 131.691 108.004C131.691 107.232 131.848 106.52 132.16 105.865C132.482 105.211 132.922 104.645 133.479 104.166C134.045 103.688 134.709 103.316 135.471 103.053C136.232 102.779 137.062 102.643 137.961 102.643C138.869 102.643 139.704 102.779 140.466 103.053C141.237 103.326 141.901 103.702 142.458 104.181C143.024 104.659 143.464 105.226 143.776 105.88C144.089 106.534 144.245 107.242 144.245 108.004C144.245 108.971 143.977 109.854 143.439 110.655C142.902 111.446 142.189 112.096 141.301 112.604C141.906 112.838 142.438 113.146 142.897 113.526C143.366 113.897 143.757 114.322 144.069 114.801C144.382 115.279 144.616 115.802 144.772 116.368C144.929 116.935 145.007 117.525 145.007 118.141C145.007 119.059 144.836 119.898 144.494 120.66C144.152 121.422 143.674 122.076 143.059 122.623C142.443 123.16 141.706 123.58 140.847 123.883C139.987 124.186 139.04 124.337 138.005 124.337C136.979 124.337 136.037 124.186 135.178 123.883C134.328 123.58 133.591 123.16 132.966 122.623C132.351 122.076 131.867 121.422 131.516 120.66C131.174 119.898 131.003 119.059 131.003 118.141ZM134.313 117.848C134.313 118.443 134.401 118.98 134.577 119.459C134.753 119.938 135.002 120.343 135.324 120.675C135.646 121.007 136.032 121.261 136.481 121.437C136.94 121.612 137.448 121.7 138.005 121.7C138.542 121.7 139.035 121.612 139.484 121.437C139.934 121.251 140.319 120.992 140.642 120.66C140.974 120.318 141.232 119.913 141.418 119.444C141.604 118.966 141.696 118.434 141.696 117.848C141.696 117.311 141.608 116.808 141.433 116.339C141.257 115.86 141.008 115.445 140.686 115.094C140.363 114.742 139.973 114.464 139.514 114.259C139.064 114.054 138.562 113.951 138.005 113.951C137.478 113.951 136.984 114.049 136.525 114.244C136.076 114.43 135.686 114.698 135.354 115.05C135.031 115.392 134.777 115.802 134.592 116.28C134.406 116.759 134.313 117.281 134.313 117.848ZM135.031 108.355C135.031 108.795 135.109 109.205 135.266 109.586C135.422 109.957 135.632 110.284 135.896 110.567C136.159 110.841 136.467 111.056 136.818 111.212C137.18 111.368 137.565 111.446 137.976 111.446C138.386 111.446 138.767 111.368 139.118 111.212C139.479 111.046 139.792 110.826 140.056 110.553C140.329 110.27 140.544 109.942 140.7 109.571C140.856 109.19 140.935 108.785 140.935 108.355C140.935 107.916 140.856 107.506 140.7 107.125C140.554 106.744 140.349 106.417 140.085 106.144C139.821 105.87 139.509 105.655 139.147 105.499C138.786 105.343 138.396 105.265 137.976 105.265C137.536 105.265 137.136 105.348 136.774 105.514C136.413 105.67 136.101 105.89 135.837 106.173C135.583 106.456 135.383 106.788 135.236 107.169C135.1 107.54 135.031 107.936 135.031 108.355Z" fill="#181412"/>
<path d="M95 66C95 63.2386 97.2386 61 100 61H160C162.761 61 165 63.2386 165 66V96H95V66Z" fill="#FF0000"/>
<path d="M117.398 88V76.5469H120.859L122.938 84.3594L124.992 76.5469H128.461V88H126.312V78.9844L124.039 88H121.812L119.547 78.9844V88H117.398ZM132.383 82.2344L130.391 81.875C130.615 81.0729 131 80.4792 131.547 80.0938C132.094 79.7083 132.906 79.5156 133.984 79.5156C134.964 79.5156 135.693 79.6328 136.172 79.8672C136.651 80.0964 136.987 80.3906 137.18 80.75C137.378 81.1042 137.477 81.7578 137.477 82.7109L137.453 85.2734C137.453 86.0026 137.487 86.5417 137.555 86.8906C137.628 87.2344 137.76 87.6042 137.953 88H135.781C135.724 87.8542 135.654 87.638 135.57 87.3516C135.534 87.2214 135.508 87.1354 135.492 87.0938C135.117 87.4583 134.716 87.7318 134.289 87.9141C133.862 88.0964 133.406 88.1875 132.922 88.1875C132.068 88.1875 131.393 87.9557 130.898 87.4922C130.409 87.0286 130.164 86.4427 130.164 85.7344C130.164 85.2656 130.276 84.849 130.5 84.4844C130.724 84.1146 131.036 83.8333 131.438 83.6406C131.844 83.4427 132.427 83.2708 133.188 83.125C134.214 82.9323 134.924 82.7526 135.32 82.5859V82.3672C135.32 81.9453 135.216 81.6458 135.008 81.4688C134.799 81.2865 134.406 81.1953 133.828 81.1953C133.438 81.1953 133.133 81.2734 132.914 81.4297C132.695 81.5807 132.518 81.849 132.383 82.2344ZM135.32 84.0156C135.039 84.1094 134.594 84.2214 133.984 84.3516C133.375 84.4818 132.977 84.6094 132.789 84.7344C132.503 84.9375 132.359 85.1953 132.359 85.5078C132.359 85.8151 132.474 86.0807 132.703 86.3047C132.932 86.5286 133.224 86.6406 133.578 86.6406C133.974 86.6406 134.352 86.5104 134.711 86.25C134.977 86.0521 135.151 85.8099 135.234 85.5234C135.292 85.3359 135.32 84.9792 135.32 84.4531V84.0156ZM141.75 88H139.555V79.7031H141.594V80.8828C141.943 80.3255 142.255 79.9583 142.531 79.7812C142.812 79.6042 143.13 79.5156 143.484 79.5156C143.984 79.5156 144.466 79.6536 144.93 79.9297L144.25 81.8438C143.88 81.6042 143.536 81.4844 143.219 81.4844C142.911 81.4844 142.651 81.5703 142.438 81.7422C142.224 81.9089 142.055 82.2135 141.93 82.6562C141.81 83.099 141.75 84.026 141.75 85.4375V88Z" fill="white"/>
<path d="M118 66C118 68.7614 115.761 71 113 71C110.239 71 108 68.7614 108 66C108 63.2386 110.239 61 113 61C115.761 61 118 63.2386 118 66Z" fill="white"/>
<path d="M155 66C155 68.7614 152.761 71 150 71C147.239 71 145 68.7614 145 66C145 63.2386 147.239 61 150 61C152.761 61 155 63.2386 155 66Z" fill="white"/>
</g>
<rect x="111" y="46" width="4" height="22" rx="2" fill="#AAAAAA"/>
<rect x="148" y="46" width="4" height="22" rx="2" fill="#AAAAAA"/>
</g>
<defs>
<filter id="filter0_d_16_45" x="85.5" y="41.5" width="90" height="99" filterUnits="userSpaceOnUse" color-interpolation-filters="sRGB">
<feFlood flood-opacity="0" result="BackgroundImageFix"/>
<feColorMatrix in="SourceAlpha" type="matrix" values="0 0 0 0 0 0 0 0 0 0 0 0 0 0 0 0 0 0 127 0" result="hardAlpha"/>
<feOffset dx="0.5" dy="0.5"/>
<feGaussianBlur stdDeviation="2.5"/>
<feColorMatrix type="matrix" values="0 0 0 0 0 0 0 0 0 0 0 0 0 0 0 0 0 0 0.2 0"/>
<feBlend mode="normal" in2="BackgroundImageFix" result="effect1_dropShadow_16_45"/>
<feBlend mode="normal" in="SourceGraphic" in2="effect1_dropShadow_16_45" result="shape"/>
</filter>
<clipPath id="clip0_16_45">
<rect width="100" height="100" fill="white" transform="translate(80 40)"/>
</clipPath>
</defs>
</svg>
