<svg width="260" height="260" viewBox="0 0 260 260" fill="none" xmlns="http://www.w3.org/2000/svg">
<circle cx="130" cy="130" r="130" fill="white"/>
<circle cx="130" cy="130" r="125" stroke="#FF8888" stroke-opacity="0.5" stroke-width="10" stroke-dasharray="10 10"/>
<path d="M93.2031 88.9648C92.8125 87.7539 92.4219 86.6797 92.0312 85.7422C91.6797 84.8047 91.3672 84.0039 91.0938 83.3398C89.5703 83.8477 87.9102 84.1992 86.1133 84.3945C86.1133 86.8945 86.1719 89.0234 86.2891 90.7812C86.3281 91.875 86.3672 92.8125 86.4062 93.5938C86.4844 94.3359 86.543 94.9805 86.582 95.5273C86.6602 96.0742 86.7383 96.5625 86.8164 96.9922C86.8945 97.4609 87.0117 97.9102 87.168 98.3398C86.3867 98.9258 85.625 99.3555 84.8828 99.6289C84.1797 99.9023 83.5547 100.098 83.0078 100.215C82.3438 100.371 81.7578 100.41 81.25 100.332C81.0547 99.7852 80.8789 99.1992 80.7227 98.5742C80.5664 97.9883 80.4492 97.168 80.3711 96.1133C80.332 95.0977 80.3125 93.7891 80.3125 92.1875C80.3125 90.5859 80.3711 88.5352 80.4883 86.0352C80.5273 85.7617 80.5469 85.4883 80.5469 85.2148C80.5469 84.9414 80.5664 84.668 80.6055 84.3945C80.2539 84.3555 79.8828 84.3164 79.4922 84.2773C79.1406 84.2383 78.7891 84.1992 78.4375 84.1602C78.2031 83.5352 78.0469 82.9883 77.9688 82.5195C77.8906 82.0117 77.8516 81.6016 77.8516 81.2891C77.8516 80.8984 77.8906 80.5859 77.9688 80.3516C78.5938 80.4688 79.2188 80.5273 79.8438 80.5273H80.7227C80.8008 78.8867 80.8789 77.2266 80.957 75.5469C81.0352 73.8281 81.0938 72.168 81.1328 70.5664C81.2109 68.9258 81.2695 67.3828 81.3086 65.9375C81.3477 64.4531 81.3867 63.1055 81.4258 61.8945C80.2539 62.6758 79.2383 63.6914 78.3789 64.9414C77.5195 66.1914 76.9336 67.6367 76.6211 69.2773C76.1133 69.1992 75.6836 68.9648 75.332 68.5742C74.9805 68.1445 74.6875 67.7148 74.4531 67.2852C74.1797 66.7773 73.9453 66.2109 73.75 65.5859C73.5547 64.8438 73.5547 64.1016 73.75 63.3594C73.9453 62.5781 74.2383 61.8555 74.6289 61.1914C75.0195 60.4883 75.4688 59.8828 75.9766 59.375C76.4844 58.8281 76.9727 58.3984 77.4414 58.0859C78.2617 57.5781 79.1016 57.1289 79.9609 56.7383C80.8594 56.3086 81.8555 55.957 82.9492 55.6836C83.3789 55.2539 83.8477 54.8633 84.3555 54.5117C84.9023 54.1602 85.4102 53.9453 85.8789 53.8672C86.543 53.7109 86.9141 54.1211 86.9922 55.0977C87.3438 55.0586 87.7148 55.0391 88.1055 55.0391C88.4961 55 88.9062 54.9805 89.3359 54.9805C90.8203 54.9805 92.3633 55.2148 93.9648 55.6836C95.5664 56.1523 97.0312 56.9141 98.3594 57.9688C99.7266 58.9844 100.84 60.332 101.699 62.0117C102.559 63.6523 102.988 65.6641 102.988 68.0469C102.988 70.7422 102.344 73.2227 101.055 75.4883C99.8047 77.7539 98.0078 79.6289 95.6641 81.1133C95.9375 81.8164 96.2891 82.6953 96.7188 83.75C97.1484 84.8047 97.5781 85.9961 98.0078 87.3242C98.6328 88.9648 99.2969 90.5078 100 91.9531C100.742 93.3594 101.504 94.5898 102.285 95.6445C103.066 96.6992 103.887 97.5391 104.746 98.1641C105.605 98.8281 106.465 99.2188 107.324 99.3359C106.816 100.117 106.23 100.664 105.566 100.977C104.902 101.289 104.238 101.484 103.574 101.562C102.832 101.68 102.051 101.68 101.23 101.562C100.098 101.328 99.1211 100.781 98.3008 99.9219C97.4805 99.0625 96.7578 98.0273 96.1328 96.8164C95.5469 95.6055 95 94.3164 94.4922 92.9492C94.0234 91.543 93.5938 90.2148 93.2031 88.9648ZM86.4062 64.0039C86.4062 64.8633 86.3867 65.8984 86.3477 67.1094C86.3086 68.3203 86.2695 69.6289 86.2305 71.0352C86.2305 72.4414 86.2109 73.9258 86.1719 75.4883C86.1328 77.0117 86.1133 78.5352 86.1133 80.0586C87.168 79.9023 88.3203 79.6484 89.5703 79.2969C90.8594 78.9453 92.0508 78.3594 93.1445 77.5391C94.2383 76.7188 95.1562 75.625 95.8984 74.2578C96.6406 72.8906 97.0117 71.1328 97.0117 68.9844C97.0117 67.3438 96.7188 65.957 96.1328 64.8242C95.5859 63.6523 94.8633 62.7148 93.9648 62.0117C93.0664 61.2695 92.0703 60.7422 90.9766 60.4297C89.9219 60.0781 88.8672 59.9023 87.8125 59.9023C87.6172 59.9023 87.4219 59.9023 87.2266 59.9023C87.0312 59.9023 86.8164 59.9219 86.582 59.9609C86.4648 61.2109 86.4062 62.5586 86.4062 64.0039ZM106.562 74.2578C106.562 74.0234 106.875 73.7695 107.5 73.4961C108.125 73.2227 108.809 73.0078 109.551 72.8516C110.332 72.6562 111.035 72.5586 111.66 72.5586C112.324 72.5195 112.656 72.6562 112.656 72.9688C112.656 73.5547 112.617 74.3945 112.539 75.4883C112.461 76.543 112.363 77.6758 112.246 78.8867C112.129 80.0586 112.012 81.25 111.895 82.4609C111.777 83.6328 111.699 84.6289 111.66 85.4492C111.582 86.3086 111.504 87.2461 111.426 88.2617C111.348 89.1211 111.289 90.0781 111.25 91.1328C111.211 92.1875 111.211 93.2617 111.25 94.3555C111.25 94.5508 111.055 94.7461 110.664 94.9414C110.273 95.1367 109.844 95.2734 109.375 95.3516C108.906 95.4688 108.457 95.5273 108.027 95.5273C107.598 95.5273 107.363 95.4492 107.324 95.293C107.246 95.1367 107.168 94.8633 107.09 94.4727C107.012 94.082 106.934 93.5352 106.855 92.832C106.777 92.0898 106.719 91.1523 106.68 90.0195C106.641 88.8477 106.66 87.4414 106.738 85.8008C106.895 82.5586 106.914 80.0586 106.797 78.3008C106.68 76.5039 106.602 75.1562 106.562 74.2578ZM110.664 62.5977C111.445 62.5977 112.188 62.832 112.891 63.3008C113.594 63.7695 113.945 64.3945 113.945 65.1758C113.945 65.7617 113.789 66.3281 113.477 66.875C113.203 67.4219 112.852 67.9102 112.422 68.3398C111.992 68.7695 111.504 69.1211 110.957 69.3945C110.41 69.6289 109.902 69.7461 109.434 69.7461C108.809 69.7461 108.301 69.6484 107.91 69.4531C107.52 69.2188 107.207 68.9648 106.973 68.6914C106.777 68.3789 106.641 68.0469 106.562 67.6953C106.484 67.3438 106.445 67.0117 106.445 66.6992C106.445 66.3086 106.504 65.8789 106.621 65.4102C106.738 64.9023 106.953 64.4531 107.266 64.0625C107.578 63.6328 108.008 63.2812 108.555 63.0078C109.102 62.7344 109.805 62.5977 110.664 62.5977ZM109.199 68.0469C109.434 68.0469 109.688 67.9688 109.961 67.8125C110.273 67.6172 110.547 67.4023 110.781 67.168C111.055 66.9336 111.27 66.6797 111.426 66.4062C111.621 66.1328 111.719 65.8984 111.719 65.7031C111.719 65.3906 111.562 65.2344 111.25 65.2344C111.055 65.2344 110.801 65.3125 110.488 65.4688C110.215 65.625 109.941 65.8203 109.668 66.0547C109.395 66.25 109.16 66.4844 108.965 66.7578C108.809 66.9922 108.73 67.2266 108.73 67.4609C108.73 67.8516 108.887 68.0469 109.199 68.0469ZM124.258 91.9531C124.609 91.9531 125.078 91.3281 125.664 90.0781C126.25 88.8281 126.797 87.3242 127.305 85.5664C127.852 83.8086 128.281 81.9922 128.594 80.1172C128.945 78.2422 129.043 76.6602 128.887 75.3711C128.809 74.9414 128.691 74.5898 128.535 74.3164C128.418 74.043 128.262 73.75 128.066 73.4375C128.301 73.125 128.594 72.8906 128.945 72.7344C129.297 72.5391 129.629 72.4023 129.941 72.3242C130.332 72.207 130.723 72.1289 131.113 72.0898C132.051 72.0508 132.734 72.207 133.164 72.5586C133.398 72.793 133.516 73.3398 133.516 74.1992C133.516 75.0586 133.418 76.0742 133.223 77.2461C133.066 78.3789 132.832 79.5898 132.52 80.8789C132.246 82.1289 131.934 83.2812 131.582 84.3359C131.23 85.3516 130.801 86.4648 130.293 87.6758C129.785 88.8477 129.258 89.9805 128.711 91.0742C128.164 92.1289 127.617 93.0469 127.07 93.8281C126.523 94.5703 126.055 95.0195 125.664 95.1758C124.844 95.4883 124.023 95.6445 123.203 95.6445C122.422 95.6445 121.934 95.5469 121.738 95.3516C121.66 95.2734 121.484 95 121.211 94.5312C120.938 94.0625 120.625 93.457 120.273 92.7148C119.961 91.9727 119.609 91.1133 119.219 90.1367C118.867 89.1211 118.555 88.0469 118.281 86.9141C118.008 85.7812 117.812 84.5508 117.695 83.2227C117.578 81.8945 117.441 80.6055 117.285 79.3555C117.168 78.0664 116.992 76.875 116.758 75.7812C116.523 74.6875 116.172 73.7891 115.703 73.0859L118.457 71.9727C118.691 71.8555 118.965 71.7578 119.277 71.6797C119.59 71.5625 119.902 71.5234 120.215 71.5625C120.527 71.6016 120.801 71.7578 121.035 72.0312C121.309 72.2656 121.484 72.6953 121.562 73.3203C121.641 74.0234 121.699 74.8633 121.738 75.8398C121.816 76.8164 121.875 77.832 121.914 78.8867C121.992 79.9414 122.07 80.9961 122.148 82.0508C122.227 83.0664 122.305 83.9844 122.383 84.8047C122.461 85.6641 122.559 86.5234 122.676 87.3828C122.832 88.2422 122.988 89.0039 123.145 89.668C123.34 90.332 123.516 90.8789 123.672 91.3086C123.867 91.7383 124.062 91.9531 124.258 91.9531ZM144.473 95.6445C141.738 95.6445 139.629 94.7266 138.145 92.8906C136.66 91.0547 135.918 88.6523 135.918 85.6836C135.918 83.6133 136.211 81.6797 136.797 79.8828C137.422 78.0469 138.242 76.4648 139.258 75.1367C140.273 73.8086 141.445 72.7734 142.773 72.0312C144.141 71.25 145.566 70.8594 147.051 70.8594C148.496 70.8594 149.727 71.3867 150.742 72.4414C151.758 73.457 152.266 74.9219 152.266 76.8359C152.266 78.0859 151.992 79.3359 151.445 80.5859C150.898 81.7969 150.176 82.8906 149.277 83.8672C148.418 84.8047 147.461 85.5664 146.406 86.1523C145.352 86.7383 144.336 87.0312 143.359 87.0312C142.734 87.0312 142.207 86.9531 141.777 86.7969C141.348 86.6406 140.957 86.4062 140.605 86.0938C140.723 88.3203 141.211 89.8828 142.07 90.7812C142.93 91.6406 144.043 92.0703 145.41 92.0703C146.348 92.0703 147.168 91.875 147.871 91.4844C148.613 91.0938 149.238 90.6445 149.746 90.1367C150.254 89.6289 150.664 89.1211 150.977 88.6133C151.289 88.0664 151.504 87.6562 151.621 87.3828C151.738 87.1484 151.934 87.0312 152.207 87.0312C152.52 87.0312 152.676 87.2656 152.676 87.7344C152.676 88.1641 152.52 88.8281 152.207 89.7266C151.934 90.5859 151.465 91.4648 150.801 92.3633C150.137 93.2227 149.277 93.9844 148.223 94.6484C147.207 95.3125 145.957 95.6445 144.473 95.6445ZM147.168 73.3789C146.934 73.3789 146.484 73.6328 145.82 74.1406C145.195 74.6094 144.512 75.3125 143.77 76.25C143.066 77.1875 142.402 78.3203 141.777 79.6484C141.191 80.9375 140.82 82.4023 140.664 84.043C143.008 83.4961 144.863 82.6367 146.23 81.4648C147.598 80.293 148.281 78.5742 148.281 76.3086C148.281 75.1758 148.145 74.4141 147.871 74.0234C147.598 73.5938 147.363 73.3789 147.168 73.3789ZM171.953 77.0117C171.953 77.5586 171.797 78.125 171.484 78.7109C171.211 79.2578 170.859 79.7852 170.43 80.293C170 80.8008 169.512 81.25 168.965 81.6406C168.457 81.9922 167.969 82.207 167.5 82.2852C167.812 81.0742 167.91 80.1367 167.793 79.4727C167.676 78.8086 167.48 78.3203 167.207 78.0078C166.895 77.6562 166.504 77.4609 166.035 77.4219C165.332 77.4219 164.648 77.832 163.984 78.6523C163.359 79.4336 162.812 80.4102 162.344 81.582C161.875 82.7148 161.504 83.9453 161.23 85.2734C160.957 86.5625 160.82 87.7344 160.82 88.7891C160.781 89.5312 160.801 90.2539 160.879 90.957C160.918 91.543 160.977 92.1484 161.055 92.7734C161.172 93.3984 161.328 93.8867 161.523 94.2383C161.289 94.4336 160.898 94.668 160.352 94.9414C159.844 95.2148 159.297 95.3906 158.711 95.4688C158.164 95.5469 157.656 95.4492 157.188 95.1758C156.758 94.9023 156.523 94.3164 156.484 93.418C156.406 92.5586 156.348 91.6016 156.309 90.5469C156.309 89.4531 156.309 88.3789 156.309 87.3242C156.348 86.2305 156.387 85.1562 156.426 84.1016C156.465 83.0469 156.523 82.0703 156.602 81.1719C156.68 79.4531 156.719 78.125 156.719 77.1875C156.719 76.25 156.699 75.3516 156.66 74.4922C156.66 74.3359 156.914 74.1211 157.422 73.8477C157.969 73.5352 158.555 73.2617 159.18 73.0273C159.844 72.793 160.449 72.6562 160.996 72.6172C161.543 72.5781 161.816 72.6953 161.816 72.9688C161.816 73.3984 161.758 74.2578 161.641 75.5469C161.562 76.7969 161.445 78.1055 161.289 79.4727C161.562 78.7305 161.914 77.9297 162.344 77.0703C162.812 76.2109 163.34 75.4102 163.926 74.668C164.512 73.9258 165.176 73.3203 165.918 72.8516C166.66 72.3438 167.48 72.0898 168.379 72.0898C169.082 72.0898 169.648 72.3047 170.078 72.7344C170.547 73.1641 170.918 73.6523 171.191 74.1992C171.465 74.7461 171.66 75.293 171.777 75.8398C171.895 76.3867 171.953 76.7773 171.953 77.0117ZM124.639 129.922C124.561 131.445 124.287 132.852 123.818 134.141C123.389 135.43 122.783 136.562 122.002 137.539C121.221 138.477 120.283 139.219 119.189 139.766C118.135 140.312 116.963 140.605 115.674 140.645C114.541 140.684 113.467 140.41 112.451 139.824C111.475 139.238 110.615 138.418 109.873 137.363C109.131 136.309 108.564 135.059 108.174 133.613C107.822 132.129 107.725 130.527 107.881 128.809C107.998 126.816 108.369 125.117 108.994 123.711C109.619 122.266 110.283 121.074 110.986 120.137C111.689 119.199 112.334 118.516 112.92 118.086C113.545 117.617 113.936 117.344 114.092 117.266C114.365 117.148 114.619 117.129 114.854 117.207C115.088 117.246 115.342 117.305 115.615 117.383C115.693 117.422 115.771 117.52 115.85 117.676C116.006 117.949 116.104 118.457 116.143 119.199C116.338 118.77 116.592 118.418 116.904 118.145C117.217 117.871 117.529 117.676 117.842 117.559C118.232 117.402 118.623 117.305 119.014 117.266C119.287 117.227 119.756 117.441 120.42 117.91C121.123 118.379 121.787 119.121 122.412 120.137C123.076 121.152 123.643 122.48 124.111 124.121C124.58 125.723 124.756 127.656 124.639 129.922ZM120.654 129.219C120.693 128.281 120.654 127.344 120.537 126.406C120.459 125.43 120.303 124.551 120.068 123.77C119.873 122.949 119.619 122.305 119.307 121.836C118.994 121.328 118.682 121.074 118.369 121.074C118.018 121.152 117.627 121.328 117.197 121.602C116.846 121.836 116.455 122.207 116.025 122.715C115.596 123.223 115.186 123.945 114.795 124.883C114.756 124.766 114.717 124.551 114.678 124.238C114.639 123.965 114.6 123.613 114.561 123.184C114.561 122.715 114.6 122.09 114.678 121.309C114.131 121.973 113.701 122.754 113.389 123.652C113.115 124.551 112.9 125.41 112.744 126.23C112.588 127.207 112.471 128.184 112.393 129.16C112.354 130.215 112.393 131.25 112.51 132.266C112.666 133.281 112.9 134.18 113.213 134.961C113.564 135.742 113.975 136.367 114.443 136.836C114.912 137.305 115.479 137.52 116.143 137.48C116.807 137.441 117.393 137.168 117.9 136.66C118.408 136.152 118.857 135.508 119.248 134.727C119.639 133.945 119.951 133.066 120.186 132.09C120.42 131.113 120.576 130.156 120.654 129.219ZM138.877 101.914C140.01 101.992 141.025 102.266 141.924 102.734C142.705 103.164 143.408 103.848 144.033 104.785C144.658 105.684 144.99 106.973 145.029 108.652C144.443 109.082 143.857 109.395 143.271 109.59C142.686 109.785 142.158 109.922 141.689 110C141.143 110.078 140.615 110.078 140.107 110C140.264 108.906 140.264 108.066 140.107 107.48C139.99 106.895 139.814 106.465 139.58 106.191C139.307 105.879 138.955 105.703 138.525 105.664C137.236 105.664 136.279 106.641 135.654 108.594C135.068 110.508 134.717 113.145 134.6 116.504C135.146 116.426 135.635 116.328 136.064 116.211C136.494 116.094 136.982 116.016 137.529 115.977C138.037 115.938 138.525 115.918 138.994 115.918C139.424 115.918 139.854 115.957 140.283 116.035C140.752 116.113 141.182 116.25 141.572 116.445C141.65 117.109 141.65 117.715 141.572 118.262C141.494 118.809 141.377 119.297 141.221 119.727C141.064 120.195 140.85 120.645 140.576 121.074C140.107 120.84 139.521 120.684 138.818 120.605C138.154 120.527 137.51 120.488 136.885 120.488C136.143 120.488 135.381 120.527 134.6 120.605C134.639 122.402 134.678 124.102 134.717 125.703C134.756 127.266 134.795 128.809 134.834 130.332C134.912 131.816 134.99 133.32 135.068 134.844C135.146 136.328 135.225 137.852 135.303 139.414C134.873 139.961 134.404 140.293 133.896 140.41C133.428 140.566 132.979 140.625 132.549 140.586C132.041 140.547 131.533 140.41 131.025 140.176C130.713 137.598 130.459 135.176 130.264 132.91C130.107 130.605 129.971 128.594 129.854 126.875C129.697 124.883 129.58 123.047 129.502 121.367C128.838 121.445 128.271 121.504 127.803 121.543C127.373 121.543 127.041 121.523 126.807 121.484C126.65 121.484 126.572 121.367 126.572 121.133L126.514 118.379C126.514 118.223 126.592 118.145 126.748 118.145C127.021 118.066 127.373 117.988 127.803 117.91C128.271 117.793 128.818 117.656 129.443 117.5C129.6 112.539 130.439 108.711 131.963 106.016C133.486 103.281 135.791 101.914 138.877 101.914ZM69.1211 167.012C69.1211 167.559 68.9648 168.125 68.6523 168.711C68.3789 169.258 68.0273 169.785 67.5977 170.293C67.168 170.801 66.6797 171.25 66.1328 171.641C65.625 171.992 65.1367 172.207 64.668 172.285C64.9805 171.074 65.0781 170.137 64.9609 169.473C64.8438 168.809 64.6484 168.32 64.375 168.008C64.0625 167.656 63.6719 167.461 63.2031 167.422C62.5 167.422 61.8164 167.832 61.1523 168.652C60.5273 169.434 59.9805 170.41 59.5117 171.582C59.043 172.715 58.6719 173.945 58.3984 175.273C58.125 176.562 57.9883 177.734 57.9883 178.789C57.9492 179.531 57.9688 180.254 58.0469 180.957C58.0859 181.543 58.1445 182.148 58.2227 182.773C58.3398 183.398 58.4961 183.887 58.6914 184.238C58.457 184.434 58.0664 184.668 57.5195 184.941C57.0117 185.215 56.4648 185.391 55.8789 185.469C55.332 185.547 54.8242 185.449 54.3555 185.176C53.9258 184.902 53.6914 184.316 53.6523 183.418C53.5742 182.559 53.5156 181.602 53.4766 180.547C53.4766 179.453 53.4766 178.379 53.4766 177.324C53.5156 176.23 53.5547 175.156 53.5938 174.102C53.6328 173.047 53.6914 172.07 53.7695 171.172C53.8477 169.453 53.8867 168.125 53.8867 167.188C53.8867 166.25 53.8672 165.352 53.8281 164.492C53.8281 164.336 54.082 164.121 54.5898 163.848C55.1367 163.535 55.7227 163.262 56.3477 163.027C57.0117 162.793 57.6172 162.656 58.1641 162.617C58.7109 162.578 58.9844 162.695 58.9844 162.969C58.9844 163.398 58.9258 164.258 58.8086 165.547C58.7305 166.797 58.6133 168.105 58.457 169.473C58.7305 168.73 59.082 167.93 59.5117 167.07C59.9805 166.211 60.5078 165.41 61.0938 164.668C61.6797 163.926 62.3438 163.32 63.0859 162.852C63.8281 162.344 64.6484 162.09 65.5469 162.09C66.25 162.09 66.8164 162.305 67.2461 162.734C67.7148 163.164 68.0859 163.652 68.3594 164.199C68.6328 164.746 68.8281 165.293 68.9453 165.84C69.0625 166.387 69.1211 166.777 69.1211 167.012ZM78.8477 185.645C76.1133 185.645 74.0039 184.727 72.5195 182.891C71.0352 181.055 70.293 178.652 70.293 175.684C70.293 173.613 70.5859 171.68 71.1719 169.883C71.7969 168.047 72.6172 166.465 73.6328 165.137C74.6484 163.809 75.8203 162.773 77.1484 162.031C78.5156 161.25 79.9414 160.859 81.4258 160.859C82.8711 160.859 84.1016 161.387 85.1172 162.441C86.1328 163.457 86.6406 164.922 86.6406 166.836C86.6406 168.086 86.3672 169.336 85.8203 170.586C85.2734 171.797 84.5508 172.891 83.6523 173.867C82.793 174.805 81.8359 175.566 80.7812 176.152C79.7266 176.738 78.7109 177.031 77.7344 177.031C77.1094 177.031 76.582 176.953 76.1523 176.797C75.7227 176.641 75.332 176.406 74.9805 176.094C75.0977 178.32 75.5859 179.883 76.4453 180.781C77.3047 181.641 78.418 182.07 79.7852 182.07C80.7227 182.07 81.543 181.875 82.2461 181.484C82.9883 181.094 83.6133 180.645 84.1211 180.137C84.6289 179.629 85.0391 179.121 85.3516 178.613C85.6641 178.066 85.8789 177.656 85.9961 177.383C86.1133 177.148 86.3086 177.031 86.582 177.031C86.8945 177.031 87.0508 177.266 87.0508 177.734C87.0508 178.164 86.8945 178.828 86.582 179.727C86.3086 180.586 85.8398 181.465 85.1758 182.363C84.5117 183.223 83.6523 183.984 82.5977 184.648C81.582 185.312 80.332 185.645 78.8477 185.645ZM81.543 163.379C81.3086 163.379 80.8594 163.633 80.1953 164.141C79.5703 164.609 78.8867 165.312 78.1445 166.25C77.4414 167.188 76.7773 168.32 76.1523 169.648C75.5664 170.938 75.1953 172.402 75.0391 174.043C77.3828 173.496 79.2383 172.637 80.6055 171.465C81.9727 170.293 82.6562 168.574 82.6562 166.309C82.6562 165.176 82.5195 164.414 82.2461 164.023C81.9727 163.594 81.7383 163.379 81.543 163.379ZM98.0078 181.953C98.3594 181.953 98.8281 181.328 99.4141 180.078C100 178.828 100.547 177.324 101.055 175.566C101.602 173.809 102.031 171.992 102.344 170.117C102.695 168.242 102.793 166.66 102.637 165.371C102.559 164.941 102.441 164.59 102.285 164.316C102.168 164.043 102.012 163.75 101.816 163.438C102.051 163.125 102.344 162.891 102.695 162.734C103.047 162.539 103.379 162.402 103.691 162.324C104.082 162.207 104.473 162.129 104.863 162.09C105.801 162.051 106.484 162.207 106.914 162.559C107.148 162.793 107.266 163.34 107.266 164.199C107.266 165.059 107.168 166.074 106.973 167.246C106.816 168.379 106.582 169.59 106.27 170.879C105.996 172.129 105.684 173.281 105.332 174.336C104.98 175.352 104.551 176.465 104.043 177.676C103.535 178.848 103.008 179.98 102.461 181.074C101.914 182.129 101.367 183.047 100.82 183.828C100.273 184.57 99.8047 185.02 99.4141 185.176C98.5938 185.488 97.7734 185.645 96.9531 185.645C96.1719 185.645 95.6836 185.547 95.4883 185.352C95.4102 185.273 95.2344 185 94.9609 184.531C94.6875 184.062 94.375 183.457 94.0234 182.715C93.7109 181.973 93.3594 181.113 92.9688 180.137C92.6172 179.121 92.3047 178.047 92.0312 176.914C91.7578 175.781 91.5625 174.551 91.4453 173.223C91.3281 171.895 91.1914 170.605 91.0352 169.355C90.918 168.066 90.7422 166.875 90.5078 165.781C90.2734 164.688 89.9219 163.789 89.4531 163.086L92.207 161.973C92.4414 161.855 92.7148 161.758 93.0273 161.68C93.3398 161.562 93.6523 161.523 93.9648 161.562C94.2773 161.602 94.5508 161.758 94.7852 162.031C95.0586 162.266 95.2344 162.695 95.3125 163.32C95.3906 164.023 95.4492 164.863 95.4883 165.84C95.5664 166.816 95.625 167.832 95.6641 168.887C95.7422 169.941 95.8203 170.996 95.8984 172.051C95.9766 173.066 96.0547 173.984 96.1328 174.805C96.2109 175.664 96.3086 176.523 96.4258 177.383C96.582 178.242 96.7383 179.004 96.8945 179.668C97.0898 180.332 97.2656 180.879 97.4219 181.309C97.6172 181.738 97.8125 181.953 98.0078 181.953ZM110.723 164.258C110.723 164.023 111.035 163.77 111.66 163.496C112.285 163.223 112.969 163.008 113.711 162.852C114.492 162.656 115.195 162.559 115.82 162.559C116.484 162.52 116.816 162.656 116.816 162.969C116.816 163.555 116.777 164.395 116.699 165.488C116.621 166.543 116.523 167.676 116.406 168.887C116.289 170.059 116.172 171.25 116.055 172.461C115.938 173.633 115.859 174.629 115.82 175.449C115.742 176.309 115.664 177.246 115.586 178.262C115.508 179.121 115.449 180.078 115.41 181.133C115.371 182.188 115.371 183.262 115.41 184.355C115.41 184.551 115.215 184.746 114.824 184.941C114.434 185.137 114.004 185.273 113.535 185.352C113.066 185.469 112.617 185.527 112.188 185.527C111.758 185.527 111.523 185.449 111.484 185.293C111.406 185.137 111.328 184.863 111.25 184.473C111.172 184.082 111.094 183.535 111.016 182.832C110.938 182.09 110.879 181.152 110.84 180.02C110.801 178.848 110.82 177.441 110.898 175.801C111.055 172.559 111.074 170.059 110.957 168.301C110.84 166.504 110.762 165.156 110.723 164.258ZM114.824 152.598C115.605 152.598 116.348 152.832 117.051 153.301C117.754 153.77 118.105 154.395 118.105 155.176C118.105 155.762 117.949 156.328 117.637 156.875C117.363 157.422 117.012 157.91 116.582 158.34C116.152 158.77 115.664 159.121 115.117 159.395C114.57 159.629 114.062 159.746 113.594 159.746C112.969 159.746 112.461 159.648 112.07 159.453C111.68 159.219 111.367 158.965 111.133 158.691C110.938 158.379 110.801 158.047 110.723 157.695C110.645 157.344 110.605 157.012 110.605 156.699C110.605 156.309 110.664 155.879 110.781 155.41C110.898 154.902 111.113 154.453 111.426 154.062C111.738 153.633 112.168 153.281 112.715 153.008C113.262 152.734 113.965 152.598 114.824 152.598ZM113.359 158.047C113.594 158.047 113.848 157.969 114.121 157.812C114.434 157.617 114.707 157.402 114.941 157.168C115.215 156.934 115.43 156.68 115.586 156.406C115.781 156.133 115.879 155.898 115.879 155.703C115.879 155.391 115.723 155.234 115.41 155.234C115.215 155.234 114.961 155.312 114.648 155.469C114.375 155.625 114.102 155.82 113.828 156.055C113.555 156.25 113.32 156.484 113.125 156.758C112.969 156.992 112.891 157.227 112.891 157.461C112.891 157.852 113.047 158.047 113.359 158.047ZM130.117 173.867C130.977 174.18 131.797 174.473 132.578 174.746C133.359 175.02 134.043 175.352 134.629 175.742C135.215 176.133 135.684 176.602 136.035 177.148C136.387 177.656 136.562 178.301 136.562 179.082C136.562 180.02 136.348 180.898 135.918 181.719C135.527 182.539 134.941 183.262 134.16 183.887C133.379 184.512 132.422 185 131.289 185.352C130.195 185.742 128.965 185.938 127.598 185.938C126.074 185.938 124.844 185.781 123.906 185.469C122.969 185.195 122.246 184.863 121.738 184.473C121.23 184.082 120.898 183.691 120.742 183.301C120.586 182.91 120.508 182.598 120.508 182.363C120.508 181.895 120.605 181.387 120.801 180.84C120.996 180.254 121.367 179.629 121.914 178.965C122.148 178.691 122.402 178.438 122.676 178.203C123.223 177.734 123.77 177.441 124.316 177.324C124.238 178.223 124.336 178.965 124.609 179.551C124.922 180.098 125.312 180.527 125.781 180.84C126.289 181.152 126.836 181.367 127.422 181.484C128.047 181.602 128.633 181.66 129.18 181.66C129.727 181.66 130.273 181.582 130.82 181.426C131.406 181.27 131.934 181.074 132.402 180.84C132.871 180.566 133.242 180.273 133.516 179.961C133.828 179.609 133.984 179.238 133.984 178.848C133.984 178.418 133.809 178.066 133.457 177.793C133.105 177.52 132.656 177.305 132.109 177.148C131.602 176.953 131.035 176.816 130.41 176.738C129.824 176.621 129.258 176.504 128.711 176.387C128.164 176.27 127.422 176.113 126.484 175.918C125.586 175.684 124.688 175.332 123.789 174.863C122.93 174.395 122.168 173.77 121.504 172.988C120.879 172.207 120.566 171.172 120.566 169.883C120.566 168.398 120.938 167.109 121.68 166.016C122.461 164.883 123.398 163.945 124.492 163.203C125.625 162.422 126.816 161.836 128.066 161.445C129.316 161.055 130.43 160.859 131.406 160.859C131.914 160.859 132.461 160.938 133.047 161.094C133.633 161.211 134.18 161.445 134.688 161.797C135.195 162.109 135.605 162.539 135.918 163.086C136.27 163.633 136.445 164.336 136.445 165.195C136.445 166.055 136.367 166.758 136.211 167.305C136.094 167.812 135.898 168.223 135.625 168.535C135.391 168.809 135.098 168.984 134.746 169.062C134.395 169.141 133.984 169.18 133.516 169.18C133.203 169.18 132.91 169.141 132.637 169.062C132.402 168.984 132.148 168.906 131.875 168.828C131.602 168.75 131.348 168.613 131.113 168.418C131.504 167.949 131.797 167.5 131.992 167.07C132.227 166.641 132.344 166.113 132.344 165.488C132.344 164.941 132.188 164.453 131.875 164.023C131.602 163.594 131.133 163.379 130.469 163.379C129.766 163.379 129.082 163.516 128.418 163.789C127.793 164.062 127.227 164.434 126.719 164.902C126.25 165.371 125.859 165.918 125.547 166.543C125.273 167.129 125.137 167.773 125.137 168.477C125.137 169.531 125.527 170.527 126.309 171.465C127.129 172.402 128.398 173.203 130.117 173.867ZM140.312 164.258C140.312 164.023 140.625 163.77 141.25 163.496C141.875 163.223 142.559 163.008 143.301 162.852C144.082 162.656 144.785 162.559 145.41 162.559C146.074 162.52 146.406 162.656 146.406 162.969C146.406 163.555 146.367 164.395 146.289 165.488C146.211 166.543 146.113 167.676 145.996 168.887C145.879 170.059 145.762 171.25 145.645 172.461C145.527 173.633 145.449 174.629 145.41 175.449C145.332 176.309 145.254 177.246 145.176 178.262C145.098 179.121 145.039 180.078 145 181.133C144.961 182.188 144.961 183.262 145 184.355C145 184.551 144.805 184.746 144.414 184.941C144.023 185.137 143.594 185.273 143.125 185.352C142.656 185.469 142.207 185.527 141.777 185.527C141.348 185.527 141.113 185.449 141.074 185.293C140.996 185.137 140.918 184.863 140.84 184.473C140.762 184.082 140.684 183.535 140.605 182.832C140.527 182.09 140.469 181.152 140.43 180.02C140.391 178.848 140.41 177.441 140.488 175.801C140.645 172.559 140.664 170.059 140.547 168.301C140.43 166.504 140.352 165.156 140.312 164.258ZM144.414 152.598C145.195 152.598 145.938 152.832 146.641 153.301C147.344 153.77 147.695 154.395 147.695 155.176C147.695 155.762 147.539 156.328 147.227 156.875C146.953 157.422 146.602 157.91 146.172 158.34C145.742 158.77 145.254 159.121 144.707 159.395C144.16 159.629 143.652 159.746 143.184 159.746C142.559 159.746 142.051 159.648 141.66 159.453C141.27 159.219 140.957 158.965 140.723 158.691C140.527 158.379 140.391 158.047 140.312 157.695C140.234 157.344 140.195 157.012 140.195 156.699C140.195 156.309 140.254 155.879 140.371 155.41C140.488 154.902 140.703 154.453 141.016 154.062C141.328 153.633 141.758 153.281 142.305 153.008C142.852 152.734 143.555 152.598 144.414 152.598ZM142.949 158.047C143.184 158.047 143.438 157.969 143.711 157.812C144.023 157.617 144.297 157.402 144.531 157.168C144.805 156.934 145.02 156.68 145.176 156.406C145.371 156.133 145.469 155.898 145.469 155.703C145.469 155.391 145.312 155.234 145 155.234C144.805 155.234 144.551 155.312 144.238 155.469C143.965 155.625 143.691 155.82 143.418 156.055C143.145 156.25 142.91 156.484 142.715 156.758C142.559 156.992 142.48 157.227 142.48 157.461C142.48 157.852 142.637 158.047 142.949 158.047ZM166.621 174.922C166.543 176.445 166.27 177.852 165.801 179.141C165.371 180.43 164.766 181.562 163.984 182.539C163.203 183.477 162.266 184.219 161.172 184.766C160.117 185.312 158.945 185.605 157.656 185.645C156.523 185.684 155.449 185.41 154.434 184.824C153.457 184.238 152.598 183.418 151.855 182.363C151.113 181.309 150.547 180.059 150.156 178.613C149.805 177.129 149.707 175.527 149.863 173.809C149.98 171.816 150.352 170.117 150.977 168.711C151.602 167.266 152.266 166.074 152.969 165.137C153.672 164.199 154.316 163.516 154.902 163.086C155.527 162.617 155.918 162.344 156.074 162.266C156.348 162.148 156.602 162.129 156.836 162.207C157.07 162.246 157.324 162.305 157.598 162.383C157.676 162.422 157.754 162.52 157.832 162.676C157.988 162.949 158.086 163.457 158.125 164.199C158.32 163.77 158.574 163.418 158.887 163.145C159.199 162.871 159.512 162.676 159.824 162.559C160.215 162.402 160.605 162.305 160.996 162.266C161.27 162.227 161.738 162.441 162.402 162.91C163.105 163.379 163.77 164.121 164.395 165.137C165.059 166.152 165.625 167.48 166.094 169.121C166.562 170.723 166.738 172.656 166.621 174.922ZM162.637 174.219C162.676 173.281 162.637 172.344 162.52 171.406C162.441 170.43 162.285 169.551 162.051 168.77C161.855 167.949 161.602 167.305 161.289 166.836C160.977 166.328 160.664 166.074 160.352 166.074C160 166.152 159.609 166.328 159.18 166.602C158.828 166.836 158.438 167.207 158.008 167.715C157.578 168.223 157.168 168.945 156.777 169.883C156.738 169.766 156.699 169.551 156.66 169.238C156.621 168.965 156.582 168.613 156.543 168.184C156.543 167.715 156.582 167.09 156.66 166.309C156.113 166.973 155.684 167.754 155.371 168.652C155.098 169.551 154.883 170.41 154.727 171.23C154.57 172.207 154.453 173.184 154.375 174.16C154.336 175.215 154.375 176.25 154.492 177.266C154.648 178.281 154.883 179.18 155.195 179.961C155.547 180.742 155.957 181.367 156.426 181.836C156.895 182.305 157.461 182.52 158.125 182.48C158.789 182.441 159.375 182.168 159.883 181.66C160.391 181.152 160.84 180.508 161.23 179.727C161.621 178.945 161.934 178.066 162.168 177.09C162.402 176.113 162.559 175.156 162.637 174.219ZM175.879 183.418C175.84 183.652 175.625 183.906 175.234 184.18C174.883 184.414 174.453 184.629 173.945 184.824C173.477 185.02 173.027 185.137 172.598 185.176C172.168 185.254 171.875 185.215 171.719 185.059C171.562 184.902 171.309 184.609 170.957 184.18C170.605 183.75 170.391 183.047 170.312 182.07C170.234 181.055 170.195 179.785 170.195 178.262C170.195 176.699 170.176 174.98 170.137 173.105V170.762C170.137 170.059 170.117 169.238 170.078 168.301C170.078 167.363 170.059 166.387 170.02 165.371C170.371 165.176 170.723 165 171.074 164.844C171.465 164.648 171.816 164.492 172.129 164.375C172.48 164.219 172.812 164.102 173.125 164.023C173.945 163.789 174.57 163.652 175 163.613C175.43 163.574 175.684 163.711 175.762 164.023C175.801 164.258 175.781 164.824 175.703 165.723C175.625 166.504 175.527 167.695 175.41 169.297C175.293 170.859 175.098 173.047 174.824 175.859C175.332 174.609 175.742 173.535 176.055 172.637C176.406 171.738 176.699 171.016 176.934 170.469C177.168 169.805 177.383 169.277 177.578 168.887C177.773 168.379 178.027 167.812 178.34 167.188C178.652 166.562 178.965 165.977 179.277 165.43C179.629 164.883 179.941 164.395 180.215 163.965C180.527 163.535 180.762 163.281 180.918 163.203C181.035 163.125 181.387 163.125 181.973 163.203C182.559 163.281 183.184 163.477 183.848 163.789C184.512 164.062 185.156 164.473 185.781 165.02C186.406 165.527 186.816 166.152 187.012 166.895C187.246 167.754 187.324 168.887 187.246 170.293C187.207 171.699 187.109 173.145 186.953 174.629C186.836 176.113 186.738 177.52 186.66 178.848C186.582 180.176 186.66 181.191 186.895 181.895C186.973 182.285 187.09 182.637 187.246 182.949C187.324 183.262 187.422 183.555 187.539 183.828C187.695 184.062 187.852 184.238 188.008 184.355C187.07 184.785 186.309 185.098 185.723 185.293C185.137 185.488 184.688 185.625 184.375 185.703C183.984 185.82 183.711 185.859 183.555 185.82C183.203 185.703 182.891 185.41 182.617 184.941C182.383 184.473 182.168 183.73 181.973 182.715C181.895 182.402 181.855 181.895 181.855 181.191C181.895 180.449 181.953 179.629 182.031 178.73C182.109 177.793 182.188 176.836 182.266 175.859C182.383 174.844 182.461 173.906 182.5 173.047C182.578 172.148 182.637 171.387 182.676 170.762C182.715 170.098 182.715 169.648 182.676 169.414C182.48 168.711 182.207 168.223 181.855 167.949C181.504 167.637 181.23 167.598 181.035 167.832C180.527 168.418 179.98 169.375 179.395 170.703C178.848 171.992 178.32 173.418 177.812 174.98C177.305 176.504 176.875 178.027 176.523 179.551C176.172 181.074 175.957 182.363 175.879 183.418ZM200.664 173.867C201.523 174.18 202.344 174.473 203.125 174.746C203.906 175.02 204.59 175.352 205.176 175.742C205.762 176.133 206.23 176.602 206.582 177.148C206.934 177.656 207.109 178.301 207.109 179.082C207.109 180.02 206.895 180.898 206.465 181.719C206.074 182.539 205.488 183.262 204.707 183.887C203.926 184.512 202.969 185 201.836 185.352C200.742 185.742 199.512 185.938 198.145 185.938C196.621 185.938 195.391 185.781 194.453 185.469C193.516 185.195 192.793 184.863 192.285 184.473C191.777 184.082 191.445 183.691 191.289 183.301C191.133 182.91 191.055 182.598 191.055 182.363C191.055 181.895 191.152 181.387 191.348 180.84C191.543 180.254 191.914 179.629 192.461 178.965C192.695 178.691 192.949 178.438 193.223 178.203C193.77 177.734 194.316 177.441 194.863 177.324C194.785 178.223 194.883 178.965 195.156 179.551C195.469 180.098 195.859 180.527 196.328 180.84C196.836 181.152 197.383 181.367 197.969 181.484C198.594 181.602 199.18 181.66 199.727 181.66C200.273 181.66 200.82 181.582 201.367 181.426C201.953 181.27 202.48 181.074 202.949 180.84C203.418 180.566 203.789 180.273 204.062 179.961C204.375 179.609 204.531 179.238 204.531 178.848C204.531 178.418 204.355 178.066 204.004 177.793C203.652 177.52 203.203 177.305 202.656 177.148C202.148 176.953 201.582 176.816 200.957 176.738C200.371 176.621 199.805 176.504 199.258 176.387C198.711 176.27 197.969 176.113 197.031 175.918C196.133 175.684 195.234 175.332 194.336 174.863C193.477 174.395 192.715 173.77 192.051 172.988C191.426 172.207 191.113 171.172 191.113 169.883C191.113 168.398 191.484 167.109 192.227 166.016C193.008 164.883 193.945 163.945 195.039 163.203C196.172 162.422 197.363 161.836 198.613 161.445C199.863 161.055 200.977 160.859 201.953 160.859C202.461 160.859 203.008 160.938 203.594 161.094C204.18 161.211 204.727 161.445 205.234 161.797C205.742 162.109 206.152 162.539 206.465 163.086C206.816 163.633 206.992 164.336 206.992 165.195C206.992 166.055 206.914 166.758 206.758 167.305C206.641 167.812 206.445 168.223 206.172 168.535C205.938 168.809 205.645 168.984 205.293 169.062C204.941 169.141 204.531 169.18 204.062 169.18C203.75 169.18 203.457 169.141 203.184 169.062C202.949 168.984 202.695 168.906 202.422 168.828C202.148 168.75 201.895 168.613 201.66 168.418C202.051 167.949 202.344 167.5 202.539 167.07C202.773 166.641 202.891 166.113 202.891 165.488C202.891 164.941 202.734 164.453 202.422 164.023C202.148 163.594 201.68 163.379 201.016 163.379C200.312 163.379 199.629 163.516 198.965 163.789C198.34 164.062 197.773 164.434 197.266 164.902C196.797 165.371 196.406 165.918 196.094 166.543C195.82 167.129 195.684 167.773 195.684 168.477C195.684 169.531 196.074 170.527 196.855 171.465C197.676 172.402 198.945 173.203 200.664 173.867Z" fill="#FF8888"/>
</svg>
