<svg width="171" height="134" viewBox="0 0 171 134" fill="none" xmlns="http://www.w3.org/2000/svg">
<path d="M10.1855 34.043C9.41081 34.681 8.97786 35.8203 8.88672 37.4609C8.84115 39.056 9.11458 40.6966 9.70703 42.3828C10.3451 44.0234 11.3021 45.4818 12.5781 46.7578C13.8542 48.0339 15.4492 48.6719 17.3633 48.6719C18.5938 48.6719 19.6419 48.3757 20.5078 47.7832C21.4193 47.1908 22.1484 46.4616 22.6953 45.5957C23.2878 44.6842 23.7207 43.6816 23.9941 42.5879C24.2676 41.4941 24.4043 40.4232 24.4043 39.375C24.4043 37.8711 24.1081 36.6178 23.5156 35.6152C22.9688 34.6126 22.2168 33.7467 21.2598 33.0176C20.3483 32.2428 19.2773 31.6048 18.0469 31.1035C16.862 30.5566 15.6543 30.0098 14.4238 29.4629C13.2845 29.0072 11.9173 28.4375 10.3223 27.7539C8.72721 27.0247 7.20052 26.0905 5.74219 24.9512C4.28385 23.7663 3.0306 22.3307 1.98242 20.6445C0.979818 18.9128 0.478516 16.7936 0.478516 14.2871C0.478516 12.6465 0.911458 10.9831 1.77734 9.29688C2.64323 7.61068 3.8737 6.08398 5.46875 4.7168C7.0638 3.30404 8.97786 2.16471 11.2109 1.29883C13.4896 0.432943 16.0417 0 18.8672 0C21.6471 0 23.903 0.250651 25.6348 0.751953C27.3665 1.25326 28.7109 1.91406 29.668 2.73438C30.625 3.50911 31.263 4.375 31.582 5.33203C31.9466 6.24349 32.1289 7.10938 32.1289 7.92969C32.1289 8.75 31.8783 9.5931 31.377 10.459C30.8757 11.2793 30.2832 12.054 29.5996 12.7832C28.916 13.4668 28.2096 14.082 27.4805 14.6289C26.7513 15.1302 26.1589 15.472 25.7031 15.6543C25.931 15.0618 26.1589 14.2415 26.3867 13.1934C26.6146 12.1452 26.5462 11.097 26.1816 10.0488C25.8626 9.00065 25.0651 8.08919 23.7891 7.31445C22.5586 6.53971 20.5534 6.15234 17.7734 6.15234C16.1784 6.15234 14.6289 6.40299 13.125 6.9043C11.6211 7.4056 10.2767 8.06641 9.0918 8.88672C7.95247 9.66146 7.04102 10.5501 6.35742 11.5527C5.67383 12.5553 5.33203 13.5807 5.33203 14.6289C5.33203 15.6315 5.67383 16.5658 6.35742 17.4316C7.08659 18.252 8.04362 19.0495 9.22852 19.8242C10.459 20.5534 11.849 21.2826 13.3984 22.0117C14.9935 22.7409 16.6569 23.4701 18.3887 24.1992C20.0749 24.9284 21.7383 25.7259 23.3789 26.5918C25.0195 27.4121 26.4779 28.3691 27.7539 29.4629C29.0755 30.5566 30.1237 31.7871 30.8984 33.1543C31.6732 34.5215 32.0605 36.0938 32.0605 37.8711C32.0605 39.7852 31.696 41.6309 30.9668 43.4082C30.2832 45.14 29.2806 46.6667 27.959 47.9883C26.6829 49.3099 25.1107 50.3581 23.2422 51.1328C21.3737 51.9531 19.2546 52.3633 16.8848 52.3633C14.7884 52.3633 12.806 52.0215 10.9375 51.3379C9.06901 50.6543 7.42839 49.7656 6.01562 48.6719C4.64844 47.5781 3.55469 46.3704 2.73438 45.0488C1.91406 43.7272 1.50391 42.4284 1.50391 41.1523C1.50391 39.7852 1.80013 38.623 2.39258 37.666C3.0306 36.709 3.80534 35.957 4.7168 35.4102C5.62826 34.8177 6.5625 34.4076 7.51953 34.1797C8.52214 33.9518 9.41081 33.9062 10.1855 34.043ZM62.1387 15.9961C61.6374 15.9049 60.9538 15.8138 60.0879 15.7227C59.2676 15.6315 58.4245 15.5632 57.5586 15.5176C56.556 15.472 55.485 15.4492 54.3457 15.4492C53.2064 15.3581 51.7708 15.3581 50.0391 15.4492C48.3529 15.4948 46.5755 15.5176 44.707 15.5176C44.6615 16.7025 44.5703 17.9102 44.4336 19.1406C44.3424 20.3711 44.2513 21.5788 44.1602 22.7637C43.9323 24.9512 43.7272 27.1842 43.5449 29.4629C43.4082 31.7415 43.3398 33.9062 43.3398 35.957C43.3398 38.0078 43.4538 39.8763 43.6816 41.5625C43.9551 43.2031 44.4336 44.502 45.1172 45.459C44.5703 45.8691 43.9779 46.1882 43.3398 46.416C42.7018 46.5983 42.1322 46.735 41.6309 46.8262C41.0384 46.9629 40.446 47.0312 39.8535 47.0312C39.3066 47.0312 38.8509 46.849 38.4863 46.4844C38.1217 46.1198 37.9167 45.4818 37.8711 44.5703C37.7799 43.0208 37.7572 41.4714 37.8027 39.9219C37.8939 38.3268 37.985 36.6634 38.0762 34.9316C38.2129 33.1999 38.3496 31.3542 38.4863 29.3945C38.623 27.3893 38.7598 25.2018 38.8965 22.832C39.0332 20.3711 39.1016 17.9785 39.1016 15.6543C37.3698 15.6999 35.9115 15.7227 34.7266 15.7227C33.5417 15.7227 32.8809 15.6999 32.7441 15.6543C32.6074 15.5632 32.4479 15.3581 32.2656 15.0391C32.0833 14.7656 31.8555 14.3555 31.582 13.8086C31.263 13.2617 30.8757 12.487 30.4199 11.4844C31.2858 11.4844 32.2428 11.4844 33.291 11.4844C34.2936 11.4844 35.2279 11.4616 36.0938 11.416C37.0964 11.3704 38.099 11.3249 39.1016 11.2793C39.056 10.5501 39.0332 9.77539 39.0332 8.95508C38.9876 8.31706 38.9648 7.61068 38.9648 6.83594C38.9648 6.01562 38.9421 5.26367 38.8965 4.58008C38.8965 4.30664 39.2155 3.98763 39.8535 3.62305C40.5371 3.21289 41.2663 2.84831 42.041 2.5293C42.8158 2.21029 43.5221 2.00521 44.1602 1.91406C44.8438 1.82292 45.1855 1.98242 45.1855 2.39258C45.1855 2.80273 45.1628 3.80534 45.1172 5.40039C45.1172 6.94987 45.0716 8.84115 44.9805 11.0742C45.4362 11.0742 45.778 11.0514 46.0059 11.0059C48.4212 10.9147 50.3581 10.8236 51.8164 10.7324C53.3203 10.5957 54.5508 10.5729 55.5078 10.6641C56.4648 10.7552 57.3079 10.9831 58.0371 11.3477C58.7663 11.7122 59.5866 12.3047 60.498 13.125C60.8171 13.3984 61.0905 13.6947 61.3184 14.0137C61.5462 14.2871 61.7285 14.6061 61.8652 14.9707C62.0475 15.2897 62.1387 15.6315 62.1387 15.9961ZM70.4102 42.9297C70.5013 43.2487 70.638 43.5449 70.8203 43.8184C70.957 44.0462 71.1393 44.2741 71.3672 44.502C71.6406 44.6842 71.9596 44.7982 72.3242 44.8438C72.0052 45.4818 71.6862 45.9147 71.3672 46.1426C71.1849 46.2793 71.0254 46.3704 70.8887 46.416C70.4785 46.5527 69.8633 46.6211 69.043 46.6211C68.2227 46.6211 67.4251 46.3704 66.6504 45.8691C66.377 45.6413 66.1263 45.2995 65.8984 44.8438C65.6706 44.4792 65.4655 43.9779 65.2832 43.3398C65.1465 42.6562 65.0326 41.7904 64.9414 40.7422C64.3034 42.1094 63.5742 43.2031 62.7539 44.0234C61.9792 44.7982 61.2044 45.3678 60.4297 45.7324C59.5638 46.2337 58.6751 46.5299 57.7637 46.6211C56.6243 46.7122 55.5306 46.5299 54.4824 46.0742C53.4798 45.5729 52.6139 44.8438 51.8848 43.8867C51.2012 42.8841 50.6771 41.6764 50.3125 40.2637C49.9479 38.8509 49.834 37.2559 49.9707 35.4785C50.1074 33.61 50.472 31.9466 51.0645 30.4883C51.6569 29.0299 52.3633 27.7311 53.1836 26.5918C54.0039 25.4525 54.8698 24.4954 55.7812 23.7207C56.6927 22.9004 57.5586 22.2396 58.3789 21.7383C59.2448 21.1914 59.974 20.804 60.5664 20.5762C61.2044 20.3027 61.6146 20.1432 61.7969 20.0977C62.2982 19.9609 62.7311 19.9154 63.0957 19.9609C63.4603 20.0065 63.7793 20.2116 64.0527 20.5762C64.1439 20.7129 64.2578 20.8724 64.3945 21.0547C64.4857 21.237 64.5996 21.4876 64.7363 21.8066C64.873 22.0801 64.987 22.3991 65.0781 22.7637C63.9844 23.265 62.959 23.8346 62.002 24.4727C61.0449 25.0651 60.1562 25.7943 59.3359 26.6602C58.5612 27.526 57.8776 28.5742 57.2852 29.8047C56.6927 31.0352 56.237 32.5391 55.918 34.3164C55.4622 36.5495 55.5762 38.3496 56.2598 39.7168C56.9889 41.084 57.9688 41.6536 59.1992 41.4258C59.9284 41.1979 60.6348 40.765 61.3184 40.127C61.9108 39.5801 62.526 38.7598 63.1641 37.666C63.8477 36.5723 64.4857 35.0684 65.0781 33.1543C65.306 30.4199 65.4883 28.278 65.625 26.7285C65.8073 25.1335 65.9668 23.9258 66.1035 23.1055C66.2858 22.1484 66.4225 21.5104 66.5137 21.1914C66.6504 20.9635 66.9238 20.7585 67.334 20.5762C67.7441 20.3483 68.1999 20.166 68.7012 20.0293C69.2025 19.8926 69.6582 19.8242 70.0684 19.8242C70.4785 19.7786 70.752 19.7786 70.8887 19.8242C70.9798 19.8698 71.0254 20.4395 71.0254 21.5332C71.0254 22.5814 70.9798 23.9258 70.8887 25.5664C70.8431 27.1615 70.7747 28.916 70.6836 30.8301C70.5924 32.6986 70.5013 34.4759 70.4102 36.1621C70.3646 37.8483 70.319 39.3294 70.2734 40.6055C70.2734 41.8359 70.319 42.6107 70.4102 42.9297ZM96.5234 20.166C96.6146 24.1764 96.6829 27.6855 96.7285 30.6934C96.7741 33.7012 96.8197 36.2305 96.8652 38.2812C96.9108 40.6966 96.9336 42.7702 96.9336 44.502C96.9792 46.6439 96.7969 48.8542 96.3867 51.1328C96.0221 53.457 95.4069 55.5762 94.541 57.4902C93.6751 59.4043 92.5358 60.9766 91.123 62.207C89.7103 63.4375 88.0013 64.0527 85.9961 64.0527C83.5807 64.0527 81.735 63.5514 80.459 62.5488C79.1829 61.5918 78.2487 60.498 77.6562 59.2676C77.0638 58.0371 76.722 56.875 76.6309 55.7812C76.5397 54.7331 76.4941 54.1178 76.4941 53.9355C76.4941 53.571 76.722 53.1608 77.1777 52.7051C77.6335 52.2493 78.3171 51.8392 79.2285 51.4746C79.5931 51.3379 79.9577 51.224 80.3223 51.1328C80.6413 51.0417 80.9603 50.9733 81.2793 50.9277C81.5983 50.8822 81.8945 50.9049 82.168 50.9961C81.7122 51.8164 81.4388 52.7507 81.3477 53.7988C81.3021 54.847 81.4388 55.8268 81.7578 56.7383C82.1224 57.6953 82.6465 58.4928 83.3301 59.1309C84.0137 59.7689 84.8796 60.0879 85.9277 60.0879C87.3861 60.0879 88.5254 59.6549 89.3457 58.7891C90.2116 57.9688 90.8496 56.9434 91.2598 55.7129C91.7155 54.4824 91.9889 53.1836 92.0801 51.8164C92.2168 50.4492 92.2852 49.2415 92.2852 48.1934C92.2852 47.373 92.2624 46.3249 92.2168 45.0488C92.2168 43.7272 92.1484 42.2689 92.0117 40.6738C91.4648 41.5853 90.8268 42.474 90.0977 43.3398C89.3685 44.1602 88.5938 44.8893 87.7734 45.5273C86.9531 46.1654 86.11 46.6667 85.2441 47.0312C84.4238 47.4414 83.6035 47.6465 82.7832 47.6465C81.3704 47.6465 80.2311 47.2135 79.3652 46.3477C78.4993 45.4362 77.8385 44.3197 77.3828 42.998C76.9271 41.6309 76.6081 40.1725 76.4258 38.623C76.2891 37.028 76.2207 35.5697 76.2207 34.248C76.2207 33.2454 76.2663 32.0378 76.3574 30.625C76.4486 29.1667 76.5625 27.7767 76.6992 26.4551C76.8359 25.1335 76.9954 23.9941 77.1777 23.0371C77.4056 22.0345 77.6335 21.4648 77.8613 21.3281C79.1829 20.5534 80.4818 20.1204 81.7578 20.0293C83.0339 19.9382 83.9909 20.0977 84.6289 20.5078C84.082 20.918 83.6263 21.6016 83.2617 22.5586C82.8971 23.5156 82.6009 24.5866 82.373 25.7715C82.1452 26.9108 81.9857 28.1185 81.8945 29.3945C81.8034 30.625 81.7578 31.7415 81.7578 32.7441C81.7578 33.5645 81.7806 34.5443 81.8262 35.6836C81.8717 36.8229 81.9629 37.9167 82.0996 38.9648C82.2819 40.013 82.5326 40.9017 82.8516 41.6309C83.1706 42.36 83.5807 42.7246 84.082 42.7246C85.0846 42.7246 86.0189 42.36 86.8848 41.6309C87.7507 40.9017 88.5026 39.9902 89.1406 38.8965C89.8242 37.8027 90.3483 36.6406 90.7129 35.4102C91.0775 34.1341 91.2598 32.9492 91.2598 31.8555V31.3086C91.1686 30.1237 91.0775 29.0072 90.9863 27.959C90.8952 26.8652 90.804 25.8854 90.7129 25.0195C90.6673 24.1536 90.6217 23.4473 90.5762 22.9004C90.5762 22.3079 90.5762 21.9206 90.5762 21.7383C90.5762 21.2826 90.8724 20.8724 91.4648 20.5078C92.1029 20.1432 92.7865 19.8926 93.5156 19.7559C94.2904 19.5736 94.974 19.5052 95.5664 19.5508C96.2044 19.5964 96.5234 19.8014 96.5234 20.166ZM135.488 34.6582C135.397 36.4355 135.078 38.0762 134.531 39.5801C134.03 41.084 133.324 42.4056 132.412 43.5449C131.501 44.6387 130.407 45.5046 129.131 46.1426C127.9 46.7806 126.533 47.1224 125.029 47.168C123.708 47.2135 122.454 46.8945 121.27 46.2109C120.13 45.5273 119.128 44.5703 118.262 43.3398C117.396 42.1094 116.735 40.651 116.279 38.9648C115.869 37.2331 115.755 35.3646 115.938 33.3594C116.074 31.0352 116.507 29.0527 117.236 27.4121C117.965 25.7259 118.74 24.3359 119.561 23.2422C120.381 22.1484 121.133 21.3509 121.816 20.8496C122.546 20.3027 123.001 19.9837 123.184 19.8926C123.503 19.7559 123.799 19.7331 124.072 19.8242C124.346 19.8698 124.642 19.9382 124.961 20.0293C125.052 20.0749 125.143 20.1888 125.234 20.3711C125.417 20.6901 125.531 21.2826 125.576 22.1484C125.804 21.6471 126.1 21.237 126.465 20.918C126.829 20.599 127.194 20.3711 127.559 20.2344C128.014 20.0521 128.47 19.9382 128.926 19.8926C129.245 19.847 129.792 20.0977 130.566 20.6445C131.387 21.1914 132.161 22.0573 132.891 23.2422C133.665 24.4271 134.326 25.9766 134.873 27.8906C135.42 29.7591 135.625 32.015 135.488 34.6582ZM130.84 33.8379C130.885 32.7441 130.84 31.6504 130.703 30.5566C130.612 29.4173 130.43 28.3919 130.156 27.4805C129.928 26.5234 129.632 25.7715 129.268 25.2246C128.903 24.6322 128.538 24.3359 128.174 24.3359C127.764 24.4271 127.308 24.6322 126.807 24.9512C126.396 25.2246 125.941 25.6576 125.439 26.25C124.938 26.8424 124.46 27.6855 124.004 28.7793C123.958 28.6426 123.913 28.3919 123.867 28.0273C123.822 27.7083 123.776 27.2982 123.73 26.7969C123.73 26.25 123.776 25.5208 123.867 24.6094C123.229 25.3841 122.728 26.2956 122.363 27.3438C122.044 28.3919 121.794 29.3945 121.611 30.3516C121.429 31.4909 121.292 32.6302 121.201 33.7695C121.156 35 121.201 36.2077 121.338 37.3926C121.52 38.5775 121.794 39.6257 122.158 40.5371C122.568 41.4486 123.047 42.1777 123.594 42.7246C124.141 43.2715 124.801 43.5221 125.576 43.4766C126.351 43.431 127.035 43.112 127.627 42.5195C128.219 41.9271 128.743 41.1751 129.199 40.2637C129.655 39.3522 130.02 38.3268 130.293 37.1875C130.566 36.0482 130.749 34.9316 130.84 33.8379ZM146.289 44.5703C146.243 44.8438 145.993 45.14 145.537 45.459C145.127 45.7324 144.626 45.9831 144.033 46.2109C143.486 46.4388 142.962 46.5755 142.461 46.6211C141.96 46.7122 141.618 46.6667 141.436 46.4844C141.253 46.3021 140.957 45.9603 140.547 45.459C140.137 44.9577 139.886 44.1374 139.795 42.998C139.704 41.8132 139.658 40.332 139.658 38.5547C139.658 36.7318 139.635 34.7266 139.59 32.5391V29.8047C139.59 28.9844 139.567 28.0273 139.521 26.9336C139.521 25.8398 139.499 24.7005 139.453 23.5156C139.863 23.2878 140.273 23.0827 140.684 22.9004C141.139 22.6725 141.549 22.4902 141.914 22.3535C142.324 22.1712 142.712 22.0345 143.076 21.9434C144.033 21.6699 144.762 21.5104 145.264 21.4648C145.765 21.4193 146.061 21.5788 146.152 21.9434C146.198 22.2168 146.175 22.8776 146.084 23.9258C145.993 24.8372 145.879 26.2272 145.742 28.0957C145.605 29.9186 145.378 32.4707 145.059 35.752C145.651 34.2936 146.13 33.0404 146.494 31.9922C146.904 30.944 147.246 30.1009 147.52 29.4629C147.793 28.6882 148.044 28.0729 148.271 27.6172C148.499 27.0247 148.796 26.3639 149.16 25.6348C149.525 24.9056 149.889 24.222 150.254 23.584C150.664 22.946 151.029 22.3763 151.348 21.875C151.712 21.3737 151.986 21.0775 152.168 20.9863C152.305 20.8952 152.715 20.8952 153.398 20.9863C154.082 21.0775 154.811 21.3053 155.586 21.6699C156.361 21.9889 157.113 22.4674 157.842 23.1055C158.571 23.6979 159.049 24.4271 159.277 25.293C159.551 26.2956 159.642 27.6172 159.551 29.2578C159.505 30.8984 159.391 32.5846 159.209 34.3164C159.072 36.0482 158.958 37.6888 158.867 39.2383C158.776 40.7878 158.867 41.9727 159.141 42.793C159.232 43.2487 159.368 43.6589 159.551 44.0234C159.642 44.388 159.756 44.7298 159.893 45.0488C160.075 45.3223 160.257 45.5273 160.439 45.6641C159.346 46.1654 158.457 46.5299 157.773 46.7578C157.09 46.9857 156.566 47.1452 156.201 47.2363C155.745 47.373 155.426 47.4186 155.244 47.373C154.834 47.2363 154.469 46.8945 154.15 46.3477C153.877 45.8008 153.626 44.9349 153.398 43.75C153.307 43.3854 153.262 42.793 153.262 41.9727C153.307 41.1068 153.376 40.1497 153.467 39.1016C153.558 38.0078 153.649 36.8913 153.74 35.752C153.877 34.5671 153.968 33.4733 154.014 32.4707C154.105 31.4225 154.173 30.5339 154.219 29.8047C154.264 29.0299 154.264 28.5059 154.219 28.2324C153.991 27.4121 153.672 26.8424 153.262 26.5234C152.852 26.1589 152.533 26.1133 152.305 26.3867C151.712 27.0703 151.074 28.1868 150.391 29.7363C149.753 31.2402 149.137 32.9036 148.545 34.7266C147.952 36.5039 147.451 38.2812 147.041 40.0586C146.631 41.8359 146.38 43.3398 146.289 44.5703ZM31.7188 85.9961C31.2174 85.9049 30.5339 85.8138 29.668 85.7227C28.8477 85.6315 28.0046 85.5632 27.1387 85.5176C26.1361 85.472 25.0651 85.4492 23.9258 85.4492C22.7865 85.3581 21.3509 85.3581 19.6191 85.4492C17.9329 85.4948 16.1556 85.5176 14.2871 85.5176C14.2415 86.7025 14.1504 87.9102 14.0137 89.1406C13.9225 90.3711 13.8314 91.5788 13.7402 92.7637C13.5124 94.9512 13.3073 97.1842 13.125 99.4629C12.9883 101.742 12.9199 103.906 12.9199 105.957C12.9199 108.008 13.0339 109.876 13.2617 111.562C13.5352 113.203 14.0137 114.502 14.6973 115.459C14.1504 115.869 13.5579 116.188 12.9199 116.416C12.2819 116.598 11.7122 116.735 11.2109 116.826C10.6185 116.963 10.026 117.031 9.43359 117.031C8.88672 117.031 8.43099 116.849 8.06641 116.484C7.70182 116.12 7.49674 115.482 7.45117 114.57C7.36003 113.021 7.33724 111.471 7.38281 109.922C7.47396 108.327 7.5651 106.663 7.65625 104.932C7.79297 103.2 7.92969 101.354 8.06641 99.3945C8.20312 97.3893 8.33984 95.2018 8.47656 92.832C8.61328 90.3711 8.68164 87.9785 8.68164 85.6543C6.94987 85.6999 5.49154 85.7227 4.30664 85.7227C3.12174 85.7227 2.46094 85.6999 2.32422 85.6543C2.1875 85.5632 2.02799 85.3581 1.8457 85.0391C1.66341 84.7656 1.43555 84.3555 1.16211 83.8086C0.843099 83.2617 0.455729 82.487 0 81.4844C0.865885 81.4844 1.82292 81.4844 2.87109 81.4844C3.8737 81.4844 4.80794 81.4616 5.67383 81.416C6.67643 81.3704 7.67904 81.3249 8.68164 81.2793C8.63607 80.5501 8.61328 79.7754 8.61328 78.9551C8.56771 78.3171 8.54492 77.6107 8.54492 76.8359C8.54492 76.0156 8.52214 75.2637 8.47656 74.5801C8.47656 74.3066 8.79557 73.9876 9.43359 73.623C10.1172 73.2129 10.8464 72.8483 11.6211 72.5293C12.3958 72.2103 13.1022 72.0052 13.7402 71.9141C14.4238 71.8229 14.7656 71.9824 14.7656 72.3926C14.7656 72.8027 14.7428 73.8053 14.6973 75.4004C14.6973 76.9499 14.6517 78.8411 14.5605 81.0742C15.0163 81.0742 15.3581 81.0514 15.5859 81.0059C18.0013 80.9147 19.9382 80.8236 21.3965 80.7324C22.9004 80.5957 24.1309 80.5729 25.0879 80.6641C26.0449 80.7552 26.888 80.9831 27.6172 81.3477C28.3464 81.7122 29.1667 82.3047 30.0781 83.125C30.3971 83.3984 30.6706 83.6947 30.8984 84.0137C31.1263 84.2871 31.3086 84.6061 31.4453 84.9707C31.6276 85.2897 31.7188 85.6315 31.7188 85.9961ZM25.9766 105.684C26.5234 104.043 26.9792 102.653 27.3438 101.514C27.7539 100.374 28.0957 99.4629 28.3691 98.7793C28.6882 97.959 28.9616 97.2982 29.1895 96.7969C29.4629 96.0677 29.7591 95.3385 30.0781 94.6094C30.4427 93.8802 30.8073 93.2194 31.1719 92.627C31.5365 91.9889 31.8783 91.4648 32.1973 91.0547C32.5163 90.6445 32.7897 90.3711 33.0176 90.2344C33.1999 90.1432 33.61 90.1432 34.248 90.2344C34.9316 90.3255 35.6608 90.5534 36.4355 90.918C37.2559 91.237 38.0078 91.6927 38.6914 92.2852C39.4206 92.8776 39.9219 93.6068 40.1953 94.4727C40.4688 95.5208 40.5599 96.888 40.4688 98.5742C40.3776 100.26 40.2409 101.992 40.0586 103.77C39.9219 105.547 39.8079 107.233 39.7168 108.828C39.6712 110.423 39.7852 111.631 40.0586 112.451C40.2409 112.907 40.4232 113.363 40.6055 113.818C40.7878 114.183 40.9928 114.57 41.2207 114.98C41.4941 115.345 41.7904 115.664 42.1094 115.938C40.7878 116.439 39.7168 116.803 38.8965 117.031C38.1217 117.305 37.5293 117.487 37.1191 117.578C36.6178 117.715 36.276 117.738 36.0938 117.646C35.7292 117.51 35.3874 117.168 35.0684 116.621C34.7493 116.074 34.4759 115.208 34.248 114.023C34.1569 113.659 34.1341 113.021 34.1797 112.109C34.2253 111.198 34.2936 110.173 34.3848 109.033C34.4759 107.894 34.5671 106.709 34.6582 105.479C34.7493 104.202 34.8405 103.018 34.9316 101.924C35.0228 100.83 35.0684 99.873 35.0684 99.0527C35.1139 98.2324 35.1139 97.6855 35.0684 97.4121C34.8405 96.6374 34.5215 96.0905 34.1113 95.7715C33.7012 95.4069 33.3822 95.3613 33.1543 95.6348C32.6074 96.3184 31.9922 97.5033 31.3086 99.1895C30.6706 100.83 30.0553 102.63 29.4629 104.59C28.8704 106.504 28.3464 108.418 27.8906 110.332C27.4805 112.246 27.2298 113.818 27.1387 115.049C27.1387 115.322 26.9108 115.618 26.4551 115.938C26.0449 116.211 25.5664 116.462 25.0195 116.689C24.5182 116.917 24.0169 117.054 23.5156 117.1C23.0143 117.191 22.6725 117.122 22.4902 116.895C22.3535 116.758 22.0573 116.439 21.6016 115.938C21.1914 115.436 20.9635 114.593 20.918 113.408C20.8268 112.269 20.8268 110.719 20.918 108.76C21.0091 106.755 21.0319 104.658 20.9863 102.471V97.4121C20.9863 95.3613 20.9635 92.5358 20.918 88.9355C20.918 85.2897 20.8952 80.4818 20.8496 74.5117C21.3509 74.2383 21.8066 74.0104 22.2168 73.8281C22.627 73.6003 23.0143 73.418 23.3789 73.2812C23.7891 73.099 24.1764 72.9622 24.541 72.8711C26.5007 72.3698 27.526 72.3698 27.6172 72.8711C27.6628 73.3268 27.6172 74.7852 27.4805 77.2461C27.4349 78.2943 27.3665 79.6159 27.2754 81.2109C27.1842 82.806 27.0703 84.7428 26.9336 87.0215C26.8424 89.3001 26.7057 91.9889 26.5234 95.0879C26.3867 98.1413 26.2044 101.673 25.9766 105.684ZM54.5508 117.168C51.3607 117.168 48.8997 116.097 47.168 113.955C45.4362 111.813 44.5703 109.01 44.5703 105.547C44.5703 103.132 44.9121 100.876 45.5957 98.7793C46.3249 96.6374 47.2819 94.7917 48.4668 93.2422C49.6517 91.6927 51.0189 90.485 52.5684 89.6191C54.1634 88.7077 55.8268 88.252 57.5586 88.252C59.2448 88.252 60.6803 88.8672 61.8652 90.0977C63.0501 91.2826 63.6426 92.9915 63.6426 95.2246C63.6426 96.6829 63.3236 98.1413 62.6855 99.5996C62.0475 101.012 61.2044 102.288 60.1562 103.428C59.1536 104.521 58.0371 105.41 56.8066 106.094C55.5762 106.777 54.3913 107.119 53.252 107.119C52.5228 107.119 51.9076 107.028 51.4062 106.846C50.9049 106.663 50.4492 106.39 50.0391 106.025C50.1758 108.623 50.7454 110.446 51.748 111.494C52.7507 112.497 54.0495 112.998 55.6445 112.998C56.7383 112.998 57.6953 112.77 58.5156 112.314C59.3815 111.859 60.1107 111.335 60.7031 110.742C61.2956 110.15 61.7741 109.557 62.1387 108.965C62.5033 108.327 62.7539 107.848 62.8906 107.529C63.0273 107.256 63.2552 107.119 63.5742 107.119C63.9388 107.119 64.1211 107.393 64.1211 107.939C64.1211 108.441 63.9388 109.215 63.5742 110.264C63.2552 111.266 62.7083 112.292 61.9336 113.34C61.1589 114.342 60.1562 115.231 58.9258 116.006C57.7409 116.781 56.2826 117.168 54.5508 117.168ZM57.6953 91.1914C57.4219 91.1914 56.8978 91.4876 56.123 92.0801C55.3939 92.627 54.5964 93.4473 53.7305 94.541C52.9102 95.6348 52.1354 96.9564 51.4062 98.5059C50.7227 100.01 50.2897 101.719 50.1074 103.633C52.8418 102.995 55.0065 101.992 56.6016 100.625C58.1966 99.2578 58.9941 97.2526 58.9941 94.6094C58.9941 93.2878 58.8346 92.3991 58.5156 91.9434C58.1966 91.4421 57.9232 91.1914 57.6953 91.1914ZM96.1133 89.3457C97.3893 89.3457 98.5742 89.7103 99.668 90.4395C100.762 91.1686 101.696 92.1257 102.471 93.3105C103.245 94.4954 103.861 95.8626 104.316 97.4121C104.772 98.916 105 100.488 105 102.129C105 103.77 104.818 105.501 104.453 107.324C104.089 109.147 103.519 110.833 102.744 112.383C101.969 113.932 100.967 115.231 99.7363 116.279C98.5059 117.282 97.002 117.783 95.2246 117.783C93.8118 117.783 92.4674 117.282 91.1914 116.279C89.9609 115.231 89.0039 113.932 88.3203 112.383C88.2292 113.978 88.0241 115.596 87.7051 117.236C87.3861 118.923 87.2266 120.928 87.2266 123.252C87.2266 123.936 87.2493 124.71 87.2949 125.576C87.3405 126.442 87.4089 127.308 87.5 128.174C87.5911 129.04 87.7279 129.837 87.9102 130.566C88.0924 131.296 88.2975 131.865 88.5254 132.275C87.7507 132.731 87.0443 133.073 86.4062 133.301C85.8138 133.529 85.2897 133.688 84.834 133.779C84.3327 133.916 83.8542 133.984 83.3984 133.984C82.806 133.984 82.4186 133.734 82.2363 133.232C82.054 132.731 81.9629 131.842 81.9629 130.566C81.9629 129.746 81.9857 128.561 82.0312 127.012C82.1224 125.508 82.2135 123.776 82.3047 121.816C82.4414 119.857 82.5553 117.806 82.6465 115.664C82.7832 113.477 82.8971 111.335 82.9883 109.238C83.125 107.142 83.2161 105.205 83.2617 103.428C83.3529 101.605 83.3984 100.078 83.3984 98.8477C83.3984 97.3438 83.3757 96.1816 83.3301 95.3613C83.2845 94.4954 83.2161 93.8574 83.125 93.4473C83.0794 92.9915 83.0111 92.6725 82.9199 92.4902C82.8288 92.3079 82.7148 92.1029 82.5781 91.875C82.9883 91.556 83.4668 91.2826 84.0137 91.0547C84.6061 90.7812 85.1758 90.599 85.7227 90.5078C86.3151 90.3711 86.8392 90.3255 87.2949 90.3711C87.7962 90.4167 88.1836 90.5306 88.457 90.7129C88.6849 90.9408 88.8444 91.2826 88.9355 91.7383C89.0723 92.194 89.1862 92.8776 89.2773 93.7891C90.1432 92.6042 91.123 91.5788 92.2168 90.7129C93.3561 89.8014 94.6549 89.3457 96.1133 89.3457ZM93.4473 113.75C94.2676 113.75 95.0423 113.363 95.7715 112.588C96.5462 111.813 97.207 110.833 97.7539 109.648C98.3464 108.418 98.8021 107.074 99.1211 105.615C99.4857 104.111 99.668 102.63 99.668 101.172C99.668 99.5768 99.5085 98.278 99.1895 97.2754C98.916 96.2272 98.5514 95.4069 98.0957 94.8145C97.6855 94.1764 97.2298 93.7435 96.7285 93.5156C96.2728 93.2422 95.8626 93.1055 95.498 93.1055C94.6322 93.1055 93.8118 93.4701 93.0371 94.1992C92.2624 94.8828 91.5788 95.7943 90.9863 96.9336C90.3939 98.0273 89.9154 99.2578 89.5508 100.625C89.2318 101.992 89.0723 103.359 89.0723 104.727C89.0723 106.003 89.1862 107.188 89.4141 108.281C89.6875 109.375 90.0293 110.332 90.4395 111.152C90.8496 111.973 91.3053 112.611 91.8066 113.066C92.3535 113.522 92.9004 113.75 93.4473 113.75ZM128.721 112.93C128.812 113.249 128.949 113.545 129.131 113.818C129.268 114.046 129.45 114.274 129.678 114.502C129.951 114.684 130.27 114.798 130.635 114.844C130.316 115.482 129.997 115.915 129.678 116.143C129.495 116.279 129.336 116.37 129.199 116.416C128.789 116.553 128.174 116.621 127.354 116.621C126.533 116.621 125.736 116.37 124.961 115.869C124.688 115.641 124.437 115.299 124.209 114.844C123.981 114.479 123.776 113.978 123.594 113.34C123.457 112.656 123.343 111.79 123.252 110.742C122.614 112.109 121.885 113.203 121.064 114.023C120.29 114.798 119.515 115.368 118.74 115.732C117.874 116.234 116.986 116.53 116.074 116.621C114.935 116.712 113.841 116.53 112.793 116.074C111.79 115.573 110.924 114.844 110.195 113.887C109.512 112.884 108.988 111.676 108.623 110.264C108.258 108.851 108.145 107.256 108.281 105.479C108.418 103.61 108.783 101.947 109.375 100.488C109.967 99.0299 110.674 97.7311 111.494 96.5918C112.314 95.4525 113.18 94.4954 114.092 93.7207C115.003 92.9004 115.869 92.2396 116.689 91.7383C117.555 91.1914 118.285 90.804 118.877 90.5762C119.515 90.3027 119.925 90.1432 120.107 90.0977C120.609 89.9609 121.042 89.9154 121.406 89.9609C121.771 90.0065 122.09 90.2116 122.363 90.5762C122.454 90.7129 122.568 90.8724 122.705 91.0547C122.796 91.237 122.91 91.4876 123.047 91.8066C123.184 92.0801 123.298 92.3991 123.389 92.7637C122.295 93.265 121.27 93.8346 120.312 94.4727C119.355 95.0651 118.467 95.7943 117.646 96.6602C116.872 97.526 116.188 98.5742 115.596 99.8047C115.003 101.035 114.548 102.539 114.229 104.316C113.773 106.549 113.887 108.35 114.57 109.717C115.299 111.084 116.279 111.654 117.51 111.426C118.239 111.198 118.945 110.765 119.629 110.127C120.221 109.58 120.837 108.76 121.475 107.666C122.158 106.572 122.796 105.068 123.389 103.154C123.617 100.42 123.799 98.278 123.936 96.7285C124.118 95.1335 124.277 93.9258 124.414 93.1055C124.596 92.1484 124.733 91.5104 124.824 91.1914C124.961 90.9635 125.234 90.7585 125.645 90.5762C126.055 90.3483 126.51 90.166 127.012 90.0293C127.513 89.8926 127.969 89.8242 128.379 89.8242C128.789 89.7786 129.062 89.7786 129.199 89.8242C129.29 89.8698 129.336 90.4395 129.336 91.5332C129.336 92.5814 129.29 93.9258 129.199 95.5664C129.154 97.1615 129.085 98.916 128.994 100.83C128.903 102.699 128.812 104.476 128.721 106.162C128.675 107.848 128.63 109.329 128.584 110.605C128.584 111.836 128.63 112.611 128.721 112.93ZM160.303 85.9961C159.801 85.9049 159.118 85.8138 158.252 85.7227C157.432 85.6315 156.589 85.5632 155.723 85.5176C154.72 85.472 153.649 85.4492 152.51 85.4492C151.37 85.3581 149.935 85.3581 148.203 85.4492C146.517 85.4948 144.74 85.5176 142.871 85.5176C142.826 86.7025 142.734 87.9102 142.598 89.1406C142.507 90.3711 142.415 91.5788 142.324 92.7637C142.096 94.9512 141.891 97.1842 141.709 99.4629C141.572 101.742 141.504 103.906 141.504 105.957C141.504 108.008 141.618 109.876 141.846 111.562C142.119 113.203 142.598 114.502 143.281 115.459C142.734 115.869 142.142 116.188 141.504 116.416C140.866 116.598 140.296 116.735 139.795 116.826C139.202 116.963 138.61 117.031 138.018 117.031C137.471 117.031 137.015 116.849 136.65 116.484C136.286 116.12 136.081 115.482 136.035 114.57C135.944 113.021 135.921 111.471 135.967 109.922C136.058 108.327 136.149 106.663 136.24 104.932C136.377 103.2 136.514 101.354 136.65 99.3945C136.787 97.3893 136.924 95.2018 137.061 92.832C137.197 90.3711 137.266 87.9785 137.266 85.6543C135.534 85.6999 134.076 85.7227 132.891 85.7227C131.706 85.7227 131.045 85.6999 130.908 85.6543C130.771 85.5632 130.612 85.3581 130.43 85.0391C130.247 84.7656 130.02 84.3555 129.746 83.8086C129.427 83.2617 129.04 82.487 128.584 81.4844C129.45 81.4844 130.407 81.4844 131.455 81.4844C132.458 81.4844 133.392 81.4616 134.258 81.416C135.26 81.3704 136.263 81.3249 137.266 81.2793C137.22 80.5501 137.197 79.7754 137.197 78.9551C137.152 78.3171 137.129 77.6107 137.129 76.8359C137.129 76.0156 137.106 75.2637 137.061 74.5801C137.061 74.3066 137.38 73.9876 138.018 73.623C138.701 73.2129 139.43 72.8483 140.205 72.5293C140.98 72.2103 141.686 72.0052 142.324 71.9141C143.008 71.8229 143.35 71.9824 143.35 72.3926C143.35 72.8027 143.327 73.8053 143.281 75.4004C143.281 76.9499 143.236 78.8411 143.145 81.0742C143.6 81.0742 143.942 81.0514 144.17 81.0059C146.585 80.9147 148.522 80.8236 149.98 80.7324C151.484 80.5957 152.715 80.5729 153.672 80.6641C154.629 80.7552 155.472 80.9831 156.201 81.3477C156.93 81.7122 157.751 82.3047 158.662 83.125C158.981 83.3984 159.255 83.6947 159.482 84.0137C159.71 84.2871 159.893 84.6061 160.029 84.9707C160.212 85.2897 160.303 85.6315 160.303 85.9961ZM154.561 105.684C155.107 104.043 155.563 102.653 155.928 101.514C156.338 100.374 156.68 99.4629 156.953 98.7793C157.272 97.959 157.546 97.2982 157.773 96.7969C158.047 96.0677 158.343 95.3385 158.662 94.6094C159.027 93.8802 159.391 93.2194 159.756 92.627C160.12 91.9889 160.462 91.4648 160.781 91.0547C161.1 90.6445 161.374 90.3711 161.602 90.2344C161.784 90.1432 162.194 90.1432 162.832 90.2344C163.516 90.3255 164.245 90.5534 165.02 90.918C165.84 91.237 166.592 91.6927 167.275 92.2852C168.005 92.8776 168.506 93.6068 168.779 94.4727C169.053 95.5208 169.144 96.888 169.053 98.5742C168.962 100.26 168.825 101.992 168.643 103.77C168.506 105.547 168.392 107.233 168.301 108.828C168.255 110.423 168.369 111.631 168.643 112.451C168.825 112.907 169.007 113.363 169.189 113.818C169.372 114.183 169.577 114.57 169.805 114.98C170.078 115.345 170.374 115.664 170.693 115.938C169.372 116.439 168.301 116.803 167.48 117.031C166.706 117.305 166.113 117.487 165.703 117.578C165.202 117.715 164.86 117.738 164.678 117.646C164.313 117.51 163.971 117.168 163.652 116.621C163.333 116.074 163.06 115.208 162.832 114.023C162.741 113.659 162.718 113.021 162.764 112.109C162.809 111.198 162.878 110.173 162.969 109.033C163.06 107.894 163.151 106.709 163.242 105.479C163.333 104.202 163.424 103.018 163.516 101.924C163.607 100.83 163.652 99.873 163.652 99.0527C163.698 98.2324 163.698 97.6855 163.652 97.4121C163.424 96.6374 163.105 96.0905 162.695 95.7715C162.285 95.4069 161.966 95.3613 161.738 95.6348C161.191 96.3184 160.576 97.5033 159.893 99.1895C159.255 100.83 158.639 102.63 158.047 104.59C157.454 106.504 156.93 108.418 156.475 110.332C156.064 112.246 155.814 113.818 155.723 115.049C155.723 115.322 155.495 115.618 155.039 115.938C154.629 116.211 154.15 116.462 153.604 116.689C153.102 116.917 152.601 117.054 152.1 117.1C151.598 117.191 151.257 117.122 151.074 116.895C150.938 116.758 150.641 116.439 150.186 115.938C149.775 115.436 149.548 114.593 149.502 113.408C149.411 112.269 149.411 110.719 149.502 108.76C149.593 106.755 149.616 104.658 149.57 102.471V97.4121C149.57 95.3613 149.548 92.5358 149.502 88.9355C149.502 85.2897 149.479 80.4818 149.434 74.5117C149.935 74.2383 150.391 74.0104 150.801 73.8281C151.211 73.6003 151.598 73.418 151.963 73.2812C152.373 73.099 152.76 72.9622 153.125 72.8711C155.085 72.3698 156.11 72.3698 156.201 72.8711C156.247 73.3268 156.201 74.7852 156.064 77.2461C156.019 78.2943 155.951 79.6159 155.859 81.2109C155.768 82.806 155.654 84.7428 155.518 87.0215C155.426 89.3001 155.29 91.9889 155.107 95.0879C154.971 98.1413 154.788 101.673 154.561 105.684Z" fill="#0088BB"/>
</svg>
