<svg width="245" height="72" fill="none" xmlns="http://www.w3.org/2000/svg" id="svg-1824040764_6789"><path d="M87.163 58.08c-1.412 0-2.714-.276-3.904-.83a8.747 8.747 0 0 1-2.992-2.327c-.83-.997-1.481-2.16-1.952-3.49-.443-1.329-.665-2.769-.665-4.32 0-1.634.25-3.13.748-4.486.499-1.385 1.191-2.59 2.077-3.614a9.427 9.427 0 0 1 3.24-2.368c1.247-.554 2.618-.831 4.113-.831 1.551 0 2.922.319 4.113.956a6.738 6.738 0 0 1 2.866 2.7v-3.24h6.855v19.857c0 2.27-.554 4.25-1.662 5.94-1.108 1.69-2.659 2.991-4.653 3.905-1.994.942-4.32 1.412-6.979 1.412-2.298 0-4.32-.36-6.065-1.08a13.83 13.83 0 0 1-4.57-3.115l4.155-4.32c.803.747 1.758 1.37 2.866 1.869a8.493 8.493 0 0 0 3.614.789c.97 0 1.856-.18 2.659-.54.83-.36 1.495-.942 1.994-1.745.498-.775.748-1.814.748-3.115v-1.413c-.61 1.136-1.523 1.994-2.742 2.576-1.191.553-2.479.83-3.864.83Zm2.825-6.23c.388 0 .748-.042 1.08-.125.36-.111.693-.25.998-.416.304-.194.595-.43.872-.706a7.21 7.21 0 0 0 .83-.997V45.7a5.026 5.026 0 0 0-1.038-1.703c-.443-.499-.928-.873-1.454-1.122a3.44 3.44 0 0 0-3.199-.041c-.47.249-.886.609-1.246 1.08-.36.443-.637.955-.83 1.537a5.876 5.876 0 0 0-.291 1.87c0 .664.097 1.273.29 1.827.222.554.526 1.038.914 1.454.388.388.845.692 1.371.914a4.344 4.344 0 0 0 1.703.332Zm37.657 6.23h-7.893V45.785c0-1.08-.25-1.855-.748-2.326-.471-.499-1.025-.748-1.662-.748-.443 0-.914.138-1.412.415a4.53 4.53 0 0 0-1.371 1.08 5.655 5.655 0 0 0-.997 1.62V58.08h-7.893V36.23h7.103v3.24a6.843 6.843 0 0 1 1.995-1.994c.803-.554 1.73-.97 2.783-1.247 1.052-.276 2.202-.415 3.448-.415 1.495 0 2.686.263 3.572.79.887.526 1.551 1.204 1.994 2.035a8.09 8.09 0 0 1 .873 2.617c.138.886.208 1.703.208 2.451V58.08Zm14.585.416c-1.939 0-3.656-.305-5.152-.914-1.495-.61-2.755-1.44-3.78-2.492a11.463 11.463 0 0 1-2.285-3.656 12.321 12.321 0 0 1-.747-4.28c0-1.495.249-2.92.747-4.278a10.888 10.888 0 0 1 2.285-3.656c1.025-1.052 2.285-1.883 3.78-2.492 1.496-.61 3.213-.914 5.152-.914 1.966 0 3.683.305 5.151.914 1.495.61 2.742 1.44 3.739 2.492a10.072 10.072 0 0 1 2.284 3.656c.527 1.357.79 2.783.79 4.279 0 1.495-.263 2.922-.79 4.279a10.558 10.558 0 0 1-2.284 3.656c-.997 1.052-2.244 1.883-3.739 2.492-1.468.61-3.185.914-5.151.914Zm-3.864-11.341c0 .97.166 1.814.499 2.534.332.692.789 1.232 1.371 1.62.581.36 1.246.54 1.994.54.747 0 1.412-.18 1.994-.54.581-.388 1.038-.928 1.371-1.62.332-.72.498-1.565.498-2.534 0-.97-.166-1.8-.498-2.493-.333-.72-.79-1.26-1.371-1.62-.582-.387-1.247-.581-1.994-.581-.748 0-1.413.194-1.994.581-.582.36-1.039.9-1.371 1.62-.333.693-.499 1.524-.499 2.493Zm53.849 10.925h-7.893V45.785c0-1.08-.221-1.855-.664-2.326-.416-.499-.928-.748-1.537-.748-.61 0-1.274.29-1.994.872a5.027 5.027 0 0 0-1.579 2.244V58.08h-7.893V45.784c0-1.08-.222-1.855-.665-2.326-.415-.499-.927-.748-1.537-.748-.609 0-1.274.29-1.994.872-.72.582-1.246 1.33-1.578 2.244V58.08h-7.893V36.228h7.103v3.24c.776-1.19 1.842-2.09 3.199-2.7 1.357-.636 2.963-.955 4.819-.955 1.8 0 3.157.388 4.071 1.163.914.776 1.523 1.648 1.828 2.617.775-1.19 1.842-2.118 3.199-2.783 1.357-.665 2.88-.997 4.569-.997 1.44 0 2.59.263 3.448.79.859.526 1.496 1.204 1.911 2.035.443.83.734 1.703.873 2.617.138.886.207 1.703.207 2.451V58.08Zm14.599.416c-1.911 0-3.614-.29-5.109-.873-1.496-.609-2.756-1.426-3.781-2.45a10.615 10.615 0 0 1-2.284-3.532 11.28 11.28 0 0 1-.79-4.195c0-2.105.457-4.03 1.371-5.775.914-1.772 2.257-3.184 4.03-4.237 1.772-1.08 3.96-1.62 6.563-1.62 2.604 0 4.792.526 6.564 1.579 1.772 1.052 3.116 2.437 4.03 4.154.914 1.717 1.37 3.586 1.37 5.608 0 .415-.027.845-.083 1.288-.027.415-.069.789-.124 1.121h-15.329c.055.776.263 1.413.623 1.911.388.471.858.817 1.412 1.039a5.16 5.16 0 0 0 4.196-.25c.776-.387 1.288-.927 1.537-1.62l6.688 1.911c-.581 1.164-1.398 2.188-2.451 3.075-1.024.886-2.243 1.592-3.655 2.118-1.413.499-3.005.748-4.778.748Zm-3.738-13.667h7.228c-.083-.72-.291-1.33-.623-1.828a3.155 3.155 0 0 0-1.246-1.163c-.499-.277-1.081-.416-1.745-.416-.665 0-1.26.139-1.787.416A3.578 3.578 0 0 0 203.657 43c-.304.498-.498 1.108-.581 1.828Zm27.059 13.667c-1.911 0-3.794-.305-5.65-.914-1.828-.637-3.378-1.55-4.652-2.742l2.7-4.86c1.357.886 2.659 1.578 3.905 2.077 1.274.498 2.423.748 3.448.748.581 0 1.011-.07 1.288-.208.277-.166.415-.43.415-.79a.787.787 0 0 0-.291-.623c-.194-.166-.512-.332-.955-.498a18.402 18.402 0 0 0-1.62-.54c-1.717-.61-3.158-1.177-4.321-1.703-1.135-.526-1.994-1.163-2.575-1.911-.554-.776-.831-1.8-.831-3.074 0-1.496.374-2.811 1.121-3.947.748-1.163 1.814-2.077 3.199-2.742 1.413-.664 3.102-.996 5.068-.996 1.468 0 2.936.235 4.404.706 1.495.443 2.935 1.26 4.32 2.45l-2.991 4.82c-1.385-.859-2.562-1.468-3.531-1.828-.942-.36-1.786-.54-2.534-.54-.36 0-.679.041-.956.124a1.246 1.246 0 0 0-.581.374c-.139.166-.208.388-.208.665s.097.512.291.706c.194.166.498.332.914.498.415.139.941.305 1.578.499 1.884.554 3.421 1.122 4.612 1.703 1.191.554 2.063 1.233 2.617 2.036.581.803.872 1.855.872 3.157 0 2.299-.817 4.099-2.451 5.4-1.606 1.302-3.808 1.953-6.605 1.953Z" fill="#FB0"></path><path d="M84.907 27.801a28.34 28.34 0 0 1-.889.347c-.347.13-.722.231-1.127.303-.39.087-.787.13-1.192.13a3.772 3.772 0 0 1-1.474-.281 2.41 2.41 0 0 1-1.084-.889c-.26-.419-.39-.96-.39-1.625v-6.524h-1.495v-2.233h1.495v-3.684h2.905v3.684h2.384v2.233h-2.384v5.548c.014.39.122.672.325.846.202.173.455.26.758.26.304 0 .6-.05.889-.152.289-.101.52-.188.694-.26l.585 2.297Zm1.513.586V17.029h2.904v11.358h-2.905Zm0-12.94v-2.882h2.904v2.882h-2.905Zm16.079 12.94h-2.904v-6.373c0-.91-.16-1.575-.477-1.994-.318-.419-.759-.628-1.322-.628-.39 0-.788.1-1.192.303-.39.203-.745.484-1.062.846-.318.346-.55.75-.694 1.213v6.633h-2.904V17.029h2.622v2.103a4.123 4.123 0 0 1 1.106-1.236c.448-.347.96-.607 1.539-.78a6.131 6.131 0 0 1 1.864-.282c.707 0 1.286.13 1.733.39.463.246.81.586 1.041 1.02.245.418.412.895.498 1.43.101.534.152 1.076.152 1.625v7.088Zm2.573 2.21c.26.058.499.109.716.152.231.043.426.065.585.065.274 0 .498-.072.672-.217.187-.13.368-.375.542-.737.173-.346.354-.838.541-1.473l-4.486-11.358h3.013l3.056 8.388 2.687-8.388h2.774l-4.768 13.612c-.173.505-.441.96-.802 1.365a3.472 3.472 0 0 1-1.322.975c-.52.246-1.105.369-1.756.369a3.78 3.78 0 0 1-.693-.065 4.337 4.337 0 0 1-.759-.173v-2.515Z" fill="#F88"></path><path d="M.76 36.828c0-16.726 13.56-30.286 30.286-30.286 16.727 0 30.287 13.56 30.287 30.286 0 16.727-13.56 30.287-30.287 30.287C14.32 67.115.76 53.555.76 36.828Z" fill="#fff"></path><path fill-rule="evenodd" clip-rule="evenodd" d="M31.046 6.542C14.32 6.542.76 20.102.76 36.828c0 16.727 13.56 30.287 30.286 30.287 16.727 0 30.287-13.56 30.287-30.287 0-16.726-13.56-30.286-30.287-30.286Zm18.172 23.472a4.543 4.543 0 1 0 0-9.086 4.543 4.543 0 0 0 0 9.086Zm-4.543 4.543a4.543 4.543 0 1 1-9.086 0 4.543 4.543 0 0 1 9.086 0ZM31.046 48.186a4.543 4.543 0 1 0 0-9.086 4.543 4.543 0 0 0 0 9.086Zm-4.543 4.543a4.543 4.543 0 1 1-9.086 0 4.543 4.543 0 0 1 9.086 0Zm-13.629-4.543a4.543 4.543 0 1 0 0-9.086 4.543 4.543 0 0 0 0 9.086Z" fill="#00B0DC"></path></svg>