<svg width="260" height="260" viewBox="0 0 260 260" fill="none" xmlns="http://www.w3.org/2000/svg">
<circle cx="130" cy="130" r="130" fill="white"/>
<circle cx="130" cy="130" r="125" stroke="#FF8888" stroke-opacity="0.5" stroke-width="10" stroke-dasharray="10 10"/>
<path d="M80.3418 68C79.2871 64.1328 78.5254 60.9492 78.0566 58.4492C77.5879 55.9492 77.2559 53.9766 77.0605 52.5312C76.9043 51.0469 76.8457 49.9922 76.8848 49.3672C76.9238 48.7031 76.9434 48.293 76.9434 48.1367C76.9043 47.5117 76.9824 46.8477 77.1777 46.1445C77.4121 45.4414 77.959 44.8555 78.8184 44.3867C79.834 43.7227 80.7715 43.3516 81.6309 43.2734C82.5293 43.1562 83.0176 43.1367 83.0957 43.2148C82.9004 43.6445 82.7832 44.1328 82.7441 44.6797C82.7051 45.2266 82.7441 46.0273 82.8613 47.082C82.9785 48.0977 83.1543 49.4844 83.3887 51.2422C83.6621 52.9609 84.0137 55.2461 84.4434 58.0977C84.7559 60.207 85.0879 62.2578 85.4395 64.25C85.8301 66.2422 86.2012 68.1367 86.5527 69.9336C86.9434 71.6914 87.3145 73.332 87.666 74.8555C88.0176 76.3789 88.3496 77.7266 88.6621 78.8984C88.8965 77.8828 89.1309 76.7109 89.3652 75.3828C89.6387 74.0156 89.9121 72.5703 90.1855 71.0469C90.498 69.5234 90.8301 67.9609 91.1816 66.3594C91.5723 64.7578 91.9824 63.1758 92.4121 61.6133C92.8418 59.6992 93.3105 57.7656 93.8184 55.8125C94.248 54.1328 94.7363 52.3359 95.2832 50.4219C95.8691 48.4688 96.4941 46.6719 97.1582 45.0312C98.0957 44.4844 98.9746 44.1328 99.7949 43.9766C100.654 43.8203 101.396 43.7812 102.021 43.8594C102.725 43.9375 103.389 44.0938 104.014 44.3281C103.623 45.1484 103.213 46.1055 102.783 47.1992C102.354 48.2539 101.924 49.3672 101.494 50.5391C101.104 51.6719 100.713 52.8438 100.322 54.0547C99.9316 55.2656 99.5605 56.4375 99.209 57.5703C98.3887 60.2656 97.5684 63.0195 96.748 65.832C96.084 68.1758 95.4395 70.5586 94.8145 72.9805C94.2676 75.0508 93.7012 77.2773 93.1152 79.6602C92.5684 82.043 92.0801 84.2891 91.6504 86.3984C91.6504 86.5938 91.416 86.8086 90.9473 87.043C90.5176 87.2773 89.9902 87.4727 89.3652 87.6289C88.7793 87.8242 88.1348 87.9414 87.4316 87.9805C86.7676 88.0586 86.1816 88 85.6738 87.8047C84.9707 86.0078 84.3066 83.9766 83.6816 81.7109C83.0566 79.4062 82.4902 77.2383 81.9824 75.207C81.3965 72.8242 80.8496 70.4219 80.3418 68ZM118.369 80.0117C118.447 80.2852 118.564 80.5391 118.721 80.7734C118.838 80.9688 118.994 81.1641 119.189 81.3594C119.424 81.5156 119.697 81.6133 120.01 81.6523C119.736 82.1992 119.463 82.5703 119.189 82.7656C119.033 82.8828 118.896 82.9609 118.779 83C118.428 83.1172 117.9 83.1758 117.197 83.1758C116.494 83.1758 115.811 82.9609 115.146 82.5312C114.912 82.3359 114.697 82.043 114.502 81.6523C114.307 81.3398 114.131 80.9102 113.975 80.3633C113.857 79.7773 113.76 79.0352 113.682 78.1367C113.135 79.3086 112.51 80.2461 111.807 80.9492C111.143 81.6133 110.479 82.1016 109.814 82.4141C109.072 82.8438 108.311 83.0977 107.529 83.1758C106.553 83.2539 105.615 83.0977 104.717 82.707C103.857 82.2773 103.115 81.6523 102.49 80.832C101.904 79.9727 101.455 78.9375 101.143 77.7266C100.83 76.5156 100.732 75.1484 100.85 73.625C100.967 72.0234 101.279 70.5977 101.787 69.3477C102.295 68.0977 102.9 66.9844 103.604 66.0078C104.307 65.0312 105.049 64.2109 105.83 63.5469C106.611 62.8438 107.354 62.2773 108.057 61.8477C108.799 61.3789 109.424 61.0469 109.932 60.8516C110.479 60.6172 110.83 60.4805 110.986 60.4414C111.416 60.3242 111.787 60.2852 112.1 60.3242C112.412 60.3633 112.686 60.5391 112.92 60.8516C112.998 60.9688 113.096 61.1055 113.213 61.2617C113.291 61.418 113.389 61.6328 113.506 61.9062C113.623 62.1406 113.721 62.4141 113.799 62.7266C112.861 63.1562 111.982 63.6445 111.162 64.1914C110.342 64.6992 109.58 65.3242 108.877 66.0664C108.213 66.8086 107.627 67.707 107.119 68.7617C106.611 69.8164 106.221 71.1055 105.947 72.6289C105.557 74.543 105.654 76.0859 106.24 77.2578C106.865 78.4297 107.705 78.918 108.76 78.7227C109.385 78.5273 109.99 78.1562 110.576 77.6094C111.084 77.1406 111.611 76.4375 112.158 75.5C112.744 74.5625 113.291 73.2734 113.799 71.6328C113.994 69.2891 114.15 67.4531 114.268 66.125C114.424 64.7578 114.561 63.7227 114.678 63.0195C114.834 62.1992 114.951 61.6523 115.029 61.3789C115.146 61.1836 115.381 61.0078 115.732 60.8516C116.084 60.6562 116.475 60.5 116.904 60.3828C117.334 60.2656 117.725 60.207 118.076 60.207C118.428 60.168 118.662 60.168 118.779 60.207C118.857 60.2461 118.896 60.7344 118.896 61.6719C118.896 62.5703 118.857 63.7227 118.779 65.1289C118.74 66.4961 118.682 68 118.604 69.6406C118.525 71.2422 118.447 72.7656 118.369 74.2109C118.33 75.6562 118.291 76.9258 118.252 78.0195C118.252 79.0742 118.291 79.7383 118.369 80.0117ZM131.025 45.0312C130.947 46.4375 130.811 48.0586 130.615 49.8945C130.42 51.7305 130.205 53.7031 129.971 55.8125C129.775 57.9219 129.561 60.1289 129.326 62.4336C129.131 64.7383 128.955 67.0625 128.799 69.4062C128.643 71.75 128.564 73.6641 128.564 75.1484C128.604 76.5938 128.701 77.7852 128.857 78.7227C129.014 79.6602 129.229 80.4023 129.502 80.9492C129.775 81.4961 130.127 82.0234 130.557 82.5312C130.049 82.8438 129.58 83.0781 129.15 83.2344C128.721 83.3906 128.35 83.5078 128.037 83.5859C127.646 83.7031 127.295 83.7617 126.982 83.7617C126.396 83.7617 125.889 83.4883 125.459 82.9414C125.029 82.3555 124.678 81.6133 124.404 80.7148C124.17 79.8164 123.975 78.8203 123.818 77.7266C123.701 76.5938 123.643 75.4805 123.643 74.3867C123.643 73.2148 123.682 71.8672 123.76 70.3438C123.838 68.7812 123.916 67.1406 123.994 65.4219C124.111 63.6641 124.229 61.8477 124.346 59.9727C124.463 58.0586 124.561 56.1641 124.639 54.2891C124.717 52.8438 124.795 51.5352 124.873 50.3633C124.951 49.3477 125.01 48.4297 125.049 47.6094C125.088 46.75 125.068 46.2422 124.99 46.0859C125.225 45.7734 125.518 45.5391 125.869 45.3828C126.221 45.2266 126.553 45.0898 126.865 44.9727C127.256 44.8555 127.646 44.7578 128.037 44.6797H129.15C129.463 44.6797 129.795 44.7188 130.146 44.7969C130.498 44.8359 130.791 44.9141 131.025 45.0312ZM141.396 45.0312C141.318 46.4375 141.182 48.0586 140.986 49.8945C140.791 51.7305 140.576 53.7031 140.342 55.8125C140.146 57.9219 139.932 60.1289 139.697 62.4336C139.502 64.7383 139.326 67.0625 139.17 69.4062C139.014 71.75 138.936 73.6641 138.936 75.1484C138.975 76.5938 139.072 77.7852 139.229 78.7227C139.385 79.6602 139.6 80.4023 139.873 80.9492C140.146 81.4961 140.498 82.0234 140.928 82.5312C140.42 82.8438 139.951 83.0781 139.521 83.2344C139.092 83.3906 138.721 83.5078 138.408 83.5859C138.018 83.7031 137.666 83.7617 137.354 83.7617C136.768 83.7617 136.26 83.4883 135.83 82.9414C135.4 82.3555 135.049 81.6133 134.775 80.7148C134.541 79.8164 134.346 78.8203 134.189 77.7266C134.072 76.5938 134.014 75.4805 134.014 74.3867C134.014 73.2148 134.053 71.8672 134.131 70.3438C134.209 68.7812 134.287 67.1406 134.365 65.4219C134.482 63.6641 134.6 61.8477 134.717 59.9727C134.834 58.0586 134.932 56.1641 135.01 54.2891C135.088 52.8438 135.166 51.5352 135.244 50.3633C135.322 49.3477 135.381 48.4297 135.42 47.6094C135.459 46.75 135.439 46.2422 135.361 46.0859C135.596 45.7734 135.889 45.5391 136.24 45.3828C136.592 45.2266 136.924 45.0898 137.236 44.9727C137.627 44.8555 138.018 44.7578 138.408 44.6797H139.521C139.834 44.6797 140.166 44.7188 140.518 44.7969C140.869 44.8359 141.162 44.9141 141.396 45.0312ZM152.002 83.6445C149.268 83.6445 147.158 82.7266 145.674 80.8906C144.189 79.0547 143.447 76.6523 143.447 73.6836C143.447 71.6133 143.74 69.6797 144.326 67.8828C144.951 66.0469 145.771 64.4648 146.787 63.1367C147.803 61.8086 148.975 60.7734 150.303 60.0312C151.67 59.25 153.096 58.8594 154.58 58.8594C156.025 58.8594 157.256 59.3867 158.271 60.4414C159.287 61.457 159.795 62.9219 159.795 64.8359C159.795 66.0859 159.521 67.3359 158.975 68.5859C158.428 69.7969 157.705 70.8906 156.807 71.8672C155.947 72.8047 154.99 73.5664 153.936 74.1523C152.881 74.7383 151.865 75.0312 150.889 75.0312C150.264 75.0312 149.736 74.9531 149.307 74.7969C148.877 74.6406 148.486 74.4062 148.135 74.0938C148.252 76.3203 148.74 77.8828 149.6 78.7812C150.459 79.6406 151.572 80.0703 152.939 80.0703C153.877 80.0703 154.697 79.875 155.4 79.4844C156.143 79.0938 156.768 78.6445 157.275 78.1367C157.783 77.6289 158.193 77.1211 158.506 76.6133C158.818 76.0664 159.033 75.6562 159.15 75.3828C159.268 75.1484 159.463 75.0312 159.736 75.0312C160.049 75.0312 160.205 75.2656 160.205 75.7344C160.205 76.1641 160.049 76.8281 159.736 77.7266C159.463 78.5859 158.994 79.4648 158.33 80.3633C157.666 81.2227 156.807 81.9844 155.752 82.6484C154.736 83.3125 153.486 83.6445 152.002 83.6445ZM154.697 61.3789C154.463 61.3789 154.014 61.6328 153.35 62.1406C152.725 62.6094 152.041 63.3125 151.299 64.25C150.596 65.1875 149.932 66.3203 149.307 67.6484C148.721 68.9375 148.35 70.4023 148.193 72.043C150.537 71.4961 152.393 70.6367 153.76 69.4648C155.127 68.293 155.811 66.5742 155.811 64.3086C155.811 63.1758 155.674 62.4141 155.4 62.0234C155.127 61.5938 154.893 61.3789 154.697 61.3789ZM180.947 60.5C181.025 63.9375 181.084 66.9453 181.123 69.5234C181.162 72.1016 181.201 74.2695 181.24 76.0273C181.279 78.0977 181.299 79.875 181.299 81.3594C181.338 83.1953 181.182 85.0898 180.83 87.043C180.518 89.0352 179.99 90.8516 179.248 92.4922C178.506 94.1328 177.529 95.4805 176.318 96.5352C175.107 97.5898 173.643 98.1172 171.924 98.1172C169.854 98.1172 168.271 97.6875 167.178 96.8281C166.084 96.0078 165.283 95.0703 164.775 94.0156C164.268 92.9609 163.975 91.9648 163.896 91.0273C163.818 90.1289 163.779 89.6016 163.779 89.4453C163.779 89.1328 163.975 88.7812 164.365 88.3906C164.756 88 165.342 87.6484 166.123 87.3359C166.436 87.2188 166.748 87.1211 167.061 87.043C167.334 86.9648 167.607 86.9062 167.881 86.8672C168.154 86.8281 168.408 86.8477 168.643 86.9258C168.252 87.6289 168.018 88.4297 167.939 89.3281C167.9 90.2266 168.018 91.0664 168.291 91.8477C168.604 92.668 169.053 93.3516 169.639 93.8984C170.225 94.4453 170.967 94.7188 171.865 94.7188C173.115 94.7188 174.092 94.3477 174.795 93.6055C175.537 92.9023 176.084 92.0234 176.436 90.9688C176.826 89.9141 177.061 88.8008 177.139 87.6289C177.256 86.457 177.314 85.4219 177.314 84.5234C177.314 83.8203 177.295 82.9219 177.256 81.8281C177.256 80.6953 177.197 79.4453 177.08 78.0781C176.611 78.8594 176.064 79.6211 175.439 80.3633C174.814 81.0664 174.15 81.6914 173.447 82.2383C172.744 82.7852 172.021 83.2148 171.279 83.5273C170.576 83.8789 169.873 84.0547 169.17 84.0547C167.959 84.0547 166.982 83.6836 166.24 82.9414C165.498 82.1602 164.932 81.2031 164.541 80.0703C164.15 78.8984 163.877 77.6484 163.721 76.3203C163.604 74.9531 163.545 73.7031 163.545 72.5703C163.545 71.7109 163.584 70.6758 163.662 69.4648C163.74 68.2148 163.838 67.0234 163.955 65.8906C164.072 64.7578 164.209 63.7812 164.365 62.9609C164.561 62.1016 164.756 61.6133 164.951 61.4961C166.084 60.832 167.197 60.4609 168.291 60.3828C169.385 60.3047 170.205 60.4414 170.752 60.793C170.283 61.1445 169.893 61.7305 169.58 62.5508C169.268 63.3711 169.014 64.2891 168.818 65.3047C168.623 66.2812 168.486 67.3164 168.408 68.4102C168.33 69.4648 168.291 70.4219 168.291 71.2812C168.291 71.9844 168.311 72.8242 168.35 73.8008C168.389 74.7773 168.467 75.7148 168.584 76.6133C168.74 77.5117 168.955 78.2734 169.229 78.8984C169.502 79.5234 169.854 79.8359 170.283 79.8359C171.143 79.8359 171.943 79.5234 172.686 78.8984C173.428 78.2734 174.072 77.4922 174.619 76.5547C175.205 75.6172 175.654 74.6211 175.967 73.5664C176.279 72.4727 176.436 71.457 176.436 70.5195V70.0508C176.357 69.0352 176.279 68.0781 176.201 67.1797C176.123 66.2422 176.045 65.4023 175.967 64.6602C175.928 63.918 175.889 63.3125 175.85 62.8438C175.85 62.3359 175.85 62.0039 175.85 61.8477C175.85 61.457 176.104 61.1055 176.611 60.793C177.158 60.4805 177.744 60.2656 178.369 60.1484C179.033 59.9922 179.619 59.9336 180.127 59.9727C180.674 60.0117 180.947 60.1875 180.947 60.5ZM91.7383 117.922C91.6602 119.445 91.3867 120.852 90.918 122.141C90.4883 123.43 89.8828 124.562 89.1016 125.539C88.3203 126.477 87.3828 127.219 86.2891 127.766C85.2344 128.312 84.0625 128.605 82.7734 128.645C81.6406 128.684 80.5664 128.41 79.5508 127.824C78.5742 127.238 77.7148 126.418 76.9727 125.363C76.2305 124.309 75.6641 123.059 75.2734 121.613C74.9219 120.129 74.8242 118.527 74.9805 116.809C75.0977 114.816 75.4688 113.117 76.0938 111.711C76.7188 110.266 77.3828 109.074 78.0859 108.137C78.7891 107.199 79.4336 106.516 80.0195 106.086C80.6445 105.617 81.0352 105.344 81.1914 105.266C81.4648 105.148 81.7188 105.129 81.9531 105.207C82.1875 105.246 82.4414 105.305 82.7148 105.383C82.793 105.422 82.8711 105.52 82.9492 105.676C83.1055 105.949 83.2031 106.457 83.2422 107.199C83.4375 106.77 83.6914 106.418 84.0039 106.145C84.3164 105.871 84.6289 105.676 84.9414 105.559C85.332 105.402 85.7227 105.305 86.1133 105.266C86.3867 105.227 86.8555 105.441 87.5195 105.91C88.2227 106.379 88.8867 107.121 89.5117 108.137C90.1758 109.152 90.7422 110.48 91.2109 112.121C91.6797 113.723 91.8555 115.656 91.7383 117.922ZM87.7539 117.219C87.793 116.281 87.7539 115.344 87.6367 114.406C87.5586 113.43 87.4023 112.551 87.168 111.77C86.9727 110.949 86.7188 110.305 86.4062 109.836C86.0938 109.328 85.7812 109.074 85.4688 109.074C85.1172 109.152 84.7266 109.328 84.2969 109.602C83.9453 109.836 83.5547 110.207 83.125 110.715C82.6953 111.223 82.2852 111.945 81.8945 112.883C81.8555 112.766 81.8164 112.551 81.7773 112.238C81.7383 111.965 81.6992 111.613 81.6602 111.184C81.6602 110.715 81.6992 110.09 81.7773 109.309C81.2305 109.973 80.8008 110.754 80.4883 111.652C80.2148 112.551 80 113.41 79.8438 114.23C79.6875 115.207 79.5703 116.184 79.4922 117.16C79.4531 118.215 79.4922 119.25 79.6094 120.266C79.7656 121.281 80 122.18 80.3125 122.961C80.6641 123.742 81.0742 124.367 81.543 124.836C82.0117 125.305 82.5781 125.52 83.2422 125.48C83.9062 125.441 84.4922 125.168 85 124.66C85.5078 124.152 85.957 123.508 86.3477 122.727C86.7383 121.945 87.0508 121.066 87.2852 120.09C87.5195 119.113 87.6758 118.156 87.7539 117.219ZM105.977 89.9141C107.109 89.9922 108.125 90.2656 109.023 90.7344C109.805 91.1641 110.508 91.8477 111.133 92.7852C111.758 93.6836 112.09 94.9727 112.129 96.6523C111.543 97.082 110.957 97.3945 110.371 97.5898C109.785 97.7852 109.258 97.9219 108.789 98C108.242 98.0781 107.715 98.0781 107.207 98C107.363 96.9062 107.363 96.0664 107.207 95.4805C107.09 94.8945 106.914 94.4648 106.68 94.1914C106.406 93.8789 106.055 93.7031 105.625 93.6641C104.336 93.6641 103.379 94.6406 102.754 96.5938C102.168 98.5078 101.816 101.145 101.699 104.504C102.246 104.426 102.734 104.328 103.164 104.211C103.594 104.094 104.082 104.016 104.629 103.977C105.137 103.938 105.625 103.918 106.094 103.918C106.523 103.918 106.953 103.957 107.383 104.035C107.852 104.113 108.281 104.25 108.672 104.445C108.75 105.109 108.75 105.715 108.672 106.262C108.594 106.809 108.477 107.297 108.32 107.727C108.164 108.195 107.949 108.645 107.676 109.074C107.207 108.84 106.621 108.684 105.918 108.605C105.254 108.527 104.609 108.488 103.984 108.488C103.242 108.488 102.48 108.527 101.699 108.605C101.738 110.402 101.777 112.102 101.816 113.703C101.855 115.266 101.895 116.809 101.934 118.332C102.012 119.816 102.09 121.32 102.168 122.844C102.246 124.328 102.324 125.852 102.402 127.414C101.973 127.961 101.504 128.293 100.996 128.41C100.527 128.566 100.078 128.625 99.6484 128.586C99.1406 128.547 98.6328 128.41 98.125 128.176C97.8125 125.598 97.5586 123.176 97.3633 120.91C97.207 118.605 97.0703 116.594 96.9531 114.875C96.7969 112.883 96.6797 111.047 96.6016 109.367C95.9375 109.445 95.3711 109.504 94.9023 109.543C94.4727 109.543 94.1406 109.523 93.9062 109.484C93.75 109.484 93.6719 109.367 93.6719 109.133L93.6133 106.379C93.6133 106.223 93.6914 106.145 93.8477 106.145C94.1211 106.066 94.4727 105.988 94.9023 105.91C95.3711 105.793 95.918 105.656 96.543 105.5C96.6992 100.539 97.5391 96.7109 99.0625 94.0156C100.586 91.2812 102.891 89.9141 105.977 89.9141ZM144.414 101.926C143.984 101.848 143.398 101.77 142.656 101.691C141.953 101.613 141.23 101.555 140.488 101.516C139.629 101.477 138.711 101.457 137.734 101.457C136.758 101.379 135.527 101.379 134.043 101.457C132.598 101.496 131.074 101.516 129.473 101.516C129.434 102.531 129.355 103.566 129.238 104.621C129.16 105.676 129.082 106.711 129.004 107.727C128.809 109.602 128.633 111.516 128.477 113.469C128.359 115.422 128.301 117.277 128.301 119.035C128.301 120.793 128.398 122.395 128.594 123.84C128.828 125.246 129.238 126.359 129.824 127.18C129.355 127.531 128.848 127.805 128.301 128C127.754 128.156 127.266 128.273 126.836 128.352C126.328 128.469 125.82 128.527 125.312 128.527C124.844 128.527 124.453 128.371 124.141 128.059C123.828 127.746 123.652 127.199 123.613 126.418C123.535 125.09 123.516 123.762 123.555 122.434C123.633 121.066 123.711 119.641 123.789 118.156C123.906 116.672 124.023 115.09 124.141 113.41C124.258 111.691 124.375 109.816 124.492 107.785C124.609 105.676 124.668 103.625 124.668 101.633C123.184 101.672 121.934 101.691 120.918 101.691C119.902 101.691 119.336 101.672 119.219 101.633C119.102 101.555 118.965 101.379 118.809 101.105C118.652 100.871 118.457 100.52 118.223 100.051C117.949 99.582 117.617 98.918 117.227 98.0586C117.969 98.0586 118.789 98.0586 119.688 98.0586C120.547 98.0586 121.348 98.0391 122.09 98C122.949 97.9609 123.809 97.9219 124.668 97.8828C124.629 97.2578 124.609 96.5938 124.609 95.8906C124.57 95.3438 124.551 94.7383 124.551 94.0742C124.551 93.3711 124.531 92.7266 124.492 92.1406C124.492 91.9062 124.766 91.6328 125.312 91.3203C125.898 90.9688 126.523 90.6562 127.188 90.3828C127.852 90.1094 128.457 89.9336 129.004 89.8555C129.59 89.7773 129.883 89.9141 129.883 90.2656C129.883 90.6172 129.863 91.4766 129.824 92.8438C129.824 94.1719 129.785 95.793 129.707 97.707C130.098 97.707 130.391 97.6875 130.586 97.6484C132.656 97.5703 134.316 97.4922 135.566 97.4141C136.855 97.2969 137.91 97.2773 138.73 97.3555C139.551 97.4336 140.273 97.6289 140.898 97.9414C141.523 98.2539 142.227 98.7617 143.008 99.4648C143.281 99.6992 143.516 99.9531 143.711 100.227C143.906 100.461 144.062 100.734 144.18 101.047C144.336 101.32 144.414 101.613 144.414 101.926ZM139.492 118.801C139.961 117.395 140.352 116.203 140.664 115.227C141.016 114.25 141.309 113.469 141.543 112.883C141.816 112.18 142.051 111.613 142.246 111.184C142.48 110.559 142.734 109.934 143.008 109.309C143.32 108.684 143.633 108.117 143.945 107.609C144.258 107.062 144.551 106.613 144.824 106.262C145.098 105.91 145.332 105.676 145.527 105.559C145.684 105.48 146.035 105.48 146.582 105.559C147.168 105.637 147.793 105.832 148.457 106.145C149.16 106.418 149.805 106.809 150.391 107.316C151.016 107.824 151.445 108.449 151.68 109.191C151.914 110.09 151.992 111.262 151.914 112.707C151.836 114.152 151.719 115.637 151.562 117.16C151.445 118.684 151.348 120.129 151.27 121.496C151.23 122.863 151.328 123.898 151.562 124.602C151.719 124.992 151.875 125.383 152.031 125.773C152.188 126.086 152.363 126.418 152.559 126.77C152.793 127.082 153.047 127.355 153.32 127.59C152.188 128.02 151.27 128.332 150.566 128.527C149.902 128.762 149.395 128.918 149.043 128.996C148.613 129.113 148.32 129.133 148.164 129.055C147.852 128.938 147.559 128.645 147.285 128.176C147.012 127.707 146.777 126.965 146.582 125.949C146.504 125.637 146.484 125.09 146.523 124.309C146.562 123.527 146.621 122.648 146.699 121.672C146.777 120.695 146.855 119.68 146.934 118.625C147.012 117.531 147.09 116.516 147.168 115.578C147.246 114.641 147.285 113.82 147.285 113.117C147.324 112.414 147.324 111.945 147.285 111.711C147.09 111.047 146.816 110.578 146.465 110.305C146.113 109.992 145.84 109.953 145.645 110.188C145.176 110.773 144.648 111.789 144.062 113.234C143.516 114.641 142.988 116.184 142.48 117.863C141.973 119.504 141.523 121.145 141.133 122.785C140.781 124.426 140.566 125.773 140.488 126.828C140.488 127.062 140.293 127.316 139.902 127.59C139.551 127.824 139.141 128.039 138.672 128.234C138.242 128.43 137.812 128.547 137.383 128.586C136.953 128.664 136.66 128.605 136.504 128.41C136.387 128.293 136.133 128.02 135.742 127.59C135.391 127.16 135.195 126.438 135.156 125.422C135.078 124.445 135.078 123.117 135.156 121.438C135.234 119.719 135.254 117.922 135.215 116.047V111.711C135.215 109.953 135.195 107.531 135.156 104.445C135.156 101.32 135.137 97.1992 135.098 92.082C135.527 91.8477 135.918 91.6523 136.27 91.4961C136.621 91.3008 136.953 91.1445 137.266 91.0273C137.617 90.8711 137.949 90.7539 138.262 90.6758C139.941 90.2461 140.82 90.2461 140.898 90.6758C140.938 91.0664 140.898 92.3164 140.781 94.4258C140.742 95.3242 140.684 96.457 140.605 97.8242C140.527 99.1914 140.43 100.852 140.312 102.805C140.234 104.758 140.117 107.062 139.961 109.719C139.844 112.336 139.688 115.363 139.492 118.801ZM163.984 128.645C161.25 128.645 159.141 127.727 157.656 125.891C156.172 124.055 155.43 121.652 155.43 118.684C155.43 116.613 155.723 114.68 156.309 112.883C156.934 111.047 157.754 109.465 158.77 108.137C159.785 106.809 160.957 105.773 162.285 105.031C163.652 104.25 165.078 103.859 166.562 103.859C168.008 103.859 169.238 104.387 170.254 105.441C171.27 106.457 171.777 107.922 171.777 109.836C171.777 111.086 171.504 112.336 170.957 113.586C170.41 114.797 169.688 115.891 168.789 116.867C167.93 117.805 166.973 118.566 165.918 119.152C164.863 119.738 163.848 120.031 162.871 120.031C162.246 120.031 161.719 119.953 161.289 119.797C160.859 119.641 160.469 119.406 160.117 119.094C160.234 121.32 160.723 122.883 161.582 123.781C162.441 124.641 163.555 125.07 164.922 125.07C165.859 125.07 166.68 124.875 167.383 124.484C168.125 124.094 168.75 123.645 169.258 123.137C169.766 122.629 170.176 122.121 170.488 121.613C170.801 121.066 171.016 120.656 171.133 120.383C171.25 120.148 171.445 120.031 171.719 120.031C172.031 120.031 172.188 120.266 172.188 120.734C172.188 121.164 172.031 121.828 171.719 122.727C171.445 123.586 170.977 124.465 170.312 125.363C169.648 126.223 168.789 126.984 167.734 127.648C166.719 128.312 165.469 128.645 163.984 128.645ZM166.68 106.379C166.445 106.379 165.996 106.633 165.332 107.141C164.707 107.609 164.023 108.312 163.281 109.25C162.578 110.188 161.914 111.32 161.289 112.648C160.703 113.938 160.332 115.402 160.176 117.043C162.52 116.496 164.375 115.637 165.742 114.465C167.109 113.293 167.793 111.574 167.793 109.309C167.793 108.176 167.656 107.414 167.383 107.023C167.109 106.594 166.875 106.379 166.68 106.379ZM54.9414 146.984C54.6289 146.945 54.3164 146.75 54.0039 146.398C53.7305 146.047 53.4766 145.656 53.2422 145.227C52.9688 144.758 52.7148 144.211 52.4805 143.586C52.207 142.805 52.0312 142.141 51.9531 141.594C51.9141 141.008 51.9531 140.5 52.0703 140.07C52.1875 139.641 52.3828 139.25 52.6562 138.898C52.9297 138.547 53.2617 138.195 53.6523 137.844C54.1211 137.414 54.9805 136.867 56.2305 136.203C57.4805 135.539 58.9258 134.973 60.5664 134.504V133.918C60.5664 133.723 60.5664 133.547 60.5664 133.391C60.6055 133.234 60.625 133.078 60.625 132.922L65.2539 131.398C65.5664 131.281 65.8984 131.281 66.25 131.398C66.6016 131.477 66.7383 131.828 66.6602 132.453C66.6602 132.648 66.6406 132.844 66.6016 133.039C66.6016 133.234 66.582 133.449 66.543 133.684C69.043 133.762 71.3086 134.27 73.3398 135.207C75.4102 136.145 77.168 137.434 78.6133 139.074C80.0977 140.676 81.25 142.59 82.0703 144.816C82.8906 147.043 83.3008 149.465 83.3008 152.082C83.3008 155.949 82.7539 159.309 81.6602 162.16C80.5664 165.012 79.1406 167.434 77.3828 169.426C75.625 171.418 73.6328 173.02 71.4062 174.23C69.1797 175.441 66.9531 176.32 64.7266 176.867C64.4531 177.141 64.082 177.414 63.6133 177.688C63.1445 177.961 62.6367 178.195 62.0898 178.391C61.543 178.586 60.9766 178.723 60.3906 178.801C59.8438 178.918 59.3555 178.938 58.9258 178.859C58.9258 178.781 58.9258 178.664 58.9258 178.508C58.9648 178.352 58.9844 178.215 58.9844 178.098C58.9844 177.941 59.0039 177.785 59.043 177.629C57.5195 177.707 56.1914 177.629 55.0586 177.395C54.7852 177.238 54.5312 176.945 54.2969 176.516C54.1797 176.359 54.082 176.164 54.0039 175.93C53.8867 175.734 53.8086 175.539 53.7695 175.344C53.6523 174.992 53.6523 174.562 53.7695 174.055C55.6836 174.289 57.5195 174.289 59.2773 174.055C59.3945 172.375 59.5117 170.344 59.6289 167.961C59.7461 165.539 59.8633 162.922 59.9805 160.109C60.0586 158.469 60.1172 156.73 60.1562 154.895C60.2344 153.02 60.293 151.164 60.332 149.328C60.3711 147.453 60.4102 145.637 60.4492 143.879C60.4883 142.121 60.5078 140.5 60.5078 139.016C58.6328 139.758 57.168 140.832 56.1133 142.238C55.0977 143.605 54.707 145.188 54.9414 146.984ZM65.4297 147.336C65.2734 149.953 65.1562 152.512 65.0781 155.012C65 157.512 64.9414 159.875 64.9023 162.102C64.9023 164.328 64.9219 166.359 64.9609 168.195C65 169.992 65.0391 171.516 65.0781 172.766C68.8281 171.359 71.8164 168.996 74.043 165.676C76.3086 162.355 77.4414 158.195 77.4414 153.195C77.4414 151.008 77.168 149.016 76.6211 147.219C76.1133 145.383 75.3711 143.82 74.3945 142.531C73.418 141.203 72.2461 140.168 70.8789 139.426C69.5117 138.684 68.0078 138.273 66.3672 138.195H66.1328C66.0156 139.367 65.8984 140.715 65.7812 142.238C65.6641 143.723 65.5469 145.422 65.4297 147.336ZM102.52 155.012C102.52 155.559 102.363 156.125 102.051 156.711C101.777 157.258 101.426 157.785 100.996 158.293C100.566 158.801 100.078 159.25 99.5312 159.641C99.0234 159.992 98.5352 160.207 98.0664 160.285C98.3789 159.074 98.4766 158.137 98.3594 157.473C98.2422 156.809 98.0469 156.32 97.7734 156.008C97.4609 155.656 97.0703 155.461 96.6016 155.422C95.8984 155.422 95.2148 155.832 94.5508 156.652C93.9258 157.434 93.3789 158.41 92.9102 159.582C92.4414 160.715 92.0703 161.945 91.7969 163.273C91.5234 164.562 91.3867 165.734 91.3867 166.789C91.3477 167.531 91.3672 168.254 91.4453 168.957C91.4844 169.543 91.543 170.148 91.6211 170.773C91.7383 171.398 91.8945 171.887 92.0898 172.238C91.8555 172.434 91.4648 172.668 90.918 172.941C90.4102 173.215 89.8633 173.391 89.2773 173.469C88.7305 173.547 88.2227 173.449 87.7539 173.176C87.3242 172.902 87.0898 172.316 87.0508 171.418C86.9727 170.559 86.9141 169.602 86.875 168.547C86.875 167.453 86.875 166.379 86.875 165.324C86.9141 164.23 86.9531 163.156 86.9922 162.102C87.0312 161.047 87.0898 160.07 87.168 159.172C87.2461 157.453 87.2852 156.125 87.2852 155.188C87.2852 154.25 87.2656 153.352 87.2266 152.492C87.2266 152.336 87.4805 152.121 87.9883 151.848C88.5352 151.535 89.1211 151.262 89.7461 151.027C90.4102 150.793 91.0156 150.656 91.5625 150.617C92.1094 150.578 92.3828 150.695 92.3828 150.969C92.3828 151.398 92.3242 152.258 92.207 153.547C92.1289 154.797 92.0117 156.105 91.8555 157.473C92.1289 156.73 92.4805 155.93 92.9102 155.07C93.3789 154.211 93.9062 153.41 94.4922 152.668C95.0781 151.926 95.7422 151.32 96.4844 150.852C97.2266 150.344 98.0469 150.09 98.9453 150.09C99.6484 150.09 100.215 150.305 100.645 150.734C101.113 151.164 101.484 151.652 101.758 152.199C102.031 152.746 102.227 153.293 102.344 153.84C102.461 154.387 102.52 154.777 102.52 155.012ZM120.566 162.922C120.488 164.445 120.215 165.852 119.746 167.141C119.316 168.43 118.711 169.562 117.93 170.539C117.148 171.477 116.211 172.219 115.117 172.766C114.062 173.312 112.891 173.605 111.602 173.645C110.469 173.684 109.395 173.41 108.379 172.824C107.402 172.238 106.543 171.418 105.801 170.363C105.059 169.309 104.492 168.059 104.102 166.613C103.75 165.129 103.652 163.527 103.809 161.809C103.926 159.816 104.297 158.117 104.922 156.711C105.547 155.266 106.211 154.074 106.914 153.137C107.617 152.199 108.262 151.516 108.848 151.086C109.473 150.617 109.863 150.344 110.02 150.266C110.293 150.148 110.547 150.129 110.781 150.207C111.016 150.246 111.27 150.305 111.543 150.383C111.621 150.422 111.699 150.52 111.777 150.676C111.934 150.949 112.031 151.457 112.07 152.199C112.266 151.77 112.52 151.418 112.832 151.145C113.145 150.871 113.457 150.676 113.77 150.559C114.16 150.402 114.551 150.305 114.941 150.266C115.215 150.227 115.684 150.441 116.348 150.91C117.051 151.379 117.715 152.121 118.34 153.137C119.004 154.152 119.57 155.48 120.039 157.121C120.508 158.723 120.684 160.656 120.566 162.922ZM116.582 162.219C116.621 161.281 116.582 160.344 116.465 159.406C116.387 158.43 116.23 157.551 115.996 156.77C115.801 155.949 115.547 155.305 115.234 154.836C114.922 154.328 114.609 154.074 114.297 154.074C113.945 154.152 113.555 154.328 113.125 154.602C112.773 154.836 112.383 155.207 111.953 155.715C111.523 156.223 111.113 156.945 110.723 157.883C110.684 157.766 110.645 157.551 110.605 157.238C110.566 156.965 110.527 156.613 110.488 156.184C110.488 155.715 110.527 155.09 110.605 154.309C110.059 154.973 109.629 155.754 109.316 156.652C109.043 157.551 108.828 158.41 108.672 159.23C108.516 160.207 108.398 161.184 108.32 162.16C108.281 163.215 108.32 164.25 108.438 165.266C108.594 166.281 108.828 167.18 109.141 167.961C109.492 168.742 109.902 169.367 110.371 169.836C110.84 170.305 111.406 170.52 112.07 170.48C112.734 170.441 113.32 170.168 113.828 169.66C114.336 169.152 114.785 168.508 115.176 167.727C115.566 166.945 115.879 166.066 116.113 165.09C116.348 164.113 116.504 163.156 116.582 162.219ZM135.156 149.797C136.25 149.797 137.266 150.109 138.203 150.734C139.141 151.359 139.941 152.18 140.605 153.195C141.27 154.211 141.797 155.383 142.188 156.711C142.578 158 142.773 159.348 142.773 160.754C142.773 162.16 142.617 163.645 142.305 165.207C141.992 166.77 141.504 168.215 140.84 169.543C140.176 170.871 139.316 171.984 138.262 172.883C137.207 173.742 135.918 174.172 134.395 174.172C133.184 174.172 132.031 173.742 130.938 172.883C129.883 171.984 129.062 170.871 128.477 169.543C128.398 170.91 128.223 172.297 127.949 173.703C127.676 175.148 127.539 176.867 127.539 178.859C127.539 179.445 127.559 180.109 127.598 180.852C127.637 181.594 127.695 182.336 127.773 183.078C127.852 183.82 127.969 184.504 128.125 185.129C128.281 185.754 128.457 186.242 128.652 186.594C127.988 186.984 127.383 187.277 126.836 187.473C126.328 187.668 125.879 187.805 125.488 187.883C125.059 188 124.648 188.059 124.258 188.059C123.75 188.059 123.418 187.844 123.262 187.414C123.105 186.984 123.027 186.223 123.027 185.129C123.027 184.426 123.047 183.41 123.086 182.082C123.164 180.793 123.242 179.309 123.32 177.629C123.438 175.949 123.535 174.191 123.613 172.355C123.73 170.48 123.828 168.645 123.906 166.848C124.023 165.051 124.102 163.391 124.141 161.867C124.219 160.305 124.258 158.996 124.258 157.941C124.258 156.652 124.238 155.656 124.199 154.953C124.16 154.211 124.102 153.664 124.023 153.312C123.984 152.922 123.926 152.648 123.848 152.492C123.77 152.336 123.672 152.16 123.555 151.965C123.906 151.691 124.316 151.457 124.785 151.262C125.293 151.027 125.781 150.871 126.25 150.793C126.758 150.676 127.207 150.637 127.598 150.676C128.027 150.715 128.359 150.812 128.594 150.969C128.789 151.164 128.926 151.457 129.004 151.848C129.121 152.238 129.219 152.824 129.297 153.605C130.039 152.59 130.879 151.711 131.816 150.969C132.793 150.188 133.906 149.797 135.156 149.797ZM132.871 170.715C133.574 170.715 134.238 170.383 134.863 169.719C135.527 169.055 136.094 168.215 136.562 167.199C137.07 166.145 137.461 164.992 137.734 163.742C138.047 162.453 138.203 161.184 138.203 159.934C138.203 158.566 138.066 157.453 137.793 156.594C137.559 155.695 137.246 154.992 136.855 154.484C136.504 153.938 136.113 153.566 135.684 153.371C135.293 153.137 134.941 153.02 134.629 153.02C133.887 153.02 133.184 153.332 132.52 153.957C131.855 154.543 131.27 155.324 130.762 156.301C130.254 157.238 129.844 158.293 129.531 159.465C129.258 160.637 129.121 161.809 129.121 162.98C129.121 164.074 129.219 165.09 129.414 166.027C129.648 166.965 129.941 167.785 130.293 168.488C130.645 169.191 131.035 169.738 131.465 170.129C131.934 170.52 132.402 170.715 132.871 170.715ZM157.598 149.797C158.691 149.797 159.707 150.109 160.645 150.734C161.582 151.359 162.383 152.18 163.047 153.195C163.711 154.211 164.238 155.383 164.629 156.711C165.02 158 165.215 159.348 165.215 160.754C165.215 162.16 165.059 163.645 164.746 165.207C164.434 166.77 163.945 168.215 163.281 169.543C162.617 170.871 161.758 171.984 160.703 172.883C159.648 173.742 158.359 174.172 156.836 174.172C155.625 174.172 154.473 173.742 153.379 172.883C152.324 171.984 151.504 170.871 150.918 169.543C150.84 170.91 150.664 172.297 150.391 173.703C150.117 175.148 149.98 176.867 149.98 178.859C149.98 179.445 150 180.109 150.039 180.852C150.078 181.594 150.137 182.336 150.215 183.078C150.293 183.82 150.41 184.504 150.566 185.129C150.723 185.754 150.898 186.242 151.094 186.594C150.43 186.984 149.824 187.277 149.277 187.473C148.77 187.668 148.32 187.805 147.93 187.883C147.5 188 147.09 188.059 146.699 188.059C146.191 188.059 145.859 187.844 145.703 187.414C145.547 186.984 145.469 186.223 145.469 185.129C145.469 184.426 145.488 183.41 145.527 182.082C145.605 180.793 145.684 179.309 145.762 177.629C145.879 175.949 145.977 174.191 146.055 172.355C146.172 170.48 146.27 168.645 146.348 166.848C146.465 165.051 146.543 163.391 146.582 161.867C146.66 160.305 146.699 158.996 146.699 157.941C146.699 156.652 146.68 155.656 146.641 154.953C146.602 154.211 146.543 153.664 146.465 153.312C146.426 152.922 146.367 152.648 146.289 152.492C146.211 152.336 146.113 152.16 145.996 151.965C146.348 151.691 146.758 151.457 147.227 151.262C147.734 151.027 148.223 150.871 148.691 150.793C149.199 150.676 149.648 150.637 150.039 150.676C150.469 150.715 150.801 150.812 151.035 150.969C151.23 151.164 151.367 151.457 151.445 151.848C151.562 152.238 151.66 152.824 151.738 153.605C152.48 152.59 153.32 151.711 154.258 150.969C155.234 150.188 156.348 149.797 157.598 149.797ZM155.312 170.715C156.016 170.715 156.68 170.383 157.305 169.719C157.969 169.055 158.535 168.215 159.004 167.199C159.512 166.145 159.902 164.992 160.176 163.742C160.488 162.453 160.645 161.184 160.645 159.934C160.645 158.566 160.508 157.453 160.234 156.594C160 155.695 159.688 154.992 159.297 154.484C158.945 153.938 158.555 153.566 158.125 153.371C157.734 153.137 157.383 153.02 157.07 153.02C156.328 153.02 155.625 153.332 154.961 153.957C154.297 154.543 153.711 155.324 153.203 156.301C152.695 157.238 152.285 158.293 151.973 159.465C151.699 160.637 151.562 161.809 151.562 162.98C151.562 164.074 151.66 165.09 151.855 166.027C152.09 166.965 152.383 167.785 152.734 168.488C153.086 169.191 153.477 169.738 153.906 170.129C154.375 170.52 154.844 170.715 155.312 170.715ZM176.465 173.645C173.73 173.645 171.621 172.727 170.137 170.891C168.652 169.055 167.91 166.652 167.91 163.684C167.91 161.613 168.203 159.68 168.789 157.883C169.414 156.047 170.234 154.465 171.25 153.137C172.266 151.809 173.438 150.773 174.766 150.031C176.133 149.25 177.559 148.859 179.043 148.859C180.488 148.859 181.719 149.387 182.734 150.441C183.75 151.457 184.258 152.922 184.258 154.836C184.258 156.086 183.984 157.336 183.438 158.586C182.891 159.797 182.168 160.891 181.27 161.867C180.41 162.805 179.453 163.566 178.398 164.152C177.344 164.738 176.328 165.031 175.352 165.031C174.727 165.031 174.199 164.953 173.77 164.797C173.34 164.641 172.949 164.406 172.598 164.094C172.715 166.32 173.203 167.883 174.062 168.781C174.922 169.641 176.035 170.07 177.402 170.07C178.34 170.07 179.16 169.875 179.863 169.484C180.605 169.094 181.23 168.645 181.738 168.137C182.246 167.629 182.656 167.121 182.969 166.613C183.281 166.066 183.496 165.656 183.613 165.383C183.73 165.148 183.926 165.031 184.199 165.031C184.512 165.031 184.668 165.266 184.668 165.734C184.668 166.164 184.512 166.828 184.199 167.727C183.926 168.586 183.457 169.465 182.793 170.363C182.129 171.223 181.27 171.984 180.215 172.648C179.199 173.312 177.949 173.645 176.465 173.645ZM179.16 151.379C178.926 151.379 178.477 151.633 177.812 152.141C177.188 152.609 176.504 153.312 175.762 154.25C175.059 155.188 174.395 156.32 173.77 157.648C173.184 158.938 172.812 160.402 172.656 162.043C175 161.496 176.855 160.637 178.223 159.465C179.59 158.293 180.273 156.574 180.273 154.309C180.273 153.176 180.137 152.414 179.863 152.023C179.59 151.594 179.355 151.379 179.16 151.379ZM207.109 135.793C207.109 136.223 207.07 137.062 206.992 138.312C206.914 139.562 206.816 141.066 206.699 142.824C206.582 144.582 206.465 146.516 206.348 148.625C206.23 150.734 206.133 152.883 206.055 155.07C205.977 157.258 205.898 159.309 205.82 161.223C205.781 163.098 205.762 164.777 205.762 166.262C205.801 167.746 205.879 168.996 205.996 170.012C206.113 170.988 206.289 171.652 206.523 172.004L203.887 173C203.691 173.078 203.457 173.117 203.184 173.117C202.91 173.117 202.617 173.039 202.305 172.883C202.031 172.727 201.797 172.453 201.602 172.062C201.406 171.672 201.309 171.125 201.309 170.422C201.309 170.148 201.309 169.816 201.309 169.426C201.348 168.996 201.367 168.508 201.367 167.961C200.898 168.742 200.391 169.504 199.844 170.246C199.297 170.988 198.691 171.633 198.027 172.18C197.402 172.727 196.719 173.156 195.977 173.469C195.234 173.82 194.453 173.996 193.633 173.996C192.852 173.996 192.09 173.82 191.348 173.469C190.605 173.156 189.941 172.668 189.355 172.004C188.77 171.34 188.281 170.48 187.891 169.426C187.539 168.371 187.363 167.102 187.363 165.617C187.363 162.922 187.676 160.578 188.301 158.586C188.926 156.555 189.707 154.875 190.645 153.547C191.621 152.18 192.656 151.164 193.75 150.5C194.883 149.797 195.918 149.445 196.855 149.445C198.301 149.445 199.414 149.836 200.195 150.617C200.977 151.359 201.543 152.141 201.895 152.961C201.934 151.828 201.953 150.773 201.953 149.797C201.992 148.781 202.012 147.922 202.012 147.219C202.012 144.328 201.953 141.75 201.836 139.484C201.719 137.219 201.426 135.5 200.957 134.328C201.504 134.016 201.992 133.781 202.422 133.625C202.891 133.469 203.301 133.352 203.652 133.273C204.082 133.156 204.453 133.098 204.766 133.098C205.625 133.098 206.23 133.352 206.582 133.859C206.934 134.328 207.109 134.973 207.109 135.793ZM201.543 162.98C201.621 161.965 201.66 160.91 201.66 159.816C201.699 158.684 201.738 157.551 201.777 156.418C201.504 156.848 201.172 157.219 200.781 157.531C200.43 157.844 200.039 157.922 199.609 157.766C199.766 156.594 199.746 155.695 199.551 155.07C199.395 154.445 199.16 153.977 198.848 153.664C198.496 153.312 198.086 153.117 197.617 153.078C196.914 153.078 196.211 153.469 195.508 154.25C194.844 155.031 194.238 156.008 193.691 157.18C193.184 158.312 192.773 159.543 192.461 160.871C192.148 162.16 191.992 163.352 191.992 164.445C191.992 166.633 192.285 168.156 192.871 169.016C193.496 169.875 194.16 170.305 194.863 170.305C195.449 170.305 196.055 170.07 196.68 169.602C197.344 169.133 197.969 168.527 198.555 167.785C199.18 167.043 199.746 166.262 200.254 165.441C200.801 164.582 201.23 163.762 201.543 162.98ZM81.3086 190.812C80.7617 190.656 80.1953 190.422 79.6094 190.109C79.0625 189.758 78.5547 189.367 78.0859 188.938C77.6562 188.469 77.3242 187.961 77.0898 187.414C76.8555 186.867 76.7969 186.281 76.9141 185.656C77.1484 184.367 77.8906 183.156 79.1406 182.023C80.3906 180.891 82.0703 179.992 84.1797 179.328V179.152C84.2188 178.723 84.4922 178.293 85 177.863C85.5469 177.395 86.2109 177.082 86.9922 176.926C87.7344 176.77 88.2617 176.77 88.5742 176.926C88.9258 177.082 89.1016 177.297 89.1016 177.57C89.1016 177.648 89.082 177.746 89.043 177.863C89.043 177.941 89.043 178.02 89.043 178.098V178.391C90.957 178.234 93.0859 178.293 95.4297 178.566C98.2422 178.918 100.527 179.582 102.285 180.559C104.043 181.535 105.371 182.668 106.27 183.957C107.168 185.207 107.715 186.516 107.91 187.883C108.145 189.25 108.145 190.5 107.91 191.633C107.676 192.961 107.246 194.172 106.621 195.266C105.996 196.32 105.254 197.277 104.395 198.137C103.535 198.957 102.578 199.68 101.523 200.305C100.469 200.93 99.3555 201.457 98.1836 201.887C99.4336 202.16 100.488 202.609 101.348 203.234C102.246 203.82 102.969 204.523 103.516 205.344C104.062 206.164 104.453 207.082 104.688 208.098C104.922 209.113 105 210.148 104.922 211.203C104.844 212.844 104.414 214.387 103.633 215.832C102.891 217.238 101.875 218.469 100.586 219.523C99.2969 220.578 97.7539 221.398 95.957 221.984C94.1992 222.57 92.2461 222.824 90.0977 222.746H89.3945C88.8086 223.254 88.1641 223.625 87.4609 223.859C86.7969 224.133 86.1523 224.328 85.5273 224.445C84.8242 224.602 84.1211 224.66 83.418 224.621C83.418 224.348 83.418 224.055 83.418 223.742C83.457 223.469 83.4766 223.195 83.4766 222.922C83.4766 222.609 83.4961 222.297 83.5352 221.984C83.0664 221.906 82.6172 221.789 82.1875 221.633C81.7969 221.516 81.3867 221.379 80.957 221.223C80.5664 221.105 80.2148 220.969 79.9023 220.812C79.7461 220.578 79.6289 220.285 79.5508 219.934C79.4727 219.621 79.4141 219.27 79.375 218.879C79.375 218.527 79.4531 218.117 79.6094 217.648C80.8203 218.117 82.207 218.469 83.7695 218.703C83.8477 216.711 83.9062 214.348 83.9453 211.613C84.0234 208.879 84.0625 206.008 84.0625 203C84.0625 199.602 84.0625 196.262 84.0625 192.98C84.1016 189.699 84.1211 186.887 84.1211 184.543C82.9883 185.129 82.1094 185.93 81.4844 186.945C80.8594 187.961 80.8008 189.25 81.3086 190.812ZM99.3555 211.496C99.5117 209.777 99.2578 208.41 98.5938 207.395C97.9297 206.34 97.0508 205.559 95.957 205.051C94.9023 204.504 93.7305 204.172 92.4414 204.055C91.1914 203.938 90.0586 203.918 89.043 203.996C89.1211 207.238 89.1797 210.188 89.2188 212.844C89.2578 215.461 89.2969 217.609 89.3359 219.289C90.5469 219.328 91.7188 219.191 92.8516 218.879C93.9844 218.566 95 218.078 95.8984 217.414C96.8359 216.75 97.6172 215.93 98.2422 214.953C98.8672 213.938 99.2383 212.785 99.3555 211.496ZM88.9258 183.195C88.8477 185.188 88.8086 187.551 88.8086 190.285C88.8086 193.02 88.8477 196.066 88.9258 199.426C88.9258 199.738 88.9258 200.051 88.9258 200.363C88.9258 200.637 88.9453 200.93 88.9844 201.242C90.3906 201.125 91.8555 200.793 93.3789 200.246C94.9023 199.66 96.2891 198.898 97.5391 197.961C98.8281 197.023 99.8828 195.93 100.703 194.68C101.523 193.391 101.934 191.984 101.934 190.461C101.934 189.289 101.621 188.254 100.996 187.355C100.371 186.418 99.5312 185.637 98.4766 185.012C97.4609 184.387 96.2695 183.918 94.9023 183.605C93.5742 183.293 92.1875 183.137 90.7422 183.137C90.4297 183.137 90.1172 183.137 89.8047 183.137C89.5312 183.137 89.2383 183.156 88.9258 183.195ZM125.547 207.922C125.469 209.445 125.195 210.852 124.727 212.141C124.297 213.43 123.691 214.562 122.91 215.539C122.129 216.477 121.191 217.219 120.098 217.766C119.043 218.312 117.871 218.605 116.582 218.645C115.449 218.684 114.375 218.41 113.359 217.824C112.383 217.238 111.523 216.418 110.781 215.363C110.039 214.309 109.473 213.059 109.082 211.613C108.73 210.129 108.633 208.527 108.789 206.809C108.906 204.816 109.277 203.117 109.902 201.711C110.527 200.266 111.191 199.074 111.895 198.137C112.598 197.199 113.242 196.516 113.828 196.086C114.453 195.617 114.844 195.344 115 195.266C115.273 195.148 115.527 195.129 115.762 195.207C115.996 195.246 116.25 195.305 116.523 195.383C116.602 195.422 116.68 195.52 116.758 195.676C116.914 195.949 117.012 196.457 117.051 197.199C117.246 196.77 117.5 196.418 117.812 196.145C118.125 195.871 118.438 195.676 118.75 195.559C119.141 195.402 119.531 195.305 119.922 195.266C120.195 195.227 120.664 195.441 121.328 195.91C122.031 196.379 122.695 197.121 123.32 198.137C123.984 199.152 124.551 200.48 125.02 202.121C125.488 203.723 125.664 205.656 125.547 207.922ZM121.562 207.219C121.602 206.281 121.562 205.344 121.445 204.406C121.367 203.43 121.211 202.551 120.977 201.77C120.781 200.949 120.527 200.305 120.215 199.836C119.902 199.328 119.59 199.074 119.277 199.074C118.926 199.152 118.535 199.328 118.105 199.602C117.754 199.836 117.363 200.207 116.934 200.715C116.504 201.223 116.094 201.945 115.703 202.883C115.664 202.766 115.625 202.551 115.586 202.238C115.547 201.965 115.508 201.613 115.469 201.184C115.469 200.715 115.508 200.09 115.586 199.309C115.039 199.973 114.609 200.754 114.297 201.652C114.023 202.551 113.809 203.41 113.652 204.23C113.496 205.207 113.379 206.184 113.301 207.16C113.262 208.215 113.301 209.25 113.418 210.266C113.574 211.281 113.809 212.18 114.121 212.961C114.473 213.742 114.883 214.367 115.352 214.836C115.82 215.305 116.387 215.52 117.051 215.48C117.715 215.441 118.301 215.168 118.809 214.66C119.316 214.152 119.766 213.508 120.156 212.727C120.547 211.945 120.859 211.066 121.094 210.09C121.328 209.113 121.484 208.156 121.562 207.219ZM130.762 219.582C130.254 219.191 129.844 218.84 129.531 218.527C129.219 218.215 128.965 217.941 128.77 217.707C128.535 217.434 128.359 217.18 128.242 216.945C127.93 216.398 127.832 215.812 127.949 215.188C128.066 214.562 128.301 213.859 128.652 213.078C128.965 212.414 129.473 211.477 130.176 210.266C130.918 209.055 131.777 207.727 132.754 206.281C132.207 205.383 131.641 204.426 131.055 203.41C130.508 202.512 129.902 201.477 129.238 200.305C128.613 199.094 127.91 197.805 127.129 196.438C127.637 196.086 128.105 195.852 128.535 195.734C129.004 195.578 129.414 195.5 129.766 195.5C130.195 195.5 130.566 195.539 130.879 195.617C131.582 195.93 132.207 196.711 132.754 197.961C133.34 199.172 134.141 200.793 135.156 202.824C135.664 202.121 136.23 201.359 136.855 200.539C137.402 199.836 138.008 199.016 138.672 198.078C139.375 197.102 140.156 196.047 141.016 194.914C141.25 194.992 141.465 195.051 141.66 195.09C141.895 195.129 142.109 195.188 142.305 195.266C142.5 195.344 142.695 195.422 142.891 195.5C143.047 195.578 143.203 195.695 143.359 195.852C143.594 196.086 143.867 196.457 144.18 196.965C143.164 198.332 142.246 199.602 141.426 200.773C140.605 201.945 139.883 202.961 139.258 203.82C138.555 204.836 137.91 205.754 137.324 206.574C137.324 206.574 137.285 206.652 137.207 206.809C137.246 206.848 137.266 206.887 137.266 206.926C137.266 206.926 137.285 206.945 137.324 206.984C137.871 207.883 138.496 208.898 139.199 210.031C139.824 211.008 140.586 212.18 141.484 213.547C142.383 214.914 143.418 216.477 144.59 218.234C143.965 218.469 143.438 218.625 143.008 218.703C142.773 218.742 142.559 218.762 142.363 218.762C142.168 218.801 141.953 218.801 141.719 218.762C141.523 218.723 141.27 218.664 140.957 218.586C140.684 218.547 140.391 218.469 140.078 218.352C139.453 217.375 138.848 216.418 138.262 215.48C137.676 214.504 137.148 213.625 136.68 212.844C136.133 211.945 135.625 211.086 135.156 210.266C134.57 211.281 134.004 212.316 133.457 213.371C132.988 214.27 132.5 215.285 131.992 216.418C131.484 217.512 131.074 218.566 130.762 219.582ZM153.73 218.645C150.996 218.645 148.887 217.727 147.402 215.891C145.918 214.055 145.176 211.652 145.176 208.684C145.176 206.613 145.469 204.68 146.055 202.883C146.68 201.047 147.5 199.465 148.516 198.137C149.531 196.809 150.703 195.773 152.031 195.031C153.398 194.25 154.824 193.859 156.309 193.859C157.754 193.859 158.984 194.387 160 195.441C161.016 196.457 161.523 197.922 161.523 199.836C161.523 201.086 161.25 202.336 160.703 203.586C160.156 204.797 159.434 205.891 158.535 206.867C157.676 207.805 156.719 208.566 155.664 209.152C154.609 209.738 153.594 210.031 152.617 210.031C151.992 210.031 151.465 209.953 151.035 209.797C150.605 209.641 150.215 209.406 149.863 209.094C149.98 211.32 150.469 212.883 151.328 213.781C152.188 214.641 153.301 215.07 154.668 215.07C155.605 215.07 156.426 214.875 157.129 214.484C157.871 214.094 158.496 213.645 159.004 213.137C159.512 212.629 159.922 212.121 160.234 211.613C160.547 211.066 160.762 210.656 160.879 210.383C160.996 210.148 161.191 210.031 161.465 210.031C161.777 210.031 161.934 210.266 161.934 210.734C161.934 211.164 161.777 211.828 161.465 212.727C161.191 213.586 160.723 214.465 160.059 215.363C159.395 216.223 158.535 216.984 157.48 217.648C156.465 218.312 155.215 218.645 153.73 218.645ZM156.426 196.379C156.191 196.379 155.742 196.633 155.078 197.141C154.453 197.609 153.77 198.312 153.027 199.25C152.324 200.188 151.66 201.32 151.035 202.648C150.449 203.938 150.078 205.402 149.922 207.043C152.266 206.496 154.121 205.637 155.488 204.465C156.855 203.293 157.539 201.574 157.539 199.309C157.539 198.176 157.402 197.414 157.129 197.023C156.855 196.594 156.621 196.379 156.426 196.379ZM174.59 206.867C175.449 207.18 176.27 207.473 177.051 207.746C177.832 208.02 178.516 208.352 179.102 208.742C179.688 209.133 180.156 209.602 180.508 210.148C180.859 210.656 181.035 211.301 181.035 212.082C181.035 213.02 180.82 213.898 180.391 214.719C180 215.539 179.414 216.262 178.633 216.887C177.852 217.512 176.895 218 175.762 218.352C174.668 218.742 173.438 218.938 172.07 218.938C170.547 218.938 169.316 218.781 168.379 218.469C167.441 218.195 166.719 217.863 166.211 217.473C165.703 217.082 165.371 216.691 165.215 216.301C165.059 215.91 164.98 215.598 164.98 215.363C164.98 214.895 165.078 214.387 165.273 213.84C165.469 213.254 165.84 212.629 166.387 211.965C166.621 211.691 166.875 211.438 167.148 211.203C167.695 210.734 168.242 210.441 168.789 210.324C168.711 211.223 168.809 211.965 169.082 212.551C169.395 213.098 169.785 213.527 170.254 213.84C170.762 214.152 171.309 214.367 171.895 214.484C172.52 214.602 173.105 214.66 173.652 214.66C174.199 214.66 174.746 214.582 175.293 214.426C175.879 214.27 176.406 214.074 176.875 213.84C177.344 213.566 177.715 213.273 177.988 212.961C178.301 212.609 178.457 212.238 178.457 211.848C178.457 211.418 178.281 211.066 177.93 210.793C177.578 210.52 177.129 210.305 176.582 210.148C176.074 209.953 175.508 209.816 174.883 209.738C174.297 209.621 173.73 209.504 173.184 209.387C172.637 209.27 171.895 209.113 170.957 208.918C170.059 208.684 169.16 208.332 168.262 207.863C167.402 207.395 166.641 206.77 165.977 205.988C165.352 205.207 165.039 204.172 165.039 202.883C165.039 201.398 165.41 200.109 166.152 199.016C166.934 197.883 167.871 196.945 168.965 196.203C170.098 195.422 171.289 194.836 172.539 194.445C173.789 194.055 174.902 193.859 175.879 193.859C176.387 193.859 176.934 193.938 177.52 194.094C178.105 194.211 178.652 194.445 179.16 194.797C179.668 195.109 180.078 195.539 180.391 196.086C180.742 196.633 180.918 197.336 180.918 198.195C180.918 199.055 180.84 199.758 180.684 200.305C180.566 200.812 180.371 201.223 180.098 201.535C179.863 201.809 179.57 201.984 179.219 202.062C178.867 202.141 178.457 202.18 177.988 202.18C177.676 202.18 177.383 202.141 177.109 202.062C176.875 201.984 176.621 201.906 176.348 201.828C176.074 201.75 175.82 201.613 175.586 201.418C175.977 200.949 176.27 200.5 176.465 200.07C176.699 199.641 176.816 199.113 176.816 198.488C176.816 197.941 176.66 197.453 176.348 197.023C176.074 196.594 175.605 196.379 174.941 196.379C174.238 196.379 173.555 196.516 172.891 196.789C172.266 197.062 171.699 197.434 171.191 197.902C170.723 198.371 170.332 198.918 170.02 199.543C169.746 200.129 169.609 200.773 169.609 201.477C169.609 202.531 170 203.527 170.781 204.465C171.602 205.402 172.871 206.203 174.59 206.867Z" fill="#FF8888"/>
</svg>
